<svg version="1.1" id="Layer_1" xmlns="http://www.w3.org/2000/svg" xmlns:xlink="http://www.w3.org/1999/xlink" x="0px" y="0px"
	 width="100%" viewBox="0 0 288 144" enable-background="new 0 0 288 144" xml:space="preserve">
<path fill="#000000" opacity="1.000000" stroke="none" 
	d="
M75.000000,145.000000 
	C50.348480,145.000000 25.696960,145.000000 1.022720,145.000000 
	C1.022720,97.044632 1.022720,49.089245 1.022720,1.066931 
	C96.896393,1.066931 192.792847,1.066931 288.844666,1.066931 
	C288.844666,48.999649 288.844666,96.999748 288.844666,145.000000 
	C268.245392,145.000000 247.591354,145.000000 226.712311,144.733368 
	C235.039993,140.850845 243.581360,137.207825 252.149521,133.628998 
	C257.526764,131.382965 257.926666,130.659531 255.337845,125.588913 
	C247.252029,109.751564 239.160110,93.916222 230.882278,78.179131 
	C229.508530,75.567459 228.456787,72.459274 225.659485,70.827744 
	C222.359894,73.863899 222.380371,78.373230 219.786652,81.424225 
	C216.149338,79.698784 215.243973,76.528267 214.611206,73.044220 
	C213.767242,68.397514 210.644714,65.480637 206.095154,65.549805 
	C198.748062,65.661484 191.334320,65.856964 183.615189,67.912796 
	C183.615189,63.650627 183.681366,59.515491 183.600494,55.383232 
	C183.461243,48.268593 181.650375,46.436840 174.689636,46.414085 
	C162.366562,46.373795 150.025024,46.804554 137.726715,46.250526 
	C130.006653,45.902744 127.632568,49.773422 127.364510,56.813606 
	C127.229355,60.363342 127.864006,63.993908 126.764206,67.680817 
	C125.379868,67.464493 124.185249,67.621780 123.459877,67.111725 
	C115.447479,61.477695 108.061081,61.490005 100.003136,67.749367 
	C96.646065,70.357109 94.309509,72.327957 94.365936,76.673347 
	C94.474045,84.998314 94.411720,93.326027 94.354492,101.652138 
	C94.344139,103.157707 94.868256,104.895096 93.156822,106.431061 
	C86.504135,94.805573 83.582855,81.711922 76.353462,70.732552 
	C73.873245,72.076813 73.334694,73.751625 72.587036,75.175270 
	C64.237045,91.074883 55.927074,106.995674 47.658863,122.938011 
	C43.385826,131.177063 43.494053,131.056870 52.379768,134.787430 
	C60.005138,137.988846 67.915939,140.589828 75.000000,145.000000 
z"/>
<path fill="#000000" opacity="1.000000" stroke="none" 
	d="
M86.468658,145.000000 
	C94.161148,141.494904 102.093933,137.351059 111.395920,137.580444 
	C119.372627,137.777145 127.358940,137.549774 135.339432,137.643829 
	C138.770645,137.684265 140.790710,136.561050 140.618271,132.797241 
	C140.138489,122.326721 141.402802,111.909698 141.611633,101.460663 
	C141.763992,93.837372 147.533463,87.788269 154.946091,87.628876 
	C162.500732,87.466423 169.124298,93.598251 169.332138,101.176392 
	C169.491623,106.992081 169.147858,112.826714 169.440048,118.632179 
	C169.736694,124.526146 166.864349,131.775787 170.888641,135.971115 
	C174.979218,140.235535 182.278580,137.189957 188.152206,137.551071 
	C193.099030,137.855179 198.058594,137.558350 202.780670,139.574249 
	C206.733047,141.261551 210.781464,142.723877 214.893677,144.642914 
	C172.312439,145.000000 129.624878,145.000000 86.468658,145.000000 
z"/>
</svg>