<svg version="1.1" id="Layer_1" xmlns="http://www.w3.org/2000/svg" xmlns:xlink="http://www.w3.org/1999/xlink" x="0px" y="0px"
	 width="100%" viewBox="0 0 300 150" enable-background="new 0 0 300 150" xml:space="preserve">


<path fill="#FFFFFF" opacity="1.000000" stroke="none" 
	d="
M209.973328,65.424973 
	C212.776962,68.267937 215.521500,70.420181 215.548447,74.734711 
	C215.561386,76.805328 217.838181,78.861816 219.491150,81.586372 
	C221.733795,76.391502 223.484528,72.336098 225.583221,68.183350 
	C236.194199,87.833183 246.373627,107.624603 256.788757,127.291191 
	C258.944061,131.360992 257.334076,132.671738 253.790405,134.029160 
	C246.648697,136.764847 239.622955,139.806427 232.575043,142.782593 
	C229.029816,144.279633 225.579193,146.008026 221.998016,147.407089 
	C221.157440,147.735489 219.912338,147.299179 218.936661,146.968704 
	C210.250458,144.026627 201.767258,140.091476 192.852707,138.339783 
	C185.484665,136.891953 177.613419,138.005020 169.328217,137.577454 
	C168.794174,134.345657 168.972244,131.520172 168.985794,128.693893 
	C169.025574,120.394104 169.181824,112.088760 168.942062,103.795723 
	C168.752686,97.245453 165.986267,92.292816 159.430908,89.677353 
	C150.675812,86.184219 142.144287,91.779816 141.971024,101.303711 
	C141.839417,108.538567 141.444443,115.768631 141.166656,123.000832 
	C141.166656,127.794014 141.166656,132.587204 141.166656,138.000000 
	C133.982651,138.000000 127.171165,138.580658 120.494843,137.877670 
	C107.088318,136.466034 95.328148,141.689102 83.244057,145.905228 
	C81.859154,146.388443 80.015503,146.735336 78.759132,146.224396 
	C67.384521,141.598511 56.093346,136.767426 44.323158,131.681763 
	C43.616798,130.925888 43.365013,130.484726 43.427757,129.878510 
	C45.533207,125.489609 47.324135,121.265778 49.429054,116.877335 
	C52.842869,110.179939 55.942699,103.647163 59.346336,96.982239 
	C60.138454,95.914032 60.626762,94.977989 61.429062,93.877319 
	C65.509544,85.846603 69.276039,77.980499 73.361801,69.968880 
	C74.544891,69.170448 75.408707,68.517525 76.540939,67.661713 
	C81.773849,79.695198 86.832825,91.328705 91.891792,102.962212 
	C92.196587,102.852478 92.501373,102.742744 92.806160,102.633011 
	C93.148552,100.421883 93.490944,98.210754 93.905106,95.535873 
	C93.984581,91.280365 94.118607,87.483566 93.967400,83.698166 
	C93.786331,79.165161 93.361687,74.641884 93.377594,69.957962 
	C96.364555,68.721252 99.505379,68.215492 101.576569,66.452858 
	C107.760201,61.190414 111.603813,60.431393 118.359871,64.075768 
	C120.585709,65.276443 122.914314,66.286621 125.640839,67.597870 
	C125.849518,65.592445 125.982216,64.317261 126.467957,62.810959 
	C126.561516,58.758022 126.302025,54.936207 126.348862,50.980034 
	C127.047905,49.897152 127.440620,48.948624 127.908005,47.783955 
	C127.982674,47.567818 128.042526,47.114407 128.347794,46.982777 
	C129.141159,45.887459 129.629257,44.923771 130.061111,43.600487 
	C125.947678,36.493984 121.890511,29.747078 117.905045,22.644653 
	C117.998703,21.564201 118.020645,20.839270 118.347351,20.065567 
	C119.063271,20.025373 119.474434,20.033953 120.010132,20.338827 
	C121.142311,21.914597 122.149979,23.194071 123.199448,24.614239 
	C123.241249,24.754932 123.521965,24.840790 123.685219,25.083797 
	C124.618088,26.375397 125.387695,27.423990 126.199295,28.613697 
	C126.241280,28.754808 126.522804,28.841091 126.700500,29.109768 
	C128.304474,31.409548 129.730743,33.440651 131.173523,35.467537 
	C131.190033,35.463322 131.163879,35.491417 131.163879,35.491417 
	C132.834793,38.466270 136.217712,41.193111 131.302750,45.524120 
	C134.195587,45.741882 135.909729,45.978588 137.624420,45.982822 
	C150.423279,46.014416 163.222229,45.999451 176.021164,46.000217 
	C183.068390,46.000641 183.683426,46.538887 183.972458,53.829704 
	C184.123383,57.637218 183.999069,61.455643 183.999069,65.163139 
	C192.662903,65.163139 201.144882,65.163139 209.973328,65.424973 
z"/>
<path fill="#FFFFFF" opacity="1.000000" stroke="none" 
	d="
M160.410507,33.940063 
	C159.786819,32.675793 159.039810,31.315990 159.358276,30.285454 
	C161.787933,22.423296 164.425446,14.625374 167.056152,6.425168 
	C169.326675,5.816544 170.259521,6.126174 169.649933,8.942235 
	C168.154449,15.850821 167.318924,22.900190 165.921906,29.833282 
	C165.427261,32.288120 165.514221,36.379372 160.410507,33.940063 
z"/>
<path fill="#FFFFFF" opacity="1.000000" stroke="none" 
	d="
M147.405518,35.094006 
	C147.036346,30.935936 146.938889,26.698608 147.145477,22.476156 
	C147.401276,17.248238 147.909225,12.032657 148.177795,6.460378 
	C149.030045,7.079795 150.784775,7.987092 150.870682,9.031626 
	C151.445618,16.023149 151.548401,23.052286 152.051056,30.051500 
	C152.288452,33.357140 151.033310,34.905125 147.405518,35.094006 
z"/>
<path fill="#FFFFFF" opacity="1.000000" stroke="none" 
	d="
M135.999084,35.338120 
	C133.458542,28.070183 131.058167,21.147947 128.746262,14.196290 
	C128.500183,13.456356 128.771667,12.544291 128.956573,11.379213 
	C131.271408,14.738071 133.577103,18.354517 135.552048,22.143375 
	C137.405289,25.698748 139.048752,29.382412 140.491882,33.122536 
	C141.012115,34.470779 140.681519,36.147327 140.739197,37.674057 
	C139.214417,37.007812 137.689621,36.341568 135.999084,35.338120 
z"/>
<path fill="#FFFFFF" opacity="1.000000" stroke="none" 
	d="
M172.337097,29.025261 
	C174.294632,25.182402 176.141968,21.512928 178.016266,17.478525 
	C179.057007,16.372797 180.070755,15.632000 181.084518,14.891202 
	C181.434036,15.050168 181.783554,15.209135 182.133072,15.368101 
	C181.429611,17.654081 180.937683,20.033188 179.980545,22.207500 
	C177.676666,27.441114 175.154892,32.578815 172.380020,37.818405 
	C171.576859,37.304348 171.114670,36.727093 170.385941,36.055847 
	C170.821899,33.707455 171.524399,31.453049 172.337097,29.025261 
z"/>
<path fill="#FFFFFF" opacity="1.000000" stroke="none" 
	d="
M187.139313,28.380850 
	C188.056442,26.959085 189.029480,25.846828 190.041473,24.404423 
	C191.703583,22.914949 193.326706,21.755627 194.949844,20.596302 
	C195.322510,20.943020 195.695175,21.289738 196.067841,21.636456 
	C191.468155,28.500473 186.920563,35.400902 182.188171,42.172165 
	C181.715347,42.848671 180.119232,42.740086 179.044449,42.995872 
	C178.923401,41.923859 178.294235,40.467705 178.765930,39.843811 
	C181.328613,36.454132 184.175980,33.280563 186.882584,29.997351 
	C187.138580,29.686813 187.098068,29.131842 187.139313,28.380850 
z"/>
</svg>