<?xml version="1.0" encoding="UTF-8"?><svg id="Ebene_1" xmlns="http://www.w3.org/2000/svg" width="1920" height="1080" viewBox="0 0 1920 1080"><defs><style>.cls-1{fill:#f9f7f7;}.cls-2{isolation:isolate;}</style></defs><g class="cls-2"><g class="cls-2"><path class="cls-1" d="M397.74,298.4c3.54,13.63,6.9,27.39,10.08,41.3,3.17,13.91,6.95,30.89,11.34,50.96,4.38,20.07,7.42,33.83,9.1,41.3.93,4.3,2.28,9.94,4.06,16.94,1.77,7,2.84,11.53,3.22,13.58.18.94.28,1.68.28,2.24,0,1.12-.75,1.87-2.24,2.24-2.24.75-5.42,1.12-9.52,1.12-2.43,0-4.02-.09-4.76-.28-.75-.18-1.36-.51-1.82-.98-.47-.46-.8-.84-.98-1.12-.19-.28-.38-.93-.56-1.96-.19-1.02-.28-1.63-.28-1.82-2.06-7.28-3.55-14-4.48-20.16l-.56-3.36-6.72-33.6c-.94-5.41-1.78-8.3-2.52-8.68-.38-.37-1.31-.56-2.8-.56-2.24,0-3.83.1-4.76.28l-4.48.28c-10.08.56-15.96.84-17.64.84-.75,0-1.59-.04-2.52-.14-.94-.09-1.59-.14-1.96-.14-.56.56-.84,1.12-.84,1.68l-.84,6.16-2.8,17.92c-.19,1.68-.89,6.86-2.1,15.54-1.22,8.68-2.01,14.98-2.38,18.9-.38,3.55-.84,6.07-1.4,7.56-.56,1.31-1.96,2.15-4.2,2.52h-5.32c-3.36,0-5.42-.18-6.16-.56-.75-.37-1.12-1.02-1.12-1.96v-1.68c.37-4.66,1.54-12.6,3.5-23.8,1.96-11.2,3.03-17.64,3.22-19.32,7.46-52.82,14.37-94.91,20.72-126.27l.84-4.48c.74-3.92,2.05-10.26,3.92-19.04,1.86-8.77,3.08-14.93,3.64-18.48.37-3.36,1.96-5.41,4.76-6.16h.28c1.49,0,2.61,1.78,3.36,5.32,1.12,5.23,3.36,13.4,6.72,24.5,3.36,11.11,5.6,18.9,6.72,23.38ZM394.94,360.27c-3.74-21.65-8.22-40.32-13.44-55.99-1.5,5.79-4.67,24.45-9.52,55.99,0,.19-.33,2.43-.98,6.72-.66,4.3-.98,7.28-.98,8.96v1.12c0,1.12.37,1.68,1.12,1.68h21.56c2.98-.18,4.85-.65,5.6-1.4v-.28c0-.56-.19-1.72-.56-3.5-.38-1.77-.8-3.73-1.26-5.88-.47-2.14-.8-3.59-.98-4.34l-.56-3.08Z"/><path class="cls-1" d="M456.26,467.78c-5.42,0-8.12-1.02-8.12-3.08,0-.56-.05-1.12-.14-1.68-.1-.56-.14-2.14-.14-4.76-.19-3.17-.28-8.21-.28-15.12,0-3.17.04-8.12.14-14.84.09-6.72.14-11.85.14-15.4,0-7.28-.1-12.69-.28-16.24,0-5.97-.14-23.38-.42-52.21s-.61-50.72-.98-65.65v-.84c0-.74.04-3.68.14-8.82.09-5.13.14-9.1.14-11.9v-5.6l-.28-.28c0-2.05,1.4-3.08,4.2-3.08h1.12c.93,0,2.7.05,5.32.14,2.61.1,4.38.14,5.32.14h1.12c.74,0,1.16.1,1.26.28.09.19.23.94.42,2.24.37,2.24.56,6.44.56,12.6s.04,14.19.14,24.08c.09,9.9.23,18.67.42,26.32,0,3.74.04,9.43.14,17.08.09,7.66.14,13.35.14,17.08,0,9.15-.05,18.71-.14,28.7-.1,9.99-.19,18.25-.28,24.78-.1,6.54-.14,10.36-.14,11.48v.56c0,2.06.04,5.74.14,11.06.09,5.32.14,9.29.14,11.9,0,4.86-.1,8.22-.28,10.08l3.92.28c3.36.19,7.84.47,13.44.84h2.24c1.68,0,2.52,1.03,2.52,3.08,0,3.55.09,6.07.28,7.56,0,.56.04,1.59.14,3.08.09,1.5.14,2.62.14,3.36v1.4c0,1.12-.38,1.68-1.12,1.68h-1.68c-2.62,0-7.75-.04-15.4-.14-7.66-.09-12.32-.14-14-.14Z"/><path class="cls-1" d="M511.69,467.78c-5.42,0-8.12-1.02-8.12-3.08,0-.56-.05-1.12-.14-1.68-.1-.56-.14-2.14-.14-4.76-.19-3.17-.28-8.21-.28-15.12,0-3.17.04-8.12.14-14.84.09-6.72.14-11.85.14-15.4,0-7.28-.1-12.69-.28-16.24,0-5.97-.14-23.38-.42-52.21s-.61-50.72-.98-65.65v-.84c0-.74.04-3.68.14-8.82.09-5.13.14-9.1.14-11.9v-5.6l-.28-.28c0-2.05,1.4-3.08,4.2-3.08h1.12c.93,0,2.7.05,5.32.14,2.61.1,4.38.14,5.32.14h1.12c.74,0,1.16.1,1.26.28.09.19.23.94.42,2.24.37,2.24.56,6.44.56,12.6s.04,14.19.14,24.08c.09,9.9.23,18.67.42,26.32,0,3.74.04,9.43.14,17.08.09,7.66.14,13.35.14,17.08,0,9.15-.05,18.71-.14,28.7-.1,9.99-.19,18.25-.28,24.78-.1,6.54-.14,10.36-.14,11.48v.56c0,2.06.04,5.74.14,11.06.09,5.32.14,9.29.14,11.9,0,4.86-.1,8.22-.28,10.08l3.92.28c3.36.19,7.84.47,13.44.84h2.24c1.68,0,2.52,1.03,2.52,3.08,0,3.55.09,6.07.28,7.56,0,.56.04,1.59.14,3.08.09,1.5.14,2.62.14,3.36v1.4c0,1.12-.38,1.68-1.12,1.68h-1.68c-2.62,0-7.75-.04-15.4-.14-7.66-.09-12.32-.14-14-.14Z"/><path class="cls-1" d="M650,295.04v-23.24c0-7.65.28-14.74.84-21.28,0-1.3,2.42-1.96,7.28-1.96h4.76c2.8,0,4.29,1.03,4.48,3.08.18,1.87.28,6.35.28,13.44,0,3.92-.05,9.71-.14,17.36-.1,7.66-.14,12.88-.14,15.68,0,2.99.04,8.36.14,16.1.09,7.75.14,13.96.14,18.62v14.84c0,2.8.04,6.63.14,11.48.09,4.86.14,8.68.14,11.48s-.05,6.91-.14,12.32c-.1,5.42-.14,9.34-.14,11.76,0,7.47.14,18.39.42,32.76.28,14.38.42,25.29.42,32.76,0,2.8-.1,4.58-.28,5.32,0,2.8-4.48,4.2-13.44,4.2-2.06,0-3.41-.47-4.06-1.4-.66-.93-1.08-2.61-1.26-5.04,0-.56-.05-1.49-.14-2.8-.1-1.3-.14-2.24-.14-2.8,0-.93.04-2.38.14-4.34.09-1.96.14-3.4.14-4.34,0-6.9.04-18.38.14-34.44.09-16.05.14-27.9.14-35.56,0-2.8-.05-6.58-.14-11.34-.1-4.76-.14-8.44-.14-11.06,0-5.22.09-14.84.28-28.84.18-14,.28-24.92.28-32.76Z"/><path class="cls-1" d="M694.79,470.86c-3.55,0-5.79-.38-6.72-1.12-.94-.75-1.4-2.52-1.4-5.32,0-4.85.09-12.04.28-21.56.18-9.52.28-16.7.28-21.56,0-6.34-.05-15.77-.14-28.28-.1-12.5-.14-22.12-.14-28.84,0-3.36.04-8.07.14-14.14.09-6.06.14-10.96.14-14.7,0-6.34-.14-17.03-.42-32.06-.28-15.02-.42-25.99-.42-32.9,0-.37-.05-1.4-.14-3.08-.1-1.68-.14-2.98-.14-3.92,0-12.32,1.02-18.48,3.08-18.48,1.86,0,4.01,1.82,6.44,5.46,2.42,3.64,3.92,6.3,4.48,7.98,4.66,10.08,7.18,15.4,7.56,15.96,5.04,9.52,15.21,34.11,30.52,73.77,15.3,39.66,24.26,62.48,26.88,68.45.18-1.49.28-3.36.28-5.6,0-12.32-.1-34.2-.28-65.65-.19-31.45-.28-54.55-.28-69.29v-24.36c0-3.73.28-5.88.84-6.44.74-.56,2.05-.84,3.92-.84.56,0,1.58.05,3.08.14,1.49.1,2.89.14,4.2.14h3.08c2.42,0,3.96.7,4.62,2.1.65,1.4.98,3.88.98,7.42,0,1.87-.05,4.67-.14,8.4-.1,3.74-.14,6.44-.14,8.12v197.38c0,.93-1.22,1.4-3.64,1.4l-12.88-1.96c-9.9-19.6-29.03-66.35-57.39-140.27-.19-.18-.8-1.49-1.82-3.92-1.03-2.42-2.01-4.76-2.94-7l-1.68-3.64c0,1.87.18,8.64.56,20.3.37,11.67.56,18.25.56,19.74,0,1.12-.05,2.8-.14,5.04-.1,2.24-.14,3.92-.14,5.04v29.4c0,2.62.09,4.58.28,5.88.37,12.88.56,32.76.56,59.63,0,.38.04,1.36.14,2.94.09,1.59.14,2.85.14,3.78,0,2.43-.28,3.92-.84,4.48-1.12,1.3-4.86,1.96-11.2,1.96Z"/><path class="cls-1" d="M819.38,336.2h12.32c3.73-.37,7-.56,9.8-.56l.84.28c2.05,0,3.26.1,3.64.28.37.38.65.98.84,1.82.18.84.28,1.96.28,3.36s.09,2.57.28,3.5c0,.56.04,1.59.14,3.08.09,1.5.14,2.62.14,3.36,0,1.68-.28,2.52-.84,2.52-13.07,0-21.65.38-25.76,1.12-.56,0-.84.84-.84,2.52v3.92c.56,15.12.84,36.86.84,65.23v6.16l.28,6.16v6.72c.18,1.31.28,6.72.28,16.24v1.4c0,3.18-.84,4.76-2.52,4.76h-7.28c-1.5,0-2.9.09-4.2.28h-2.52c-.56,0-1.03-.05-1.4-.14-.38-.1-.66-.18-.84-.28-.19-.09-.33-.37-.42-.84-.1-.46-.19-.79-.28-.98-.1-.18-.14-.7-.14-1.54v-1.82c0-5.6-.1-13.02-.28-22.26-.19-9.24-.38-17.31-.56-24.22v-66.35c.18-22.4.28-54.6.28-96.59,0-2.98.93-4.48,2.8-4.48,2.98,0,7.88.1,14.7.28,6.81.19,11.9.28,15.26.28,4.66,0,7.93-.09,9.8-.28.93,0,2.19-.04,3.78-.14,1.58-.09,2.75-.14,3.5-.14,1.86,0,3.17.38,3.92,1.12.56.56.84,1.4.84,2.52v3.08c0,.56.04,1.68.14,3.36.09,1.68.14,2.8.14,3.36,0,2.06-.38,3.46-1.12,4.2-.56.75-1.4,1.12-2.52,1.12-.19,0-.66-.04-1.4-.14-.75-.09-1.4-.14-1.96-.14h-3.08c-2.43,0-5.74.1-9.94.28-4.2.19-7.14.28-8.82.28-.56,0-1.5-.04-2.8-.14-1.31-.09-2.24-.14-2.8-.14l-2.24-.28v52.92l-.28,15.96Z"/><path class="cls-1" d="M858.86,377.63c-.75-12.69-1.22-23.33-1.4-31.92v-3.64c0-36.77,6.25-63.74,18.76-80.91,8.58-11.57,19.6-17.64,33.04-18.2.37,0,1.02-.04,1.96-.14.93-.09,1.58-.14,1.96-.14,18.1,0,30.98,7.38,38.64,22.12,5.97,11.58,9.52,33.23,10.64,64.95.37,12.32.56,22.77.56,31.36,0,24.83-1.31,43.86-3.92,57.11-5.79,31.92-19.23,50.4-40.32,55.44-3.74.93-6.91,1.4-9.52,1.4-19.79,0-34.25-16.52-43.4-49.56-2.43-8.96-4.76-24.92-7-47.88ZM913.17,259.76c-9.15.38-16.66,4.3-22.54,11.76-5.88,7.47-9.76,16.24-11.62,26.32-2.99,15.31-4.48,30.89-4.48,46.76v5.6c1.12,29.87,4.38,54.13,9.8,72.79,2.42,8.22,5.88,15.49,10.36,21.84,4.48,6.35,8.96,9.52,13.44,9.52h.28c9.14-.18,15.96-2.84,20.44-7.98,4.48-5.13,8.12-11.99,10.92-20.58,4.1-12.13,6.16-31.45,6.16-57.95v-10.64c-.19-1.49-.28-4.1-.28-7.84v-9.52c0-6.9-.1-11.57-.28-14-1.12-20.16-3.18-34.9-6.16-44.24-2.06-5.6-5.32-10.64-9.8-15.12-4.48-4.48-9.71-6.72-15.68-6.72h-.56Z"/><path class="cls-1" d="M978.97,251.36c.18-.18.28-.56.28-1.12,0-.37-.05-.74-.14-1.12-.1-.37-.14-.74-.14-1.12,0-1.3.18-2.14.56-2.52s.74-.56,1.12-.56c.18,0,.51.05.98.14.46.1.88.14,1.26.14h1.68c12.13,0,22.68,2.15,31.64,6.44,7.84,3.55,13.44,8.22,16.8,14,3.17,5.04,4.76,12.32,4.76,21.84v1.68c0,10.08-4.3,20.16-12.88,30.24-2.24,2.62-4.95,5.23-8.12,7.84-3.18,2.62-5.65,4.62-7.42,6.02-1.78,1.4-2.66,2.38-2.66,2.94,1.12,4.86,2.98,10.92,5.6,18.2,2.61,7.28,5.46,15.03,8.54,23.24,3.08,8.22,5.08,13.81,6.02,16.8,12.13,34.16,19.69,54.78,22.68,61.87,2.42,5.42,3.64,8.78,3.64,10.08,0,.75-.47,1.12-1.4,1.12h-1.12c-2.62-.37-4.76-.56-6.44-.56-1.12,0-2.71.05-4.76.14-2.06.1-3.55.14-4.48.14h-.56c-1.12,0-4.2-7.37-9.24-22.12-5.04-14.74-8.21-24.64-9.52-29.68-2.62-9.7-6.54-22.49-11.76-38.36-5.04-16.05-7.75-24.08-8.12-24.08s-.56,3.36-.56,10.08v5.32c0,3.92.04,8.5.14,13.72.09,5.23.18,10.5.28,15.82.09,5.32.18,10.73.28,16.24.09,5.51.18,10.69.28,15.54.09,4.86.18,9.15.28,12.88.09,3.74.14,6.72.14,8.96l.28,3.36v.56c0,1.5-.05,3.5-.14,6.02-.1,2.52-.14,4.16-.14,4.9,0,1.12-.1,1.77-.28,1.96-.56.74-1.59,1.12-3.08,1.12-.38,0-1.03-.05-1.96-.14-.94-.1-1.68-.14-2.24-.14s-1.5.04-2.8.14c-1.31.09-2.24.14-2.8.14-1.87,0-3.18-.38-3.92-1.12-.19-1.3-.33-4.57-.42-9.8-.1-5.22-.19-10.87-.28-16.94-.1-6.06-.14-9.94-.14-11.62.18-3.73.28-8.49.28-14.28,0-1.68-.05-5.41-.14-11.2-.1-5.78-.14-11.29-.14-16.52-.19-1.49-.28-3.73-.28-6.72,0-5.6.14-14.42.42-26.46.28-12.04.42-20.86.42-26.46s-.1-10.08-.28-12.88c-.19-6.53-.28-14.84-.28-24.92v-16.8c.18-4.48.28-11.94.28-22.4ZM1017.6,302.32c2.05-5.22,3.08-9.98,3.08-14.28,0-5.78-1.03-10.31-3.08-13.58-2.06-3.26-5.42-6.2-10.08-8.82-4.86-2.61-8.68-3.92-11.48-3.92h-.84l-.28.56v1.12c0,.94.04,2.8.14,5.6.09,2.8.14,4.86.14,6.16,0,.38-.05,1.64-.14,3.78-.1,2.15-.14,4.86-.14,8.12v9.66c0,4.11-.1,8.5-.28,13.16-.19,4.67-.28,7.19-.28,7.56l.28,1.96c4.48-.18,9-2.24,13.58-6.16,4.57-3.92,7.7-7.56,9.38-10.92Z"/><path class="cls-1" d="M1152.83,246.04c1.12,0,1.68,1.31,1.68,3.92v105.27c0,34.72.18,61.31.56,79.79.37,5.6.56,15.5.56,29.68v.56c0,2.24-.38,3.36-1.12,3.36-1.12,0-3.36-.14-6.72-.42-3.36-.28-5.42-.42-6.16-.42h-1.4c-1.31,0-1.96-1.21-1.96-3.64-.94-20.16-1.4-47.78-1.4-82.87v-72.23c0-.18.04-1.86.14-5.04.09-3.17.14-5.78.14-7.84,0-8.58-.47-12.88-1.4-12.88s-3.18,1.5-6.72,4.48l-10.92,11.2c-2.24,2.24-4.2,3.92-5.88,5.04-1.87,1.5-3.18,2.24-3.92,2.24-.56,0-1.26-.23-2.1-.7-.84-.46-1.78-1.07-2.8-1.82-1.03-.74-1.64-1.21-1.82-1.4-5.98-3.54-13.07-8.77-21.28-15.68-.56-.56-1.03-.84-1.4-.84-.75,0-1.12,1.31-1.12,3.92v.84c0,5.79.04,15.59.14,29.4.09,13.82.14,24.36.14,31.64,0,13.63-.1,23.52-.28,29.68-.56,16.05-.84,39.94-.84,71.67,0,1.31.04,3.36.14,6.16.09,2.8.14,4.76.14,5.88,0,2.43-1.31,3.64-3.92,3.64h-1.68c-.75,0-2.2.04-4.34.14-2.15.09-3.5.14-4.06.14-1.68,0-2.71-.33-3.08-.98-.38-.65-.66-2.28-.84-4.9v-8.12c0-3.54.09-8.82.28-15.82.18-7,.28-12.27.28-15.82,0-8.58.18-27.2.56-55.85.37-28.65.56-50.72.56-66.21v-47.88c0-3.92.56-6.06,1.68-6.44.74,0,2.56,1.17,5.46,3.5,2.89,2.34,5.88,4.9,8.96,7.7,3.08,2.8,4.8,4.39,5.18,4.76.18.19,2.94,2.8,8.26,7.84,5.32,5.04,9.19,8.4,11.62,10.08,3.36,2.24,5.13,3.36,5.32,3.36.93,0,2.61-1.49,5.04-4.48.93-.93,2.7-2.52,5.32-4.76,2.61-2.24,4.48-3.92,5.6-5.04,2.05-2.05,7.09-6.53,15.12-13.44,8.02-6.9,12.78-10.36,14.28-10.36Z"/><path class="cls-1" d="M1224.78,298.4c3.54,13.63,6.9,27.39,10.08,41.3,3.17,13.91,6.95,30.89,11.34,50.96,4.38,20.07,7.42,33.83,9.1,41.3.93,4.3,2.28,9.94,4.06,16.94,1.77,7,2.84,11.53,3.22,13.58.18.94.28,1.68.28,2.24,0,1.12-.75,1.87-2.24,2.24-2.24.75-5.42,1.12-9.52,1.12-2.43,0-4.02-.09-4.76-.28-.75-.18-1.36-.51-1.82-.98-.47-.46-.8-.84-.98-1.12-.19-.28-.38-.93-.56-1.96-.19-1.02-.28-1.63-.28-1.82-2.06-7.28-3.55-14-4.48-20.16l-.56-3.36-6.72-33.6c-.94-5.41-1.78-8.3-2.52-8.68-.38-.37-1.31-.56-2.8-.56-2.24,0-3.83.1-4.76.28l-4.48.28c-10.08.56-15.96.84-17.64.84-.75,0-1.59-.04-2.52-.14-.94-.09-1.59-.14-1.96-.14-.56.56-.84,1.12-.84,1.68l-.84,6.16-2.8,17.92c-.19,1.68-.89,6.86-2.1,15.54-1.22,8.68-2.01,14.98-2.38,18.9-.38,3.55-.84,6.07-1.4,7.56-.56,1.31-1.96,2.15-4.2,2.52h-5.32c-3.36,0-5.42-.18-6.16-.56-.75-.37-1.12-1.02-1.12-1.96v-1.68c.37-4.66,1.54-12.6,3.5-23.8,1.96-11.2,3.03-17.64,3.22-19.32,7.46-52.82,14.37-94.91,20.72-126.27l.84-4.48c.74-3.92,2.05-10.26,3.92-19.04,1.86-8.77,3.08-14.93,3.64-18.48.37-3.36,1.96-5.41,4.76-6.16h.28c1.49,0,2.61,1.78,3.36,5.32,1.12,5.23,3.36,13.4,6.72,24.5,3.36,11.11,5.6,18.9,6.72,23.38ZM1221.98,360.27c-3.74-21.65-8.21-40.32-13.44-55.99-1.5,5.79-4.67,24.45-9.52,55.99,0,.19-.33,2.43-.98,6.72-.66,4.3-.98,7.28-.98,8.96v1.12c0,1.12.37,1.68,1.12,1.68h21.56c2.98-.18,4.85-.65,5.6-1.4v-.28c0-.56-.19-1.72-.56-3.5-.38-1.77-.8-3.73-1.26-5.88-.47-2.14-.8-3.59-.98-4.34l-.56-3.08Z"/><path class="cls-1" d="M1301.22,246.6h.28c5.41,0,8.21.56,8.4,1.68.18,1.31.37,3.36.56,6.16v5.04c0,2.24-.28,3.64-.84,4.2-.56,1.31-4.76,1.96-12.6,1.96-1.5,0-3.18-.04-5.04-.14-1.87-.09-2.99-.14-3.36-.14-.75,0-1.12,11.11-1.12,33.32v11.76c.18,13.63.42,28.37.7,44.24.28,15.87.46,28.61.56,38.22.09,9.62.23,18.81.42,27.58,0,2.62.04,6.82.14,12.6.09,5.79.14,10.36.14,13.72l.28,14.28v.28c0,2.43-.38,4.11-1.12,5.04-1.31,1.12-4.2,1.68-8.68,1.68h-1.4c-.94,0-1.87.04-2.8.14-.94.09-1.5.14-1.68.14-.56,0-1.03-.19-1.4-.56-.94-.56-1.4-2.61-1.4-6.16v-12.04c-.38-21.65-.56-36.02-.56-43.12v-35.56c-.19-8.77-.28-24.64-.28-47.6,0-15.49.09-25.76.28-30.8v-26.32c-.38-.18-1.12-.28-2.24-.28-.56,0-1.73.05-3.5.14-1.78.1-3.13.14-4.06.14-4.3,0-6.91-.56-7.84-1.68-.56-.56-.84-1.3-.84-2.24v-10.36c0-2.61.65-4.01,1.96-4.2.18,0,.79-.14,1.82-.42,1.02-.28,1.91-.42,2.66-.42h2.24c3.73.38,6.81.56,9.24.56,3.54,0,8.77-.14,15.68-.42,6.9-.28,12.04-.42,15.4-.42Z"/><path class="cls-1" d="M1323.62,295.04v-23.24c0-7.65.28-14.74.84-21.28,0-1.3,2.42-1.96,7.28-1.96h4.76c2.8,0,4.29,1.03,4.48,3.08.18,1.87.28,6.35.28,13.44,0,3.92-.05,9.71-.14,17.36-.1,7.66-.14,12.88-.14,15.68,0,2.99.04,8.36.14,16.1.09,7.75.14,13.96.14,18.62v14.84c0,2.8.04,6.63.14,11.48.09,4.86.14,8.68.14,11.48s-.05,6.91-.14,12.32c-.1,5.42-.14,9.34-.14,11.76,0,7.47.14,18.39.42,32.76.28,14.38.42,25.29.42,32.76,0,2.8-.1,4.58-.28,5.32,0,2.8-4.48,4.2-13.44,4.2-2.06,0-3.41-.47-4.06-1.4-.66-.93-1.08-2.61-1.26-5.04,0-.56-.05-1.49-.14-2.8-.1-1.3-.14-2.24-.14-2.8,0-.93.04-2.38.14-4.34.09-1.96.14-3.4.14-4.34,0-6.9.04-18.38.14-34.44.09-16.05.14-27.9.14-35.56,0-2.8-.05-6.58-.14-11.34-.1-4.76-.14-8.44-.14-11.06,0-5.22.09-14.84.28-28.84.18-14,.28-24.92.28-32.76Z"/><path class="cls-1" d="M1360.01,377.63c-.75-12.69-1.22-23.33-1.4-31.92v-3.64c0-36.77,6.25-63.74,18.76-80.91,8.58-11.57,19.6-17.64,33.04-18.2.37,0,1.02-.04,1.96-.14.93-.09,1.58-.14,1.96-.14,18.1,0,30.98,7.38,38.64,22.12,5.97,11.58,9.52,33.23,10.64,64.95.37,12.32.56,22.77.56,31.36,0,24.83-1.31,43.86-3.92,57.11-5.79,31.92-19.23,50.4-40.32,55.44-3.74.93-6.91,1.4-9.52,1.4-19.79,0-34.25-16.52-43.4-49.56-2.43-8.96-4.76-24.92-7-47.88ZM1414.33,259.76c-9.15.38-16.66,4.3-22.54,11.76-5.88,7.47-9.75,16.24-11.62,26.32-2.99,15.31-4.48,30.89-4.48,46.76v5.6c1.12,29.87,4.38,54.13,9.8,72.79,2.42,8.22,5.88,15.49,10.36,21.84,4.48,6.35,8.96,9.52,13.44,9.52h.28c9.14-.18,15.96-2.84,20.44-7.98,4.48-5.13,8.12-11.99,10.92-20.58,4.1-12.13,6.16-31.45,6.16-57.95v-10.64c-.19-1.49-.28-4.1-.28-7.84v-9.52c0-6.9-.1-11.57-.28-14-1.12-20.16-3.18-34.9-6.16-44.24-2.06-5.6-5.32-10.64-9.8-15.12-4.48-4.48-9.71-6.72-15.68-6.72h-.56Z"/><path class="cls-1" d="M1488.24,470.86c-3.55,0-5.79-.38-6.72-1.12-.94-.75-1.4-2.52-1.4-5.32,0-4.85.09-12.04.28-21.56.18-9.52.28-16.7.28-21.56,0-6.34-.05-15.77-.14-28.28-.1-12.5-.14-22.12-.14-28.84,0-3.36.04-8.07.14-14.14.09-6.06.14-10.96.14-14.7,0-6.34-.14-17.03-.42-32.06-.28-15.02-.42-25.99-.42-32.9,0-.37-.05-1.4-.14-3.08-.1-1.68-.14-2.98-.14-3.92,0-12.32,1.02-18.48,3.08-18.48,1.86,0,4.01,1.82,6.44,5.46,2.42,3.64,3.92,6.3,4.48,7.98,4.66,10.08,7.18,15.4,7.56,15.96,5.04,9.52,15.21,34.11,30.52,73.77,15.3,39.66,24.26,62.48,26.88,68.45.18-1.49.28-3.36.28-5.6,0-12.32-.1-34.2-.28-65.65-.19-31.45-.28-54.55-.28-69.29v-24.36c0-3.73.28-5.88.84-6.44.74-.56,2.05-.84,3.92-.84.56,0,1.58.05,3.08.14,1.49.1,2.89.14,4.2.14h3.08c2.42,0,3.96.7,4.62,2.1.65,1.4.98,3.88.98,7.42,0,1.87-.05,4.67-.14,8.4-.1,3.74-.14,6.44-.14,8.12v197.38c0,.93-1.22,1.4-3.64,1.4l-12.88-1.96c-9.9-19.6-29.03-66.35-57.39-140.27-.19-.18-.8-1.49-1.82-3.92-1.03-2.42-2.01-4.76-2.94-7l-1.68-3.64c0,1.87.18,8.64.56,20.3.37,11.67.56,18.25.56,19.74,0,1.12-.05,2.8-.14,5.04-.1,2.24-.14,3.92-.14,5.04v29.4c0,2.62.09,4.58.28,5.88.37,12.88.56,32.76.56,59.63,0,.38.04,1.36.14,2.94.09,1.59.14,2.85.14,3.78,0,2.43-.28,3.92-.84,4.48-1.12,1.3-4.86,1.96-11.2,1.96Z"/></g><g class="cls-2"><path class="cls-1" d="M223.66,657.92h16.65c5.04-.5,9.46-.76,13.24-.76l1.13.38c2.77,0,4.41.13,4.92.38.5.51.88,1.32,1.14,2.46.25,1.13.38,2.65.38,4.54s.12,3.47.38,4.73c0,.76.06,2.15.19,4.16.12,2.02.19,3.54.19,4.54,0,2.27-.38,3.41-1.13,3.41-17.66,0-29.26.51-34.81,1.51-.76,0-1.14,1.13-1.14,3.41v5.3c.76,20.43,1.14,49.82,1.14,88.15v8.32l.38,8.32v9.08c.25,1.77.38,9.08.38,21.94v1.89c0,4.29-1.14,6.43-3.41,6.43h-9.84c-2.02,0-3.91.12-5.68.38h-3.4c-.76,0-1.39-.06-1.89-.19-.51-.13-.89-.25-1.13-.38-.25-.12-.44-.5-.57-1.13-.13-.63-.25-1.07-.38-1.32-.13-.25-.19-.95-.19-2.08v-2.46c0-7.57-.13-17.59-.38-30.08-.25-12.49-.51-23.39-.76-32.73v-89.67c.25-30.27.38-73.78.38-130.53,0-4.03,1.26-6.05,3.78-6.05,4.03,0,10.65.13,19.86.38,9.2.25,16.08.38,20.62.38,6.3,0,10.72-.12,13.24-.38,1.26,0,2.96-.06,5.11-.19,2.14-.12,3.72-.19,4.73-.19,2.52,0,4.29.51,5.3,1.51.76.76,1.14,1.89,1.14,3.41v4.16c0,.76.06,2.27.19,4.54.12,2.27.19,3.78.19,4.54,0,2.78-.51,4.67-1.51,5.67-.76,1.01-1.89,1.51-3.4,1.51-.25,0-.89-.06-1.89-.19-1.01-.12-1.89-.19-2.65-.19h-4.16c-3.28,0-7.76.13-13.43.38-5.68.25-9.65.38-11.92.38-.76,0-2.02-.06-3.78-.19-1.77-.12-3.03-.19-3.78-.19l-3.03-.38v71.51l-.38,21.57Z"/><path class="cls-1" d="M277.01,713.91c-1.01-17.15-1.64-31.53-1.89-43.13v-4.92c0-49.69,8.45-86.13,25.35-109.34,11.6-15.64,26.48-23.84,44.64-24.59.5,0,1.38-.06,2.65-.19,1.26-.12,2.14-.19,2.65-.19,24.46,0,41.87,9.97,52.21,29.89,8.07,15.64,12.86,44.9,14.38,87.78.5,16.65.76,30.78.76,42.37,0,33.55-1.77,59.28-5.3,77.18-7.82,43.13-25.98,68.1-54.48,74.91-5.05,1.26-9.33,1.89-12.86,1.89-26.74,0-46.29-22.32-58.64-66.97-3.28-12.11-6.43-33.67-9.46-64.7ZM350.41,554.63c-12.36.51-22.51,5.81-30.46,15.89-7.95,10.09-13.18,21.94-15.7,35.56-4.04,20.68-6.05,41.75-6.05,63.18v7.57c1.51,40.36,5.92,73.15,13.24,98.37,3.27,11.1,7.95,20.94,14,29.51,6.05,8.58,12.11,12.86,18.16,12.86h.38c12.35-.25,21.57-3.84,27.62-10.78,6.05-6.93,10.97-16.2,14.76-27.81,5.55-16.39,8.32-42.5,8.32-78.32v-14.38c-.25-2.02-.38-5.54-.38-10.59v-12.86c0-9.33-.13-15.64-.38-18.92-1.51-27.24-4.29-47.16-8.32-59.78-2.78-7.57-7.19-14.38-13.24-20.43-6.05-6.05-13.12-9.08-21.19-9.08h-.76Z"/><path class="cls-1" d="M439.32,543.28c.25-.25.38-.76.38-1.51,0-.5-.06-1.01-.19-1.51-.13-.5-.19-1-.19-1.51,0-1.76.25-2.9.76-3.41.5-.5,1-.76,1.51-.76.25,0,.69.06,1.32.19.63.13,1.19.19,1.7.19h2.27c16.39,0,30.65,2.9,42.75,8.7,10.59,4.79,18.16,11.1,22.7,18.92,4.29,6.81,6.43,16.65,6.43,29.51v2.27c0,13.62-5.81,27.24-17.4,40.86-3.03,3.54-6.69,7.06-10.97,10.59-4.29,3.54-7.63,6.24-10.03,8.13-2.4,1.89-3.59,3.22-3.59,3.97,1.51,6.56,4.03,14.75,7.57,24.59,3.53,9.84,7.38,20.31,11.54,31.4,4.16,11.1,6.87,18.67,8.13,22.7,16.39,46.16,26.61,74.03,30.65,83.61,3.27,7.32,4.92,11.86,4.92,13.62,0,1.01-.63,1.51-1.89,1.51h-1.51c-3.54-.5-6.43-.76-8.7-.76-1.51,0-3.66.07-6.43.19-2.78.13-4.79.19-6.05.19h-.76c-1.51,0-5.67-9.96-12.49-29.89-6.81-19.92-11.1-33.29-12.86-40.1-3.53-13.11-8.83-30.39-15.89-51.83-6.81-21.69-10.47-32.54-10.97-32.54s-.76,4.54-.76,13.62v7.19c0,5.3.06,11.48.19,18.54.12,7.06.25,14.19.38,21.38.12,7.19.25,14.51.38,21.94.12,7.44.25,14.44.38,21,.12,6.56.25,12.36.38,17.4.12,5.05.19,9.08.19,12.11l.38,4.54v.76c0,2.02-.06,4.73-.19,8.13-.13,3.4-.19,5.62-.19,6.62,0,1.51-.13,2.39-.38,2.65-.76,1.01-2.15,1.51-4.16,1.51-.51,0-1.39-.06-2.65-.19-1.27-.13-2.27-.19-3.03-.19s-2.02.06-3.78.19c-1.77.12-3.03.19-3.78.19-2.52,0-4.29-.51-5.3-1.51-.25-1.76-.44-6.18-.57-13.24-.13-7.06-.25-14.69-.38-22.89-.13-8.19-.19-13.43-.19-15.7.25-5.04.38-11.47.38-19.29,0-2.27-.07-7.31-.19-15.13-.13-7.82-.19-15.26-.19-22.32-.25-2.02-.38-5.04-.38-9.08,0-7.57.19-19.49.57-35.75s.57-28.19.57-35.75-.13-13.62-.38-17.4c-.25-8.83-.38-20.05-.38-33.67v-22.7c.25-6.05.38-16.14.38-30.27ZM491.53,612.14c2.77-7.06,4.16-13.49,4.16-19.29,0-7.82-1.39-13.93-4.16-18.35-2.78-4.41-7.32-8.38-13.62-11.92-6.56-3.53-11.73-5.3-15.51-5.3h-1.13l-.38.76v1.51c0,1.26.06,3.78.19,7.57.12,3.78.19,6.56.19,8.32,0,.51-.07,2.21-.19,5.11-.13,2.9-.19,6.56-.19,10.97v13.05c0,5.55-.13,11.48-.38,17.78-.25,6.31-.38,9.71-.38,10.21l.38,2.65c6.05-.25,12.17-3.03,18.35-8.32,6.18-5.3,10.4-10.22,12.67-14.76Z"/><path class="cls-1" d="M674.65,545.93c1-2.02,2.27-3.03,3.78-3.03.25,0,1.14.13,2.65.38,1.51.25,2.77.38,3.78.38s2.77-.12,5.3-.38c2.52-.25,4.41-.38,5.67-.38,1.76,0,3.41.25,4.92.76,1.51.76,2.39,1.77,2.65,3.03.25,1.51,3.28,8.58,9.08,21.19,3.78,8.58,7.94,17.28,12.49,26.11,1.51,3.28,2.65,4.92,3.4,4.92.5-.5,1.76-2.02,3.78-4.54,1-1.51,7.44-13.62,19.3-36.32l1.89-3.78c.25-.76.95-2.39,2.08-4.92,1.13-2.52,1.95-4.16,2.46-4.92,1-1.76,2.77-2.65,5.3-2.65h1.89c7.57,0,13.49.13,17.78.38,2.52.25,3.78.76,3.78,1.51,0,.25-.13.57-.38.95-.25.38-.51.76-.76,1.14-.25.38-.51.82-.76,1.32-3.54,7.06-6.05,12.24-7.57,15.51-2.27,4.29-5.3,10.16-9.08,17.59-3.78,7.44-7.25,14.06-10.4,19.86-3.16,5.8-6.37,11.23-9.65,16.27-4.54,6.05-6.81,11.23-6.81,15.51-.25,1.27-.38,3.54-.38,6.81v19.67c0,50.7.63,97.49,1.89,140.37,0,1.51.06,5.11.19,10.78.12,5.67.31,9.27.57,10.78v5.68c0,4.04-.25,7.06-.76,9.08-.76,2.02-5.93,3.03-15.51,3.03-1.77,0-3.03-.13-3.78-.38h-3.03c-1.77,0-2.9-.32-3.4-.95-.51-.63-.89-2.08-1.14-4.35v-21.19c.76-23.2,1.38-55.62,1.89-97.23,0-2.02.06-5.04.19-9.08.12-4.03.19-7.06.19-9.08,0-27.49-1.01-51.08-3.03-70.75-3.03-6.81-10.22-20.81-21.57-42-.76-1.51-2.84-5.11-6.24-10.78-3.4-5.67-6.18-10.65-8.32-14.94-2.15-4.29-3.59-8.07-4.35-11.35Z"/><path class="cls-1" d="M777.18,713.91c-1.01-17.15-1.64-31.53-1.89-43.13v-4.92c0-49.69,8.45-86.13,25.35-109.34,11.6-15.64,26.48-23.84,44.64-24.59.5,0,1.38-.06,2.65-.19,1.26-.12,2.14-.19,2.65-.19,24.46,0,41.87,9.97,52.21,29.89,8.07,15.64,12.86,44.9,14.38,87.78.5,16.65.76,30.78.76,42.37,0,33.55-1.77,59.28-5.3,77.18-7.82,43.13-25.98,68.1-54.48,74.91-5.05,1.26-9.33,1.89-12.86,1.89-26.74,0-46.29-22.32-58.64-66.97-3.28-12.11-6.43-33.67-9.46-64.7ZM850.58,554.63c-12.36.51-22.51,5.81-30.46,15.89-7.95,10.09-13.18,21.94-15.7,35.56-4.04,20.68-6.05,41.75-6.05,63.18v7.57c1.51,40.36,5.92,73.15,13.24,98.37,3.27,11.1,7.95,20.94,14,29.51,6.05,8.58,12.11,12.86,18.16,12.86h.38c12.35-.25,21.57-3.84,27.62-10.78,6.05-6.93,10.97-16.2,14.76-27.81,5.55-16.39,8.32-42.5,8.32-78.32v-14.38c-.25-2.02-.38-5.54-.38-10.59v-12.86c0-9.33-.13-15.64-.38-18.92-1.51-27.24-4.29-47.16-8.32-59.78-2.78-7.57-7.19-14.38-13.24-20.43-6.05-6.05-13.12-9.08-21.19-9.08h-.76Z"/><path class="cls-1" d="M939.11,645.43v-1.89c0-2.02-.13-11.41-.38-28.19-.25-16.77-.38-29.7-.38-38.78,0-20.18.63-33.42,1.89-39.73,1.51-2.02,2.77-3.03,3.78-3.03h.38c5.54,0,8.95.13,10.21.38,2.02,0,3.41.13,4.16.38,2.27.25,3.65,2.02,4.16,5.3v33.67c0,15.64-.13,37.59-.38,65.83-.25,28.25-.38,49.69-.38,64.32,0,4.54.25,10.34.76,17.4.76,17.4,1.38,29.39,1.89,35.94.76,9.84,1.38,16.84,1.89,21,.5,4.16,1.45,9.59,2.84,16.27,1.38,6.69,3.22,11.42,5.49,14.19,2.27,2.78,5.17,4.29,8.7,4.54.25,0,.76.13,1.51.38h.76c2.52,0,4.67-.38,6.43-1.14,1.76-.76,3.22-1.51,4.35-2.27s2.14-2.02,3.03-3.78c.88-1.76,1.45-3.15,1.7-4.16.25-1,.63-2.58,1.13-4.73.5-2.14.76-3.46.76-3.97,2.02-10.34,3.03-23.58,3.03-39.73,0-8.57-.25-18.41-.76-29.51-.51-14.63-1.13-36.89-1.89-66.78-.76-29.89-1.39-52.02-1.89-66.4l-1.13-17.03c-.76-17.4-1.13-27.24-1.13-29.51v-3.78c0-1.26.25-2.02.76-2.27,1.26-1.26,3.91-1.89,7.95-1.89h14c1.51,0,2.27.63,2.27,1.89.76,3.28,1.13,10.59,1.13,21.94v9.84c1,22.2,1.76,59.53,2.27,111.99.5,20.68.76,36.58.76,47.67,0,31.53-.63,54.86-1.89,69.99-1.26,10.59-3.91,18.67-7.95,24.21-5.55,8.08-15.64,12.49-30.27,13.24-.76.25-2.15.38-4.16.38-11.86,0-20.68-4.16-26.48-12.49-7.57-10.59-12.86-31.4-15.89-62.43l-.38-4.16c-.76-7.57-1.32-19.54-1.7-35.94-.38-16.39-.7-26.61-.95-30.65,0-2.27-.06-6.18-.19-11.73-.13-5.55-.19-9.96-.19-13.24,0-6.81.12-11.85.38-15.13v-6.43Z"/><path class="cls-1" d="M1049.97,543.28c.25-.25.38-.76.38-1.51,0-.5-.07-1.01-.19-1.51-.13-.5-.19-1-.19-1.51,0-1.76.25-2.9.76-3.41.5-.5,1-.76,1.51-.76.25,0,.69.06,1.32.19.63.13,1.19.19,1.7.19h2.27c16.39,0,30.65,2.9,42.75,8.7,10.59,4.79,18.16,11.1,22.7,18.92,4.29,6.81,6.43,16.65,6.43,29.51v2.27c0,13.62-5.8,27.24-17.4,40.86-3.03,3.54-6.69,7.06-10.97,10.59-4.29,3.54-7.63,6.24-10.03,8.13-2.4,1.89-3.59,3.22-3.59,3.97,1.51,6.56,4.03,14.75,7.57,24.59,3.53,9.84,7.38,20.31,11.54,31.4,4.16,11.1,6.87,18.67,8.13,22.7,16.39,46.16,26.61,74.03,30.65,83.61,3.28,7.32,4.92,11.86,4.92,13.62,0,1.01-.63,1.51-1.89,1.51h-1.51c-3.54-.5-6.43-.76-8.7-.76-1.51,0-3.66.07-6.43.19-2.78.13-4.79.19-6.05.19h-.76c-1.51,0-5.67-9.96-12.49-29.89-6.81-19.92-11.1-33.29-12.86-40.1-3.54-13.11-8.83-30.39-15.89-51.83-6.81-21.69-10.47-32.54-10.97-32.54s-.76,4.54-.76,13.62v7.19c0,5.3.06,11.48.19,18.54.12,7.06.25,14.19.38,21.38.12,7.19.25,14.51.38,21.94.12,7.44.25,14.44.38,21,.12,6.56.25,12.36.38,17.4.12,5.05.19,9.08.19,12.11l.38,4.54v.76c0,2.02-.06,4.73-.19,8.13-.13,3.4-.19,5.62-.19,6.62,0,1.51-.13,2.39-.38,2.65-.76,1.01-2.15,1.51-4.16,1.51-.51,0-1.39-.06-2.65-.19-1.27-.13-2.27-.19-3.03-.19s-2.02.06-3.78.19c-1.77.12-3.03.19-3.78.19-2.52,0-4.29-.51-5.3-1.51-.25-1.76-.44-6.18-.57-13.24-.13-7.06-.25-14.69-.38-22.89-.13-8.19-.19-13.43-.19-15.7.25-5.04.38-11.47.38-19.29,0-2.27-.06-7.31-.19-15.13-.13-7.82-.19-15.26-.19-22.32-.25-2.02-.38-5.04-.38-9.08,0-7.57.19-19.49.57-35.75.38-16.27.57-28.19.57-35.75s-.13-13.62-.38-17.4c-.25-8.83-.38-20.05-.38-33.67v-22.7c.25-6.05.38-16.14.38-30.27ZM1102.18,612.14c2.77-7.06,4.16-13.49,4.16-19.29,0-7.82-1.39-13.93-4.16-18.35-2.78-4.41-7.32-8.38-13.62-11.92-6.56-3.53-11.73-5.3-15.51-5.3h-1.13l-.38.76v1.51c0,1.26.06,3.78.19,7.57.12,3.78.19,6.56.19,8.32,0,.51-.07,2.21-.19,5.11-.13,2.9-.19,6.56-.19,10.97v13.05c0,5.55-.13,11.48-.38,17.78-.25,6.31-.38,9.71-.38,10.21l.38,2.65c6.05-.25,12.17-3.03,18.35-8.32,6.18-5.3,10.4-10.22,12.67-14.76Z"/><path class="cls-1" d="M1309.51,542.14c3.03,5.81,5.8,17.91,8.32,36.32.25,1.51.88,5.17,1.89,10.97,1,5.8,2.46,13.69,4.35,23.65,1.89,9.97,3.59,18.98,5.11,27.05l15.13,76.8c2.77,14.38,4.29,21.57,4.54,21.57s.95-1.7,2.08-5.11c1.14-3.41,2.46-8.32,3.97-14.76,1.51-6.43,2.9-12.92,4.16-19.48l16.65-85.13c1.76-9.08,3.72-19.23,5.86-30.46,2.14-11.22,3.97-20.68,5.49-28.38,1.51-7.69,2.39-12.3,2.65-13.81.76-3.03,3.53-4.54,8.32-4.54,11.85,0,17.78,1.89,17.78,5.68v.38c-.51,4.04-2.65,15.26-6.43,33.67-2.52,13.62-6.88,33.29-13.05,59.02-6.18,25.73-10.28,43.64-12.3,53.72l-.76,4.54-16.65,84.37-10.59,56c-1.01,4.29-2.27,6.43-3.78,6.43-.76,0-1.39-.13-1.89-.38-4.04-2.78-9.71-22.7-17.03-59.78l-29.89-149.82-13.62-64.7c-3.03-14.12-4.54-21.81-4.54-23.08s.25-2.14.76-2.65c.76-1,3.41-1.51,7.95-1.51,9.08,0,14.25,1.13,15.51,3.41Z"/><path class="cls-1" d="M1430.58,602.3v-31.4c0-10.34.38-19.92,1.13-28.75,0-1.76,3.27-2.65,9.84-2.65h6.43c3.78,0,5.8,1.39,6.05,4.16.25,2.52.38,8.58.38,18.16,0,5.3-.06,13.12-.19,23.46-.13,10.35-.19,17.4-.19,21.19,0,4.04.06,11.29.19,21.75.12,10.47.19,18.86.19,25.16v20.05c0,3.78.06,8.96.19,15.51.12,6.56.19,11.73.19,15.51s-.07,9.33-.19,16.65c-.13,7.32-.19,12.62-.19,15.89,0,10.09.19,24.85.57,44.27.38,19.42.57,34.18.57,44.27,0,3.78-.13,6.18-.38,7.19,0,3.78-6.05,5.68-18.16,5.68-2.78,0-4.61-.63-5.49-1.89-.89-1.26-1.45-3.53-1.7-6.81,0-.76-.07-2.02-.19-3.78-.13-1.76-.19-3.03-.19-3.78,0-1.26.06-3.22.19-5.86.12-2.65.19-4.6.19-5.86,0-9.33.06-24.84.19-46.54.12-21.69.19-37.7.19-48.05,0-3.78-.06-8.89-.19-15.32-.13-6.43-.19-11.41-.19-14.95,0-7.06.12-20.05.38-38.97.25-18.92.38-33.67.38-44.27Z"/><path class="cls-1" d="M1529.71,534.58c12.86,0,23.58,4.54,32.16,13.62,8.57,9.08,12.86,20.05,12.86,32.92v1.51c0,3.28-.13,4.92-.38,4.92-.51.25-2.02.38-4.54.38-2.02,0-5.17-.12-9.46-.38-4.29-.25-6.94-.38-7.95-.38-.25,0-.38-1.64-.38-4.92v-2.27c0-4.79-1.83-9.14-5.49-13.05-3.66-3.91-9.15-5.86-16.46-5.86h-.76c-4.29,0-8.58,2.4-12.86,7.19-2.52,4.04-3.78,8.32-3.78,12.86,0,7.82,2.9,14.38,8.7,19.67,11.6,11.35,21.06,23.71,28.38,37.08,15.89,29.26,23.84,62.56,23.84,99.88,0,6.05-.25,13.37-.76,21.94-2.52,26.48-7.57,45.91-15.13,58.27-8.83,14.63-21.44,21.94-37.83,21.94-13.12,0-23.65-6.49-31.59-19.48-7.95-12.99-12.43-28.31-13.43-45.97v-22.32c0-1.26,5.3-1.89,15.89-1.89,6.3,0,9.46.25,9.46.76v23.83c.76,9.59,2.84,17.72,6.24,24.4,3.41,6.69,8,10.03,13.81,10.03,10.34,0,17.78-6.93,22.32-20.81,2.77-9.33,4.79-23.33,6.05-42,.25-2.77.38-5.8.38-9.08,0-11.35-1.26-22.95-3.78-34.81-5.8-29-14.89-51.96-27.24-68.86-1.77-2.52-5.05-6.68-9.84-12.48-4.79-5.8-8.39-10.34-10.78-13.62-2.4-3.27-4.73-7.63-7-13.05-2.27-5.42-3.41-10.78-3.41-16.08v-3.78c1-11.1,5.42-20.55,13.24-28.38,7.81-7.82,16.77-11.73,26.86-11.73h2.65Z"/><path class="cls-1" d="M1594.78,602.3v-31.4c0-10.34.38-19.92,1.13-28.75,0-1.76,3.27-2.65,9.84-2.65h6.43c3.78,0,5.8,1.39,6.05,4.16.25,2.52.38,8.58.38,18.16,0,5.3-.06,13.12-.19,23.46-.13,10.35-.19,17.4-.19,21.19,0,4.04.06,11.29.19,21.75.12,10.47.19,18.86.19,25.16v20.05c0,3.78.06,8.96.19,15.51.12,6.56.19,11.73.19,15.51s-.07,9.33-.19,16.65c-.13,7.32-.19,12.62-.19,15.89,0,10.09.19,24.85.57,44.27.38,19.42.57,34.18.57,44.27,0,3.78-.13,6.18-.38,7.19,0,3.78-6.05,5.68-18.16,5.68-2.78,0-4.61-.63-5.49-1.89-.89-1.26-1.45-3.53-1.7-6.81,0-.76-.07-2.02-.19-3.78-.13-1.76-.19-3.03-.19-3.78,0-1.26.06-3.22.19-5.86.12-2.65.19-4.6.19-5.86,0-9.33.06-24.84.19-46.54.12-21.69.19-37.7.19-48.05,0-3.78-.06-8.89-.19-15.32-.13-6.43-.19-11.41-.19-14.95,0-7.06.12-20.05.38-38.97.25-18.92.38-33.67.38-44.27Z"/><path class="cls-1" d="M1704.12,536.85h.38c7.31,0,11.1.76,11.35,2.27.25,1.77.5,4.54.76,8.32v6.81c0,3.03-.38,4.92-1.13,5.67-.76,1.77-6.43,2.65-17.03,2.65-2.02,0-4.29-.06-6.81-.19-2.52-.12-4.04-.19-4.54-.19-1.01,0-1.51,15.01-1.51,45.02v15.89c.25,18.41.57,38.34.95,59.78.38,21.44.63,38.66.76,51.64.12,12.99.31,25.41.57,37.27,0,3.54.06,9.21.19,17.03.12,7.82.19,14,.19,18.54l.38,19.29v.38c0,3.28-.51,5.55-1.51,6.81-1.77,1.51-5.67,2.27-11.73,2.27h-1.89c-1.27,0-2.52.06-3.78.19-1.27.12-2.02.19-2.27.19-.76,0-1.39-.25-1.89-.76-1.26-.76-1.89-3.53-1.89-8.32v-16.27c-.51-29.26-.76-48.68-.76-58.26v-48.05c-.25-11.85-.38-33.29-.38-64.32,0-20.93.12-34.81.38-41.62v-35.56c-.51-.25-1.51-.38-3.03-.38-.76,0-2.33.07-4.73.19-2.4.13-4.23.19-5.49.19-5.8,0-9.33-.76-10.59-2.27-.76-.76-1.13-1.76-1.13-3.03v-14c0-3.53.88-5.42,2.65-5.68.25,0,1.07-.19,2.46-.57,1.38-.38,2.58-.57,3.59-.57h3.03c5.04.51,9.2.76,12.49.76,4.79,0,11.85-.19,21.19-.57,9.33-.38,16.27-.57,20.81-.57Z"/></g></g></svg>