<svg xmlns="http://www.w3.org/2000/svg" xmlns:xlink="http://www.w3.org/1999/xlink" width="51" height="24" viewBox="0 0 50 24"><defs><clipPath id="b"><path d="M0 0h50v24H0z"/></clipPath><clipPath id="c"><path d="M0 0h50v24H0z"/></clipPath><clipPath id="d"><path d="M0 0h50v24H0z"/></clipPath><clipPath id="e"><path d="M0 0h50v24H0z"/></clipPath><clipPath id="f"><path d="M0 0h50v24H0z"/></clipPath><clipPath id="g"><path d="M0 0h50v24H0z"/></clipPath><clipPath id="h"><path d="M0 0h50v24H0z"/></clipPath><clipPath id="i"><path d="M0 0h50v24H0z"/></clipPath><clipPath id="j"><path d="M0 0h50v24H0z"/></clipPath><clipPath id="k"><path d="M0 0h50v24H0z"/></clipPath><clipPath id="l"><path d="M0 0h50v24H0z"/></clipPath><mask id="n"><g filter="url(#a)"><path d="M0 0h50v24H0z" style="fill:#000;fill-opacity:.964706;stroke:none"/></g></mask><mask id="p"><g filter="url(#a)"><path d="M0 0h50v24H0z" style="fill:#000;fill-opacity:.972549;stroke:none"/></g></mask><mask id="r"><g filter="url(#a)"><path d="M0 0h50v24H0z" style="fill:#000;fill-opacity:.984314;stroke:none"/></g></mask><mask id="t"><g filter="url(#a)"><path d="M0 0h50v24H0z" style="fill:#000;fill-opacity:.913725;stroke:none"/></g></mask><mask id="v"><g filter="url(#a)"><path d="M0 0h50v24H0z" style="fill:#000;fill-opacity:.984314;stroke:none"/></g></mask><mask id="x"><g filter="url(#a)"><path d="M0 0h50v24H0z" style="fill:#000;fill-opacity:.996078;stroke:none"/></g></mask><mask id="z"><g filter="url(#a)"><path d="M0 0h50v24H0z" style="fill:#000;fill-opacity:.00392157;stroke:none"/></g></mask><mask id="B"><g filter="url(#a)"><path d="M0 0h50v24H0z" style="fill:#000;fill-opacity:.988235;stroke:none"/></g></mask><mask id="D"><g filter="url(#a)"><path d="M0 0h50v24H0z" style="fill:#000;fill-opacity:.45098;stroke:none"/></g></mask><mask id="F"><g filter="url(#a)"><path d="M0 0h50v24H0z" style="fill:#000;fill-opacity:.988235;stroke:none"/></g></mask><mask id="H"><g filter="url(#a)"><path d="M0 0h50v24H0z" style="fill:#000;fill-opacity:.760784;stroke:none"/></g></mask><g id="m" clip-path="url(#b)"><path d="M32.25.582q.117 1.097-.762 1.742.925 1.29.762 2.903a122 122 0 0 0-.57 9.675 43 43 0 0 0-.575-5.804 2.8 2.8 0 0 0-.378-1.938c-.13.387-.254.774-.383 1.164q.534 6.563.383 13.16h-.766v-9.68c.09-.495-.035-.886-.379-1.16q-2.017-3.238-5.727-2.128c-1.585.703-2.351 1.925-2.289 3.68q-.557-1.227-.382-2.712a5.16 5.16 0 0 0-.383-2.71 3.9 3.9 0 0 0-.383 2.324 15.8 15.8 0 0 0-.57 3.484 70 70 0 0 0-.575-7.355q-.177-2.06.383-3.872 6.446.352 12.594-.773m0 0" style="stroke:none;fill-rule:evenodd;fill:#1b1d1b;fill-opacity:1"/></g><g id="o" clip-path="url(#c)"><path d="m16.223 4.066 3.05 1.16v16.258q-2.867-.097-5.722.192a43 43 0 0 1-5.344 1.742 874 874 0 0 0-.383-12.387c.024-.21.149-.34.383-.386.29.507.668.703 1.145.582q-.74-.752 0-1.356c.77 1.707 1.53 3.383 2.289 5.031.507 1.422 1.02 2.84 1.527 4.258q-.075.51.383.774c.379-4.766.508-9.54.379-14.32a4.65 4.65 0 0 0 2.293-1.548m0 0" style="stroke:none;fill-rule:evenodd;fill:#1b1b19;fill-opacity:1"/></g><g id="q" clip-path="url(#d)"><path d="M37.594 4.453a37 37 0 0 0 1.527 4.258 8.3 8.3 0 0 0 .383 3.484c.305-.18.43-.437.383-.777q-.111-.932.57-1.547.18 1.043.766.387.337 6.585-.192 13.16a23.7 23.7 0 0 0-8.781-1.934V6a11.3 11.3 0 0 1 2.672-.773q-.095 7.745.191 15.484.662-3.874.575-7.938a73 73 0 0 0-.383-7.546V4.84a4.5 4.5 0 0 1 2.289-.387m0 0" style="stroke:none;fill-rule:evenodd;fill:#1a1a19;fill-opacity:1"/></g><g id="s" clip-path="url(#e)"><path d="M16.223 4.066a4.65 4.65 0 0 1-2.293 1.547l-.762 13.547c-.508-1.418-1.02-2.836-1.527-4.258q-.095-4.647.191-9.289a6.6 6.6 0 0 0 2.863-1.742q.896-.444 1.528.195m0 0" style="stroke:none;fill-rule:evenodd;fill:#acd8cd;fill-opacity:1"/></g><g id="u" clip-path="url(#f)"><path d="M9.352 9.871q-.74.604 0 1.356c-.477.12-.856-.075-1.145-.582q-.35.07-.383.386a4.6 4.6 0 0 1-.953-1.547q-.915.317-1.336-.773.851-1.728 1.715-3.484A38 38 0 0 1 9.352 9.87m0 0" style="stroke:none;fill-rule:evenodd;fill:#c3cbc9;fill-opacity:1"/></g><g id="w" clip-path="url(#g)"><path d="M5.535 8.71q.422 1.09 1.336.774.347.909.953 1.547.235 6.194.383 12.387a83 83 0 0 1-8.398-3.484v-.387c1.91-3.61 3.816-7.223 5.726-10.836m0 0" style="stroke:none;fill-rule:evenodd;fill:#a6d2c6;fill-opacity:1"/></g><g id="y" clip-path="url(#h)"><path d="M27.672 9.484c.672.293 1.055.813 1.144 1.547q-1.008-.439-1.144-1.547m0 0" style="stroke:none;fill-rule:evenodd;fill:#1e2221;fill-opacity:1"/></g><g id="A" clip-path="url(#i)"><path d="M37.594 4.453q1.074.206 1.718 1.16a8.1 8.1 0 0 0 1.145 3.098 5.3 5.3 0 0 0 .957-2.324 23.4 23.4 0 0 1 .57 4.258q.141-.65.575-1.16c.464.331.976.331 1.523 0a105 105 0 0 1 5.344 10.84q-4.232 1.429-8.395 3.093.53-6.575.192-13.16-.586.655-.766-.387-.681.615-.57 1.547c-.371-.813-.5-1.719-.383-2.707h-.383a37 37 0 0 1-1.527-4.258m0 0" style="stroke:none;fill-rule:evenodd;fill:#a7d1c5;fill-opacity:1"/></g><g id="C" clip-path="url(#j)"><path d="M39.121 8.71h.383q-.175 1.487.383 2.708c.047.34-.078.598-.383.777a8.3 8.3 0 0 1-.383-3.484m0 0" style="stroke:none;fill-rule:evenodd;fill:#647570;fill-opacity:1"/></g><g id="E" clip-path="url(#k)"><path d="M20.8 9.484h.384q-.176 1.485.382 2.711v9.29h-.765zm0 0" style="stroke:none;fill-rule:evenodd;fill:#313c38;fill-opacity:1"/></g><g id="G" clip-path="url(#l)"><path d="M29.582 10.645c.344.273.469.664.379 1.16l-.762 9.293a66.6 66.6 0 0 1-.383-10.067q.813.89.766-.386m0 0" style="stroke:none;fill-rule:evenodd;fill:#52645f;fill-opacity:1"/></g><filter id="a" width="100%" height="100%" x="0%" y="0%" filterUnits="objectBoundingBox"><feColorMatrix in="SourceGraphic" values="0 0 0 0 1 0 0 0 0 1 0 0 0 0 1 0 0 0 1 0"/></filter></defs><path d="M32.25.582q-6.148 1.125-12.594.773V.195q6.4-.193 12.594.387m0 0" style="stroke:none;fill-rule:evenodd;fill:#899994;fill-opacity:1"/><use xlink:href="#m" mask="url(#n)"/><path d="M29.582 6.387q-.56-1.42-.383-3.098h-7.254a19.6 19.6 0 0 0 .383 5.422c-.023.207-.148.34-.383.387a25.5 25.5 0 0 1-.379-6.196h8.016zm0 0" style="stroke:none;fill-rule:evenodd;fill:#748c85;fill-opacity:1"/><path d="M29.582 6.387a3.9 3.9 0 0 1-.383 2.324q-.584-.21-.765-.777c.168.027.296-.04.382-.192a47 47 0 0 1-.953-3.676q-.575.58-1.144 1.16c-.254-.515-.512-1.03-.766-1.55q-.978 2.272-2.098 0c-.5 1.347-.5 2.64 0 3.87l-1.527 1.165a19.6 19.6 0 0 1-.383-5.422H29.2q-.177 1.677.383 3.098m0 0" style="stroke:none;fill-rule:evenodd;fill:#acd6cb;fill-opacity:1"/><path d="M28.434 7.934c-.375.066-.633-.063-.762-.387a2.78 2.78 0 0 0-.383-1.934q-.802.68-1.336-.386-.614 1.095-1.527.386a1.92 1.92 0 0 0-.188 1.16 12 12 0 0 1 3.051.196 12 12 0 0 0-3.05.578h-.384c-.5-1.23-.5-2.524 0-3.871q1.12 2.272 2.098 0c.254.52.512 1.035.766 1.55q.569-.58 1.144-1.16.407 1.876.953 3.676-.13.231-.382.192m0 0" style="stroke:none;fill-rule:evenodd;fill:#e9f7f4;fill-opacity:1"/><use xlink:href="#o" mask="url(#p)"/><use xlink:href="#q" mask="url(#r)"/><use xlink:href="#s" mask="url(#t)"/><path d="M13.93 5.613q.192 7.173-.38 14.32-.457-.263-.382-.773zm0 0" style="stroke:none;fill-rule:evenodd;fill:#5c726c;fill-opacity:1"/><path d="M27.672 7.547h-3.434a12 12 0 0 1 3.051-.578c-1.008-.196-2.027-.258-3.05-.196a1.92 1.92 0 0 1 .187-1.16q.913.71 1.527-.386.533 1.066 1.336.386.546.897.383 1.934m0 0" style="stroke:none;fill-rule:evenodd;fill:#98beb4;fill-opacity:1"/><use xlink:href="#u" mask="url(#v)"/><path d="M44.082 9.484c-.547.332-1.059.332-1.523 0q-.434.51-.575 1.16a23.4 23.4 0 0 0-.57-4.257q.204-1.155.953-.774a26 26 0 0 1 1.715 3.871m0 0" style="stroke:none;fill-rule:evenodd;fill:#e8f3f2;fill-opacity:1"/><path d="M21.184 9.484H20.8q.002-.386-.383-.386a3.9 3.9 0 0 1 .383-2.325q.557 1.304.383 2.711m0 0" style="stroke:none;fill-rule:evenodd;fill:#89a79f;fill-opacity:1"/><path d="M34.922 5.227h.383a73 73 0 0 1 .383 7.546 41.7 41.7 0 0 1-.575 7.938 315 315 0 0 1-.191-15.484m0 0" style="stroke:none;fill-rule:evenodd;fill:#3c423e;fill-opacity:1"/><path d="M29.582 10.645q.047 1.277-.766.386c-.09-.734-.472-1.254-1.144-1.547q-2.965-1.16-4.77 1.547a115 115 0 0 1-1.336 10.453v-9.289c-.062-1.754.704-2.976 2.29-3.68q3.709-1.108 5.726 2.13m0 0" style="stroke:none;fill-rule:evenodd;fill:#93a9a3;fill-opacity:1"/><use xlink:href="#w" mask="url(#x)"/><use xlink:href="#y" mask="url(#z)"/><use xlink:href="#A" mask="url(#B)"/><path d="M29.96 11.805v9.68q-.567.099-.76-.387zm0 0" style="stroke:none;fill-rule:evenodd;fill:#aeddcf;fill-opacity:1"/><path d="M35.305 4.84v.387h-.383q-1.39.222-2.672.773v15.484h-.379q-.38-6.193-.766-12.386.475 2.796.575 5.804.097-4.941.57-9.675.334.608.766-.196a7 7 0 0 1 2.289-.191m0 0" style="stroke:none;fill-rule:evenodd;fill:#a6d0c4;fill-opacity:1"/><use xlink:href="#C" mask="url(#D)"/><path d="M19.273 5.227q.475 3.572.575 7.355c.07-1.238.257-2.398.57-3.484q.385 0 .383.386v12h-1.528zm0 0" style="stroke:none;fill-rule:evenodd;fill:#cde1dc;fill-opacity:1"/><use xlink:href="#E" mask="url(#F)"/><use xlink:href="#G" mask="url(#H)"/><path d="M31.105 9.098q.386 6.193.766 12.386h-1.144q.15-6.597-.383-13.16.192-.584.383-1.164.544.898.378 1.938m0 0" style="stroke:none;fill-rule:evenodd;fill:#e3f6f3;fill-opacity:1"/></svg>