<?xml version="1.0" encoding="utf-8" ?>
<svg baseProfile="full" height="150" version="1.1" width="300" xmlns="http://www.w3.org/2000/svg" xmlns:ev="http://www.w3.org/2001/xml-events" xmlns:xlink="http://www.w3.org/1999/xlink"><defs /><polygon fill="white" points="44,125 45,131 76,144 103,136 139,136 140,96 148,87 157,86 168,97 169,136 193,136 223,144 255,130 227,72 222,71 220,77 215,78 213,68 208,64 183,65 180,45 129,45 125,65 106,61 93,69 92,97 87,96 77,71 72,71" /><polygon fill="white" points="160,26 160,30 164,30 164,26" /><polygon fill="white" points="146,24 146,32 150,32 150,24" /></svg>