<?xml version="1.0" encoding="UTF-8"?><svg id="Ebene_1" xmlns="http://www.w3.org/2000/svg" width="1920" height="1080" viewBox="0 0 1920 1080"><defs><style>.cls-1{fill:#fff;}.cls-2{isolation:isolate;}</style></defs><g class="cls-2"><g class="cls-2"><path class="cls-1" d="M623.14,307.1l-15.12-73.11-3.7-17.89c0-.2-.46-2.16-1.39-5.86-.93-3.7-1.39-6.37-1.39-8.02,0-.82.1-1.34.31-1.54.62-.62,2.36-.93,5.24-.93h10.18c.41,0,1.03.05,1.85.15.82.11,1.28.21,1.39.31.1.11.36.26.77.46.41.21.67.52.77.93.1.41.26,1.13.46,2.16.62,2.27,1.59,6.43,2.93,12.49,1.34,6.07,2.11,9.52,2.31,10.33,1.64,5.35,3.96,15.84,6.94,31.47,2.98,15.63,4.78,24.68,5.4,27.15.62,2.47,1.54,7.3,2.78,14.5,4.94,25.3,9.15,45.04,12.65,59.23l4.01,14.19,1.54,5.24c.62-.2,1.74-2.88,3.39-8.02.82-2.26,2.72-7.04,5.71-14.35,2.98-7.3,4.78-11.77,5.4-13.42,1.64-4.52,3.19-9.56,4.63-15.12.41-.62.72-.93.93-.93,1.23,0,3.9,4.32,8.02,12.96,1.23,2.68,2.98,7.1,5.24,13.27,2.26,6.17,4.27,11.57,6.02,16.2,1.75,4.63,2.72,6.94,2.93,6.94.62-1.23,1.18-4.47,1.7-9.72.51-5.24,1.13-12.08,1.85-20.52.72-8.43,1.39-15.22,2.01-20.36,5.96-44.01,11.62-83.6,16.97-118.77,1.03-4.32,1.85-6.68,2.47-7.1,1.03-.82,1.95-1.23,2.78-1.23h11.11c3.29,0,4.94,1.13,4.94,3.39,0,.21-.05.62-.15,1.23-.11.62-.15,1.13-.15,1.54-.21,2.68-2.16,15.22-5.86,37.64l-7.1,45.04-4.94,33.93c-.62,4.12-1.39,10.03-2.31,17.74-.93,7.71-1.7,13.83-2.31,18.36-2.06,13.37-4.01,27.56-5.86,42.57-.41,3.5-1.23,9.21-2.47,17.12-1.23,7.92-2.06,13.83-2.47,17.74-.41,5.76-1.96,8.64-4.63,8.64-1.65,0-3.08-2.16-4.32-6.48-1.85-7.81-3.7-14.08-5.55-18.82-.21-.41-4.83-13.98-13.88-40.72-.82-3.29-1.54-4.94-2.16-4.94-.21,0-.72,1.03-1.54,3.08l-4.01,12.03-15.12,48.74-2.47,6.17c0,1.44-1.03,2.16-3.08,2.16-1.85,0-2.98-.52-3.39-1.54l-19.13-83.91c-1.85-8.22-5.55-25.5-11.11-51.83Z"/><path class="cls-1" d="M797.75,201.91c11.72,0,20.87.11,27.46.31,2.05,0,3.08,1.65,3.08,4.94v.93c0,1.03.05,2.68.15,4.94.1,2.27.15,3.7.15,4.32,0,2.06-.21,3.29-.62,3.7-1.03.62-1.85.93-2.47.93-.41,0-1.19-.05-2.31-.15-1.13-.1-2.11-.15-2.93-.15h-4.63c-3.5,0-6.89-.1-10.18-.31h-4.63c-.41,0-6.38.21-17.89.62-2.68.21-4.01,1.23-4.01,3.08v1.54c0,.82.05,2.01.15,3.55.1,1.54.15,2.73.15,3.55v28.38c0,3.91-.05,9.87-.15,17.89-.11,8.02-.15,14.09-.15,18.2v3.08c0,4.12.31,6.69.93,7.71.41.62,1.03.93,1.85.93h2.47c13.57,0,23.45.31,29.62.93,1.03,0,1.54.93,1.54,2.78v.31c0,.62.15,2.47.46,5.55.31,3.09.46,5.35.46,6.79,0,2.06-.21,3.08-.62,3.08-2.27.62-5.35.93-9.25.93-1.65,0-4.94-.1-9.87-.31-4.94-.2-8.33-.31-10.18-.31h-5.86c-.82,0-1.23.82-1.23,2.47v2.78c-.41,6.79-.62,16.97-.62,30.54,0,11.52.2,29.41.62,53.68.2,3.08.93,4.63,2.16,4.63h38.56c2.47,0,4.01.21,4.63.62,1.03,1.03,1.54,3.08,1.54,6.17,0,1.03-.11,2.57-.31,4.63-.21,2.06-.31,3.39-.31,4.01,0,1.44-.26,2.37-.77,2.78-.52.41-1.7.62-3.55.62h-52.75c-2.47,0-4.32-.11-5.55-.31-2.06-.41-3.19-.93-3.39-1.54v-39.49c0-36.81.1-65.5.31-86.07v-58.61c0-6.37.05-13.78.15-22.21.1-8.43.2-14.96.31-19.59.1-4.63.15-8.07.15-10.33,0-1.64.82-2.47,2.47-2.47h1.85c2.05.21,5.45.31,10.18.31,2.05,0,5.24-.05,9.56-.15,4.32-.1,7.71-.15,10.18-.15h3.09Z"/><path class="cls-1" d="M854.2,441.61c-5.97,0-8.95-1.13-8.95-3.39,0-.62-.05-1.23-.15-1.85-.11-.62-.15-2.36-.15-5.24-.21-3.49-.31-9.05-.31-16.66,0-3.49.05-8.95.15-16.35.1-7.4.15-13.06.15-16.97,0-8.02-.11-13.98-.31-17.89,0-6.58-.15-25.76-.46-57.54-.31-31.78-.67-55.89-1.08-72.34v-.93c0-.82.05-4.06.15-9.72.1-5.65.15-10.03.15-13.11v-6.17l-.31-.31c0-2.26,1.54-3.39,4.63-3.39h1.23c1.03,0,2.98.05,5.86.15,2.88.11,4.83.15,5.86.15h1.23c.82,0,1.28.11,1.39.31.1.21.26,1.03.46,2.47.41,2.47.62,7.1.62,13.88s.05,15.63.15,26.53c.1,10.9.26,20.57.46,29,0,4.12.05,10.39.15,18.82.1,8.44.15,14.71.15,18.82,0,10.08-.05,20.62-.15,31.62-.11,11-.21,20.11-.31,27.3-.11,7.2-.15,11.41-.15,12.65v.62c0,2.27.05,6.32.15,12.19.1,5.86.15,10.23.15,13.11,0,5.35-.11,9.05-.31,11.11l4.32.31c3.7.21,8.64.52,14.81.93h2.47c1.85,0,2.78,1.13,2.78,3.39,0,3.91.1,6.69.31,8.33,0,.62.05,1.75.15,3.39.1,1.65.15,2.88.15,3.7v1.54c0,1.23-.41,1.85-1.23,1.85h-1.85c-2.88,0-8.54-.05-16.97-.15-8.44-.1-13.57-.15-15.42-.15Z"/><path class="cls-1" d="M965.88,203.14c0,.41.05,1.34.15,2.78.1,1.44.15,2.57.15,3.39,0,2.88-.31,5.35-.93,7.4-.21,1.23-1.13,2.27-2.78,3.08-9.67,4.12-18.93,10.9-27.77,20.36-11.93,12.55-20.67,27.15-26.22,43.81-3.91,11.72-5.86,23.24-5.86,34.55v1.23c.41,25.71,4.94,46.27,13.57,61.7,4.73,8.44,10.9,16.46,18.51,24.06,7.61,7.61,15.32,12.34,23.14,14.19,2.67.62,4.52,2.16,5.55,4.63,1.03,2.06,1.54,6.28,1.54,12.65v.62c0,3.08-1.54,4.63-4.63,4.63-10.9-.21-21.7-4.11-32.39-11.72-12.34-8.43-22.52-20.87-30.54-37.33-5.76-12.54-9.87-25.3-12.34-38.25-1.65-10.28-2.47-21.8-2.47-34.55,0-5.14.1-8.74.31-10.8,1.23-18.3,5.86-35.17,13.88-50.59,8.84-16.86,20.46-30.95,34.86-42.26.2-.2,1.85-1.49,4.94-3.86,3.08-2.36,5.86-4.37,8.33-6.02,2.47-1.64,5.35-3.29,8.64-4.94,3.29-1.64,5.96-2.47,8.02-2.47,2.47,0,3.8.11,4.01.31.2.41.31,1.54.31,3.39Z"/><path class="cls-1" d="M966.5,342.27c-.82-13.98-1.34-25.71-1.54-35.17v-4.01c0-40.51,6.89-70.23,20.67-89.16,9.46-12.75,21.6-19.44,36.4-20.05.41,0,1.13-.05,2.16-.15,1.03-.1,1.75-.15,2.16-.15,19.95,0,34.14,8.13,42.57,24.37,6.58,12.75,10.49,36.61,11.72,71.57.41,13.57.62,25.09.62,34.55,0,27.35-1.44,48.33-4.32,62.93-6.38,35.17-21.19,55.53-44.42,61.08-4.12,1.03-7.61,1.54-10.49,1.54-21.8,0-37.74-18.2-47.82-54.6-2.68-9.87-5.24-27.46-7.71-52.75ZM1026.35,212.39c-10.08.41-18.36,4.73-24.83,12.96-6.48,8.23-10.75,17.89-12.8,29-3.29,16.87-4.94,34.04-4.94,51.52v6.17c1.23,32.91,4.83,59.65,10.8,80.21,2.67,9.05,6.48,17.07,11.41,24.06,4.94,6.99,9.87,10.49,14.81,10.49h.31c10.07-.2,17.58-3.13,22.52-8.79,4.94-5.65,8.95-13.21,12.03-22.67,4.52-13.37,6.79-34.65,6.79-63.86v-11.72c-.21-1.64-.31-4.52-.31-8.64v-10.49c0-7.61-.11-12.75-.31-15.42-1.23-22.21-3.5-38.46-6.79-48.74-2.27-6.17-5.86-11.72-10.8-16.66-4.94-4.94-10.7-7.4-17.28-7.4h-.62Z"/><path class="cls-1" d="M1201.27,197.28c1.23,0,1.85,1.44,1.85,4.32v116c0,38.25.2,67.56.62,87.92.41,6.17.62,17.07.62,32.7v.62c0,2.47-.41,3.7-1.23,3.7-1.23,0-3.7-.15-7.4-.46s-5.97-.46-6.79-.46h-1.54c-1.44,0-2.16-1.33-2.16-4.01-1.03-22.21-1.54-52.65-1.54-91.32v-79.59c0-.2.05-2.05.15-5.55.1-3.49.15-6.37.15-8.64,0-9.46-.52-14.19-1.54-14.19s-3.5,1.65-7.4,4.94l-12.03,12.34c-2.47,2.47-4.63,4.32-6.48,5.55-2.06,1.65-3.5,2.47-4.32,2.47-.62,0-1.39-.26-2.31-.77-.92-.51-1.96-1.18-3.08-2.01-1.13-.82-1.8-1.34-2-1.54-6.58-3.9-14.4-9.66-23.45-17.28-.62-.62-1.13-.93-1.54-.93-.82,0-1.23,1.44-1.23,4.32v.93c0,6.38.05,17.17.15,32.39.1,15.22.15,26.84.15,34.86,0,15.02-.11,25.91-.31,32.7-.62,17.69-.93,44.01-.93,78.98,0,1.44.05,3.7.15,6.79.1,3.08.15,5.24.15,6.48,0,2.68-1.44,4.01-4.32,4.01h-1.85c-.82,0-2.42.05-4.78.15-2.37.1-3.86.15-4.47.15-1.85,0-2.98-.36-3.39-1.08-.41-.72-.72-2.52-.93-5.4v-8.95c0-3.9.1-9.72.31-17.43.2-7.71.31-13.52.31-17.43,0-9.46.2-29.97.62-61.55.41-31.57.62-55.89.62-72.96v-52.75c0-4.32.62-6.68,1.85-7.1.82,0,2.83,1.29,6.02,3.86,3.19,2.57,6.48,5.4,9.87,8.48s5.29,4.83,5.71,5.24c.2.21,3.24,3.08,9.1,8.64,5.86,5.55,10.13,9.25,12.8,11.11,3.7,2.47,5.65,3.7,5.86,3.7,1.03,0,2.88-1.64,5.55-4.94,1.03-1.03,2.98-2.78,5.86-5.24,2.88-2.47,4.94-4.32,6.17-5.55,2.26-2.26,7.81-7.2,16.66-14.81,8.84-7.61,14.08-11.41,15.73-11.41Z"/><path class="cls-1" d="M1260.5,201.91c11.72,0,20.87.11,27.46.31,2.05,0,3.08,1.65,3.08,4.94v.93c0,1.03.05,2.68.15,4.94.1,2.27.15,3.7.15,4.32,0,2.06-.21,3.29-.62,3.7-1.03.62-1.85.93-2.47.93-.42,0-1.19-.05-2.31-.15-1.13-.1-2.11-.15-2.93-.15h-4.63c-3.5,0-6.89-.1-10.18-.31h-4.63c-.41,0-6.38.21-17.89.62-2.68.21-4.01,1.23-4.01,3.08v1.54c0,.82.05,2.01.15,3.55.1,1.54.15,2.73.15,3.55v28.38c0,3.91-.05,9.87-.15,17.89-.11,8.02-.15,14.09-.15,18.2v3.08c0,4.12.31,6.69.93,7.71.41.62,1.03.93,1.85.93h2.47c13.57,0,23.45.31,29.62.93,1.03,0,1.54.93,1.54,2.78v.31c0,.62.15,2.47.46,5.55.31,3.09.46,5.35.46,6.79,0,2.06-.21,3.08-.62,3.08-2.27.62-5.35.93-9.25.93-1.65,0-4.94-.1-9.87-.31-4.94-.2-8.33-.31-10.18-.31h-5.86c-.82,0-1.23.82-1.23,2.47v2.78c-.41,6.79-.62,16.97-.62,30.54,0,11.52.2,29.41.62,53.68.2,3.08.93,4.63,2.16,4.63h38.56c2.47,0,4.01.21,4.63.62,1.03,1.03,1.54,3.08,1.54,6.17,0,1.03-.11,2.57-.31,4.63-.21,2.06-.31,3.39-.31,4.01,0,1.44-.26,2.37-.77,2.78-.52.41-1.7.62-3.55.62h-52.75c-2.47,0-4.32-.11-5.55-.31-2.06-.41-3.19-.93-3.39-1.54v-39.49c0-36.81.1-65.5.31-86.07v-58.61c0-6.37.05-13.78.15-22.21.1-8.43.2-14.96.31-19.59.1-4.63.15-8.07.15-10.33,0-1.64.82-2.47,2.47-2.47h1.85c2.05.21,5.45.31,10.18.31,2.05,0,5.25-.05,9.56-.15,4.32-.1,7.71-.15,10.18-.15h3.08Z"/></g><g class="cls-2"><path class="cls-1" d="M282.43,516.08h.41c7.88,0,11.96.82,12.24,2.45.27,1.91.54,4.89.82,8.97v7.34c0,3.26-.41,5.3-1.22,6.12-.82,1.91-6.93,2.86-18.36,2.86-2.18,0-4.63-.06-7.34-.2-2.72-.13-4.35-.2-4.9-.2-1.09,0-1.63,16.18-1.63,48.54v17.13c.27,19.86.61,41.34,1.02,64.45.41,23.12.68,41.68.82,55.68.13,14.01.34,27.4.61,40.18,0,3.81.06,9.93.2,18.36.13,8.43.2,15.09.2,19.99l.41,20.8v.41c0,3.54-.55,5.98-1.63,7.34-1.91,1.63-6.12,2.45-12.65,2.45h-2.04c-1.36,0-2.72.06-4.08.2-1.36.13-2.18.2-2.45.2-.82,0-1.5-.27-2.04-.82-1.36-.82-2.04-3.8-2.04-8.97v-17.54c-.55-31.54-.82-52.48-.82-62.82v-51.81c-.27-12.78-.41-35.9-.41-69.35,0-22.57.13-37.53.41-44.87v-38.35c-.55-.27-1.63-.41-3.26-.41-.82,0-2.52.07-5.1.2-2.59.14-4.56.2-5.92.2-6.26,0-10.06-.82-11.42-2.45-.82-.82-1.22-1.9-1.22-3.26v-15.09c0-3.8.95-5.84,2.86-6.12.27,0,1.15-.2,2.65-.61,1.49-.41,2.79-.61,3.88-.61h3.26c5.44.55,9.92.82,13.46.82,5.16,0,12.78-.2,22.84-.61,10.06-.41,17.54-.61,22.44-.61Z"/><path class="cls-1" d="M292.62,706.99c-1.09-18.49-1.77-33.99-2.04-46.5v-5.3c0-53.57,9.11-92.87,27.33-117.89,12.51-16.86,28.56-25.7,48.14-26.52.54,0,1.49-.06,2.86-.2,1.36-.13,2.31-.2,2.86-.2,26.38,0,45.14,10.75,56.29,32.23,8.7,16.87,13.87,48.41,15.5,94.64.54,17.95.82,33.18.82,45.69,0,36.17-1.91,63.91-5.71,83.22-8.43,46.5-28.01,73.43-58.74,80.77-5.44,1.36-10.06,2.04-13.87,2.04-28.83,0-49.91-24.07-63.23-72.2-3.54-13.05-6.94-36.31-10.2-69.76ZM371.76,535.25c-13.33.55-24.27,6.26-32.84,17.13-8.57,10.88-14.21,23.66-16.93,38.35-4.35,22.3-6.53,45.01-6.53,68.12v8.16c1.63,43.52,6.39,78.87,14.28,106.06,3.53,11.97,8.57,22.58,15.09,31.82,6.53,9.25,13.05,13.87,19.58,13.87h.41c13.32-.27,23.25-4.14,29.78-11.63,6.53-7.48,11.83-17.47,15.91-29.98,5.98-17.67,8.97-45.82,8.97-84.44v-15.5c-.27-2.17-.41-5.98-.41-11.42v-13.87c0-10.06-.14-16.86-.41-20.4-1.63-29.37-4.63-50.85-8.97-64.45-3-8.16-7.75-15.5-14.28-22.03-6.53-6.53-14.14-9.79-22.84-9.79h-.82Z"/><path class="cls-1" d="M654.05,513.63c13.87,0,25.43,4.9,34.67,14.69,9.24,9.79,13.87,21.62,13.87,35.49v1.63c0,3.54-.14,5.3-.41,5.3-.55.27-2.18.41-4.9.41-2.18,0-5.58-.13-10.2-.41-4.63-.27-7.48-.41-8.57-.41-.27,0-.41-1.77-.41-5.3v-2.45c0-5.16-1.98-9.85-5.92-14.07-3.95-4.21-9.86-6.32-17.75-6.32h-.82c-4.63,0-9.25,2.59-13.87,7.75-2.72,4.35-4.08,8.97-4.08,13.87,0,8.43,3.12,15.5,9.38,21.21,12.51,12.24,22.7,25.57,30.59,39.98,17.13,31.55,25.7,67.45,25.7,107.69,0,6.53-.27,14.42-.82,23.66-2.72,28.55-8.16,49.5-16.32,62.82-9.52,15.78-23.12,23.66-40.79,23.66-14.14,0-25.5-7-34.06-21.01-8.57-14-13.4-30.52-14.48-49.56v-24.07c0-1.36,5.71-2.04,17.13-2.04,6.79,0,10.2.27,10.2.82v25.7c.82,10.34,3.06,19.11,6.73,26.31,3.67,7.21,8.63,10.81,14.89,10.81,11.15,0,19.17-7.48,24.07-22.44,2.99-10.06,5.16-25.15,6.53-45.28.27-2.99.41-6.25.41-9.79,0-12.24-1.36-24.74-4.08-37.53-6.26-31.27-16.05-56.02-29.37-74.24-1.91-2.72-5.44-7.2-10.61-13.46-5.17-6.25-9.04-11.15-11.63-14.69-2.59-3.53-5.1-8.22-7.55-14.07-2.45-5.84-3.67-11.63-3.67-17.34v-4.08c1.08-11.96,5.84-22.16,14.28-30.6,8.43-8.43,18.08-12.65,28.96-12.65h2.86Z"/><path class="cls-1" d="M745.84,516.49c2.72.82,4.08,2.72,4.08,5.71-.55,9.79-.82,17.54-.82,23.25v40.38c-.55,2.18-.82,5.71-.82,10.61,0,2.45.13,3.67.41,3.67.82,0,2.04-1.15,3.67-3.47,1.63-2.31,3.33-4.83,5.1-7.55,1.77-2.71,2.79-4.21,3.06-4.49.54-.82,1.63-2.65,3.26-5.51s2.99-5.1,4.08-6.73c3.26-5.44,9.79-15.77,19.58-31,2.45-3.81,4.62-6.94,6.53-9.38,4.08-2.45,6.66-3.67,7.75-3.67h2.86c7.61,0,13.46.41,17.54,1.22,2.17.82,3.26,1.63,3.26,2.45,0,.27-.14.61-.41,1.02-.27.41-.55.82-.82,1.22-.27.41-.55.89-.82,1.43-1.36,3-4.9,8.57-10.61,16.73-5.71,8.16-8.84,12.51-9.38,13.05l-15.5,24.07c-7.34,11.42-12.24,18.63-14.69,21.62-4.63,5.99-13.19,19.72-25.7,41.2l9.79,21.62,15.09,33.45c18.22,39.44,33.45,70.71,45.69,93.82.27.55,1.36,2.65,3.26,6.32,1.9,3.67,3.6,7.21,5.1,10.61,1.49,3.4,3.12,7.21,4.9,11.42,1.77,4.22,3.06,7.82,3.88,10.81v.41c0,.82-1.91,1.22-5.71,1.22-6.26,0-11.7-.68-16.32-2.04-3-.82-5.3-2.58-6.94-5.3-7.34-12.51-14.69-26.24-22.03-41.2-4.35-8.97-14.83-31.82-31.41-68.53-1.09-2.45-1.91-3.67-2.45-3.67h-.41v6.53c0,11.7.54,30.87,1.63,57.52.27,7.62.82,18.15,1.63,31.62s1.22,20.33,1.22,20.6v.41c0,1.36-7.34,2.45-22.03,3.26-4.63-.55-6.93-2.04-6.93-4.49-.27-4.35-.48-14.54-.61-30.59-.14-16.04-.34-27.19-.61-33.45-1.36-37.53-2.04-71.52-2.04-101.98v-4.08c0-27.74.13-48.54.41-62.41v-17.13c0-14.41-.27-32.77-.82-55.07v-4.08c0-2.99.13-5.16.41-6.53.82-3.26,2.04-5.16,3.67-5.71,1.36-.27,3.94-.41,7.75-.41,6.25,0,10.33.41,12.24,1.22Z"/><path class="cls-1" d="M838.85,633.16v-2.04c0-2.17-.14-12.3-.41-30.39-.27-18.08-.41-32.02-.41-41.81,0-21.75.68-36.03,2.04-42.83,1.63-2.17,2.99-3.26,4.08-3.26h.41c5.98,0,9.65.14,11.01.41,2.17,0,3.67.14,4.49.41,2.45.27,3.94,2.18,4.49,5.71v36.31c0,16.87-.14,40.53-.41,70.98-.27,30.46-.41,53.58-.41,69.35,0,4.89.27,11.15.82,18.76.82,18.76,1.49,31.68,2.04,38.75.82,10.61,1.49,18.15,2.04,22.64.54,4.49,1.56,10.34,3.06,17.54,1.49,7.21,3.47,12.31,5.92,15.3,2.45,3,5.57,4.63,9.38,4.9.27,0,.82.14,1.63.41h.82c2.72,0,5.03-.41,6.94-1.22,1.9-.82,3.47-1.63,4.69-2.45,1.22-.82,2.31-2.17,3.26-4.08.95-1.9,1.56-3.4,1.84-4.49.27-1.08.68-2.79,1.22-5.1.54-2.31.82-3.73.82-4.28,2.17-11.15,3.26-25.43,3.26-42.83,0-9.24-.27-19.85-.82-31.82-.55-15.77-1.22-39.77-2.04-72-.82-32.23-1.5-56.09-2.04-71.59l-1.22-18.36c-.82-18.77-1.22-29.37-1.22-31.82v-4.08c0-1.36.27-2.17.82-2.45,1.36-1.36,4.21-2.04,8.57-2.04h15.09c1.63,0,2.45.68,2.45,2.04.82,3.54,1.22,11.42,1.22,23.66v10.61c1.08,23.93,1.9,64.19,2.45,120.75.54,22.3.82,39.44.82,51.4,0,34-.68,59.15-2.04,75.47-1.36,11.42-4.22,20.13-8.57,26.11-5.99,8.71-16.87,13.46-32.63,14.28-.82.27-2.31.41-4.49.41-12.79,0-22.3-4.49-28.56-13.46-8.16-11.42-13.87-33.86-17.13-67.31l-.41-4.49c-.82-8.16-1.43-21.07-1.84-38.75-.41-17.67-.75-28.69-1.02-33.04,0-2.45-.07-6.66-.2-12.65-.14-5.98-.2-10.74-.2-14.28,0-7.34.13-12.78.41-16.32v-6.93Z"/><path class="cls-1" d="M958.37,523.02c.27-.27.41-.82.41-1.63,0-.54-.07-1.08-.2-1.63-.14-.54-.2-1.08-.2-1.63,0-1.9.27-3.12.82-3.67s1.08-.82,1.63-.82c.27,0,.75.07,1.43.2.68.14,1.29.2,1.84.2h2.45c17.68,0,33.04,3.13,46.1,9.38,11.42,5.17,19.58,11.97,24.48,20.4,4.62,7.34,6.93,17.95,6.93,31.82v2.45c0,14.69-6.26,29.37-18.76,44.06-3.26,3.81-7.21,7.62-11.83,11.42-4.63,3.81-8.23,6.73-10.81,8.77-2.59,2.04-3.88,3.47-3.88,4.28,1.63,7.08,4.35,15.91,8.16,26.52,3.81,10.61,7.96,21.89,12.44,33.86,4.49,11.97,7.41,20.13,8.77,24.48,17.67,49.77,28.69,79.82,33.04,90.15,3.53,7.89,5.3,12.79,5.3,14.69,0,1.09-.68,1.63-2.04,1.63h-1.63c-3.81-.54-6.93-.82-9.38-.82-1.63,0-3.95.07-6.94.2-3,.14-5.17.2-6.53.2h-.82c-1.63,0-6.12-10.74-13.46-32.23-7.34-21.48-11.97-35.9-13.87-43.24-3.81-14.14-9.52-32.77-17.13-55.89-7.34-23.39-11.29-35.08-11.83-35.08s-.82,4.89-.82,14.69v7.75c0,5.71.06,12.38.2,19.99.13,7.62.27,15.3.41,23.05.13,7.75.27,15.64.41,23.66.13,8.03.27,15.57.41,22.64.13,7.08.27,13.33.41,18.76.13,5.44.2,9.79.2,13.05l.41,4.9v.82c0,2.18-.07,5.1-.2,8.77-.14,3.67-.2,6.06-.2,7.14,0,1.63-.14,2.58-.41,2.86-.82,1.08-2.31,1.63-4.49,1.63-.55,0-1.5-.07-2.86-.2-1.36-.14-2.45-.2-3.26-.2s-2.18.06-4.08.2c-1.91.13-3.26.2-4.08.2-2.72,0-4.63-.55-5.71-1.63-.27-1.9-.48-6.66-.61-14.28-.14-7.61-.27-15.84-.41-24.68-.14-8.83-.2-14.48-.2-16.93.27-5.44.41-12.37.41-20.8,0-2.45-.07-7.88-.2-16.32-.14-8.43-.2-16.45-.2-24.07-.27-2.17-.41-5.44-.41-9.79,0-8.16.2-21.01.61-38.55s.61-30.39.61-38.55-.14-14.69-.41-18.77c-.27-9.52-.41-21.62-.41-36.31v-24.48c.27-6.53.41-17.4.41-32.64ZM1014.67,597.26c2.99-7.61,4.49-14.54,4.49-20.8,0-8.43-1.5-15.02-4.49-19.79-3-4.75-7.89-9.04-14.69-12.85-7.08-3.81-12.65-5.71-16.73-5.71h-1.22l-.41.82v1.63c0,1.36.06,4.08.2,8.16.13,4.08.2,7.08.2,8.97,0,.55-.07,2.38-.2,5.51-.14,3.13-.2,7.07-.2,11.83v14.07c0,5.99-.14,12.38-.41,19.17-.27,6.8-.41,10.47-.41,11.01l.41,2.86c6.53-.27,13.12-3.26,19.78-8.97,6.66-5.71,11.22-11.01,13.67-15.91Z"/><path class="cls-1" d="M1085.65,523.02c.27-.27.41-.82.41-1.63,0-.54-.07-1.08-.2-1.63-.14-.54-.2-1.08-.2-1.63,0-1.9.27-3.12.82-3.67s1.08-.82,1.63-.82c.27,0,.75.07,1.43.2.68.14,1.29.2,1.84.2h2.45c17.68,0,33.04,3.13,46.1,9.38,11.42,5.17,19.58,11.97,24.48,20.4,4.62,7.34,6.93,17.95,6.93,31.82v2.45c0,14.69-6.26,29.37-18.76,44.06-3.26,3.81-7.21,7.62-11.83,11.42-4.63,3.81-8.23,6.73-10.81,8.77-2.59,2.04-3.88,3.47-3.88,4.28,1.63,7.08,4.35,15.91,8.16,26.52,3.81,10.61,7.96,21.89,12.44,33.86,4.49,11.97,7.41,20.13,8.77,24.48,17.67,49.77,28.69,79.82,33.04,90.15,3.53,7.89,5.3,12.79,5.3,14.69,0,1.09-.68,1.63-2.04,1.63h-1.63c-3.81-.54-6.93-.82-9.38-.82-1.63,0-3.95.07-6.94.2-3,.14-5.17.2-6.53.2h-.82c-1.63,0-6.12-10.74-13.46-32.23-7.34-21.48-11.97-35.9-13.87-43.24-3.81-14.14-9.52-32.77-17.13-55.89-7.34-23.39-11.29-35.08-11.83-35.08s-.82,4.89-.82,14.69v7.75c0,5.71.06,12.38.2,19.99.13,7.62.27,15.3.41,23.05.13,7.75.27,15.64.41,23.66.13,8.03.27,15.57.41,22.64.13,7.08.27,13.33.41,18.76.13,5.44.2,9.79.2,13.05l.41,4.9v.82c0,2.18-.07,5.1-.2,8.77-.14,3.67-.2,6.06-.2,7.14,0,1.63-.14,2.58-.41,2.86-.82,1.08-2.31,1.63-4.49,1.63-.55,0-1.5-.07-2.86-.2-1.36-.14-2.45-.2-3.26-.2s-2.18.06-4.08.2c-1.91.13-3.26.2-4.08.2-2.72,0-4.63-.55-5.71-1.63-.27-1.9-.48-6.66-.61-14.28-.14-7.61-.27-15.84-.41-24.68-.14-8.83-.2-14.48-.2-16.93.27-5.44.41-12.37.41-20.8,0-2.45-.07-7.88-.2-16.32-.14-8.43-.2-16.45-.2-24.07-.27-2.17-.41-5.44-.41-9.79,0-8.16.2-21.01.61-38.55s.61-30.39.61-38.55-.14-14.69-.41-18.77c-.27-9.52-.41-21.62-.41-36.31v-24.48c.27-6.53.41-17.4.41-32.64ZM1141.94,597.26c2.99-7.61,4.49-14.54,4.49-20.8,0-8.43-1.5-15.02-4.49-19.79-3-4.75-7.89-9.04-14.69-12.85-7.08-3.81-12.65-5.71-16.73-5.71h-1.22l-.41.82v1.63c0,1.36.06,4.08.2,8.16.13,4.08.2,7.08.2,8.97,0,.55-.07,2.38-.2,5.51-.14,3.13-.2,7.07-.2,11.83v14.07c0,5.99-.14,12.38-.41,19.17-.27,6.8-.41,10.47-.41,11.01l.41,2.86c6.53-.27,13.12-3.26,19.78-8.97,6.66-5.71,11.22-11.01,13.67-15.91Z"/><path class="cls-1" d="M1214.15,586.65v-33.86c0-11.15.41-21.48,1.22-31,0-1.9,3.53-2.86,10.61-2.86h6.93c4.08,0,6.25,1.5,6.53,4.49.27,2.72.41,9.25.41,19.58,0,5.71-.07,14.14-.2,25.29-.14,11.15-.2,18.76-.2,22.84,0,4.35.06,12.17.2,23.46.13,11.29.2,20.33.2,27.13v21.62c0,4.08.06,9.66.2,16.72.13,7.08.2,12.65.2,16.73s-.07,10.06-.2,17.95c-.14,7.89-.2,13.6-.2,17.13,0,10.88.2,26.79.61,47.73.41,20.95.61,36.85.61,47.73,0,4.08-.14,6.67-.41,7.75,0,4.08-6.53,6.12-19.58,6.12-3,0-4.96-.68-5.92-2.04-.96-1.36-1.57-3.81-1.83-7.34,0-.82-.07-2.17-.2-4.08-.14-1.9-.2-3.26-.2-4.08,0-1.36.06-3.47.2-6.32.13-2.86.2-4.96.2-6.32,0-10.06.06-26.78.2-50.18.13-23.39.2-40.65.2-51.81,0-4.08-.07-9.59-.2-16.52-.14-6.93-.2-12.3-.2-16.11,0-7.61.13-21.62.41-42.02.27-20.4.41-36.31.41-47.73Z"/><path class="cls-1" d="M1281.05,838.35c-7.89,0-11.83-1.49-11.83-4.49,0-.82-.07-1.63-.2-2.45-.14-.82-.2-3.12-.2-6.93-.27-4.62-.41-11.96-.41-22.03,0-4.62.06-11.83.2-21.62.13-9.79.2-17.27.2-22.44,0-10.61-.14-18.49-.41-23.66,0-8.7-.2-34.06-.61-76.08-.41-42.02-.89-73.9-1.43-95.66v-1.22c0-1.08.06-5.37.2-12.85.13-7.48.2-13.26.2-17.34v-8.16l-.41-.41c0-2.99,2.04-4.49,6.12-4.49h1.63c1.36,0,3.94.07,7.75.2,3.81.14,6.39.2,7.75.2h1.63c1.08,0,1.7.14,1.84.41.13.27.34,1.36.61,3.26.54,3.26.82,9.38.82,18.36s.06,20.67.2,35.08c.13,14.42.34,27.2.61,38.35,0,5.44.06,13.74.2,24.88.13,11.15.2,19.45.2,24.88,0,13.33-.07,27.27-.2,41.81-.14,14.55-.27,26.59-.41,36.1-.14,9.52-.2,15.09-.2,16.73v.82c0,3,.06,8.36.2,16.11.13,7.75.2,13.53.2,17.34,0,7.08-.14,11.97-.41,14.69l5.71.41c4.89.27,11.42.68,19.58,1.22h3.26c2.45,0,3.67,1.5,3.67,4.49,0,5.17.13,8.84.41,11.01,0,.82.06,2.31.2,4.49.13,2.18.2,3.81.2,4.9v2.04c0,1.63-.55,2.45-1.63,2.45h-2.45c-3.81,0-11.29-.06-22.44-.2-11.15-.13-17.95-.2-20.4-.2Z"/><path class="cls-1" d="M1334.08,633.16v-2.04c0-2.17-.14-12.3-.41-30.39-.27-18.08-.41-32.02-.41-41.81,0-21.75.68-36.03,2.04-42.83,1.63-2.17,2.99-3.26,4.08-3.26h.41c5.98,0,9.65.14,11.01.41,2.17,0,3.67.14,4.49.41,2.45.27,3.94,2.18,4.49,5.71v36.31c0,16.87-.14,40.53-.41,70.98-.27,30.46-.41,53.58-.41,69.35,0,4.89.27,11.15.82,18.76.82,18.76,1.49,31.68,2.04,38.75.82,10.61,1.49,18.15,2.04,22.64.54,4.49,1.56,10.34,3.06,17.54,1.49,7.21,3.47,12.31,5.92,15.3,2.45,3,5.57,4.63,9.38,4.9.27,0,.82.14,1.63.41h.82c2.71,0,5.03-.41,6.93-1.22,1.9-.82,3.47-1.63,4.69-2.45,1.22-.82,2.31-2.17,3.26-4.08.95-1.9,1.56-3.4,1.84-4.49.27-1.08.68-2.79,1.22-5.1.54-2.31.82-3.73.82-4.28,2.17-11.15,3.26-25.43,3.26-42.83,0-9.24-.27-19.85-.82-31.82-.55-15.77-1.22-39.77-2.04-72-.82-32.23-1.5-56.09-2.04-71.59l-1.22-18.36c-.82-18.77-1.22-29.37-1.22-31.82v-4.08c0-1.36.27-2.17.82-2.45,1.36-1.36,4.21-2.04,8.57-2.04h15.09c1.63,0,2.45.68,2.45,2.04.82,3.54,1.22,11.42,1.22,23.66v10.61c1.08,23.93,1.9,64.19,2.45,120.75.54,22.3.82,39.44.82,51.4,0,34-.68,59.15-2.04,75.47-1.36,11.42-4.22,20.13-8.57,26.11-5.99,8.71-16.87,13.46-32.63,14.28-.82.27-2.31.41-4.49.41-12.79,0-22.3-4.49-28.56-13.46-8.16-11.42-13.87-33.86-17.13-67.31l-.41-4.49c-.82-8.16-1.43-21.07-1.83-38.75-.41-17.67-.75-28.69-1.02-33.04,0-2.45-.07-6.66-.2-12.65-.14-5.98-.2-10.74-.2-14.28,0-7.34.13-12.78.41-16.32v-6.93Z"/><path class="cls-1" d="M1649,829.78c.27.82.41,2.45.41,4.9,0,1.63-1.22,2.86-3.67,3.67-.82.27-2.59.41-5.3.41-8.71,0-14.14-.54-16.32-1.63-1.91-1.08-3.13-2.99-3.67-5.71-.55-2.45-.96-6.25-1.22-11.42,0-1.9-.75-12.51-2.24-31.82-1.5-19.31-2.52-33.86-3.06-43.65-.27-5.44-2.31-36.17-6.12-92.19-.55-5.44-1.09-13.05-1.63-22.84-.55-9.79-.82-15.23-.82-16.32-.27-1.36-.82-6.25-1.63-14.69-.82-8.43-1.57-16.38-2.24-23.86-.68-7.48-1.16-11.49-1.43-12.03-.82,0-3.4,4.35-7.75,13.05-1.09,1.91-2.52,4.28-4.28,7.14-1.77,2.86-3.33,5.24-4.69,7.14-3,4.08-4.76,6.12-5.3,6.12h-.41c-.82-.27-1.63-1.08-2.45-2.45-3-3.81-6.53-9.24-10.61-16.32-2.18-3.26-4.56-7.2-7.14-11.83-2.59-4.62-4.49-7.96-5.71-9.99-1.22-2.04-2.11-3.06-2.65-3.06h-.41c-.82.82-2.45,3.61-4.9,8.36-2.45,4.76-4.08,7.82-4.9,9.18-1.09,1.63-5.17,8.97-12.24,22.03-1.09,2.45-2.04,3.67-2.86,3.67-2.45,0-6.26-3.4-11.42-10.2-2.45-2.99-8.57-9.65-18.36-19.99-1.63-1.63-2.59-2.45-2.86-2.45s-.55-.13-.82-.41c-.27-.27-.55-.41-.82-.41v.41c-1.63,6.53-3.4,25.84-5.3,57.93-1.36,28.83-2.31,46.78-2.86,53.85-4.89,102.8-8.02,156.38-9.38,160.73-.55,1.36-1.5,2.45-2.86,3.26-1.63.82-3.81,1.22-6.53,1.22-1.63,0-4.9-.27-9.79-.82-3,0-4.49-1.36-4.49-4.08,0-8.16,1.15-27.4,3.47-57.72,2.31-30.32,3.47-45.89,3.47-46.71.27-6.25.82-19.24,1.63-38.96.82-19.71,1.63-35.01,2.45-45.89.82-6.25,1.49-15.77,2.04-28.56.54-12.78,1.08-22.3,1.63-28.55.54-4.9,1.29-13.93,2.24-27.13.95-13.19,1.9-24.34,2.86-33.45.95-9.11,1.84-13.93,2.65-14.48.27-.27.68-.41,1.22-.41,1.9,0,5.51,1.91,10.81,5.71,5.3,3.81,9.85,8.02,13.67,12.65l13.46,15.5c1.08,1.36,2.31,3.13,3.67,5.3,1.36,2.18,2.45,4.02,3.26,5.51.82,1.5,1.36,2.24,1.63,2.24,7.61-11.69,13.73-22.16,18.36-31.41,4.62-9.79,7.75-14.69,9.38-14.69h.82c1.63.82,5.44,5.58,11.42,14.28,4.9,7.34,8.7,13.6,11.42,18.77,4.9,9.79,8.02,14.69,9.38,14.69.82,0,2.71-3.12,5.71-9.38.54-.54,2.31-3.06,5.3-7.55,2.99-4.49,5.78-8.57,8.36-12.24,2.58-3.67,5.71-7.55,9.38-11.63,3.67-4.08,6.87-6.93,9.59-8.57.27-.27.95-.41,2.04-.41,2.45,0,3.67,1.09,3.67,3.26.27,3.26.75,7.75,1.43,13.46.68,5.71,1.15,9.25,1.43,10.61,1.08,10.88,2.51,28.01,4.28,51.4,1.77,23.39,3.06,40.39,3.88,50.99.82,10.88,1.83,26.25,3.06,46.1,1.22,19.86,2.1,32.91,2.65,39.16.82,11.97,2.31,29.44,4.49,52.42,2.17,22.99,3.67,39.91,4.49,50.79Z"/></g></g></svg>