<?xml version="1.0" encoding="UTF-8"?><svg id="Ebene_1" xmlns="http://www.w3.org/2000/svg" width="1920" height="1080" viewBox="0 0 1920 1080"><defs><style>.cls-1{fill:#fcfcfc;}</style></defs><path class="cls-1" d="M515.44,318.54l-14.4-69.66-3.53-17.05c0-.19-.44-2.06-1.32-5.58-.88-3.53-1.32-6.07-1.32-7.64,0-.78.1-1.27.29-1.47.59-.59,2.25-.88,5-.88h9.7c.39,0,.98.05,1.76.15.78.1,1.22.2,1.32.29.1.1.34.25.73.44.39.2.63.49.73.88.1.4.24,1.08.44,2.06.59,2.16,1.52,6.13,2.79,11.9,1.27,5.78,2.01,9.07,2.2,9.85,1.57,5.1,3.77,15.09,6.61,29.98,2.84,14.89,4.56,23.51,5.14,25.87.59,2.35,1.47,6.96,2.65,13.81,4.7,24.1,8.72,42.91,12.05,56.43l3.82,13.52,1.47,5c.59-.19,1.66-2.74,3.23-7.64.78-2.15,2.6-6.71,5.44-13.67,2.84-6.95,4.56-11.21,5.14-12.79,1.57-4.31,3.04-9.11,4.41-14.4.39-.59.68-.88.88-.88,1.18,0,3.72,4.11,7.64,12.34,1.18,2.55,2.84,6.76,5,12.64,2.15,5.88,4.06,11.02,5.73,15.43,1.66,4.41,2.59,6.61,2.79,6.61.59-1.18,1.13-4.26,1.62-9.26.49-5,1.07-11.51,1.76-19.55.68-8.03,1.32-14.5,1.91-19.4,5.68-41.93,11.07-79.65,16.17-113.16.98-4.12,1.76-6.37,2.35-6.76.98-.78,1.86-1.18,2.65-1.18h10.58c3.13,0,4.7,1.08,4.7,3.23,0,.2-.05.59-.15,1.18-.1.59-.15,1.08-.15,1.47-.2,2.55-2.06,14.5-5.58,35.86l-6.76,42.91-4.7,32.33c-.59,3.92-1.32,9.55-2.2,16.9s-1.62,13.18-2.2,17.49c-1.96,12.74-3.82,26.26-5.58,40.56-.39,3.33-1.18,8.77-2.35,16.31-1.18,7.55-1.96,13.18-2.35,16.9-.4,5.49-1.86,8.23-4.41,8.23-1.57,0-2.94-2.06-4.12-6.17-1.76-7.44-3.53-13.42-5.29-17.93-.2-.39-4.61-13.32-13.23-38.8-.79-3.13-1.47-4.7-2.06-4.7-.2,0-.69.98-1.47,2.94l-3.82,11.46-14.4,46.44-2.35,5.88c0,1.37-.98,2.06-2.94,2.06-1.76,0-2.84-.49-3.23-1.47l-18.22-79.95c-1.76-7.83-5.29-24.29-10.58-49.38Z"/><path class="cls-1" d="M646.23,265.34v-24.4c0-8.03.29-15.48.88-22.34,0-1.37,2.54-2.06,7.64-2.06h5c2.94,0,4.51,1.08,4.7,3.23.19,1.96.29,6.66.29,14.11,0,4.11-.05,10.19-.15,18.22-.1,8.04-.15,13.52-.15,16.46,0,3.14.05,8.77.15,16.9.1,8.13.15,14.65.15,19.55v15.58c0,2.94.05,6.96.15,12.05.1,5.1.15,9.11.15,12.05s-.05,7.25-.15,12.93c-.1,5.69-.15,9.8-.15,12.34,0,7.84.15,19.3.44,34.39.29,15.09.44,26.55.44,34.39,0,2.94-.1,4.8-.29,5.58,0,2.94-4.7,4.41-14.11,4.41-2.16,0-3.58-.49-4.26-1.47-.69-.98-1.13-2.74-1.32-5.29,0-.59-.05-1.57-.15-2.94-.1-1.37-.15-2.35-.15-2.94,0-.98.05-2.5.15-4.56.1-2.06.15-3.57.15-4.56,0-7.25.05-19.3.15-36.15.1-16.85.15-29.29.15-37.33,0-2.94-.05-6.91-.15-11.9-.1-5-.15-8.86-.15-11.61,0-5.48.1-15.58.29-30.27.19-14.7.29-26.16.29-34.39Z"/><path class="cls-1" d="M694.44,446.69c-5.69,0-8.52-1.07-8.52-3.23,0-.59-.05-1.18-.15-1.76-.1-.59-.15-2.25-.15-5-.2-3.33-.29-8.62-.29-15.87,0-3.33.05-8.52.15-15.58.1-7.05.15-12.44.15-16.17,0-7.64-.1-13.32-.29-17.05,0-6.27-.15-24.54-.44-54.82s-.64-53.25-1.03-68.93v-.88c0-.78.05-3.87.15-9.26.1-5.39.15-9.55.15-12.49v-5.88l-.29-.29c0-2.15,1.47-3.23,4.41-3.23h1.18c.98,0,2.84.05,5.58.15,2.74.1,4.6.15,5.58.15h1.18c.78,0,1.22.1,1.32.29.1.2.24.98.44,2.35.39,2.35.59,6.76.59,13.23s.05,14.89.15,25.28c.1,10.39.24,19.6.44,27.63,0,3.92.05,9.9.15,17.93.1,8.04.15,14.01.15,17.93,0,9.6-.05,19.65-.15,30.13-.1,10.48-.2,19.16-.29,26.01-.1,6.86-.15,10.88-.15,12.05v.59c0,2.16.05,6.03.15,11.61.1,5.58.15,9.75.15,12.49,0,5.1-.1,8.62-.29,10.58l4.12.29c3.53.2,8.23.49,14.11.88h2.35c1.76,0,2.65,1.08,2.65,3.23,0,3.72.1,6.37.29,7.94,0,.59.05,1.67.15,3.23.1,1.57.15,2.75.15,3.53v1.47c0,1.18-.4,1.76-1.18,1.76h-1.76c-2.75,0-8.13-.05-16.17-.15-8.04-.1-12.93-.15-14.7-.15Z"/><path class="cls-1" d="M752.64,446.69c-5.69,0-8.52-1.07-8.52-3.23,0-.59-.05-1.18-.15-1.76-.1-.59-.15-2.25-.15-5-.2-3.33-.29-8.62-.29-15.87,0-3.33.05-8.52.15-15.58.1-7.05.15-12.44.15-16.17,0-7.64-.1-13.32-.29-17.05,0-6.27-.15-24.54-.44-54.82s-.64-53.25-1.03-68.93v-.88c0-.78.05-3.87.15-9.26.1-5.39.15-9.55.15-12.49v-5.88l-.29-.29c0-2.15,1.47-3.23,4.41-3.23h1.18c.98,0,2.84.05,5.58.15,2.74.1,4.6.15,5.58.15h1.18c.78,0,1.22.1,1.32.29.1.2.24.98.44,2.35.39,2.35.59,6.76.59,13.23s.05,14.89.15,25.28c.1,10.39.24,19.6.44,27.63,0,3.92.05,9.9.15,17.93.1,8.04.15,14.01.15,17.93,0,9.6-.05,19.65-.15,30.13-.1,10.48-.2,19.16-.29,26.01-.1,6.86-.15,10.88-.15,12.05v.59c0,2.16.05,6.03.15,11.61.1,5.58.15,9.75.15,12.49,0,5.1-.1,8.62-.29,10.58l4.12.29c3.53.2,8.23.49,14.11.88h2.35c1.76,0,2.65,1.08,2.65,3.23,0,3.72.1,6.37.29,7.94,0,.59.05,1.67.15,3.23.1,1.57.15,2.75.15,3.53v1.47c0,1.18-.4,1.76-1.18,1.76h-1.76c-2.75,0-8.13-.05-16.17-.15-8.04-.1-12.93-.15-14.7-.15Z"/><path class="cls-1" d="M817.59,214.78c1.96.59,2.94,1.96,2.94,4.11-.4,7.05-.59,12.64-.59,16.75v29.1c-.4,1.57-.59,4.11-.59,7.64,0,1.76.1,2.65.29,2.65.59,0,1.47-.83,2.65-2.5,1.18-1.66,2.4-3.48,3.67-5.44,1.27-1.96,2.01-3.04,2.2-3.23.39-.59,1.18-1.91,2.35-3.97,1.18-2.06,2.15-3.67,2.94-4.85,2.35-3.92,7.05-11.36,14.11-22.34,1.76-2.74,3.33-5,4.7-6.76,2.94-1.76,4.8-2.65,5.58-2.65h2.06c5.48,0,9.7.29,12.64.88,1.57.59,2.35,1.18,2.35,1.76,0,.2-.1.44-.29.73-.2.29-.39.59-.59.88-.2.29-.39.64-.59,1.03-.98,2.16-3.53,6.17-7.64,12.05s-6.37,9.02-6.76,9.41l-11.17,17.34c-5.29,8.23-8.82,13.42-10.58,15.58-3.33,4.31-9.51,14.21-18.52,29.69l7.05,15.58,10.88,24.1c13.13,28.41,24.1,50.95,32.92,67.6.19.4.98,1.91,2.35,4.56,1.37,2.65,2.59,5.19,3.67,7.64,1.07,2.45,2.25,5.19,3.53,8.23,1.27,3.04,2.2,5.64,2.79,7.79v.29c0,.59-1.37.88-4.12.88-4.51,0-8.43-.49-11.76-1.47-2.16-.59-3.82-1.86-5-3.82-5.29-9.01-10.58-18.91-15.87-29.69-3.14-6.47-10.68-22.93-22.63-49.38-.79-1.76-1.37-2.65-1.76-2.65h-.29v4.7c0,8.43.39,22.24,1.18,41.44.19,5.49.59,13.08,1.18,22.78s.88,14.65.88,14.84v.29c0,.98-5.29,1.76-15.87,2.35-3.33-.4-5-1.47-5-3.23-.2-3.13-.34-10.48-.44-22.04-.1-11.56-.25-19.59-.44-24.1-.98-27.04-1.47-51.53-1.47-73.48v-2.94c0-19.99.1-34.98.29-44.97v-12.34c0-10.38-.2-23.61-.59-39.68v-2.94c0-2.15.1-3.72.29-4.7.59-2.35,1.47-3.72,2.65-4.11.98-.19,2.84-.29,5.58-.29,4.51,0,7.44.29,8.82.88Z"/><path class="cls-1" d="M874.61,352.04c-.79-13.32-1.28-24.49-1.47-33.51v-3.82c0-38.6,6.56-66.91,19.69-84.94,9.01-12.15,20.58-18.52,34.68-19.11.39,0,1.07-.05,2.06-.15.98-.1,1.66-.15,2.06-.15,19,0,32.52,7.74,40.56,23.22,6.27,12.15,9.99,34.88,11.17,68.19.39,12.93.59,23.91.59,32.92,0,26.06-1.37,46.05-4.12,59.96-6.08,33.51-20.18,52.91-42.33,58.2-3.92.98-7.25,1.47-9.99,1.47-20.77,0-35.96-17.34-45.56-52.02-2.55-9.41-5-26.16-7.35-50.26ZM931.64,228.3c-9.6.4-17.49,4.51-23.66,12.34-6.17,7.84-10.24,17.05-12.2,27.63-3.14,16.07-4.7,32.43-4.7,49.09v5.88c1.18,31.35,4.6,56.83,10.29,76.42,2.54,8.62,6.17,16.27,10.88,22.93,4.7,6.66,9.41,9.99,14.11,9.99h.29c9.6-.19,16.75-2.99,21.46-8.38,4.7-5.39,8.52-12.59,11.46-21.6,4.31-12.74,6.47-33.02,6.47-60.84v-11.17c-.2-1.57-.29-4.31-.29-8.23v-9.99c0-7.25-.1-12.15-.29-14.7-1.18-21.16-3.33-36.64-6.47-46.44-2.16-5.88-5.58-11.17-10.29-15.87-4.7-4.7-10.19-7.05-16.46-7.05h-.59Z"/><path class="cls-1" d="M1098.29,213.9c1.18,0,1.76,1.37,1.76,4.11v110.52c0,36.45.19,64.37.59,83.77.39,5.88.59,16.27.59,31.16v.59c0,2.35-.4,3.53-1.18,3.53-1.18,0-3.53-.15-7.05-.44s-5.69-.44-6.47-.44h-1.47c-1.37,0-2.06-1.27-2.06-3.82-.98-21.16-1.47-50.16-1.47-87v-75.83c0-.19.05-1.96.15-5.29.1-3.33.15-6.07.15-8.23,0-9.01-.49-13.52-1.47-13.52s-3.33,1.57-7.05,4.7l-11.46,11.76c-2.35,2.35-4.41,4.12-6.17,5.29-1.96,1.57-3.33,2.35-4.12,2.35-.59,0-1.32-.24-2.2-.73-.88-.49-1.87-1.12-2.94-1.91-1.08-.78-1.72-1.27-1.91-1.47-6.27-3.72-13.72-9.21-22.34-16.46-.59-.59-1.08-.88-1.47-.88-.79,0-1.18,1.37-1.18,4.12v.88c0,6.08.05,16.36.15,30.86.1,14.5.15,25.57.15,33.21,0,14.31-.1,24.69-.29,31.16-.59,16.85-.88,41.94-.88,75.25,0,1.37.05,3.53.15,6.47.1,2.94.15,5,.15,6.17,0,2.55-1.37,3.82-4.12,3.82h-1.76c-.79,0-2.31.05-4.56.15-2.25.1-3.67.15-4.26.15-1.76,0-2.84-.34-3.23-1.03-.39-.68-.69-2.4-.88-5.14v-8.52c0-3.72.1-9.26.29-16.61.19-7.35.29-12.88.29-16.61,0-9.01.19-28.56.59-58.64.39-30.08.59-53.25.59-69.51v-50.26c0-4.12.59-6.37,1.76-6.76.78,0,2.69,1.23,5.73,3.67,3.04,2.45,6.17,5.14,9.41,8.08,3.23,2.94,5.04,4.61,5.44,5,.19.2,3.09,2.94,8.67,8.23,5.58,5.29,9.65,8.82,12.2,10.58,3.53,2.35,5.39,3.53,5.58,3.53.98,0,2.74-1.57,5.29-4.7.98-.98,2.84-2.65,5.58-5,2.74-2.35,4.7-4.12,5.88-5.29,2.15-2.15,7.44-6.86,15.87-14.11,8.42-7.25,13.42-10.88,14.99-10.88Z"/><path class="cls-1" d="M1215.86,213.9c1.18,0,1.76,1.37,1.76,4.11v110.52c0,36.45.19,64.37.59,83.77.39,5.88.59,16.27.59,31.16v.59c0,2.35-.4,3.53-1.18,3.53-1.18,0-3.53-.15-7.05-.44s-5.69-.44-6.47-.44h-1.47c-1.37,0-2.06-1.27-2.06-3.82-.98-21.16-1.47-50.16-1.47-87v-75.83c0-.19.05-1.96.15-5.29.1-3.33.15-6.07.15-8.23,0-9.01-.49-13.52-1.47-13.52s-3.33,1.57-7.05,4.7l-11.46,11.76c-2.35,2.35-4.41,4.12-6.17,5.29-1.96,1.57-3.33,2.35-4.12,2.35-.59,0-1.32-.24-2.2-.73-.88-.49-1.87-1.12-2.94-1.91-1.08-.78-1.72-1.27-1.91-1.47-6.27-3.72-13.72-9.21-22.34-16.46-.59-.59-1.08-.88-1.47-.88-.79,0-1.18,1.37-1.18,4.12v.88c0,6.08.05,16.36.15,30.86.1,14.5.15,25.57.15,33.21,0,14.31-.1,24.69-.29,31.16-.59,16.85-.88,41.94-.88,75.25,0,1.37.05,3.53.15,6.47.1,2.94.15,5,.15,6.17,0,2.55-1.37,3.82-4.12,3.82h-1.76c-.79,0-2.31.05-4.56.15-2.25.1-3.67.15-4.26.15-1.76,0-2.84-.34-3.23-1.03-.39-.68-.69-2.4-.88-5.14v-8.52c0-3.72.1-9.26.29-16.61.19-7.35.29-12.88.29-16.61,0-9.01.19-28.56.59-58.64.39-30.08.59-53.25.59-69.51v-50.26c0-4.12.59-6.37,1.76-6.76.78,0,2.69,1.23,5.73,3.67,3.04,2.45,6.17,5.14,9.41,8.08,3.23,2.94,5.04,4.61,5.44,5,.19.2,3.09,2.94,8.67,8.23,5.58,5.29,9.65,8.82,12.2,10.58,3.53,2.35,5.39,3.53,5.58,3.53.98,0,2.74-1.57,5.29-4.7.98-.98,2.84-2.65,5.58-5,2.74-2.35,4.7-4.12,5.88-5.29,2.15-2.15,7.44-6.86,15.87-14.11,8.42-7.25,13.42-10.88,14.99-10.88Z"/><path class="cls-1" d="M1272.3,218.31c11.17,0,19.89.1,26.16.29,1.96,0,2.94,1.57,2.94,4.7v.88c0,.98.05,2.55.15,4.7.1,2.16.15,3.53.15,4.11,0,1.96-.2,3.14-.59,3.53-.98.59-1.76.88-2.35.88-.39,0-1.13-.05-2.2-.15-1.08-.1-2.01-.15-2.79-.15h-4.41c-3.33,0-6.57-.1-9.7-.29h-4.41c-.4,0-6.08.2-17.05.59-2.55.2-3.82,1.18-3.82,2.94v1.47c0,.79.05,1.91.15,3.38.1,1.47.15,2.6.15,3.38v27.04c0,3.72-.05,9.41-.15,17.05-.1,7.64-.15,13.42-.15,17.34v2.94c0,3.92.29,6.37.88,7.35.39.59.98.88,1.76.88h2.35c12.93,0,22.34.29,28.22.88.98,0,1.47.88,1.47,2.65v.29c0,.59.15,2.35.44,5.29s.44,5.1.44,6.47c0,1.96-.2,2.94-.59,2.94-2.16.59-5.1.88-8.82.88-1.57,0-4.7-.1-9.41-.29-4.7-.19-7.94-.29-9.7-.29h-5.58c-.79,0-1.18.79-1.18,2.35v2.65c-.39,6.47-.59,16.17-.59,29.1,0,10.98.19,28.02.59,51.14.19,2.94.88,4.41,2.06,4.41h36.74c2.35,0,3.82.2,4.41.59.98.98,1.47,2.94,1.47,5.88,0,.98-.1,2.45-.29,4.41-.2,1.96-.29,3.23-.29,3.82,0,1.37-.25,2.26-.73,2.65-.49.39-1.62.59-3.38.59h-50.26c-2.35,0-4.12-.1-5.29-.29-1.96-.39-3.04-.88-3.23-1.47v-37.62c0-35.07.1-62.41.29-82.01v-55.85c0-6.07.05-13.13.15-21.16.1-8.03.19-14.26.29-18.66.1-4.41.15-7.69.15-9.85,0-1.57.78-2.35,2.35-2.35h1.76c1.96.2,5.19.29,9.7.29,1.96,0,5-.05,9.11-.15,4.12-.1,7.35-.15,9.7-.15h2.94Z"/><path class="cls-1" d="M1324.91,449.92c-3.72,0-6.08-.4-7.05-1.18-.98-.79-1.47-2.65-1.47-5.58,0-5.09.1-12.64.29-22.63.19-9.99.29-17.53.29-22.63,0-6.66-.05-16.56-.15-29.69-.1-13.13-.15-23.22-.15-30.27,0-3.53.05-8.47.15-14.84.1-6.37.15-11.51.15-15.43,0-6.66-.15-17.88-.44-33.65-.29-15.77-.44-27.28-.44-34.54,0-.39-.05-1.47-.15-3.23-.1-1.76-.15-3.13-.15-4.12,0-12.93,1.08-19.4,3.23-19.4,1.96,0,4.21,1.91,6.76,5.73,2.54,3.82,4.11,6.61,4.7,8.38,4.9,10.58,7.54,16.17,7.94,16.75,5.29,9.99,15.97,35.81,32.04,77.45,16.06,41.64,25.47,65.6,28.22,71.86.19-1.57.29-3.53.29-5.88,0-12.93-.1-35.9-.29-68.93-.2-33.02-.29-57.27-.29-72.75v-25.57c0-3.92.29-6.17.88-6.76.78-.59,2.15-.88,4.11-.88.59,0,1.66.05,3.23.15,1.57.1,3.04.15,4.41.15h3.23c2.54,0,4.16.73,4.85,2.2.68,1.47,1.03,4.07,1.03,7.79,0,1.96-.05,4.9-.15,8.82-.1,3.92-.15,6.76-.15,8.52v207.22c0,.98-1.28,1.47-3.82,1.47l-13.52-2.06c-10.39-20.57-30.47-69.66-60.25-147.26-.2-.19-.84-1.57-1.91-4.11-1.08-2.54-2.11-5-3.09-7.35l-1.76-3.82c0,1.96.19,9.07.59,21.31.39,12.25.59,19.16.59,20.72,0,1.18-.05,2.94-.15,5.29-.1,2.35-.15,4.11-.15,5.29v30.86c0,2.75.1,4.8.29,6.17.39,13.52.59,34.39.59,62.61,0,.4.05,1.42.15,3.09.1,1.67.15,2.99.15,3.97,0,2.55-.29,4.11-.88,4.7-1.18,1.37-5.1,2.06-11.76,2.06Z"/><path class="cls-1" d="M212.56,580.31v-36.45c0-12,.44-23.12,1.32-33.38,0-2.04,3.8-3.07,11.42-3.07h7.47c4.39,0,6.73,1.61,7.03,4.83.29,2.93.44,9.96.44,21.08,0,6.15-.08,15.23-.22,27.23-.15,12.01-.22,20.2-.22,24.59,0,4.69.07,13.11.22,25.25.14,12.15.22,21.89.22,29.2v23.28c0,4.39.07,10.4.22,18,.14,7.62.22,13.61.22,18.01s-.08,10.83-.22,19.32c-.15,8.5-.22,14.64-.22,18.44,0,11.71.22,28.84.66,51.38.44,22.55.66,39.67.66,51.38,0,4.39-.15,7.18-.44,8.34,0,4.39-7.03,6.59-21.08,6.59-3.23,0-5.35-.73-6.37-2.2-1.03-1.46-1.69-4.1-1.98-7.91,0-.88-.08-2.34-.22-4.39-.15-2.04-.22-3.51-.22-4.39,0-1.46.07-3.73.22-6.81.14-3.07.22-5.34.22-6.81,0-10.83.07-28.83.22-54.02.14-25.18.22-43.76.22-55.77,0-4.39-.08-10.32-.22-17.79-.15-7.47-.22-13.24-.22-17.35,0-8.19.14-23.27.44-45.23.29-21.96.44-39.08.44-51.38Z"/><path class="cls-1" d="M415.89,503.46c1.76,0,2.63,2.05,2.63,6.15v165.12c0,54.45.29,96.17.88,125.16.58,8.78.88,24.3.88,46.55v.88c0,3.51-.59,5.27-1.76,5.27-1.76,0-5.27-.22-10.54-.66-5.27-.44-8.5-.66-9.66-.66h-2.2c-2.05,0-3.07-1.9-3.07-5.71-1.47-31.62-2.2-74.94-2.2-129.99v-113.3c0-.29.07-2.92.22-7.91.14-4.97.22-9.07.22-12.3,0-13.46-.73-20.2-2.2-20.2s-4.98,2.35-10.54,7.03l-17.13,17.57c-3.51,3.51-6.59,6.15-9.22,7.9-2.93,2.35-4.98,3.51-6.15,3.51-.88,0-1.98-.36-3.29-1.1-1.32-.73-2.79-1.68-4.39-2.85-1.61-1.17-2.57-1.9-2.85-2.2-9.37-5.56-20.5-13.76-33.38-24.59-.88-.88-1.61-1.32-2.2-1.32-1.17,0-1.76,2.05-1.76,6.15v1.32c0,9.08.07,24.45.22,46.11.14,21.67.22,38.21.22,49.62,0,21.37-.15,36.89-.44,46.55-.88,25.18-1.32,62.65-1.32,112.42,0,2.05.07,5.27.22,9.66.14,4.39.22,7.47.22,9.22,0,3.81-2.05,5.71-6.15,5.71h-2.63c-1.17,0-3.44.07-6.81.22-3.37.14-5.49.22-6.37.22-2.64,0-4.25-.51-4.83-1.54-.59-1.02-1.03-3.58-1.32-7.68v-12.74c0-5.56.14-13.83.44-24.81.29-10.98.44-19.25.44-24.81,0-13.46.29-42.67.88-87.61.58-44.94.88-79.55.88-103.86v-75.09c0-6.15.88-9.51,2.63-10.1,1.17,0,4.02,1.83,8.56,5.49,4.54,3.66,9.22,7.69,14.05,12.08s7.53,6.88,8.12,7.47c.29.29,4.61,4.39,12.95,12.3,8.34,7.91,14.42,13.17,18.23,15.81,5.27,3.51,8.05,5.27,8.34,5.27,1.46,0,4.1-2.34,7.9-7.03,1.46-1.46,4.24-3.95,8.34-7.47,4.1-3.51,7.03-6.15,8.78-7.9,3.22-3.22,11.12-10.24,23.71-21.08,12.58-10.83,20.05-16.25,22.4-16.25Z"/><path class="cls-1" d="M646.45,501.7c14.93,0,27.37,5.27,37.33,15.81,9.95,10.54,14.93,23.27,14.93,38.21v1.76c0,3.81-.15,5.71-.44,5.71-.59.29-2.35.44-5.27.44-2.35,0-6-.14-10.98-.44-4.98-.29-8.06-.44-9.22-.44-.29,0-.44-1.9-.44-5.71v-2.64c0-5.56-2.13-10.61-6.37-15.15-4.25-4.54-10.61-6.81-19.1-6.81h-.88c-4.98,0-9.96,2.79-14.93,8.34-2.93,4.69-4.39,9.66-4.39,14.93,0,9.08,3.36,16.69,10.1,22.83,13.46,13.17,24.44,27.52,32.94,43.04,18.44,33.97,27.67,72.61,27.67,115.94,0,7.03-.29,15.52-.88,25.47-2.93,30.74-8.78,53.29-17.57,67.63-10.25,16.98-24.89,25.47-43.92,25.47-15.23,0-27.45-7.53-36.67-22.62-9.22-15.08-14.42-32.86-15.59-53.36v-25.91c0-1.46,6.15-2.2,18.44-2.2,7.31,0,10.98.29,10.98.88v27.67c.88,11.13,3.29,20.57,7.25,28.33,3.95,7.76,9.29,11.64,16.03,11.64,12,0,20.64-8.05,25.91-24.15,3.22-10.83,5.56-27.08,7.03-48.75.29-3.22.44-6.73.44-10.54,0-13.17-1.47-26.64-4.39-40.4-6.74-33.66-17.28-60.31-31.62-79.92-2.05-2.92-5.86-7.75-11.42-14.49-5.56-6.73-9.74-12-12.52-15.81-2.79-3.8-5.49-8.85-8.12-15.15-2.63-6.29-3.95-12.52-3.95-18.66v-4.39c1.17-12.88,6.29-23.86,15.37-32.94s19.47-13.61,31.18-13.61h3.07Z"/><path class="cls-1" d="M745.25,504.78c2.92.88,4.39,2.93,4.39,6.15-.59,10.54-.88,18.88-.88,25.03v43.48c-.59,2.35-.88,6.15-.88,11.42,0,2.63.14,3.95.44,3.95.88,0,2.2-1.24,3.95-3.73,1.76-2.48,3.58-5.19,5.49-8.12,1.9-2.92,3-4.54,3.29-4.83.58-.88,1.76-2.85,3.51-5.93,1.76-3.07,3.22-5.49,4.39-7.25,3.51-5.85,10.54-16.98,21.08-33.37,2.64-4.1,4.98-7.47,7.03-10.1,4.39-2.64,7.17-3.95,8.34-3.95h3.07c8.19,0,14.49.44,18.88,1.32,2.34.88,3.51,1.76,3.51,2.64,0,.29-.15.66-.44,1.1-.29.44-.59.88-.88,1.32-.3.44-.59.95-.88,1.54-1.47,3.22-5.27,9.22-11.42,18-6.15,8.78-9.52,13.47-10.1,14.05l-16.69,25.91c-7.9,12.3-13.17,20.06-15.81,23.28-4.98,6.44-14.2,21.23-27.67,44.35l10.54,23.28,16.25,36.01c19.61,42.45,36.01,76.12,49.19,101,.29.59,1.46,2.85,3.51,6.81,2.04,3.95,3.88,7.76,5.49,11.42,1.61,3.66,3.36,7.76,5.27,12.3,1.9,4.54,3.29,8.42,4.17,11.64v.44c0,.88-2.05,1.32-6.15,1.32-6.74,0-12.59-.73-17.57-2.2-3.23-.88-5.71-2.78-7.47-5.71-7.9-13.46-15.81-28.25-23.71-44.35-4.69-9.66-15.96-34.25-33.81-73.78-1.17-2.63-2.05-3.95-2.63-3.95h-.44v7.03c0,12.59.58,33.23,1.76,61.92.29,8.2.88,19.54,1.76,34.03.88,14.49,1.32,21.89,1.32,22.18v.44c0,1.46-7.9,2.63-23.71,3.51-4.98-.59-7.47-2.2-7.47-4.83-.29-4.68-.51-15.66-.66-32.94-.15-17.27-.37-29.27-.66-36.01-1.47-40.4-2.2-77-2.2-109.79v-4.39c0-29.86.14-52.26.44-67.19v-18.44c0-15.51-.3-35.28-.88-59.28v-4.39c0-3.22.14-5.56.44-7.03.88-3.51,2.2-5.56,3.95-6.15,1.46-.29,4.24-.44,8.34-.44,6.73,0,11.12.44,13.17,1.32Z"/><path class="cls-1" d="M845.38,630.37v-2.2c0-2.34-.15-13.24-.44-32.72-.29-19.47-.44-34.47-.44-45.01,0-23.42.73-38.79,2.2-46.11,1.76-2.34,3.22-3.51,4.39-3.51h.44c6.44,0,10.39.15,11.86.44,2.34,0,3.95.15,4.83.44,2.63.29,4.24,2.35,4.83,6.15v39.08c0,18.16-.15,43.63-.44,76.41-.29,32.79-.44,57.68-.44,74.66,0,5.27.29,12.01.88,20.2.88,20.2,1.61,34.11,2.2,41.72.88,11.42,1.61,19.54,2.2,24.37.58,4.83,1.68,11.13,3.29,18.88,1.61,7.76,3.73,13.25,6.37,16.47,2.63,3.22,6,4.98,10.1,5.27.29,0,.88.15,1.76.44h.88c2.92,0,5.41-.44,7.47-1.32,2.04-.88,3.73-1.76,5.05-2.63,1.32-.88,2.48-2.34,3.51-4.39,1.02-2.04,1.68-3.66,1.98-4.83.29-1.17.73-3,1.32-5.49.58-2.48.88-4.02.88-4.61,2.34-12,3.51-27.37,3.51-46.11,0-9.95-.29-21.37-.88-34.25-.59-16.98-1.32-42.82-2.2-77.51-.88-34.69-1.61-60.38-2.2-77.07l-1.32-19.76c-.88-20.2-1.32-31.62-1.32-34.25v-4.39c0-1.46.29-2.34.88-2.63,1.46-1.46,4.54-2.2,9.22-2.2h16.25c1.76,0,2.63.73,2.63,2.2.88,3.81,1.32,12.3,1.32,25.47v11.42c1.17,25.77,2.04,69.1,2.63,129.99.58,24.01.88,42.45.88,55.33,0,36.6-.73,63.68-2.2,81.24-1.47,12.3-4.54,21.67-9.22,28.11-6.44,9.37-18.16,14.49-35.13,15.37-.88.29-2.49.44-4.83.44-13.77,0-24.01-4.83-30.74-14.49-8.78-12.3-14.93-36.45-18.44-72.46l-.44-4.83c-.88-8.78-1.54-22.68-1.98-41.72-.44-19.03-.81-30.88-1.1-35.57,0-2.63-.08-7.17-.22-13.61-.15-6.44-.22-11.56-.22-15.37,0-7.9.14-13.76.44-17.57v-7.47Z"/><path class="cls-1" d="M974.05,511.8c.29-.29.44-.88.44-1.76,0-.58-.08-1.17-.22-1.76-.15-.58-.22-1.17-.22-1.76,0-2.04.29-3.36.88-3.95.58-.58,1.17-.88,1.76-.88.29,0,.8.08,1.54.22.73.15,1.39.22,1.98.22h2.63c19.03,0,35.57,3.37,49.62,10.1,12.3,5.56,21.08,12.89,26.35,21.96,4.97,7.9,7.47,19.32,7.47,34.25v2.63c0,15.81-6.74,31.62-20.2,47.43-3.51,4.1-7.76,8.2-12.74,12.3-4.98,4.1-8.86,7.25-11.64,9.44-2.79,2.2-4.17,3.73-4.17,4.61,1.76,7.62,4.68,17.13,8.78,28.54,4.1,11.42,8.56,23.57,13.39,36.45,4.83,12.89,7.97,21.67,9.44,26.35,19.03,53.58,30.88,85.93,35.57,97.05,3.8,8.5,5.71,13.76,5.71,15.81,0,1.17-.73,1.76-2.2,1.76h-1.76c-4.1-.58-7.47-.88-10.1-.88-1.76,0-4.25.08-7.47.22-3.22.15-5.56.22-7.03.22h-.88c-1.76,0-6.59-11.56-14.49-34.69-7.9-23.12-12.89-38.64-14.93-46.55-4.1-15.22-10.25-35.28-18.44-60.16-7.9-25.18-12.15-37.77-12.74-37.77s-.88,5.27-.88,15.81v8.34c0,6.15.07,13.33.22,21.52.14,8.2.29,16.47.44,24.81.14,8.34.29,16.84.44,25.47.14,8.64.29,16.76.44,24.37.14,7.62.29,14.35.44,20.2.14,5.86.22,10.54.22,14.05l.44,5.27v.88c0,2.35-.08,5.49-.22,9.44-.15,3.95-.22,6.52-.22,7.69,0,1.76-.15,2.78-.44,3.07-.88,1.17-2.49,1.76-4.83,1.76-.59,0-1.61-.08-3.07-.22-1.47-.15-2.63-.22-3.51-.22s-2.35.07-4.39.22c-2.05.14-3.51.22-4.39.22-2.93,0-4.98-.59-6.15-1.76-.29-2.04-.51-7.17-.66-15.37-.15-8.19-.29-17.05-.44-26.57-.15-9.51-.22-15.59-.22-18.22.29-5.85.44-13.32.44-22.4,0-2.63-.08-8.49-.22-17.57-.15-9.07-.22-17.71-.22-25.91-.29-2.34-.44-5.85-.44-10.54,0-8.78.22-22.62.66-41.5s.66-32.72.66-41.5-.15-15.81-.44-20.2c-.29-10.25-.44-23.28-.44-39.08v-26.35c.29-7.03.44-18.73.44-35.13ZM1034.66,591.73c3.22-8.19,4.83-15.66,4.83-22.4,0-9.07-1.61-16.17-4.83-21.3-3.22-5.12-8.49-9.73-15.81-13.83-7.62-4.1-13.61-6.15-18-6.15h-1.32l-.44.88v1.76c0,1.47.07,4.39.22,8.78.14,4.39.22,7.62.22,9.66,0,.59-.08,2.57-.22,5.93-.15,3.37-.22,7.62-.22,12.74v15.15c0,6.44-.15,13.33-.44,20.64-.29,7.32-.44,11.27-.44,11.86l.44,3.07c7.03-.29,14.12-3.51,21.3-9.66,7.17-6.15,12.08-11.86,14.71-17.13Z"/><path class="cls-1" d="M1111.07,511.8c.29-.29.44-.88.44-1.76,0-.58-.08-1.17-.22-1.76-.15-.58-.22-1.17-.22-1.76,0-2.04.29-3.36.88-3.95.58-.58,1.17-.88,1.76-.88.29,0,.8.08,1.54.22.73.15,1.39.22,1.98.22h2.63c19.03,0,35.57,3.37,49.62,10.1,12.3,5.56,21.08,12.89,26.35,21.96,4.97,7.9,7.47,19.32,7.47,34.25v2.63c0,15.81-6.74,31.62-20.2,47.43-3.51,4.1-7.76,8.2-12.74,12.3-4.98,4.1-8.86,7.25-11.64,9.44-2.79,2.2-4.17,3.73-4.17,4.61,1.76,7.62,4.68,17.13,8.78,28.54,4.1,11.42,8.56,23.57,13.39,36.45,4.83,12.89,7.97,21.67,9.44,26.35,19.03,53.58,30.88,85.93,35.57,97.05,3.8,8.5,5.71,13.76,5.71,15.81,0,1.17-.73,1.76-2.2,1.76h-1.76c-4.1-.58-7.47-.88-10.1-.88-1.76,0-4.25.08-7.47.22-3.22.15-5.56.22-7.03.22h-.88c-1.76,0-6.59-11.56-14.49-34.69-7.9-23.12-12.89-38.64-14.93-46.55-4.1-15.22-10.25-35.28-18.44-60.16-7.9-25.18-12.15-37.77-12.74-37.77s-.88,5.27-.88,15.81v8.34c0,6.15.07,13.33.22,21.52.14,8.2.29,16.47.44,24.81.14,8.34.29,16.84.44,25.47.14,8.64.29,16.76.44,24.37.14,7.62.29,14.35.44,20.2.14,5.86.22,10.54.22,14.05l.44,5.27v.88c0,2.35-.08,5.49-.22,9.44-.15,3.95-.22,6.52-.22,7.69,0,1.76-.15,2.78-.44,3.07-.88,1.17-2.49,1.76-4.83,1.76-.59,0-1.61-.08-3.07-.22-1.47-.15-2.63-.22-3.51-.22s-2.35.07-4.39.22c-2.05.14-3.51.22-4.39.22-2.93,0-4.98-.59-6.15-1.76-.29-2.04-.51-7.17-.66-15.37-.15-8.19-.29-17.05-.44-26.57-.15-9.51-.22-15.59-.22-18.22.29-5.85.44-13.32.44-22.4,0-2.63-.08-8.49-.22-17.57-.15-9.07-.22-17.71-.22-25.91-.29-2.34-.44-5.85-.44-10.54,0-8.78.22-22.62.66-41.5s.66-32.72.66-41.5-.15-15.81-.44-20.2c-.29-10.25-.44-23.28-.44-39.08v-26.35c.29-7.03.44-18.73.44-35.13ZM1171.67,591.73c3.22-8.19,4.83-15.66,4.83-22.4,0-9.07-1.61-16.17-4.83-21.3-3.22-5.12-8.49-9.73-15.81-13.83-7.62-4.1-13.61-6.15-18-6.15h-1.32l-.44.88v1.76c0,1.47.07,4.39.22,8.78.14,4.39.22,7.62.22,9.66,0,.59-.08,2.57-.22,5.93-.15,3.37-.22,7.62-.22,12.74v15.15c0,6.44-.15,13.33-.44,20.64-.29,7.32-.44,11.27-.44,11.86l.44,3.07c7.03-.29,14.12-3.51,21.3-9.66,7.17-6.15,12.08-11.86,14.71-17.13Z"/><path class="cls-1" d="M1250.28,535.52v-10.98c0-7.9.73-13.32,2.2-16.25,2.04-3.8,7.47-5.71,16.25-5.71h.44c4.39,0,6.88,1.61,7.47,4.83.88,2.63,1.32,7.9,1.32,15.81v82.56c0,4.69-.15,12.67-.44,23.93-.29,11.27-.44,19.4-.44,24.37v11.86c.88,38.65,1.32,78.32,1.32,119.01v23.28c0,4.39.07,11.05.22,19.98.14,8.93.22,15.45.22,19.54,0,2.63-2.05,4.83-6.15,6.59-4.1,1.76-8.34,2.63-12.74,2.63-7.91,0-11.86-2.63-11.86-7.9v-.44c.29-7.61.44-19.03.44-34.25v-5.27c0-43.33-.15-72.6-.44-87.83v-3.07c0-4.97.22-13.68.66-26.13.44-12.44.66-21.74.66-27.89,0-7.61-.15-12.88-.44-15.81.29-15.51.44-37.91.44-67.19v-8.34c0-3.8.14-9.8.44-18,.29-8.19.44-14.64.44-19.32Z"/><path class="cls-1" d="M1319.23,851.26c-8.5,0-12.74-1.61-12.74-4.83,0-.88-.08-1.76-.22-2.63-.15-.88-.22-3.36-.22-7.47-.29-4.97-.44-12.88-.44-23.71,0-4.98.07-12.74.22-23.28.14-10.54.22-18.59.22-24.15,0-11.42-.15-19.91-.44-25.47,0-9.37-.22-36.67-.66-81.9-.44-45.23-.95-79.56-1.54-102.98v-1.32c0-1.17.07-5.78.22-13.83.14-8.05.22-14.27.22-18.66v-8.78l-.44-.44c0-3.22,2.2-4.83,6.59-4.83h1.76c1.46,0,4.24.08,8.34.22,4.1.15,6.88.22,8.34.22h1.76c1.17,0,1.83.15,1.98.44.14.3.36,1.47.66,3.51.58,3.51.88,10.1.88,19.76s.07,22.25.22,37.77c.14,15.52.36,29.28.66,41.28,0,5.86.07,14.79.22,26.79.14,12.01.22,20.94.22,26.79,0,14.35-.08,29.35-.22,45.01-.15,15.67-.29,28.62-.44,38.86-.15,10.25-.22,16.25-.22,18.01v.88c0,3.22.07,9,.22,17.35.14,8.34.22,14.57.22,18.66,0,7.62-.15,12.89-.44,15.81l6.15.44c5.27.29,12.3.73,21.08,1.32h3.51c2.63,0,3.95,1.61,3.95,4.83,0,5.56.14,9.52.44,11.86,0,.88.07,2.49.22,4.83.14,2.35.22,4.1.22,5.27v2.2c0,1.76-.59,2.63-1.76,2.63h-2.63c-4.1,0-12.15-.07-24.15-.22-12.01-.14-19.32-.22-21.96-.22Z"/><path class="cls-1" d="M1376.32,630.37v-2.2c0-2.34-.15-13.24-.44-32.72-.29-19.47-.44-34.47-.44-45.01,0-23.42.73-38.79,2.2-46.11,1.76-2.34,3.22-3.51,4.39-3.51h.44c6.44,0,10.39.15,11.86.44,2.34,0,3.95.15,4.83.44,2.63.29,4.24,2.35,4.83,6.15v39.08c0,18.16-.15,43.63-.44,76.41-.29,32.79-.44,57.68-.44,74.66,0,5.27.29,12.01.88,20.2.88,20.2,1.61,34.11,2.2,41.72.88,11.42,1.61,19.54,2.2,24.37.58,4.83,1.68,11.13,3.29,18.88,1.61,7.76,3.73,13.25,6.37,16.47,2.63,3.22,6,4.98,10.1,5.27.29,0,.88.15,1.76.44h.88c2.92,0,5.41-.44,7.47-1.32,2.04-.88,3.73-1.76,5.05-2.63,1.32-.88,2.48-2.34,3.51-4.39,1.02-2.04,1.68-3.66,1.98-4.83.29-1.17.73-3,1.32-5.49.58-2.48.88-4.02.88-4.61,2.34-12,3.51-27.37,3.51-46.11,0-9.95-.29-21.37-.88-34.25-.59-16.98-1.32-42.82-2.2-77.51-.88-34.69-1.61-60.38-2.2-77.07l-1.32-19.76c-.88-20.2-1.32-31.62-1.32-34.25v-4.39c0-1.46.29-2.34.88-2.63,1.46-1.46,4.54-2.2,9.22-2.2h16.25c1.76,0,2.63.73,2.63,2.2.88,3.81,1.32,12.3,1.32,25.47v11.42c1.17,25.77,2.04,69.1,2.64,129.99.58,24.01.88,42.45.88,55.33,0,36.6-.73,63.68-2.2,81.24-1.47,12.3-4.54,21.67-9.22,28.11-6.44,9.37-18.16,14.49-35.13,15.37-.88.29-2.49.44-4.83.44-13.76,0-24.01-4.83-30.74-14.49-8.78-12.3-14.93-36.45-18.44-72.46l-.44-4.83c-.88-8.78-1.54-22.68-1.98-41.72-.44-19.03-.81-30.88-1.1-35.57,0-2.63-.08-7.17-.22-13.61-.15-6.44-.22-11.56-.22-15.37,0-7.9.14-13.76.44-17.57v-7.47Z"/><path class="cls-1" d="M1715.34,842.04c.29.88.44,2.63.44,5.27,0,1.76-1.32,3.07-3.95,3.95-.88.29-2.79.44-5.71.44-9.37,0-15.23-.58-17.57-1.76-2.05-1.17-3.37-3.22-3.95-6.15-.59-2.64-1.03-6.73-1.32-12.3,0-2.04-.81-13.46-2.42-34.25-1.61-20.78-2.71-36.45-3.29-46.99-.29-5.85-2.49-38.93-6.59-99.25-.59-5.85-1.17-14.05-1.76-24.59-.59-10.54-.88-16.39-.88-17.57-.29-1.46-.88-6.73-1.76-15.81-.88-9.07-1.69-17.63-2.42-25.69-.73-8.05-1.25-12.36-1.54-12.96-.88,0-3.66,4.69-8.34,14.05-1.17,2.05-2.71,4.61-4.61,7.68-1.91,3.07-3.59,5.64-5.05,7.69-3.23,4.39-5.13,6.59-5.71,6.59h-.44c-.88-.29-1.76-1.17-2.63-2.63-3.23-4.1-7.03-9.95-11.42-17.57-2.35-3.51-4.91-7.75-7.69-12.74-2.79-4.97-4.83-8.56-6.15-10.76-1.32-2.2-2.27-3.29-2.85-3.29h-.44c-.88.88-2.63,3.88-5.27,9-2.63,5.13-4.39,8.42-5.27,9.88-1.17,1.76-5.56,9.66-13.17,23.71-1.17,2.63-2.2,3.95-3.07,3.95-2.63,0-6.74-3.66-12.3-10.98-2.63-3.22-9.22-10.39-19.76-21.52-1.76-1.76-2.79-2.63-3.07-2.63s-.59-.14-.88-.44c-.29-.29-.59-.44-.88-.44v.44c-1.76,7.03-3.66,27.82-5.71,62.36-1.47,31.04-2.49,50.36-3.07,57.97-5.27,110.67-8.64,168.35-10.1,173.03-.59,1.47-1.61,2.63-3.07,3.51-1.76.88-4.1,1.32-7.03,1.32-1.76,0-5.27-.29-10.54-.88-3.23,0-4.83-1.46-4.83-4.39,0-8.78,1.24-29.49,3.73-62.14,2.48-32.64,3.73-49.4,3.73-50.28.29-6.73.88-20.71,1.76-41.94.88-21.22,1.76-37.69,2.63-49.4.88-6.73,1.61-16.98,2.2-30.74.58-13.76,1.17-24,1.76-30.74.58-5.27,1.39-15,2.42-29.2,1.02-14.2,2.04-26.2,3.07-36.01,1.02-9.81,1.98-15,2.85-15.59.29-.29.73-.44,1.32-.44,2.04,0,5.93,2.05,11.64,6.15,5.71,4.1,10.61,8.64,14.71,13.61l14.49,16.69c1.17,1.47,2.48,3.37,3.95,5.71,1.46,2.35,2.63,4.32,3.51,5.93.88,1.61,1.46,2.42,1.76,2.42,8.19-12.58,14.78-23.86,19.76-33.81,4.97-10.54,8.34-15.81,10.1-15.81h.88c1.76.88,5.85,6,12.3,15.37,5.27,7.9,9.37,14.64,12.3,20.2,5.27,10.54,8.63,15.81,10.1,15.81.88,0,2.92-3.36,6.15-10.1.58-.58,2.48-3.29,5.71-8.12,3.22-4.83,6.22-9.22,9-13.17,2.78-3.95,6.15-8.12,10.1-12.52,3.95-4.39,7.39-7.47,10.32-9.22.29-.29,1.02-.44,2.2-.44,2.63,0,3.95,1.17,3.95,3.51.29,3.51.8,8.34,1.54,14.49.73,6.15,1.24,9.96,1.54,11.42,1.17,11.71,2.7,30.16,4.61,55.33,1.9,25.18,3.29,43.48,4.17,54.89.88,11.71,1.98,28.26,3.29,49.62,1.32,21.37,2.26,35.43,2.85,42.16.88,12.89,2.48,31.69,4.83,56.43,2.34,24.74,3.95,42.97,4.83,54.67Z"/></svg>