<?xml version="1.0" encoding="UTF-8"?><svg id="Ebene_1" xmlns="http://www.w3.org/2000/svg" width="1920" height="1080" viewBox="0 0 1920 1080"><defs><style>.cls-1{fill:#fcfcfc;}</style></defs><path class="cls-1" d="M616.15,372.94c7.42,0,13.21.07,17.38.2,1.3,0,1.95,1.04,1.95,3.12v.59c0,.65.03,1.69.1,3.12.06,1.43.1,2.34.1,2.73,0,1.3-.13,2.08-.39,2.34-.65.39-1.17.59-1.56.59-.26,0-.75-.03-1.46-.1-.72-.06-1.34-.1-1.86-.1h-2.93c-2.22,0-4.36-.06-6.45-.2h-2.93c-.26,0-4.04.13-11.33.39-1.69.13-2.54.78-2.54,1.95v.98c0,.52.03,1.27.1,2.25.06.98.1,1.73.1,2.25v17.97c0,2.48-.03,6.25-.1,11.33-.07,5.08-.1,8.92-.1,11.52v1.95c0,2.61.2,4.23.59,4.88.26.39.65.59,1.17.59h1.56c8.59,0,14.84.2,18.75.59.65,0,.98.59.98,1.76v.2c0,.39.1,1.56.29,3.52s.29,3.39.29,4.3c0,1.3-.13,1.95-.39,1.95-1.43.39-3.39.59-5.86.59-1.04,0-3.12-.06-6.25-.2-3.12-.13-5.27-.2-6.45-.2h-3.71c-.52,0-.78.52-.78,1.56v1.76c-.26,4.3-.39,10.74-.39,19.34,0,7.29.13,18.62.39,33.98.13,1.95.59,2.93,1.37,2.93h24.41c1.56,0,2.54.13,2.93.39.65.65.98,1.95.98,3.91,0,.65-.07,1.63-.2,2.93-.13,1.3-.2,2.15-.2,2.54,0,.91-.17,1.5-.49,1.76-.33.26-1.07.39-2.25.39h-33.4c-1.56,0-2.73-.07-3.52-.2-1.3-.26-2.02-.59-2.15-.98v-25c0-23.31.06-41.47.2-54.49v-37.11c0-4.03.03-8.72.1-14.06.06-5.34.13-9.47.2-12.4.06-2.93.1-5.11.1-6.54,0-1.04.52-1.56,1.56-1.56h1.17c1.3.13,3.45.2,6.45.2,1.3,0,3.32-.03,6.05-.1,2.73-.06,4.88-.1,6.45-.1h1.95Z"/><path class="cls-1" d="M645.45,373.72c.13-.13.2-.39.2-.78,0-.26-.03-.52-.1-.78-.07-.26-.1-.52-.1-.78,0-.91.13-1.5.39-1.76s.52-.39.78-.39c.13,0,.36.03.68.1.32.07.62.1.88.1h1.17c8.46,0,15.82,1.5,22.07,4.49,5.47,2.48,9.38,5.73,11.72,9.77,2.21,3.52,3.32,8.59,3.32,15.23v1.17c0,7.03-3,14.06-8.98,21.09-1.56,1.83-3.45,3.65-5.66,5.47-2.22,1.83-3.94,3.22-5.18,4.2-1.24.98-1.86,1.66-1.86,2.05.78,3.39,2.08,7.62,3.91,12.7,1.82,5.08,3.81,10.48,5.96,16.21,2.15,5.73,3.55,9.64,4.2,11.72,8.46,23.83,13.74,38.22,15.82,43.16,1.69,3.78,2.54,6.12,2.54,7.03,0,.52-.33.78-.98.78h-.78c-1.83-.26-3.32-.39-4.49-.39-.78,0-1.89.03-3.32.1-1.43.07-2.48.1-3.12.1h-.39c-.78,0-2.93-5.14-6.45-15.43-3.52-10.28-5.73-17.19-6.64-20.7-1.83-6.77-4.56-15.69-8.2-26.76-3.52-11.2-5.4-16.8-5.66-16.8s-.39,2.34-.39,7.03v3.71c0,2.73.03,5.93.1,9.57.06,3.65.13,7.32.2,11.04.06,3.71.13,7.49.2,11.33.06,3.84.13,7.46.2,10.84.06,3.39.13,6.38.2,8.98.06,2.61.1,4.69.1,6.25l.2,2.34v.39c0,1.04-.03,2.44-.1,4.2-.07,1.76-.1,2.9-.1,3.42,0,.78-.07,1.24-.2,1.37-.39.52-1.11.78-2.15.78-.26,0-.72-.03-1.37-.1-.65-.07-1.17-.1-1.56-.1s-1.04.03-1.95.1c-.91.06-1.56.1-1.95.1-1.3,0-2.22-.26-2.73-.78-.13-.91-.23-3.19-.29-6.84-.07-3.64-.13-7.58-.2-11.82-.07-4.23-.1-6.93-.1-8.11.13-2.6.2-5.92.2-9.96,0-1.17-.03-3.77-.1-7.81-.07-4.03-.1-7.88-.1-11.52-.13-1.04-.2-2.6-.2-4.69,0-3.91.1-10.06.29-18.46s.29-14.55.29-18.46-.07-7.03-.2-8.98c-.13-4.56-.2-10.35-.2-17.38v-11.72c.13-3.12.2-8.33.2-15.62ZM672.4,409.27c1.43-3.64,2.15-6.96,2.15-9.96,0-4.03-.72-7.19-2.15-9.47-1.43-2.28-3.78-4.33-7.03-6.15-3.39-1.82-6.05-2.73-8.01-2.73h-.59l-.2.39v.78c0,.65.03,1.95.1,3.91.06,1.95.1,3.39.1,4.3,0,.26-.03,1.14-.1,2.64-.07,1.5-.1,3.39-.1,5.66v6.74c0,2.87-.07,5.93-.2,9.18-.13,3.26-.2,5.01-.2,5.27l.2,1.37c3.12-.13,6.28-1.56,9.47-4.3,3.19-2.73,5.37-5.27,6.54-7.62Z"/><path class="cls-1" d="M712.05,526.85c-2.48,0-4.04-.26-4.69-.78-.65-.52-.98-1.76-.98-3.71,0-3.38.06-8.4.2-15.04.13-6.64.2-11.65.2-15.04,0-4.42-.03-11-.1-19.73-.07-8.72-.1-15.43-.1-20.12,0-2.34.03-5.63.1-9.86.06-4.23.1-7.65.1-10.25,0-4.42-.1-11.88-.29-22.36-.2-10.48-.29-18.13-.29-22.95,0-.26-.03-.98-.1-2.15-.07-1.17-.1-2.08-.1-2.73,0-8.59.71-12.89,2.15-12.89,1.3,0,2.8,1.27,4.49,3.81,1.69,2.54,2.73,4.39,3.12,5.57,3.25,7.03,5.01,10.74,5.27,11.13,3.52,6.64,10.61,23.8,21.29,51.46,10.67,27.67,16.92,43.59,18.75,47.75.13-1.04.2-2.34.2-3.91,0-8.59-.07-23.86-.2-45.8-.13-21.94-.2-38.05-.2-48.34v-16.99c0-2.6.2-4.1.59-4.49.52-.39,1.43-.59,2.73-.59.39,0,1.1.03,2.15.1,1.04.07,2.02.1,2.93.1h2.15c1.69,0,2.76.49,3.22,1.46.46.98.68,2.7.68,5.18,0,1.3-.03,3.26-.1,5.86-.07,2.61-.1,4.49-.1,5.66v137.7c0,.65-.85.98-2.54.98l-8.98-1.37c-6.9-13.67-20.25-46.29-40.04-97.85-.13-.13-.56-1.04-1.27-2.73-.72-1.69-1.4-3.32-2.05-4.88l-1.17-2.54c0,1.3.13,6.02.39,14.16.26,8.14.39,12.73.39,13.77,0,.78-.03,1.95-.1,3.52-.07,1.56-.1,2.73-.1,3.52v20.51c0,1.83.06,3.19.2,4.1.26,8.98.39,22.85.39,41.6,0,.26.03.95.1,2.05.06,1.11.1,1.99.1,2.64,0,1.69-.2,2.73-.59,3.12-.78.91-3.39,1.37-7.81,1.37Z"/><path class="cls-1" d="M787.05,404.19v-16.21c0-5.34.2-10.28.59-14.84,0-.91,1.69-1.37,5.08-1.37h3.32c1.95,0,2.99.72,3.12,2.15.13,1.3.2,4.43.2,9.38,0,2.73-.03,6.77-.1,12.11-.07,5.34-.1,8.98-.1,10.94,0,2.08.03,5.83.1,11.23.06,5.4.1,9.74.1,12.99v10.35c0,1.95.03,4.62.1,8.01.06,3.39.1,6.05.1,8.01s-.03,4.82-.1,8.59c-.07,3.78-.1,6.51-.1,8.2,0,5.21.1,12.83.29,22.85.2,10.03.29,17.65.29,22.85,0,1.95-.07,3.19-.2,3.71,0,1.95-3.12,2.93-9.38,2.93-1.43,0-2.38-.33-2.83-.98-.46-.65-.75-1.82-.88-3.52,0-.39-.03-1.04-.1-1.95-.07-.91-.1-1.56-.1-1.95,0-.65.03-1.66.1-3.03.06-1.37.1-2.37.1-3.03,0-4.82.03-12.82.1-24.02.06-11.2.1-19.46.1-24.8,0-1.95-.03-4.59-.1-7.91-.07-3.32-.1-5.89-.1-7.71,0-3.64.06-10.35.2-20.12.13-9.77.2-17.38.2-22.85Z"/><path class="cls-1" d="M836.85,372.94c7.42,0,13.21.07,17.38.2,1.3,0,1.95,1.04,1.95,3.12v.59c0,.65.03,1.69.1,3.12.06,1.43.1,2.34.1,2.73,0,1.3-.13,2.08-.39,2.34-.65.39-1.17.59-1.56.59-.26,0-.75-.03-1.46-.1-.72-.06-1.34-.1-1.86-.1h-2.93c-2.22,0-4.36-.06-6.45-.2h-2.93c-.26,0-4.04.13-11.33.39-1.69.13-2.54.78-2.54,1.95v.98c0,.52.03,1.27.1,2.25.06.98.1,1.73.1,2.25v17.97c0,2.48-.03,6.25-.1,11.33-.07,5.08-.1,8.92-.1,11.52v1.95c0,2.61.2,4.23.59,4.88.26.39.65.59,1.17.59h1.56c8.59,0,14.84.2,18.75.59.65,0,.98.59.98,1.76v.2c0,.39.1,1.56.29,3.52s.29,3.39.29,4.3c0,1.3-.13,1.95-.39,1.95-1.43.39-3.39.59-5.86.59-1.04,0-3.12-.06-6.25-.2-3.12-.13-5.27-.2-6.45-.2h-3.71c-.52,0-.78.52-.78,1.56v1.76c-.26,4.3-.39,10.74-.39,19.34,0,7.29.13,18.62.39,33.98.13,1.95.59,2.93,1.37,2.93h24.41c1.56,0,2.54.13,2.93.39.65.65.98,1.95.98,3.91,0,.65-.07,1.63-.2,2.93-.13,1.3-.2,2.15-.2,2.54,0,.91-.17,1.5-.49,1.76-.33.26-1.07.39-2.25.39h-33.4c-1.56,0-2.73-.07-3.52-.2-1.3-.26-2.02-.59-2.15-.98v-25c0-23.31.06-41.47.2-54.49v-37.11c0-4.03.03-8.72.1-14.06.06-5.34.13-9.47.2-12.4.06-2.93.1-5.11.1-6.54,0-1.04.52-1.56,1.56-1.56h1.17c1.3.13,3.45.2,6.45.2,1.3,0,3.32-.03,6.05-.1,2.73-.06,4.88-.1,6.45-.1h1.95Z"/><path class="cls-1" d="M930.21,428.02c0-3.64-.03-9.18-.1-16.6-.07-7.42-.1-12.89-.1-16.41v-15.43c0-1.3-.03-2.47-.1-3.52-.07-1.04-.1-1.69-.1-1.95,0-.91.26-1.63.78-2.15.78-.26,3.58-.59,8.4-.98.65,0,1.17.2,1.56.59.65,1.3.98,17.84.98,49.61v12.7c.26,0,1.14.03,2.64.1,1.5.07,2.7.1,3.61.1,9.5,0,14.91-.45,16.21-1.37v-60.94c.52-1.43,2.02-2.15,4.49-2.15,3.12,0,5.24.49,6.35,1.46,1.1.98,1.66,2.96,1.66,5.96,0,6.12-.03,15.56-.1,28.32-.07,12.76-.1,22.01-.1,27.73v.39c0,5.6.06,15.14.2,28.61.13,13.48.2,23.73.2,30.76,0,3.12-.03,7.52-.1,13.18-.07,5.66-.1,9.74-.1,12.21v1.37c0,.26.03.75.1,1.46.06.72.1,1.27.1,1.66,0,2.47-1.17,3.71-3.52,3.71h-.39c-.52,0-1.43.06-2.73.2-1.3.13-2.15.2-2.54.2-2.34,0-3.52-1.3-3.52-3.91v-77.54c-.26-.13-.91-.2-1.95-.2-1.95,0-5.24.2-9.86.59-4.62.39-7.06.59-7.32.59h-.39c-1.69,0-2.54.26-2.54.78-.26,1.56-.39,6.12-.39,13.67,0,3.52.03,8.86.1,16.02.06,7.16.1,12.05.1,14.65s-.07,6.58-.2,11.91c-.13,5.34-.2,9.31-.2,11.91,0,1.04.03,2.34.1,3.91.06,1.56.1,2.54.1,2.93v.2c0,1.17-.81,2.08-2.44,2.73-1.63.65-3.29.98-4.98.98-2.34,0-3.58-.72-3.71-2.15-.39-1.82-.59-5.73-.59-11.72v-20.9c0-3.38.1-8.69.29-15.92s.29-12.08.29-14.55c0-1.95-.03-4.79-.1-8.5-.07-3.71-.1-6.48-.1-8.3v-16.02Z"/><path class="cls-1" d="M986.66,426.46v-.98c0-1.04-.07-5.89-.2-14.55-.13-8.66-.2-15.33-.2-20.02,0-10.42.32-17.25.98-20.51.78-1.04,1.43-1.56,1.95-1.56h.2c2.86,0,4.62.07,5.27.2,1.04,0,1.76.07,2.15.2,1.17.13,1.89,1.04,2.15,2.73v17.38c0,8.08-.07,19.4-.2,33.98-.13,14.58-.2,25.65-.2,33.2,0,2.34.13,5.34.39,8.98.39,8.98.71,15.17.98,18.55.39,5.08.71,8.69.98,10.84.26,2.15.75,4.95,1.46,8.4.71,3.45,1.66,5.89,2.83,7.32,1.17,1.43,2.67,2.22,4.49,2.34.13,0,.39.07.78.2h.39c1.3,0,2.41-.2,3.32-.59.91-.39,1.66-.78,2.25-1.17s1.1-1.04,1.56-1.95c.46-.91.75-1.63.88-2.15.13-.52.32-1.33.59-2.44.26-1.1.39-1.79.39-2.05,1.04-5.34,1.56-12.17,1.56-20.51,0-4.42-.13-9.5-.39-15.23-.26-7.55-.59-19.04-.98-34.47s-.72-26.86-.98-34.28l-.59-8.79c-.39-8.98-.59-14.06-.59-15.23v-1.95c0-.65.13-1.04.39-1.17.65-.65,2.02-.98,4.1-.98h7.23c.78,0,1.17.33,1.17.98.39,1.69.59,5.47.59,11.33v5.08c.52,11.46.91,30.73,1.17,57.81.26,10.68.39,18.88.39,24.61,0,16.28-.33,28.32-.98,36.13-.65,5.47-2.02,9.64-4.1,12.5-2.87,4.17-8.08,6.45-15.62,6.84-.39.13-1.11.2-2.15.2-6.12,0-10.68-2.15-13.67-6.45-3.91-5.47-6.64-16.21-8.2-32.23l-.2-2.15c-.39-3.91-.68-10.09-.88-18.55-.2-8.46-.36-13.74-.49-15.82,0-1.17-.03-3.19-.1-6.05-.07-2.86-.1-5.14-.1-6.84,0-3.52.06-6.12.2-7.81v-3.32Z"/><path class="cls-1" d="M1043.89,523.53c-.26-7.55-.39-12.89-.39-16.02,0-1.43-.03-3.61-.1-6.54-.07-2.93-.1-5.18-.1-6.74,0-5.6.06-14.45.2-26.56.13-12.11.2-20.96.2-26.56,0-8.46-.07-14.65-.2-18.55,0-.91-.03-3.64-.1-8.2-.07-4.56-.1-8.33-.1-11.33,0-16.14.59-26.3,1.76-30.47.13-1.3.98-1.95,2.54-1.95.13,0,.36.07.68.2.32.13.55.2.68.2,3.91.39,9.05,1.24,15.43,2.54,4.69,1.17,11.13,3.52,19.34,7.03,11.46,5.08,19.5,12.83,24.12,23.24,4.62,10.42,6.93,24.15,6.93,41.21,0,18.62-3.91,34.38-11.72,47.27-8.47,14.19-21.94,24.74-40.43,31.64-6.25,2.21-10.94,3.32-14.06,3.32-1.69,0-3-.26-3.91-.78-.52-.26-.78-1.24-.78-2.93ZM1056.19,387v1.37c0,1.04-.03,2.64-.1,4.79-.07,2.15-.1,3.81-.1,4.98v1.17c.39,32.03.59,49.74.59,53.12v.59c0,31.51.65,50.2,1.95,56.05,18.36-5.21,30.53-15.3,36.52-30.27,4.95-13.02,7.42-24.61,7.42-34.77,0-14.84-2.34-26.43-7.03-34.77-4.69-8.33-12.37-15.1-23.05-20.31-6.12-2.6-11.2-3.91-15.23-3.91h-.59c-.26,0-.39.39-.39,1.17v.78Z"/><path class="cls-1" d="M1142.71,369.23c6.64,0,12.17,2.34,16.6,7.03,4.42,4.69,6.64,10.35,6.64,16.99v.78c0,1.69-.07,2.54-.2,2.54-.26.13-1.04.2-2.34.2-1.04,0-2.67-.06-4.88-.2-2.22-.13-3.58-.2-4.1-.2-.13,0-.2-.85-.2-2.54v-1.17c0-2.47-.95-4.72-2.83-6.74-1.89-2.02-4.72-3.03-8.5-3.03h-.39c-2.22,0-4.43,1.24-6.64,3.71-1.3,2.08-1.95,4.3-1.95,6.64,0,4.04,1.5,7.42,4.49,10.16,5.99,5.86,10.87,12.24,14.65,19.14,8.2,15.11,12.3,32.29,12.3,51.56,0,3.12-.13,6.9-.39,11.33-1.3,13.67-3.91,23.7-7.81,30.08-4.56,7.55-11.07,11.33-19.53,11.33-6.77,0-12.21-3.35-16.31-10.06-4.1-6.7-6.42-14.61-6.93-23.73v-11.52c0-.65,2.73-.98,8.2-.98,3.25,0,4.88.13,4.88.39v12.3c.39,4.95,1.46,9.15,3.22,12.6,1.76,3.45,4.13,5.18,7.13,5.18,5.34,0,9.18-3.58,11.52-10.74,1.43-4.82,2.47-12.04,3.12-21.68.13-1.43.2-2.99.2-4.69,0-5.86-.65-11.85-1.95-17.97-3-14.97-7.68-26.82-14.06-35.55-.91-1.3-2.61-3.45-5.08-6.45-2.47-2.99-4.33-5.34-5.57-7.03-1.24-1.69-2.44-3.94-3.61-6.74-1.17-2.8-1.76-5.57-1.76-8.3v-1.95c.52-5.73,2.8-10.61,6.84-14.65,4.03-4.03,8.66-6.05,13.87-6.05h1.37Z"/><path class="cls-1" d="M1175.53,461.81c-.52-8.85-.85-16.27-.98-22.27v-2.54c0-25.65,4.36-44.46,13.09-56.45,5.99-8.07,13.67-12.3,23.05-12.7.26,0,.71-.03,1.37-.1.65-.06,1.1-.1,1.37-.1,12.63,0,21.61,5.15,26.95,15.43,4.17,8.08,6.64,23.18,7.42,45.31.26,8.59.39,15.89.39,21.88,0,17.32-.91,30.6-2.73,39.84-4.04,22.27-13.41,35.16-28.12,38.67-2.61.65-4.82.98-6.64.98-13.8,0-23.9-11.52-30.27-34.57-1.69-6.25-3.32-17.38-4.88-33.4ZM1213.42,379.58c-6.38.26-11.62,3-15.72,8.2-4.1,5.21-6.81,11.33-8.11,18.36-2.08,10.68-3.12,21.55-3.12,32.62v3.91c.78,20.83,3.06,37.76,6.84,50.78,1.69,5.73,4.1,10.81,7.23,15.23,3.12,4.43,6.25,6.64,9.38,6.64h.2c6.38-.13,11.13-1.98,14.26-5.57,3.12-3.58,5.66-8.36,7.62-14.36,2.86-8.46,4.3-21.94,4.3-40.43v-7.42c-.13-1.04-.2-2.86-.2-5.47v-6.64c0-4.82-.07-8.07-.2-9.77-.78-14.06-2.22-24.35-4.3-30.86-1.43-3.91-3.71-7.42-6.84-10.55s-6.77-4.69-10.94-4.69h-.39Z"/><path class="cls-1" d="M1264.98,526.85c-2.47,0-4.04-.26-4.69-.78-.65-.52-.98-1.76-.98-3.71,0-3.38.06-8.4.2-15.04.13-6.64.2-11.65.2-15.04,0-4.42-.03-11-.1-19.73-.07-8.72-.1-15.43-.1-20.12,0-2.34.03-5.63.1-9.86.06-4.23.1-7.65.1-10.25,0-4.42-.1-11.88-.29-22.36-.2-10.48-.29-18.13-.29-22.95,0-.26-.03-.98-.1-2.15-.07-1.17-.1-2.08-.1-2.73,0-8.59.71-12.89,2.15-12.89,1.3,0,2.8,1.27,4.49,3.81,1.69,2.54,2.73,4.39,3.12,5.57,3.25,7.03,5.01,10.74,5.27,11.13,3.52,6.64,10.61,23.8,21.29,51.46,10.67,27.67,16.92,43.59,18.75,47.75.13-1.04.2-2.34.2-3.91,0-8.59-.07-23.86-.2-45.8-.13-21.94-.2-38.05-.2-48.34v-16.99c0-2.6.2-4.1.59-4.49.52-.39,1.43-.59,2.73-.59.39,0,1.1.03,2.15.1,1.04.07,2.02.1,2.93.1h2.15c1.69,0,2.76.49,3.22,1.46.46.98.68,2.7.68,5.18,0,1.3-.03,3.26-.1,5.86-.07,2.61-.1,4.49-.1,5.66v137.7c0,.65-.85.98-2.54.98l-8.98-1.37c-6.9-13.67-20.25-46.29-40.04-97.85-.13-.13-.56-1.04-1.27-2.73-.72-1.69-1.4-3.32-2.05-4.88l-1.17-2.54c0,1.3.13,6.02.39,14.16.26,8.14.39,12.73.39,13.77,0,.78-.03,1.95-.1,3.52-.07,1.56-.1,2.73-.1,3.52v20.51c0,1.83.06,3.19.2,4.1.26,8.98.39,22.85.39,41.6,0,.26.03.95.1,2.05.06,1.11.1,1.99.1,2.64,0,1.69-.2,2.73-.59,3.12-.78.91-3.39,1.37-7.81,1.37Z"/><path class="cls-1" d="M192.99,603.65c3.16,12.15,6.15,24.42,8.98,36.81,2.83,12.4,6.2,27.54,10.11,45.42,3.91,17.89,6.61,30.16,8.11,36.81.83,3.83,2.04,8.86,3.62,15.1,1.58,6.24,2.53,10.27,2.87,12.1.16.83.25,1.5.25,2,0,1-.67,1.67-2,2-2,.67-4.83,1-8.48,1-2.16,0-3.58-.08-4.24-.25-.67-.16-1.21-.46-1.62-.87-.42-.41-.71-.75-.87-1-.17-.25-.34-.83-.5-1.75-.17-.91-.25-1.45-.25-1.62-1.83-6.49-3.16-12.48-3.99-17.97l-.5-3-5.99-29.95c-.83-4.82-1.58-7.4-2.25-7.74-.34-.33-1.17-.5-2.5-.5-2,0-3.41.09-4.24.25l-3.99.25c-8.98.5-14.22.75-15.72.75-.67,0-1.42-.04-2.25-.12-.83-.08-1.42-.12-1.75-.12-.5.5-.75,1-.75,1.5l-.75,5.49-2.5,15.97c-.17,1.5-.79,6.11-1.87,13.85-1.08,7.74-1.79,13.35-2.12,16.84-.34,3.16-.75,5.41-1.25,6.74-.5,1.17-1.75,1.91-3.74,2.25h-4.74c-2.99,0-4.83-.16-5.49-.5-.67-.33-1-.91-1-1.75v-1.5c.33-4.16,1.37-11.23,3.12-21.21,1.75-9.98,2.7-15.72,2.87-17.22,6.65-47.08,12.81-84.6,18.47-112.55l.75-3.99c.66-3.49,1.83-9.15,3.49-16.97,1.66-7.82,2.75-13.31,3.24-16.47.33-3,1.75-4.82,4.24-5.49h.25c1.33,0,2.33,1.58,2.99,4.74,1,4.66,3,11.94,5.99,21.84,2.99,9.9,4.99,16.85,5.99,20.84ZM190.49,658.81c-3.33-19.3-7.32-35.94-11.98-49.91-1.33,5.16-4.16,21.8-8.49,49.91,0,.17-.29,2.16-.87,5.99-.58,3.83-.87,6.49-.87,7.99v1c0,1,.33,1.5,1,1.5h19.22c2.66-.16,4.32-.58,4.99-1.25v-.25c0-.5-.17-1.54-.5-3.12-.34-1.58-.71-3.33-1.12-5.24-.42-1.91-.71-3.2-.87-3.87l-.5-2.75Z"/><path class="cls-1" d="M244.15,757.38c-3.16,0-5.16-.33-5.99-1-.83-.67-1.25-2.25-1.25-4.74,0-4.32.08-10.73.25-19.22.16-8.49.25-14.89.25-19.22,0-5.65-.04-14.06-.12-25.21-.09-11.14-.12-19.71-.12-25.7,0-3,.04-7.19.12-12.6.08-5.41.12-9.77.12-13.1,0-5.65-.12-15.18-.37-28.57-.25-13.39-.37-23.17-.37-29.32,0-.33-.04-1.25-.12-2.75-.09-1.5-.12-2.66-.12-3.49,0-10.98.91-16.47,2.75-16.47,1.66,0,3.58,1.62,5.74,4.87,2.16,3.25,3.49,5.62,3.99,7.11,4.16,8.98,6.4,13.73,6.74,14.23,4.49,8.48,13.56,30.41,27.2,65.76,13.64,35.35,21.63,55.69,23.96,61.02.16-1.33.25-3,.25-4.99,0-10.98-.09-30.49-.25-58.52-.17-28.03-.25-48.62-.25-61.76v-21.71c0-3.33.25-5.24.75-5.74.66-.5,1.83-.75,3.49-.75.5,0,1.41.04,2.75.12,1.33.09,2.58.12,3.74.12h2.75c2.16,0,3.53.62,4.12,1.87.58,1.25.87,3.46.87,6.61,0,1.67-.04,4.16-.12,7.49-.09,3.33-.12,5.74-.12,7.24v175.94c0,.83-1.08,1.25-3.24,1.25l-11.48-1.75c-8.82-17.47-25.87-59.14-51.16-125.03-.17-.16-.71-1.33-1.62-3.49-.92-2.16-1.79-4.24-2.62-6.24l-1.5-3.24c0,1.67.16,7.7.5,18.09.33,10.4.5,16.26.5,17.59,0,1-.04,2.5-.12,4.49-.09,2-.12,3.49-.12,4.49v26.2c0,2.33.08,4.08.25,5.24.33,11.48.5,29.2.5,53.16,0,.33.04,1.21.12,2.62.08,1.42.12,2.54.12,3.37,0,2.16-.25,3.49-.75,3.99-1,1.16-4.33,1.75-9.98,1.75Z"/><path class="cls-1" d="M339.23,753.14c-.34-9.65-.5-16.47-.5-20.46,0-1.83-.04-4.62-.12-8.36-.09-3.74-.12-6.61-.12-8.61,0-7.15.08-18.47.25-33.94.16-15.47.25-26.78.25-33.94,0-10.81-.09-18.72-.25-23.71,0-1.16-.04-4.66-.12-10.48-.09-5.82-.12-10.64-.12-14.47,0-20.63.75-33.6,2.25-38.93.16-1.66,1.25-2.5,3.24-2.5.16,0,.46.09.87.25.41.17.71.25.87.25,4.99.5,11.56,1.58,19.71,3.24,5.99,1.5,14.22,4.49,24.71,8.98,14.64,6.49,24.91,16.39,30.82,29.7,5.9,13.31,8.86,30.86,8.86,52.66,0,23.79-4.99,43.92-14.97,60.39-10.82,18.14-28.04,31.61-51.66,40.43-7.99,2.83-13.98,4.24-17.97,4.24-2.16,0-3.83-.34-4.99-1-.67-.33-1-1.58-1-3.74ZM354.95,578.7v1.75c0,1.33-.04,3.37-.12,6.11-.09,2.75-.12,4.87-.12,6.36v1.5c.5,40.93.75,63.56.75,67.88v.75c0,40.26.83,64.14,2.5,71.62,23.46-6.65,39.01-19.55,46.67-38.68,6.32-16.63,9.48-31.44,9.48-44.42,0-18.97-2.99-33.77-8.98-44.42-5.99-10.65-15.81-19.3-29.45-25.95-7.82-3.33-14.31-4.99-19.47-4.99h-.75c-.34,0-.5.5-.5,1.5v1Z"/><path class="cls-1" d="M563.33,557.49h.25c4.82,0,7.32.5,7.49,1.5.16,1.17.33,2.99.5,5.49v4.49c0,2-.25,3.24-.75,3.74-.5,1.17-4.24,1.75-11.23,1.75-1.33,0-2.83-.04-4.49-.12-1.67-.08-2.66-.12-2.99-.12-.67,0-1,9.9-1,29.7v10.48c.16,12.15.37,25.29.62,39.43.25,14.14.41,25.5.5,34.06.08,8.57.21,16.76.37,24.58,0,2.33.04,6.08.12,11.23.08,5.16.12,9.23.12,12.23l.25,12.73v.25c0,2.16-.34,3.66-1,4.49-1.17,1-3.74,1.5-7.74,1.5h-1.25c-.83,0-1.67.04-2.5.12-.83.08-1.33.12-1.5.12-.5,0-.92-.17-1.25-.5-.83-.5-1.25-2.33-1.25-5.49v-10.73c-.34-19.3-.5-32.11-.5-38.43v-31.69c-.17-7.82-.25-21.96-.25-42.42,0-13.81.08-22.96.25-27.45v-23.46c-.34-.16-1-.25-2-.25-.5,0-1.54.04-3.12.12-1.58.09-2.79.12-3.62.12-3.83,0-6.16-.5-6.99-1.5-.5-.5-.75-1.16-.75-2v-9.23c0-2.33.58-3.58,1.75-3.74.16,0,.71-.12,1.62-.38.91-.25,1.7-.37,2.37-.37h2c3.33.33,6.07.5,8.24.5,3.16,0,7.82-.12,13.98-.37,6.15-.25,10.73-.37,13.73-.37Z"/><path class="cls-1" d="M583.04,631.1c0-4.66-.04-11.73-.12-21.21-.09-9.48-.12-16.47-.12-20.96v-19.71c0-1.66-.04-3.16-.12-4.49-.09-1.33-.12-2.16-.12-2.5,0-1.16.33-2.08,1-2.75,1-.33,4.57-.75,10.73-1.25.83,0,1.5.25,2,.75.83,1.67,1.25,22.79,1.25,63.39v16.22c.33,0,1.45.04,3.37.12,1.91.08,3.45.12,4.62.12,12.14,0,19.05-.58,20.71-1.75v-77.86c.66-1.83,2.58-2.75,5.74-2.75,3.99,0,6.69.62,8.11,1.87,1.41,1.25,2.12,3.79,2.12,7.61,0,7.82-.04,19.88-.12,36.19-.09,16.31-.12,28.12-.12,35.44v.5c0,7.16.08,19.34.25,36.56.16,17.22.25,30.32.25,39.31,0,3.99-.04,9.61-.12,16.84-.09,7.24-.12,12.44-.12,15.6v1.75c0,.34.04.96.12,1.87.08.92.12,1.62.12,2.12,0,3.16-1.5,4.74-4.49,4.74h-.5c-.67,0-1.83.08-3.49.25-1.67.16-2.75.25-3.24.25-2.99,0-4.49-1.67-4.49-4.99v-99.07c-.34-.16-1.17-.25-2.5-.25-2.5,0-6.7.25-12.6.75-5.91.5-9.03.75-9.36.75h-.5c-2.16,0-3.24.33-3.24,1-.34,2-.5,7.82-.5,17.47,0,4.49.04,11.32.12,20.46.08,9.15.12,15.39.12,18.72s-.09,8.4-.25,15.22c-.17,6.82-.25,11.9-.25,15.22,0,1.33.04,3,.12,4.99.08,2,.12,3.24.12,3.74v.25c0,1.5-1.04,2.66-3.12,3.49-2.08.83-4.2,1.25-6.36,1.25-2.99,0-4.58-.92-4.74-2.75-.5-2.33-.75-7.32-.75-14.97v-26.7c0-4.32.12-11.11.37-20.34s.37-15.43.37-18.59c0-2.5-.04-6.11-.12-10.86-.09-4.74-.12-8.27-.12-10.61v-20.46Z"/><path class="cls-1" d="M686.36,560.73c9.48,0,16.88.09,22.21.25,1.66,0,2.5,1.33,2.5,3.99v.75c0,.83.04,2.16.12,3.99.08,1.83.12,3,.12,3.49,0,1.67-.17,2.66-.5,2.99-.83.5-1.5.75-2,.75-.34,0-.96-.04-1.87-.12-.92-.08-1.71-.12-2.37-.12h-3.74c-2.83,0-5.58-.08-8.24-.25h-3.74c-.34,0-5.16.17-14.47.5-2.16.17-3.24,1-3.24,2.5v1.25c0,.67.04,1.62.12,2.87.08,1.25.12,2.21.12,2.87v22.96c0,3.16-.04,7.99-.12,14.47-.09,6.49-.12,11.4-.12,14.72v2.5c0,3.33.25,5.41.75,6.24.33.5.83.75,1.5.75h2c10.98,0,18.97.25,23.96.75.83,0,1.25.75,1.25,2.25v.25c0,.5.12,2,.37,4.49.25,2.5.37,4.33.37,5.49,0,1.67-.17,2.5-.5,2.5-1.83.5-4.33.75-7.49.75-1.33,0-3.99-.08-7.99-.25-3.99-.16-6.74-.25-8.24-.25h-4.74c-.67,0-1,.67-1,2v2.25c-.33,5.49-.5,13.73-.5,24.71,0,9.32.16,23.79.5,43.42.16,2.5.75,3.74,1.75,3.74h31.19c2,0,3.24.17,3.74.5.83.83,1.25,2.5,1.25,4.99,0,.83-.09,2.08-.25,3.74-.17,1.67-.25,2.75-.25,3.24,0,1.17-.21,1.92-.62,2.25-.42.33-1.37.5-2.87.5h-42.67c-2,0-3.49-.09-4.49-.25-1.67-.33-2.58-.75-2.75-1.25v-31.94c0-29.78.08-52.99.25-69.63v-47.42c0-5.15.04-11.14.12-17.97.08-6.82.16-12.1.25-15.85.08-3.74.12-6.53.12-8.36,0-1.33.66-2,2-2h1.5c1.66.17,4.41.25,8.24.25,1.66,0,4.24-.04,7.74-.12,3.49-.08,6.24-.12,8.24-.12h2.5Z"/><path class="cls-1" d="M823.37,574.21c-.67,0-1.96.04-3.87.12-1.92.09-3.37.12-4.37.12h-1c-2,0-2.99-.83-2.99-2.5v-10.98c0-1.5.16-2.33.5-2.5,3.83-1,9.98-1.5,18.47-1.5,3.83,0,9.15.09,15.97.25,6.82.17,11.39.25,13.73.25h3.49v.25c0,1.67-1.12,7.61-3.37,17.84-2.25,10.23-4.66,20.8-7.24,31.69-2.58,10.9-3.95,16.76-4.12,17.59l-16.97,80.11-5.49,28.2c1.16,1,4.57,1.5,10.23,1.5,1.33,0,3-.08,4.99-.25,2-.16,3.08-.25,3.24-.25h3.49c2.33,0,4.16.33,5.49,1,1.33.5,2,1.58,2,3.24v.25c0,.67.08,2.04.25,4.12.16,2.08.25,3.87.25,5.37,0,3.16-.42,4.91-1.25,5.24-2,1-5.83,1.5-11.48,1.5h-31.69c-3.49,0-5.99-.33-7.49-1-1.67-.83-2.5-1.75-2.5-2.75,0-.5.08-.91.25-1.25,3.16-8.32,6.4-20.13,9.73-35.44l8.24-33.94c9.32-36.6,16.72-71.7,22.21-105.31l.5-.5c0-.16-.09-.25-.25-.25-1.17,0-4.24-.04-9.23-.12-4.99-.08-8.24-.12-9.73-.12Z"/><path class="cls-1" d="M867.79,674.28c-.67-11.31-1.08-20.79-1.25-28.45v-3.24c0-32.77,5.57-56.81,16.72-72.12,7.65-10.31,17.47-15.72,29.45-16.22.33,0,.91-.04,1.75-.12.83-.08,1.41-.12,1.75-.12,16.14,0,27.62,6.57,34.44,19.71,5.32,10.32,8.49,29.62,9.48,57.9.33,10.98.5,20.3.5,27.95,0,22.13-1.17,39.1-3.49,50.91-5.16,28.45-17.14,44.92-35.94,49.41-3.33.83-6.16,1.25-8.49,1.25-17.64,0-30.53-14.72-38.68-44.17-2.16-7.99-4.24-22.21-6.24-42.67ZM916.2,569.21c-8.15.34-14.85,3.83-20.09,10.48-5.24,6.66-8.7,14.47-10.36,23.46-2.66,13.64-3.99,27.54-3.99,41.68v4.99c1,26.62,3.91,48.25,8.73,64.88,2.16,7.32,5.24,13.81,9.23,19.47,3.99,5.66,7.99,8.48,11.98,8.48h.25c8.15-.16,14.22-2.53,18.22-7.11,3.99-4.57,7.24-10.69,9.73-18.34,3.66-10.81,5.49-28.03,5.49-51.66v-9.48c-.17-1.33-.25-3.66-.25-6.99v-8.49c0-6.15-.08-10.31-.25-12.48-1-17.97-2.83-31.11-5.49-39.43-1.83-4.99-4.74-9.48-8.73-13.48-3.99-3.99-8.65-5.99-13.98-5.99h-.5Z"/><path class="cls-1" d="M974.6,674.28c-.67-11.31-1.08-20.79-1.25-28.45v-3.24c0-32.77,5.57-56.81,16.72-72.12,7.65-10.31,17.47-15.72,29.45-16.22.33,0,.91-.04,1.75-.12.83-.08,1.41-.12,1.75-.12,16.14,0,27.62,6.57,34.44,19.71,5.32,10.32,8.49,29.62,9.48,57.9.33,10.98.5,20.3.5,27.95,0,22.13-1.17,39.1-3.49,50.91-5.16,28.45-17.14,44.92-35.94,49.41-3.33.83-6.16,1.25-8.49,1.25-17.64,0-30.53-14.72-38.68-44.17-2.16-7.99-4.24-22.21-6.24-42.67ZM1023.01,569.21c-8.15.34-14.85,3.83-20.09,10.48-5.24,6.66-8.7,14.47-10.36,23.46-2.66,13.64-3.99,27.54-3.99,41.68v4.99c1,26.62,3.91,48.25,8.73,64.88,2.16,7.32,5.24,13.81,9.23,19.47,3.99,5.66,7.99,8.48,11.98,8.48h.25c8.15-.16,14.22-2.53,18.22-7.11,3.99-4.57,7.24-10.69,9.73-18.34,3.66-10.81,5.49-28.03,5.49-51.66v-9.48c-.17-1.33-.25-3.66-.25-6.99v-8.49c0-6.15-.08-10.31-.25-12.48-1-17.97-2.83-31.11-5.49-39.43-1.83-4.99-4.74-9.48-8.73-13.48-3.99-3.99-8.65-5.99-13.98-5.99h-.5Z"/><path class="cls-1" d="M1162.76,674.28c-.67-11.31-1.08-20.79-1.25-28.45v-3.24c0-32.77,5.57-56.81,16.72-72.12,7.65-10.31,17.47-15.72,29.45-16.22.33,0,.91-.04,1.75-.12.83-.08,1.41-.12,1.75-.12,16.14,0,27.62,6.57,34.44,19.71,5.32,10.32,8.49,29.62,9.48,57.9.33,10.98.5,20.3.5,27.95,0,22.13-1.17,39.1-3.49,50.91-5.16,28.45-17.14,44.92-35.94,49.41-3.33.83-6.16,1.25-8.49,1.25-17.64,0-30.53-14.72-38.68-44.17-2.16-7.99-4.24-22.21-6.24-42.67ZM1211.18,569.21c-8.15.34-14.85,3.83-20.09,10.48-5.24,6.66-8.7,14.47-10.36,23.46-2.66,13.64-3.99,27.54-3.99,41.68v4.99c1,26.62,3.91,48.25,8.73,64.88,2.16,7.32,5.24,13.81,9.23,19.47,3.99,5.66,7.99,8.48,11.98,8.48h.25c8.15-.16,14.22-2.53,18.22-7.11,3.99-4.57,7.24-10.69,9.73-18.34,3.66-10.81,5.49-28.03,5.49-51.66v-9.48c-.17-1.33-.25-3.66-.25-6.99v-8.49c0-6.15-.08-10.31-.25-12.48-1-17.97-2.83-31.11-5.49-39.43-1.83-4.99-4.74-9.48-8.73-13.48-3.99-3.99-8.65-5.99-13.98-5.99h-.5Z"/><path class="cls-1" d="M1285.8,637.34h10.98c3.33-.33,6.24-.5,8.73-.5l.75.25c1.83,0,2.91.08,3.25.25.33.33.58.87.75,1.62.16.75.25,1.75.25,3s.08,2.29.25,3.12c0,.5.04,1.42.12,2.75.08,1.33.12,2.33.12,3,0,1.5-.25,2.25-.75,2.25-11.65,0-19.3.34-22.96,1-.5,0-.75.75-.75,2.25v3.49c.5,13.48.75,32.86.75,58.15v5.49l.25,5.49v5.99c.16,1.17.25,5.99.25,14.47v1.25c0,2.83-.75,4.24-2.25,4.24h-6.49c-1.33,0-2.58.08-3.74.25h-2.25c-.5,0-.92-.04-1.25-.12-.33-.09-.58-.16-.75-.25-.17-.08-.29-.33-.38-.75-.09-.41-.17-.71-.25-.87-.09-.16-.12-.62-.12-1.37v-1.62c0-4.99-.09-11.6-.25-19.84-.17-8.24-.33-15.43-.5-21.59v-59.14c.16-19.96.25-48.66.25-86.1,0-2.66.83-3.99,2.5-3.99,2.66,0,7.03.09,13.1.25,6.07.17,10.61.25,13.6.25,4.16,0,7.07-.08,8.73-.25.83,0,1.95-.04,3.37-.12,1.41-.08,2.45-.12,3.12-.12,1.66,0,2.83.33,3.49,1,.5.5.75,1.25.75,2.25v2.75c0,.5.04,1.5.12,3,.08,1.5.12,2.5.12,2.99,0,1.83-.34,3.08-1,3.74-.5.67-1.25,1-2.25,1-.17,0-.58-.04-1.25-.12-.67-.08-1.25-.12-1.75-.12h-2.75c-2.16,0-5.12.09-8.86.25-3.74.17-6.36.25-7.86.25-.5,0-1.33-.04-2.5-.12-1.17-.08-2-.12-2.5-.12l-2-.25v47.17l-.25,14.22Z"/><path class="cls-1" d="M1412.32,753.14c-.34-9.65-.5-16.47-.5-20.46,0-1.83-.04-4.62-.12-8.36-.09-3.74-.12-6.61-.12-8.61,0-7.15.08-18.47.25-33.94.16-15.47.25-26.78.25-33.94,0-10.81-.09-18.72-.25-23.71,0-1.16-.04-4.66-.12-10.48-.09-5.82-.12-10.64-.12-14.47,0-20.63.75-33.6,2.25-38.93.16-1.66,1.25-2.5,3.24-2.5.16,0,.46.09.87.25.41.17.71.25.87.25,4.99.5,11.56,1.58,19.71,3.24,5.99,1.5,14.22,4.49,24.71,8.98,14.64,6.49,24.91,16.39,30.82,29.7,5.9,13.31,8.86,30.86,8.86,52.66,0,23.79-4.99,43.92-14.97,60.39-10.82,18.14-28.04,31.61-51.66,40.43-7.99,2.83-13.97,4.24-17.97,4.24-2.16,0-3.83-.34-4.99-1-.67-.33-1-1.58-1-3.74ZM1428.04,578.7v1.75c0,1.33-.04,3.37-.12,6.11-.08,2.75-.12,4.87-.12,6.36v1.5c.5,40.93.75,63.56.75,67.88v.75c0,40.26.83,64.14,2.5,71.62,23.46-6.65,39.01-19.55,46.67-38.68,6.32-16.63,9.48-31.44,9.48-44.42,0-18.97-2.99-33.77-8.98-44.42-5.99-10.65-15.81-19.3-29.45-25.95-7.82-3.33-14.31-4.99-19.46-4.99h-.75c-.33,0-.5.5-.5,1.5v1Z"/><path class="cls-1" d="M1546.58,560.73c9.48,0,16.88.09,22.21.25,1.66,0,2.5,1.33,2.5,3.99v.75c0,.83.04,2.16.12,3.99.08,1.83.12,3,.12,3.49,0,1.67-.17,2.66-.5,2.99-.83.5-1.5.75-2,.75-.34,0-.96-.04-1.87-.12-.92-.08-1.71-.12-2.37-.12h-3.74c-2.83,0-5.58-.08-8.24-.25h-3.74c-.33,0-5.16.17-14.47.5-2.16.17-3.24,1-3.24,2.5v1.25c0,.67.04,1.62.12,2.87.08,1.25.12,2.21.12,2.87v22.96c0,3.16-.04,7.99-.12,14.47-.09,6.49-.12,11.4-.12,14.72v2.5c0,3.33.25,5.41.75,6.24.33.5.83.75,1.5.75h2c10.98,0,18.97.25,23.96.75.83,0,1.25.75,1.25,2.25v.25c0,.5.12,2,.37,4.49.25,2.5.37,4.33.37,5.49,0,1.67-.17,2.5-.5,2.5-1.83.5-4.33.75-7.49.75-1.33,0-3.99-.08-7.99-.25-3.99-.16-6.74-.25-8.24-.25h-4.74c-.67,0-1,.67-1,2v2.25c-.34,5.49-.5,13.73-.5,24.71,0,9.32.16,23.79.5,43.42.16,2.5.75,3.74,1.75,3.74h31.19c2,0,3.24.17,3.74.5.83.83,1.25,2.5,1.25,4.99,0,.83-.09,2.08-.25,3.74-.17,1.67-.25,2.75-.25,3.24,0,1.17-.21,1.92-.62,2.25-.42.33-1.37.5-2.87.5h-42.67c-2,0-3.49-.09-4.49-.25-1.67-.33-2.58-.75-2.75-1.25v-31.94c0-29.78.08-52.99.25-69.63v-47.42c0-5.15.04-11.14.12-17.97.08-6.82.16-12.1.25-15.85.08-3.74.12-6.53.12-8.36,0-1.33.66-2,2-2h1.5c1.66.17,4.41.25,8.24.25,1.66,0,4.24-.04,7.74-.12,3.49-.08,6.24-.12,8.24-.12h2.5Z"/><path class="cls-1" d="M1628.44,603.65c3.16,12.15,6.15,24.42,8.98,36.81,2.83,12.4,6.2,27.54,10.11,45.42,3.91,17.89,6.61,30.16,8.11,36.81.83,3.83,2.04,8.86,3.62,15.1,1.58,6.24,2.53,10.27,2.87,12.1.16.83.25,1.5.25,2,0,1-.67,1.67-2,2-2,.67-4.83,1-8.49,1-2.16,0-3.58-.08-4.24-.25-.67-.16-1.21-.46-1.62-.87-.42-.41-.71-.75-.87-1-.17-.25-.33-.83-.5-1.75-.17-.91-.25-1.45-.25-1.62-1.83-6.49-3.16-12.48-3.99-17.97l-.5-3-5.99-29.95c-.83-4.82-1.58-7.4-2.25-7.74-.33-.33-1.17-.5-2.5-.5-2,0-3.41.09-4.24.25l-3.99.25c-8.98.5-14.23.75-15.72.75-.67,0-1.42-.04-2.25-.12-.83-.08-1.42-.12-1.75-.12-.5.5-.75,1-.75,1.5l-.75,5.49-2.5,15.97c-.17,1.5-.79,6.11-1.87,13.85-1.08,7.74-1.79,13.35-2.12,16.84-.33,3.16-.75,5.41-1.25,6.74-.5,1.17-1.75,1.91-3.74,2.25h-4.74c-3,0-4.83-.16-5.49-.5-.67-.33-1-.91-1-1.75v-1.5c.33-4.16,1.37-11.23,3.12-21.21s2.7-15.72,2.87-17.22c6.65-47.08,12.81-84.6,18.47-112.55l.75-3.99c.66-3.49,1.83-9.15,3.49-16.97,1.66-7.82,2.75-13.31,3.24-16.47.33-3,1.75-4.82,4.24-5.49h.25c1.33,0,2.33,1.58,3,4.74,1,4.66,2.99,11.94,5.99,21.84,2.99,9.9,4.99,16.85,5.99,20.84ZM1625.94,658.81c-3.33-19.3-7.32-35.94-11.98-49.91-1.33,5.16-4.16,21.8-8.48,49.91,0,.17-.29,2.16-.87,5.99-.58,3.83-.87,6.49-.87,7.99v1c0,1,.33,1.5,1,1.5h19.22c2.66-.16,4.32-.58,4.99-1.25v-.25c0-.5-.17-1.54-.5-3.12-.33-1.58-.71-3.33-1.12-5.24-.42-1.91-.71-3.2-.87-3.87l-.5-2.75Z"/><path class="cls-1" d="M1696.56,557.49h.25c4.82,0,7.32.5,7.49,1.5.16,1.17.33,2.99.5,5.49v4.49c0,2-.25,3.24-.75,3.74-.5,1.17-4.24,1.75-11.23,1.75-1.33,0-2.83-.04-4.49-.12-1.67-.08-2.66-.12-3-.12-.67,0-1,9.9-1,29.7v10.48c.16,12.15.38,25.29.62,39.43.25,14.14.41,25.5.5,34.06.08,8.57.21,16.76.38,24.58,0,2.33.04,6.08.12,11.23.08,5.16.12,9.23.12,12.23l.25,12.73v.25c0,2.16-.34,3.66-1,4.49-1.17,1-3.74,1.5-7.74,1.5h-1.25c-.83,0-1.67.04-2.5.12-.83.08-1.33.12-1.5.12-.5,0-.92-.17-1.25-.5-.83-.5-1.25-2.33-1.25-5.49v-10.73c-.34-19.3-.5-32.11-.5-38.43v-31.69c-.17-7.82-.25-21.96-.25-42.42,0-13.81.08-22.96.25-27.45v-23.46c-.34-.16-1-.25-2-.25-.5,0-1.54.04-3.12.12-1.58.09-2.79.12-3.62.12-3.83,0-6.16-.5-6.99-1.5-.5-.5-.75-1.16-.75-2v-9.23c0-2.33.58-3.58,1.75-3.74.16,0,.71-.12,1.62-.38.91-.25,1.7-.37,2.37-.37h2c3.33.33,6.07.5,8.24.5,3.16,0,7.82-.12,13.98-.37,6.15-.25,10.73-.37,13.73-.37Z"/><path class="cls-1" d="M1716.28,631.1c0-4.66-.04-11.73-.12-21.21-.09-9.48-.12-16.47-.12-20.96v-19.71c0-1.66-.04-3.16-.12-4.49-.09-1.33-.12-2.16-.12-2.5,0-1.16.33-2.08,1-2.75,1-.33,4.57-.75,10.73-1.25.83,0,1.5.25,2,.75.83,1.67,1.25,22.79,1.25,63.39v16.22c.33,0,1.45.04,3.37.12,1.91.08,3.45.12,4.62.12,12.14,0,19.05-.58,20.71-1.75v-77.86c.66-1.83,2.58-2.75,5.74-2.75,3.99,0,6.7.62,8.11,1.87,1.41,1.25,2.12,3.79,2.12,7.61,0,7.82-.04,19.88-.12,36.19-.08,16.31-.12,28.12-.12,35.44v.5c0,7.16.08,19.34.25,36.56.16,17.22.25,30.32.25,39.31,0,3.99-.04,9.61-.12,16.84-.09,7.24-.12,12.44-.12,15.6v1.75c0,.34.04.96.12,1.87.08.92.12,1.62.12,2.12,0,3.16-1.5,4.74-4.49,4.74h-.5c-.67,0-1.83.08-3.49.25-1.67.16-2.75.25-3.24.25-2.99,0-4.49-1.67-4.49-4.99v-99.07c-.33-.16-1.17-.25-2.5-.25-2.5,0-6.7.25-12.6.75-5.91.5-9.03.75-9.36.75h-.5c-2.16,0-3.24.33-3.24,1-.34,2-.5,7.82-.5,17.47,0,4.49.04,11.32.12,20.46.08,9.15.12,15.39.12,18.72s-.09,8.4-.25,15.22c-.17,6.82-.25,11.9-.25,15.22,0,1.33.04,3,.12,4.99.08,2,.12,3.24.12,3.74v.25c0,1.5-1.04,2.66-3.12,3.49-2.08.83-4.2,1.25-6.36,1.25-3,0-4.58-.92-4.74-2.75-.5-2.33-.75-7.32-.75-14.97v-26.7c0-4.32.12-11.11.37-20.34.25-9.23.37-15.43.37-18.59,0-2.5-.04-6.11-.12-10.86-.09-4.74-.12-8.27-.12-10.61v-20.46Z"/></svg>