<?xml version="1.0" encoding="UTF-8"?><svg id="Ebene_1" xmlns="http://www.w3.org/2000/svg" width="1920" height="1080" viewBox="0 0 1920 1080"><defs><style>.cls-1{fill:#fcfcfc;}</style></defs><path class="cls-1" d="M394.34,385.53c-.31,0-.83.05-1.55.16-.73.1-1.19.16-1.4.16-.31,0-.47-.88-.47-2.64v-1.4c0-2.9.1-4.81.31-5.75.1-.72,1.34-1.09,3.73-1.09.62,0,1.6.03,2.95.08,1.34.05,2.28.08,2.8.08h1.4c2.38,0,3.88.31,4.5.93.1.1.31,2.9.62,8.39.21,3.83.31,9.73.31,17.71v16.62c0,5.49.1,10.04.31,13.67,0,.31.02.93.08,1.86.05.93.08,1.55.08,1.86,0,1.76-.57,2.64-1.71,2.64h-5.9c-1.55,0-2.33-1.04-2.33-3.11v-1.55c0-1.55-.1-2.33-.31-2.33h-.16c-.1,0-.39.21-.85.62-.47.42-1.06.91-1.79,1.48-.73.57-1.35,1.01-1.86,1.32-2.9,1.45-6.32,2.17-10.25,2.17-14.7,0-24.59-10.46-29.67-31.37-1.97-9.11-2.95-17.76-2.95-25.94,0-4.35.26-8.18.78-11.49,1.34-11.08,4.01-20.14,8-27.18,3.98-7.04,9.81-13.2,17.47-18.48,1.65-1.24,5.23-3.03,10.72-5.36,5.49-2.33,9.63-3.49,12.43-3.49,1.86,0,2.8.67,2.8,2.02,0,.42.05,1.09.16,2.02.1.93.16,1.66.16,2.17,0,1.35-.21,2.38-.62,3.11-.1.31-.29.52-.54.62-.26.1-.62.16-1.09.16s-.85.05-1.17.16c-3.52,1.04-7.3,2.59-11.34,4.66-4.04,2.07-7.15,4.09-9.32,6.06-12.22,10.87-18.33,26.46-18.33,46.75,0,4.76.36,9.61,1.09,14.52.72,4.92,1.89,9.76,3.49,14.52,1.6,4.76,3.91,8.65,6.91,11.65,3,3,6.47,4.5,10.41,4.5,4.35,0,8.15-1.22,11.42-3.65,3.26-2.43,4.89-5.88,4.89-10.33,0-8.39-.26-17.5-.78-27.34,0-.31-.21-.47-.62-.47-.1,0-.47.05-1.09.16-.62.1-1.19.16-1.71.16Z"/><path class="cls-1" d="M435.81,316.41c5.9,0,10.51.05,13.82.16,1.03,0,1.55.83,1.55,2.48v.47c0,.52.02,1.35.08,2.48.05,1.14.08,1.86.08,2.17,0,1.04-.1,1.66-.31,1.86-.52.31-.93.47-1.24.47-.21,0-.6-.02-1.17-.08-.57-.05-1.06-.08-1.48-.08h-2.33c-1.76,0-3.47-.05-5.13-.16h-2.33c-.21,0-3.21.1-9.01.31-1.35.1-2.02.62-2.02,1.55v.78c0,.42.02,1.01.08,1.79.05.78.08,1.37.08,1.79v14.29c0,1.97-.03,4.97-.08,9.01-.05,4.04-.08,7.09-.08,9.16v1.55c0,2.07.16,3.37.47,3.88.21.31.52.47.93.47h1.24c6.83,0,11.8.16,14.91.47.52,0,.78.47.78,1.4v.16c0,.31.08,1.24.23,2.8.16,1.55.23,2.69.23,3.42,0,1.04-.1,1.55-.31,1.55-1.14.31-2.69.47-4.66.47-.83,0-2.49-.05-4.97-.16-2.48-.1-4.19-.16-5.13-.16h-2.95c-.42,0-.62.42-.62,1.24v1.4c-.21,3.42-.31,8.54-.31,15.38,0,5.8.1,14.81.31,27.03.1,1.55.47,2.33,1.09,2.33h19.42c1.24,0,2.02.1,2.33.31.52.52.78,1.55.78,3.11,0,.52-.05,1.3-.16,2.33-.1,1.04-.16,1.71-.16,2.02,0,.73-.13,1.19-.39,1.4-.26.21-.85.31-1.79.31h-26.56c-1.24,0-2.17-.05-2.8-.16-1.04-.21-1.61-.47-1.71-.78v-19.88c0-18.53.05-32.98.16-43.33v-29.51c0-3.21.02-6.94.08-11.18.05-4.24.1-7.53.16-9.86.05-2.33.08-4.06.08-5.2,0-.83.41-1.24,1.24-1.24h.93c1.03.1,2.74.16,5.13.16,1.03,0,2.64-.02,4.81-.08,2.17-.05,3.88-.08,5.13-.08h1.55Z"/><path class="cls-1" d="M459.57,341.26v-12.89c0-4.24.16-8.18.47-11.8,0-.72,1.34-1.09,4.04-1.09h2.64c1.55,0,2.38.57,2.48,1.71.1,1.04.16,3.52.16,7.46,0,2.17-.03,5.39-.08,9.63-.05,4.25-.08,7.14-.08,8.7,0,1.66.02,4.64.08,8.93.05,4.3.08,7.74.08,10.33v8.23c0,1.55.02,3.68.08,6.37.05,2.69.08,4.81.08,6.37s-.03,3.83-.08,6.83c-.05,3-.08,5.18-.08,6.52,0,4.14.08,10.2.23,18.17.16,7.97.23,14.03.23,18.17,0,1.55-.05,2.54-.16,2.95,0,1.55-2.48,2.33-7.46,2.33-1.14,0-1.89-.26-2.25-.78-.36-.52-.6-1.45-.7-2.8,0-.31-.03-.83-.08-1.55-.05-.72-.08-1.24-.08-1.55,0-.52.02-1.32.08-2.41.05-1.09.08-1.89.08-2.41,0-3.83.02-10.2.08-19.1.05-8.9.08-15.48.08-19.73,0-1.55-.03-3.65-.08-6.29-.05-2.64-.08-4.68-.08-6.14,0-2.9.05-8.23.16-16,.1-7.77.16-13.82.16-18.17Z"/><path class="cls-1" d="M500.27,313.46c5.28,0,9.68,1.86,13.2,5.59,3.52,3.73,5.28,8.23,5.28,13.51v.62c0,1.35-.05,2.02-.16,2.02-.21.1-.83.16-1.86.16-.83,0-2.12-.05-3.88-.16-1.76-.1-2.85-.16-3.26-.16-.1,0-.16-.67-.16-2.02v-.93c0-1.97-.75-3.75-2.25-5.36-1.5-1.6-3.75-2.41-6.76-2.41h-.31c-1.76,0-3.52.98-5.28,2.95-1.04,1.66-1.55,3.42-1.55,5.28,0,3.21,1.19,5.9,3.57,8.08,4.76,4.66,8.64,9.73,11.65,15.22,6.52,12.01,9.79,25.68,9.79,41,0,2.48-.1,5.49-.31,9.01-1.04,10.87-3.11,18.85-6.21,23.92-3.63,6.01-8.8,9.01-15.53,9.01-5.39,0-9.71-2.66-12.97-8-3.26-5.33-5.1-11.62-5.51-18.87v-9.16c0-.52,2.17-.78,6.52-.78,2.59,0,3.88.1,3.88.31v9.79c.31,3.94,1.17,7.28,2.56,10.02,1.4,2.74,3.29,4.12,5.67,4.12,4.24,0,7.3-2.85,9.16-8.54,1.14-3.83,1.97-9.58,2.48-17.24.1-1.14.16-2.38.16-3.73,0-4.66-.52-9.42-1.55-14.29-2.38-11.91-6.11-21.33-11.18-28.27-.73-1.03-2.07-2.74-4.04-5.13-1.97-2.38-3.44-4.24-4.43-5.59-.99-1.34-1.94-3.13-2.87-5.36-.93-2.23-1.4-4.43-1.4-6.6v-1.55c.41-4.56,2.23-8.44,5.44-11.65,3.21-3.21,6.89-4.81,11.03-4.81h1.09Z"/><path class="cls-1" d="M548.73,314.39h.16c3,0,4.56.31,4.66.93.1.73.21,1.86.31,3.42v2.8c0,1.24-.16,2.02-.47,2.33-.31.73-2.64,1.09-6.99,1.09-.83,0-1.76-.02-2.8-.08-1.04-.05-1.66-.08-1.86-.08-.42,0-.62,6.16-.62,18.48v6.52c.1,7.56.23,15.74.39,24.54.16,8.8.26,15.87.31,21.2.05,5.33.13,10.43.23,15.3,0,1.45.02,3.78.08,6.99.05,3.21.08,5.75.08,7.61l.16,7.92v.16c0,1.35-.21,2.28-.62,2.8-.73.62-2.33.93-4.81.93h-.78c-.52,0-1.04.02-1.55.08-.52.05-.83.08-.93.08-.31,0-.57-.1-.78-.31-.52-.31-.78-1.45-.78-3.42v-6.68c-.21-12.01-.31-19.98-.31-23.92v-19.73c-.1-4.87-.16-13.67-.16-26.4,0-8.59.05-14.29.16-17.09v-14.6c-.21-.1-.62-.16-1.24-.16-.31,0-.96.03-1.94.08-.99.05-1.74.08-2.25.08-2.38,0-3.83-.31-4.35-.93-.31-.31-.47-.72-.47-1.24v-5.75c0-1.45.36-2.23,1.09-2.33.1,0,.44-.08,1.01-.23.57-.16,1.06-.23,1.48-.23h1.24c2.07.21,3.78.31,5.13.31,1.97,0,4.87-.08,8.7-.23,3.83-.16,6.68-.23,8.54-.23Z"/><path class="cls-1" d="M579.95,316.41c5.9,0,10.51.05,13.82.16,1.03,0,1.55.83,1.55,2.48v.47c0,.52.02,1.35.08,2.48.05,1.14.08,1.86.08,2.17,0,1.04-.1,1.66-.31,1.86-.52.31-.93.47-1.24.47-.21,0-.6-.02-1.17-.08-.57-.05-1.06-.08-1.48-.08h-2.33c-1.76,0-3.47-.05-5.13-.16h-2.33c-.21,0-3.21.1-9.01.31-1.35.1-2.02.62-2.02,1.55v.78c0,.42.02,1.01.08,1.79.05.78.08,1.37.08,1.79v14.29c0,1.97-.03,4.97-.08,9.01-.05,4.04-.08,7.09-.08,9.16v1.55c0,2.07.16,3.37.47,3.88.21.31.52.47.93.47h1.24c6.83,0,11.8.16,14.91.47.52,0,.78.47.78,1.4v.16c0,.31.08,1.24.23,2.8.16,1.55.23,2.69.23,3.42,0,1.04-.1,1.55-.31,1.55-1.14.31-2.69.47-4.66.47-.83,0-2.49-.05-4.97-.16-2.48-.1-4.19-.16-5.13-.16h-2.95c-.42,0-.62.42-.62,1.24v1.4c-.21,3.42-.31,8.54-.31,15.38,0,5.8.1,14.81.31,27.03.1,1.55.47,2.33,1.09,2.33h19.42c1.24,0,2.02.1,2.33.31.52.52.78,1.55.78,3.11,0,.52-.05,1.3-.16,2.33-.1,1.04-.16,1.71-.16,2.02,0,.73-.13,1.19-.39,1.4-.26.21-.85.31-1.79.31h-26.56c-1.24,0-2.17-.05-2.8-.16-1.04-.21-1.61-.47-1.71-.78v-19.88c0-18.53.05-32.98.16-43.33v-29.51c0-3.21.02-6.94.08-11.18.05-4.24.1-7.53.16-9.86.05-2.33.08-4.06.08-5.2,0-.83.41-1.24,1.24-1.24h.93c1.03.1,2.74.16,5.13.16,1.03,0,2.64-.02,4.81-.08,2.17-.05,3.88-.08,5.13-.08h1.55Z"/><path class="cls-1" d="M603.25,317.03c.1-.1.16-.31.16-.62,0-.21-.03-.41-.08-.62-.05-.21-.08-.41-.08-.62,0-.72.1-1.19.31-1.4.21-.21.41-.31.62-.31.1,0,.28.03.54.08.26.05.49.08.7.08h.93c6.73,0,12.58,1.19,17.55,3.57,4.35,1.97,7.46,4.56,9.32,7.77,1.76,2.8,2.64,6.83,2.64,12.11v.93c0,5.59-2.38,11.18-7.14,16.77-1.24,1.45-2.75,2.9-4.5,4.35-1.76,1.45-3.13,2.56-4.12,3.34-.99.78-1.48,1.32-1.48,1.63.62,2.69,1.66,6.06,3.11,10.1,1.45,4.04,3.03,8.34,4.74,12.89,1.71,4.56,2.82,7.66,3.34,9.32,6.73,18.95,10.92,30.39,12.58,34.33,1.34,3,2.02,4.87,2.02,5.59,0,.42-.26.62-.78.62h-.62c-1.45-.21-2.64-.31-3.57-.31-.62,0-1.5.03-2.64.08-1.14.05-1.97.08-2.49.08h-.31c-.62,0-2.33-4.09-5.13-12.27-2.8-8.18-4.56-13.67-5.28-16.46-1.45-5.38-3.63-12.48-6.52-21.28-2.8-8.9-4.3-13.36-4.5-13.36s-.31,1.86-.31,5.59v2.95c0,2.17.02,4.71.08,7.61.05,2.9.1,5.82.16,8.78.05,2.95.1,5.96.16,9.01.05,3.06.1,5.93.16,8.62.05,2.69.1,5.07.16,7.14.05,2.07.08,3.73.08,4.97l.16,1.86v.31c0,.83-.03,1.94-.08,3.34-.05,1.4-.08,2.31-.08,2.72,0,.62-.05.98-.16,1.09-.31.41-.88.62-1.71.62-.21,0-.57-.03-1.09-.08-.52-.05-.93-.08-1.24-.08s-.83.02-1.55.08c-.73.05-1.24.08-1.55.08-1.04,0-1.76-.21-2.17-.62-.1-.72-.18-2.54-.23-5.44-.05-2.9-.1-6.03-.16-9.4-.05-3.36-.08-5.51-.08-6.45.1-2.07.16-4.71.16-7.92,0-.93-.03-3-.08-6.21-.05-3.21-.08-6.26-.08-9.16-.1-.83-.16-2.07-.16-3.73,0-3.11.08-8,.23-14.68s.23-11.57.23-14.68-.05-5.59-.16-7.15c-.1-3.62-.16-8.23-.16-13.82v-9.32c.1-2.49.16-6.63.16-12.43ZM624.68,345.3c1.14-2.9,1.71-5.54,1.71-7.92,0-3.21-.57-5.72-1.71-7.53-1.14-1.81-3-3.44-5.59-4.89-2.69-1.45-4.81-2.17-6.37-2.17h-.47l-.16.31v.62c0,.52.02,1.55.08,3.11.05,1.55.08,2.69.08,3.42,0,.21-.03.91-.08,2.1-.05,1.19-.08,2.69-.08,4.5v5.36c0,2.28-.05,4.71-.16,7.3-.1,2.59-.16,3.99-.16,4.19l.16,1.09c2.49-.1,4.99-1.24,7.53-3.42,2.54-2.17,4.27-4.19,5.2-6.06Z"/><path class="cls-1" d="M650.31,431.35c-2.49-4.76-3.73-10.1-3.73-16v-2.33c0-.21.02-.85.08-1.94.05-1.09.1-2.12.16-3.11.05-.98.16-2.07.31-3.26.16-1.19.39-2.25.7-3.18.31-.93.72-1.66,1.24-2.17.21-.21.52-.31.93-.31.31,0,.98.1,2.02.31,1.24.21,2.9.88,4.97,2.02.41.1.62.36.62.78,0,.52-.05.99-.16,1.4-.52,5.18-.78,8.75-.78,10.72,0,2.9.26,5.13.78,6.68.41,1.35,1.27,2.59,2.56,3.73,1.29,1.14,2.46,1.81,3.49,2.02.31.1.83.16,1.55.16,3.42,0,6-1.6,7.77-4.81,1.65-3.42,2.48-7.92,2.48-13.51,0-2.59.05-6.78.16-12.58.1-5.8.16-10.15.16-13.05,0-4.97-.1-8.59-.31-10.87.21-8.7.31-14.96.31-18.79,0-.1.02-.36.08-.78.05-.41.08-.67.08-.78,0-4.76-.31-14.5-.93-29.2v-1.09c0-1.55.16-2.49.47-2.8.41-.52.98-.78,1.71-.78h2.17c2.28.1,3.83.52,4.66,1.24.62.52.93,1.19.93,2.02,0,.62.16,5.44.47,14.44.21,2.9.31,5.18.31,6.83v4.66c0,2.69.08,7.82.23,15.38.16,7.56.23,13.57.23,18.02,0,1.24-.05,3.11-.16,5.59-.1,2.49-.16,4.4-.16,5.75-.21,10.15-.93,18.64-2.17,25.47-.73,4.25-2.28,8.23-4.66,11.96-3.63,5.49-8.08,8.64-13.36,9.47-.62.1-1.5.16-2.64.16-5.8,0-9.99-2.49-12.58-7.46Z"/><path class="cls-1" d="M723,343.12c1.97,7.66,3.31,13.82,4.04,18.48l7.15,29.36c.83,3.52,2.74,12.27,5.75,26.25,1.14,5.49,1.97,9.11,2.49,10.87l.47,1.71c.83,2.49,1.29,3.94,1.4,4.35,0,.21.02.39.08.54.05.16.1.29.16.39.05.1.08.21.08.31,0,.62-.47,1.04-1.4,1.24-1.24.42-2.95.62-5.13.62-1.45,0-2.38-.05-2.8-.16-.41-.1-.75-.28-1.01-.54-.26-.26-.44-.47-.54-.62-.1-.16-.21-.52-.31-1.09-.1-.57-.16-.9-.16-1.01-1.55-5.69-2.48-9.42-2.8-11.18l-.31-1.86-3.73-18.64c-.52-3.11-.93-4.71-1.24-4.81-.21-.21-.78-.31-1.71-.31-1.24,0-2.12.05-2.64.16l-2.33.16c-5.59.31-8.91.47-9.94.47-.42,0-.88-.02-1.4-.08-.52-.05-.88-.08-1.09-.08-.21.21-.31.52-.31.93l-.47,3.42-1.71,9.94c-.1.93-.49,3.81-1.17,8.62-.67,4.81-1.11,8.31-1.32,10.48-.21,1.97-.47,3.37-.78,4.19-.31.73-1.04,1.19-2.17,1.4h-3.11c-1.76,0-2.85-.1-3.26-.31-.52-.21-.78-.57-.78-1.09v-.93c.21-2.59.85-6.99,1.94-13.2s1.68-9.79,1.79-10.72c.31-1.97.78-5.33,1.4-10.1.62-4.76,1.14-8.49,1.55-11.18.21-1.76.78-5.28,1.71-10.56.93-5.28,1.55-9.27,1.86-11.96.93-7.25,2.59-16,4.97-26.25l.47-2.49c.41-2.17,1.14-5.69,2.17-10.56,1.03-4.87,1.71-8.28,2.02-10.25.21-1.86,1.09-3,2.64-3.42h.16c.83,0,1.45.99,1.86,2.95.62,2.9,1.86,7.43,3.73,13.59,1.86,6.16,3.11,10.48,3.73,12.97ZM708.71,309.26c-.83.93-1.81,1.4-2.95,1.4s-2.05-.41-2.72-1.24c-.67-.83-1.01-1.76-1.01-2.8v-.16c0-1.55.52-2.69,1.55-3.42.72-.41,1.55-.62,2.48-.62,1.03,0,1.94.36,2.72,1.09.78.73,1.17,1.61,1.17,2.64,0,1.14-.42,2.17-1.24,3.11ZM721.44,377.45c-.42-2.28-1.17-5.82-2.25-10.64-1.09-4.81-1.79-8-2.1-9.55-.31-1.24-.88-3.29-1.71-6.14-.83-2.85-1.4-4.43-1.71-4.74-.42.31-.88,2.38-1.4,6.21l-3.57,24.85c0,.1-.18,1.35-.54,3.73-.36,2.38-.54,4.04-.54,4.97v.62c0,.62.21.93.62.93h11.96c1.66-.1,2.69-.36,3.11-.78v-.16c0-.31-.1-.96-.31-1.94-.21-.98-.44-2.07-.7-3.26-.26-1.19-.44-1.99-.54-2.41l-.31-1.71ZM719.74,310.66c-1.04,0-1.89-.41-2.56-1.24-.67-.83-1.06-1.76-1.17-2.8v-.16c0-1.45.57-2.59,1.71-3.42.52-.41,1.34-.62,2.48-.62,1.03,0,1.94.36,2.72,1.09.78.73,1.16,1.61,1.16,2.64,0,1.24-.41,2.31-1.24,3.18-.83.88-1.86,1.32-3.11,1.32Z"/><path class="cls-1" d="M788.23,385.53c-.31,0-.83.05-1.55.16-.73.1-1.19.16-1.4.16-.31,0-.47-.88-.47-2.64v-1.4c0-2.9.1-4.81.31-5.75.1-.72,1.34-1.09,3.73-1.09.62,0,1.6.03,2.95.08,1.34.05,2.28.08,2.8.08h1.4c2.38,0,3.88.31,4.5.93.1.1.31,2.9.62,8.39.21,3.83.31,9.73.31,17.71v16.62c0,5.49.1,10.04.31,13.67,0,.31.02.93.08,1.86.05.93.08,1.55.08,1.86,0,1.76-.57,2.64-1.71,2.64h-5.9c-1.55,0-2.33-1.04-2.33-3.11v-1.55c0-1.55-.1-2.33-.31-2.33h-.16c-.1,0-.39.21-.85.62-.47.42-1.06.91-1.79,1.48-.73.57-1.35,1.01-1.86,1.32-2.9,1.45-6.32,2.17-10.25,2.17-14.7,0-24.59-10.46-29.67-31.37-1.97-9.11-2.95-17.76-2.95-25.94,0-4.35.26-8.18.78-11.49,1.34-11.08,4.01-20.14,8-27.18,3.98-7.04,9.81-13.2,17.47-18.48,1.65-1.24,5.23-3.03,10.72-5.36,5.49-2.33,9.63-3.49,12.43-3.49,1.86,0,2.8.67,2.8,2.02,0,.42.05,1.09.16,2.02.1.93.16,1.66.16,2.17,0,1.35-.21,2.38-.62,3.11-.1.31-.29.52-.54.62-.26.1-.62.16-1.09.16s-.85.05-1.17.16c-3.52,1.04-7.3,2.59-11.34,4.66-4.04,2.07-7.15,4.09-9.32,6.06-12.22,10.87-18.33,26.46-18.33,46.75,0,4.76.36,9.61,1.09,14.52.72,4.92,1.89,9.76,3.49,14.52,1.6,4.76,3.91,8.65,6.91,11.65,3,3,6.47,4.5,10.41,4.5,4.35,0,8.15-1.22,11.42-3.65,3.26-2.43,4.89-5.88,4.89-10.33,0-8.39-.26-17.5-.78-27.34,0-.31-.21-.47-.62-.47-.1,0-.47.05-1.09.16-.62.1-1.19.16-1.71.16Z"/><path class="cls-1" d="M829.7,316.41c5.9,0,10.51.05,13.82.16,1.03,0,1.55.83,1.55,2.48v.47c0,.52.02,1.35.08,2.48.05,1.14.08,1.86.08,2.17,0,1.04-.1,1.66-.31,1.86-.52.31-.93.47-1.24.47-.21,0-.6-.02-1.17-.08-.57-.05-1.06-.08-1.48-.08h-2.33c-1.76,0-3.47-.05-5.13-.16h-2.33c-.21,0-3.21.1-9.01.31-1.35.1-2.02.62-2.02,1.55v.78c0,.42.02,1.01.08,1.79.05.78.08,1.37.08,1.79v14.29c0,1.97-.03,4.97-.08,9.01-.05,4.04-.08,7.09-.08,9.16v1.55c0,2.07.16,3.37.47,3.88.21.31.52.47.93.47h1.24c6.83,0,11.8.16,14.91.47.52,0,.78.47.78,1.4v.16c0,.31.08,1.24.23,2.8.16,1.55.23,2.69.23,3.42,0,1.04-.1,1.55-.31,1.55-1.14.31-2.69.47-4.66.47-.83,0-2.49-.05-4.97-.16-2.48-.1-4.19-.16-5.13-.16h-2.95c-.42,0-.62.42-.62,1.24v1.4c-.21,3.42-.31,8.54-.31,15.38,0,5.8.1,14.81.31,27.03.1,1.55.47,2.33,1.09,2.33h19.42c1.24,0,2.02.1,2.33.31.52.52.78,1.55.78,3.11,0,.52-.05,1.3-.16,2.33-.1,1.04-.16,1.71-.16,2.02,0,.73-.13,1.19-.39,1.4-.26.21-.85.31-1.79.31h-26.56c-1.24,0-2.17-.05-2.8-.16-1.04-.21-1.61-.47-1.71-.78v-19.88c0-18.53.05-32.98.16-43.33v-29.51c0-3.21.02-6.94.08-11.18.05-4.24.1-7.53.16-9.86.05-2.33.08-4.06.08-5.2,0-.83.41-1.24,1.24-1.24h.93c1.03.1,2.74.16,5.13.16,1.03,0,2.64-.02,4.81-.08,2.17-.05,3.88-.08,5.13-.08h1.55Z"/><path class="cls-1" d="M853,317.03c.1-.1.16-.31.16-.62,0-.21-.03-.41-.08-.62-.05-.21-.08-.41-.08-.62,0-.72.1-1.19.31-1.4.21-.21.41-.31.62-.31.1,0,.28.03.54.08.26.05.49.08.7.08h.93c6.73,0,12.58,1.19,17.55,3.57,4.35,1.97,7.46,4.56,9.32,7.77,1.76,2.8,2.64,6.83,2.64,12.11v.93c0,5.59-2.38,11.18-7.14,16.77-1.24,1.45-2.75,2.9-4.5,4.35-1.76,1.45-3.13,2.56-4.12,3.34-.99.78-1.48,1.32-1.48,1.63.62,2.69,1.66,6.06,3.11,10.1,1.45,4.04,3.03,8.34,4.74,12.89,1.71,4.56,2.82,7.66,3.34,9.32,6.73,18.95,10.92,30.39,12.58,34.33,1.34,3,2.02,4.87,2.02,5.59,0,.42-.26.62-.78.62h-.62c-1.45-.21-2.64-.31-3.57-.31-.62,0-1.5.03-2.64.08-1.14.05-1.97.08-2.49.08h-.31c-.62,0-2.33-4.09-5.13-12.27-2.8-8.18-4.56-13.67-5.28-16.46-1.45-5.38-3.63-12.48-6.52-21.28-2.8-8.9-4.3-13.36-4.5-13.36s-.31,1.86-.31,5.59v2.95c0,2.17.02,4.71.08,7.61.05,2.9.1,5.82.16,8.78.05,2.95.1,5.96.16,9.01.05,3.06.1,5.93.16,8.62.05,2.69.1,5.07.16,7.14.05,2.07.08,3.73.08,4.97l.16,1.86v.31c0,.83-.03,1.94-.08,3.34-.05,1.4-.08,2.31-.08,2.72,0,.62-.05.98-.16,1.09-.31.41-.88.62-1.71.62-.21,0-.57-.03-1.09-.08-.52-.05-.93-.08-1.24-.08s-.83.02-1.55.08c-.73.05-1.24.08-1.55.08-1.04,0-1.76-.21-2.17-.62-.1-.72-.18-2.54-.23-5.44-.05-2.9-.1-6.03-.16-9.4-.05-3.36-.08-5.51-.08-6.45.1-2.07.16-4.71.16-7.92,0-.93-.03-3-.08-6.21-.05-3.21-.08-6.26-.08-9.16-.1-.83-.16-2.07-.16-3.73,0-3.11.08-8,.23-14.68s.23-11.57.23-14.68-.05-5.59-.16-7.15c-.1-3.62-.16-8.23-.16-13.82v-9.32c.1-2.49.16-6.63.16-12.43ZM874.44,345.3c1.14-2.9,1.71-5.54,1.71-7.92,0-3.21-.57-5.72-1.71-7.53-1.14-1.81-3-3.44-5.59-4.89-2.69-1.45-4.81-2.17-6.37-2.17h-.47l-.16.31v.62c0,.52.02,1.55.08,3.11.05,1.55.08,2.69.08,3.42,0,.21-.03.91-.08,2.1-.05,1.19-.08,2.69-.08,4.5v5.36c0,2.28-.05,4.71-.16,7.3-.1,2.59-.16,3.99-.16,4.19l.16,1.09c2.49-.1,4.99-1.24,7.53-3.42,2.54-2.17,4.27-4.19,5.2-6.06Z"/><path class="cls-1" d="M971.36,316.41c5.9,0,10.51.05,13.82.16,1.03,0,1.55.83,1.55,2.48v.47c0,.52.02,1.35.08,2.48.05,1.14.08,1.86.08,2.17,0,1.04-.1,1.66-.31,1.86-.52.31-.93.47-1.24.47-.21,0-.6-.02-1.17-.08-.57-.05-1.06-.08-1.48-.08h-2.33c-1.76,0-3.47-.05-5.12-.16h-2.33c-.21,0-3.21.1-9.01.31-1.35.1-2.02.62-2.02,1.55v.78c0,.42.02,1.01.08,1.79.05.78.08,1.37.08,1.79v14.29c0,1.97-.03,4.97-.08,9.01-.05,4.04-.08,7.09-.08,9.16v1.55c0,2.07.16,3.37.47,3.88.21.31.52.47.93.47h1.24c6.83,0,11.8.16,14.91.47.52,0,.78.47.78,1.4v.16c0,.31.08,1.24.23,2.8.16,1.55.23,2.69.23,3.42,0,1.04-.1,1.55-.31,1.55-1.14.31-2.69.47-4.66.47-.83,0-2.49-.05-4.97-.16-2.49-.1-4.19-.16-5.12-.16h-2.95c-.42,0-.62.42-.62,1.24v1.4c-.21,3.42-.31,8.54-.31,15.38,0,5.8.1,14.81.31,27.03.1,1.55.47,2.33,1.09,2.33h19.42c1.24,0,2.02.1,2.33.31.52.52.78,1.55.78,3.11,0,.52-.05,1.3-.16,2.33-.1,1.04-.16,1.71-.16,2.02,0,.73-.13,1.19-.39,1.4-.26.21-.85.31-1.79.31h-26.56c-1.24,0-2.17-.05-2.8-.16-1.04-.21-1.61-.47-1.71-.78v-19.88c0-18.53.05-32.98.16-43.33v-29.51c0-3.21.02-6.94.08-11.18.05-4.24.1-7.53.16-9.86.05-2.33.08-4.06.08-5.2,0-.83.41-1.24,1.24-1.24h.93c1.03.1,2.74.16,5.13.16,1.03,0,2.64-.02,4.81-.08,2.17-.05,3.88-.08,5.13-.08h1.55Z"/><path class="cls-1" d="M994.65,317.03c.1-.1.16-.31.16-.62,0-.21-.03-.41-.08-.62-.05-.21-.08-.41-.08-.62,0-.72.1-1.19.31-1.4.21-.21.41-.31.62-.31.1,0,.28.03.54.08.26.05.49.08.7.08h.93c6.73,0,12.58,1.19,17.55,3.57,4.35,1.97,7.46,4.56,9.32,7.77,1.76,2.8,2.64,6.83,2.64,12.11v.93c0,5.59-2.38,11.18-7.15,16.77-1.24,1.45-2.74,2.9-4.5,4.35-1.76,1.45-3.13,2.56-4.12,3.34-.99.78-1.48,1.32-1.48,1.63.62,2.69,1.66,6.06,3.11,10.1,1.45,4.04,3.03,8.34,4.74,12.89,1.71,4.56,2.82,7.66,3.34,9.32,6.73,18.95,10.92,30.39,12.58,34.33,1.34,3,2.02,4.87,2.02,5.59,0,.42-.26.62-.78.62h-.62c-1.45-.21-2.64-.31-3.57-.31-.62,0-1.5.03-2.64.08-1.14.05-1.97.08-2.49.08h-.31c-.62,0-2.33-4.09-5.13-12.27-2.79-8.18-4.56-13.67-5.28-16.46-1.45-5.38-3.63-12.48-6.52-21.28-2.8-8.9-4.3-13.36-4.5-13.36s-.31,1.86-.31,5.59v2.95c0,2.17.02,4.71.08,7.61.05,2.9.1,5.82.16,8.78.05,2.95.1,5.96.16,9.01.05,3.06.1,5.93.16,8.62.05,2.69.1,5.07.16,7.14.05,2.07.08,3.73.08,4.97l.16,1.86v.31c0,.83-.03,1.94-.08,3.34-.05,1.4-.08,2.31-.08,2.72,0,.62-.05.98-.16,1.09-.31.41-.88.62-1.71.62-.21,0-.57-.03-1.09-.08-.52-.05-.93-.08-1.24-.08s-.83.02-1.55.08c-.73.05-1.24.08-1.55.08-1.04,0-1.76-.21-2.17-.62-.1-.72-.18-2.54-.23-5.44-.05-2.9-.1-6.03-.16-9.4-.05-3.36-.08-5.51-.08-6.45.1-2.07.16-4.71.16-7.92,0-.93-.03-3-.08-6.21-.05-3.21-.08-6.26-.08-9.16-.1-.83-.16-2.07-.16-3.73,0-3.11.08-8,.23-14.68s.23-11.57.23-14.68-.05-5.59-.16-7.15c-.1-3.62-.16-8.23-.16-13.82v-9.32c.1-2.49.16-6.63.16-12.43ZM1016.09,345.3c1.14-2.9,1.71-5.54,1.71-7.92,0-3.21-.57-5.72-1.71-7.53-1.14-1.81-3-3.44-5.59-4.89-2.69-1.45-4.81-2.17-6.37-2.17h-.47l-.16.31v.62c0,.52.02,1.55.08,3.11.05,1.55.08,2.69.08,3.42,0,.21-.03.91-.08,2.1-.05,1.19-.08,2.69-.08,4.5v5.36c0,2.28-.05,4.71-.16,7.3-.1,2.59-.16,3.99-.16,4.19l.16,1.09c2.49-.1,5-1.24,7.53-3.42,2.54-2.17,4.27-4.19,5.2-6.06Z"/><path class="cls-1" d="M1047.62,438.8c-1.97,0-3.21-.21-3.73-.62-.52-.42-.78-1.4-.78-2.95,0-2.69.05-6.68.16-11.96.1-5.28.16-9.27.16-11.96,0-3.52-.03-8.75-.08-15.69-.05-6.94-.08-12.27-.08-16,0-1.86.02-4.48.08-7.84.05-3.36.08-6.08.08-8.15,0-3.52-.08-9.45-.23-17.78-.16-8.33-.23-14.42-.23-18.25,0-.21-.03-.78-.08-1.71-.05-.93-.08-1.65-.08-2.17,0-6.83.57-10.25,1.71-10.25,1.03,0,2.23,1.01,3.57,3.03,1.34,2.02,2.17,3.49,2.49,4.43,2.59,5.59,3.98,8.54,4.19,8.85,2.8,5.28,8.44,18.92,16.93,40.93,8.49,22,13.46,34.66,14.91,37.98.1-.83.16-1.86.16-3.11,0-6.83-.05-18.97-.16-36.42-.1-17.45-.16-30.26-.16-38.44v-13.51c0-2.07.16-3.26.47-3.57.41-.31,1.14-.47,2.17-.47.31,0,.88.03,1.71.08.83.05,1.6.08,2.33.08h1.71c1.34,0,2.2.39,2.56,1.16.36.78.54,2.15.54,4.12,0,1.04-.03,2.59-.08,4.66-.05,2.07-.08,3.57-.08,4.5v109.5c0,.52-.67.78-2.02.78l-7.14-1.09c-5.49-10.87-16.1-36.81-31.84-77.82-.1-.1-.44-.83-1.01-2.17-.57-1.34-1.11-2.64-1.63-3.88l-.93-2.02c0,1.04.1,4.79.31,11.26.21,6.47.31,10.12.31,10.95,0,.62-.03,1.55-.08,2.8-.05,1.24-.08,2.17-.08,2.8v16.31c0,1.45.05,2.54.16,3.26.21,7.14.31,18.17.31,33.08,0,.21.02.75.08,1.63.05.88.08,1.58.08,2.1,0,1.35-.16,2.17-.47,2.48-.62.72-2.69,1.09-6.21,1.09Z"/><path class="cls-1" d="M1107.26,341.26v-12.89c0-4.24.16-8.18.47-11.8,0-.72,1.34-1.09,4.04-1.09h2.64c1.55,0,2.38.57,2.49,1.71.1,1.04.16,3.52.16,7.46,0,2.17-.03,5.39-.08,9.63-.05,4.25-.08,7.14-.08,8.7,0,1.66.02,4.64.08,8.93.05,4.3.08,7.74.08,10.33v8.23c0,1.55.02,3.68.08,6.37.05,2.69.08,4.81.08,6.37s-.03,3.83-.08,6.83c-.05,3-.08,5.18-.08,6.52,0,4.14.08,10.2.23,18.17.16,7.97.23,14.03.23,18.17,0,1.55-.05,2.54-.16,2.95,0,1.55-2.49,2.33-7.46,2.33-1.14,0-1.89-.26-2.25-.78-.36-.52-.6-1.45-.7-2.8,0-.31-.03-.83-.08-1.55-.05-.72-.08-1.24-.08-1.55,0-.52.02-1.32.08-2.41.05-1.09.08-1.89.08-2.41,0-3.83.02-10.2.08-19.1.05-8.9.08-15.48.08-19.73,0-1.55-.03-3.65-.08-6.29-.05-2.64-.08-4.68-.08-6.14,0-2.9.05-8.23.16-16,.1-7.77.16-13.82.16-18.17Z"/><path class="cls-1" d="M1146.87,316.41c5.9,0,10.51.05,13.82.16,1.03,0,1.55.83,1.55,2.48v.47c0,.52.02,1.35.08,2.48.05,1.14.08,1.86.08,2.17,0,1.04-.1,1.66-.31,1.86-.52.31-.93.47-1.24.47-.21,0-.6-.02-1.17-.08-.57-.05-1.06-.08-1.48-.08h-2.33c-1.76,0-3.47-.05-5.12-.16h-2.33c-.21,0-3.21.1-9.01.31-1.35.1-2.02.62-2.02,1.55v.78c0,.42.02,1.01.08,1.79.05.78.08,1.37.08,1.79v14.29c0,1.97-.03,4.97-.08,9.01-.05,4.04-.08,7.09-.08,9.16v1.55c0,2.07.16,3.37.47,3.88.21.31.52.47.93.47h1.24c6.83,0,11.8.16,14.91.47.52,0,.78.47.78,1.4v.16c0,.31.08,1.24.23,2.8.16,1.55.23,2.69.23,3.42,0,1.04-.1,1.55-.31,1.55-1.14.31-2.69.47-4.66.47-.83,0-2.49-.05-4.97-.16-2.49-.1-4.19-.16-5.12-.16h-2.95c-.42,0-.62.42-.62,1.24v1.4c-.21,3.42-.31,8.54-.31,15.38,0,5.8.1,14.81.31,27.03.1,1.55.47,2.33,1.09,2.33h19.42c1.24,0,2.02.1,2.33.31.52.52.78,1.55.78,3.11,0,.52-.05,1.3-.16,2.33-.1,1.04-.16,1.71-.16,2.02,0,.73-.13,1.19-.39,1.4-.26.21-.85.31-1.79.31h-26.56c-1.24,0-2.17-.05-2.8-.16-1.04-.21-1.61-.47-1.71-.78v-19.88c0-18.53.05-32.98.16-43.33v-29.51c0-3.21.02-6.94.08-11.18.05-4.24.1-7.53.16-9.86.05-2.33.08-4.06.08-5.2,0-.83.41-1.24,1.24-1.24h.93c1.03.1,2.74.16,5.13.16,1.03,0,2.64-.02,4.81-.08,2.17-.05,3.88-.08,5.13-.08h1.55Z"/><path class="cls-1" d="M1221.11,360.21c0-2.9-.03-7.3-.08-13.2-.05-5.9-.08-10.25-.08-13.05v-12.27c0-1.03-.03-1.97-.08-2.8-.05-.83-.08-1.34-.08-1.55,0-.72.21-1.29.62-1.71.62-.21,2.85-.47,6.68-.78.52,0,.93.16,1.24.47.52,1.04.78,14.19.78,39.45v10.1c.21,0,.91.03,2.1.08,1.19.05,2.15.08,2.87.08,7.56,0,11.86-.36,12.89-1.09v-48.46c.41-1.14,1.6-1.71,3.57-1.71,2.49,0,4.17.39,5.05,1.17.88.78,1.32,2.36,1.32,4.74,0,4.87-.03,12.37-.08,22.52-.05,10.15-.08,17.5-.08,22.06v.31c0,4.45.05,12.04.16,22.75.1,10.72.16,18.87.16,24.46,0,2.49-.03,5.98-.08,10.48-.05,4.5-.08,7.74-.08,9.71v1.09c0,.21.02.6.08,1.17.05.57.08,1.01.08,1.32,0,1.97-.93,2.95-2.8,2.95h-.31c-.42,0-1.14.05-2.17.16-1.04.1-1.71.16-2.02.16-1.86,0-2.8-1.04-2.8-3.11v-61.66c-.21-.1-.73-.16-1.55-.16-1.55,0-4.17.16-7.84.47-3.68.31-5.62.47-5.82.47h-.31c-1.35,0-2.02.21-2.02.62-.21,1.24-.31,4.87-.31,10.87,0,2.8.02,7.04.08,12.74.05,5.7.08,9.58.08,11.65s-.05,5.23-.16,9.47c-.1,4.25-.16,7.4-.16,9.47,0,.83.02,1.86.08,3.11.05,1.24.08,2.02.08,2.33v.16c0,.93-.65,1.66-1.94,2.17-1.3.52-2.62.78-3.96.78-1.86,0-2.85-.57-2.95-1.71-.31-1.45-.47-4.56-.47-9.32v-16.62c0-2.69.08-6.91.23-12.66.16-5.75.23-9.6.23-11.57,0-1.55-.03-3.81-.08-6.76-.05-2.95-.08-5.15-.08-6.6v-12.74Z"/><path class="cls-1" d="M1266,358.97v-.78c0-.83-.05-4.68-.16-11.57-.1-6.88-.16-12.19-.16-15.92,0-8.28.26-13.72.78-16.31.62-.83,1.14-1.24,1.55-1.24h.16c2.28,0,3.67.05,4.19.16.83,0,1.4.05,1.71.16.93.1,1.5.83,1.71,2.17v13.82c0,6.42-.05,15.43-.16,27.03-.1,11.6-.16,20.4-.16,26.4,0,1.86.1,4.25.31,7.15.31,7.14.57,12.06.78,14.76.31,4.04.57,6.91.78,8.62.21,1.71.59,3.94,1.17,6.68.57,2.75,1.32,4.69,2.25,5.82.93,1.14,2.12,1.76,3.57,1.86.1,0,.31.05.62.16h.31c1.03,0,1.92-.16,2.64-.47.72-.31,1.32-.62,1.79-.93.47-.31.88-.83,1.24-1.55.36-.72.59-1.29.7-1.71.1-.41.26-1.06.47-1.94.21-.88.31-1.42.31-1.63.83-4.24,1.24-9.68,1.24-16.31,0-3.52-.1-7.56-.31-12.12-.21-6-.47-15.14-.78-27.41-.31-12.27-.57-21.36-.78-27.26l-.47-6.99c-.31-7.15-.47-11.18-.47-12.12v-1.55c0-.52.1-.83.31-.93.52-.52,1.6-.78,3.26-.78h5.75c.62,0,.93.26.93.78.31,1.35.47,4.35.47,9.01v4.04c.41,9.11.72,24.44.93,45.98.21,8.49.31,15.02.31,19.57,0,12.94-.26,22.52-.78,28.73-.52,4.35-1.61,7.66-3.26,9.94-2.28,3.31-6.42,5.13-12.43,5.44-.31.1-.88.16-1.71.16-4.87,0-8.49-1.71-10.87-5.13-3.11-4.35-5.28-12.89-6.52-25.63l-.16-1.71c-.31-3.11-.54-8.02-.7-14.76-.16-6.73-.29-10.92-.39-12.58,0-.93-.03-2.54-.08-4.81-.05-2.28-.08-4.09-.08-5.44,0-2.8.05-4.87.16-6.21v-2.64Z"/><path class="cls-1" d="M1311.51,436.16c-.21-6-.31-10.25-.31-12.74,0-1.14-.03-2.87-.08-5.2-.05-2.33-.08-4.12-.08-5.36,0-4.45.05-11.49.16-21.12.1-9.63.16-16.67.16-21.12,0-6.73-.05-11.65-.16-14.76,0-.72-.03-2.9-.08-6.52-.05-3.62-.08-6.63-.08-9.01,0-12.84.47-20.92,1.4-24.23.1-1.03.78-1.55,2.02-1.55.1,0,.28.05.54.16.26.1.44.16.54.16,3.11.31,7.2.99,12.27,2.02,3.73.93,8.85,2.8,15.38,5.59,9.11,4.04,15.51,10.2,19.18,18.48,3.67,8.29,5.51,19.21,5.51,32.77,0,14.81-3.11,27.34-9.32,37.59-6.73,11.29-17.45,19.67-32.15,25.16-4.97,1.76-8.7,2.64-11.18,2.64-1.35,0-2.38-.21-3.11-.62-.42-.21-.62-.99-.62-2.33ZM1321.29,327.59v1.09c0,.83-.03,2.1-.08,3.81-.05,1.71-.08,3.03-.08,3.96v.93c.31,25.47.47,39.56.47,42.25v.47c0,25.06.52,39.92,1.55,44.58,14.6-4.14,24.28-12.17,29.04-24.07,3.93-10.35,5.9-19.57,5.9-27.65,0-11.8-1.86-21.02-5.59-27.65-3.73-6.63-9.84-12.01-18.33-16.15-4.87-2.07-8.91-3.11-12.11-3.11h-.47c-.21,0-.31.31-.31.93v.62Z"/><path class="cls-1" d="M1390.1,313.46c5.28,0,9.68,1.86,13.2,5.59,3.52,3.73,5.28,8.23,5.28,13.51v.62c0,1.35-.05,2.02-.16,2.02-.21.1-.83.16-1.86.16-.83,0-2.12-.05-3.88-.16-1.76-.1-2.85-.16-3.26-.16-.1,0-.16-.67-.16-2.02v-.93c0-1.97-.75-3.75-2.25-5.36-1.5-1.6-3.75-2.41-6.76-2.41h-.31c-1.76,0-3.52.98-5.28,2.95-1.04,1.66-1.55,3.42-1.55,5.28,0,3.21,1.19,5.9,3.57,8.08,4.76,4.66,8.64,9.73,11.65,15.22,6.52,12.01,9.79,25.68,9.79,41,0,2.48-.1,5.49-.31,9.01-1.04,10.87-3.11,18.85-6.21,23.92-3.62,6.01-8.8,9.01-15.53,9.01-5.38,0-9.71-2.66-12.97-8-3.26-5.33-5.1-11.62-5.51-18.87v-9.16c0-.52,2.17-.78,6.52-.78,2.59,0,3.88.1,3.88.31v9.79c.31,3.94,1.17,7.28,2.56,10.02,1.4,2.74,3.29,4.12,5.67,4.12,4.24,0,7.3-2.85,9.16-8.54,1.14-3.83,1.97-9.58,2.49-17.24.1-1.14.16-2.38.16-3.73,0-4.66-.52-9.42-1.55-14.29-2.38-11.91-6.11-21.33-11.18-28.27-.73-1.03-2.07-2.74-4.04-5.13-1.97-2.38-3.44-4.24-4.43-5.59-.99-1.34-1.94-3.13-2.87-5.36-.93-2.23-1.4-4.43-1.4-6.6v-1.55c.41-4.56,2.23-8.44,5.44-11.65,3.21-3.21,6.88-4.81,11.03-4.81h1.09Z"/><path class="cls-1" d="M1416.19,387.08c-.42-7.04-.67-12.94-.78-17.71v-2.02c0-20.4,3.47-35.36,10.41-44.89,4.76-6.42,10.87-9.79,18.33-10.1.21,0,.57-.02,1.09-.08.52-.05.88-.08,1.09-.08,10.04,0,17.19,4.09,21.43,12.27,3.31,6.42,5.28,18.43,5.9,36.03.21,6.83.31,12.63.31,17.4,0,13.77-.73,24.33-2.17,31.69-3.21,17.71-10.67,27.96-22.37,30.75-2.07.52-3.83.78-5.28.78-10.98,0-19-9.16-24.07-27.49-1.35-4.97-2.64-13.82-3.88-26.56ZM1446.33,321.69c-5.08.21-9.24,2.38-12.5,6.52-3.26,4.14-5.41,9.01-6.45,14.6-1.66,8.49-2.49,17.14-2.49,25.94v3.11c.62,16.57,2.43,30.03,5.44,40.38,1.34,4.56,3.26,8.6,5.75,12.12,2.48,3.52,4.97,5.28,7.46,5.28h.16c5.07-.1,8.85-1.58,11.34-4.43,2.49-2.85,4.5-6.65,6.06-11.42,2.28-6.73,3.42-17.45,3.42-32.15v-5.9c-.1-.83-.16-2.28-.16-4.35v-5.28c0-3.83-.05-6.42-.16-7.77-.62-11.18-1.76-19.36-3.42-24.54-1.14-3.11-2.95-5.9-5.44-8.39-2.49-2.48-5.39-3.73-8.7-3.73h-.31Z"/><path class="cls-1" d="M1487.33,438.8c-1.97,0-3.21-.21-3.73-.62-.52-.42-.78-1.4-.78-2.95,0-2.69.05-6.68.16-11.96.1-5.28.16-9.27.16-11.96,0-3.52-.03-8.75-.08-15.69-.05-6.94-.08-12.27-.08-16,0-1.86.02-4.48.08-7.84.05-3.36.08-6.08.08-8.15,0-3.52-.08-9.45-.23-17.78-.16-8.33-.23-14.42-.23-18.25,0-.21-.03-.78-.08-1.71-.05-.93-.08-1.65-.08-2.17,0-6.83.57-10.25,1.71-10.25,1.03,0,2.23,1.01,3.57,3.03,1.34,2.02,2.17,3.49,2.49,4.43,2.59,5.59,3.98,8.54,4.19,8.85,2.8,5.28,8.44,18.92,16.93,40.93,8.49,22,13.46,34.66,14.91,37.98.1-.83.16-1.86.16-3.11,0-6.83-.05-18.97-.16-36.42-.1-17.45-.16-30.26-.16-38.44v-13.51c0-2.07.16-3.26.47-3.57.41-.31,1.14-.47,2.17-.47.31,0,.88.03,1.71.08.83.05,1.6.08,2.33.08h1.71c1.34,0,2.2.39,2.56,1.16.36.78.54,2.15.54,4.12,0,1.04-.03,2.59-.08,4.66-.05,2.07-.08,3.57-.08,4.5v109.5c0,.52-.67.78-2.02.78l-7.14-1.09c-5.49-10.87-16.1-36.81-31.84-77.82-.1-.1-.44-.83-1.01-2.17-.57-1.34-1.11-2.64-1.63-3.88l-.93-2.02c0,1.04.1,4.79.31,11.26.21,6.47.31,10.12.31,10.95,0,.62-.03,1.55-.08,2.8-.05,1.24-.08,2.17-.08,2.8v16.31c0,1.45.05,2.54.16,3.26.21,7.14.31,18.17.31,33.08,0,.21.02.75.08,1.63.05.88.08,1.58.08,2.1,0,1.35-.16,2.17-.47,2.48-.62.72-2.69,1.09-6.21,1.09Z"/><path class="cls-1" d="M94.51,542.8v-1.26c0-1.35-.09-7.62-.25-18.83-.17-11.2-.25-19.84-.25-25.91,0-13.48.42-22.32,1.26-26.54,1.01-1.35,1.85-2.02,2.53-2.02h.25c3.7,0,5.98.09,6.82.25,1.35,0,2.27.09,2.78.25,1.52.17,2.44,1.35,2.78,3.54v22.49c0,10.45-.09,25.11-.25,43.98-.17,18.87-.25,33.2-.25,42.97,0,3.03.17,6.91.51,11.63.51,11.63.92,19.63,1.26,24.01.51,6.57.92,11.25,1.26,14.03.34,2.78.97,6.41,1.9,10.87.92,4.47,2.15,7.63,3.67,9.48,1.52,1.86,3.45,2.87,5.81,3.03.17,0,.51.09,1.01.25h.51c1.68,0,3.12-.25,4.3-.76,1.18-.51,2.15-1.01,2.91-1.52.76-.51,1.43-1.35,2.02-2.53.59-1.18.97-2.11,1.14-2.78.17-.67.42-1.73.76-3.16.34-1.43.51-2.31.51-2.65,1.35-6.91,2.02-15.75,2.02-26.54,0-5.73-.17-12.3-.51-19.71-.34-9.77-.76-24.64-1.26-44.61-.51-19.97-.93-34.75-1.26-44.36l-.76-11.37c-.51-11.63-.76-18.2-.76-19.71v-2.53c0-.84.17-1.35.51-1.52.84-.84,2.61-1.26,5.31-1.26h9.35c1.01,0,1.52.42,1.52,1.26.51,2.19.76,7.08.76,14.66v6.57c.67,14.83,1.18,39.77,1.52,74.81.34,13.82.51,24.43.51,31.85,0,21.07-.42,36.65-1.26,46.76-.85,7.08-2.61,12.47-5.31,16.18-3.71,5.39-10.45,8.34-20.22,8.85-.51.17-1.43.25-2.78.25-7.92,0-13.82-2.78-17.69-8.34-5.05-7.08-8.59-20.98-10.62-41.7l-.25-2.78c-.51-5.05-.88-13.06-1.14-24.01-.25-10.95-.47-17.78-.63-20.47,0-1.52-.04-4.13-.13-7.83-.09-3.7-.13-6.65-.13-8.85,0-4.55.08-7.92.25-10.11v-4.3Z"/><path class="cls-1" d="M175.89,672.71c-3.2,0-5.23-.34-6.07-1.01-.84-.68-1.26-2.27-1.26-4.8,0-4.38.08-10.87.25-19.46.17-8.59.25-15.08.25-19.46,0-5.73-.04-14.24-.13-25.53-.09-11.29-.13-19.97-.13-26.03,0-3.03.04-7.29.13-12.76.08-5.47.13-9.9.13-13.27,0-5.73-.13-15.37-.38-28.94-.25-13.56-.38-23.46-.38-29.7,0-.34-.04-1.26-.13-2.78-.09-1.52-.13-2.69-.13-3.54,0-11.12.92-16.68,2.78-16.68,1.68,0,3.62,1.64,5.81,4.93,2.19,3.29,3.54,5.69,4.04,7.2,4.21,9.1,6.48,13.9,6.82,14.41,4.55,8.59,13.73,30.8,27.55,66.6,13.81,35.81,21.9,56.41,24.26,61.8.17-1.35.25-3.03.25-5.05,0-11.12-.09-30.88-.25-59.27-.17-28.39-.25-49.24-.25-62.56v-21.99c0-3.37.25-5.31.76-5.81.67-.51,1.85-.76,3.54-.76.51,0,1.43.04,2.78.13,1.35.09,2.61.13,3.79.13h2.78c2.19,0,3.58.63,4.17,1.9.59,1.26.88,3.5.88,6.7,0,1.69-.04,4.21-.13,7.58-.09,3.37-.13,5.81-.13,7.33v178.19c0,.84-1.1,1.26-3.29,1.26l-11.63-1.77c-8.93-17.69-26.2-59.9-51.81-126.63-.17-.17-.72-1.35-1.64-3.54-.93-2.19-1.81-4.3-2.65-6.32l-1.52-3.29c0,1.69.17,7.8.51,18.32.34,10.53.51,16.47.51,17.82,0,1.01-.04,2.53-.13,4.55-.09,2.02-.13,3.54-.13,4.55v26.54c0,2.36.08,4.13.25,5.31.34,11.63.51,29.57.51,53.84,0,.34.04,1.22.13,2.65.08,1.43.13,2.57.13,3.41,0,2.19-.25,3.54-.76,4.04-1.01,1.18-4.38,1.77-10.11,1.77Z"/><path class="cls-1" d="M272.19,668.41c-.34-9.77-.51-16.68-.51-20.73,0-1.85-.04-4.68-.13-8.47-.09-3.79-.13-6.7-.13-8.72,0-7.24.08-18.7.25-34.37.17-15.67.25-27.13.25-34.37,0-10.95-.09-18.96-.25-24.01,0-1.18-.04-4.72-.13-10.62-.09-5.9-.13-10.78-.13-14.66,0-20.89.76-34.03,2.27-39.43.17-1.68,1.26-2.53,3.29-2.53.17,0,.46.09.88.25.42.17.71.25.88.25,5.05.51,11.71,1.6,19.97,3.29,6.07,1.52,14.41,4.55,25.02,9.1,14.83,6.57,25.23,16.6,31.21,30.08,5.98,13.48,8.97,31.26,8.97,53.33,0,24.1-5.05,44.48-15.17,61.17-10.96,18.37-28.39,32.02-52.32,40.95-8.09,2.86-14.15,4.3-18.2,4.3-2.19,0-3.88-.34-5.05-1.01-.68-.34-1.01-1.6-1.01-3.79ZM288.12,491.74v1.77c0,1.35-.04,3.41-.13,6.19-.09,2.78-.13,4.93-.13,6.45v1.52c.51,41.45.76,64.37.76,68.75v.76c0,40.78.84,64.96,2.53,72.54,23.76-6.74,39.51-19.8,47.26-39.18,6.4-16.85,9.6-31.85,9.6-44.99,0-19.21-3.03-34.2-9.1-44.99-6.07-10.78-16.01-19.54-29.82-26.29-7.92-3.37-14.49-5.05-19.71-5.05h-.76c-.34,0-.51.51-.51,1.52v1.01Z"/><path class="cls-1" d="M459.23,668.41c-.34-9.77-.51-16.68-.51-20.73,0-1.85-.04-4.68-.13-8.47-.09-3.79-.13-6.7-.13-8.72,0-7.24.08-18.7.25-34.37.17-15.67.25-27.13.25-34.37,0-10.95-.09-18.96-.25-24.01,0-1.18-.04-4.72-.13-10.62-.09-5.9-.13-10.78-.13-14.66,0-20.89.76-34.03,2.27-39.43.17-1.68,1.26-2.53,3.29-2.53.17,0,.46.09.88.25.42.17.71.25.88.25,5.05.51,11.71,1.6,19.97,3.29,6.07,1.52,14.41,4.55,25.02,9.1,14.83,6.57,25.23,16.6,31.21,30.08,5.98,13.48,8.97,31.26,8.97,53.33,0,24.1-5.05,44.48-15.17,61.17-10.96,18.37-28.39,32.02-52.32,40.95-8.09,2.86-14.15,4.3-18.2,4.3-2.19,0-3.88-.34-5.05-1.01-.68-.34-1.01-1.6-1.01-3.79ZM475.15,491.74v1.77c0,1.35-.04,3.41-.13,6.19-.09,2.78-.13,4.93-.13,6.45v1.52c.51,41.45.76,64.37.76,68.75v.76c0,40.78.84,64.96,2.53,72.54,23.76-6.74,39.51-19.8,47.26-39.18,6.4-16.85,9.6-31.85,9.6-44.99,0-19.21-3.03-34.2-9.1-44.99-6.07-10.78-16.01-19.54-29.82-26.29-7.92-3.37-14.49-5.05-19.71-5.05h-.76c-.34,0-.51.51-.51,1.52v1.01Z"/><path class="cls-1" d="M564.62,513.98v-20.98c0-6.91.25-13.31.76-19.21,0-1.18,2.19-1.77,6.57-1.77h4.3c2.53,0,3.87.93,4.04,2.78.17,1.69.25,5.73.25,12.13,0,3.54-.04,8.76-.13,15.67-.09,6.91-.13,11.63-.13,14.15,0,2.7.04,7.54.13,14.53.08,6.99.13,12.6.13,16.81v13.4c0,2.53.04,5.98.13,10.36.08,4.38.13,7.83.13,10.36s-.04,6.24-.13,11.12c-.09,4.89-.13,8.43-.13,10.62,0,6.74.13,16.6.38,29.57.25,12.98.38,22.83.38,29.57,0,2.53-.09,4.13-.25,4.8,0,2.53-4.04,3.79-12.13,3.79-1.86,0-3.08-.42-3.67-1.26-.59-.84-.97-2.36-1.14-4.55,0-.5-.04-1.35-.13-2.53-.09-1.18-.13-2.02-.13-2.53,0-.84.04-2.15.13-3.92.08-1.77.13-3.07.13-3.92,0-6.23.04-16.59.13-31.09.08-14.49.13-25.19.13-32.1,0-2.53-.04-5.94-.13-10.24-.09-4.3-.13-7.62-.13-9.98,0-4.72.08-13.4.25-26.03.17-12.64.25-22.5.25-29.57Z"/><path class="cls-1" d="M629.07,473.54c9.6,0,17.1.09,22.5.25,1.68,0,2.53,1.35,2.53,4.04v.76c0,.85.04,2.19.13,4.04.08,1.86.13,3.03.13,3.54,0,1.69-.17,2.7-.51,3.03-.85.51-1.52.76-2.02.76-.34,0-.97-.04-1.9-.13-.93-.08-1.73-.13-2.4-.13h-3.79c-2.87,0-5.65-.08-8.34-.25h-3.79c-.34,0-5.23.17-14.66.51-2.19.17-3.29,1.01-3.29,2.53v1.26c0,.68.04,1.64.13,2.91.08,1.26.13,2.23.13,2.91v23.25c0,3.2-.04,8.09-.13,14.66-.09,6.57-.13,11.54-.13,14.91v2.53c0,3.37.25,5.48.76,6.32.34.5.84.76,1.52.76h2.02c11.12,0,19.21.25,24.26.76.84,0,1.26.76,1.26,2.27v.25c0,.5.13,2.02.38,4.55.25,2.53.38,4.38.38,5.56,0,1.69-.17,2.53-.51,2.53-1.86.51-4.38.76-7.58.76-1.35,0-4.04-.08-8.09-.25-4.04-.17-6.82-.25-8.34-.25h-4.8c-.68,0-1.01.68-1.01,2.02v2.27c-.34,5.56-.51,13.9-.51,25.02,0,9.44.17,24.1.51,43.98.17,2.53.76,3.79,1.77,3.79h31.59c2.02,0,3.29.17,3.79.51.84.84,1.26,2.53,1.26,5.05,0,.84-.09,2.11-.25,3.79-.17,1.69-.25,2.78-.25,3.29,0,1.18-.21,1.94-.63,2.27-.42.34-1.39.51-2.91.51h-43.22c-2.02,0-3.54-.09-4.55-.25-1.69-.34-2.61-.76-2.78-1.26v-32.35c0-30.16.08-53.67.25-70.52v-48.02c0-5.22.04-11.29.13-18.2.08-6.91.17-12.26.25-16.05.08-3.79.13-6.61.13-8.47,0-1.35.67-2.02,2.02-2.02h1.52c1.68.17,4.46.25,8.34.25,1.68,0,4.3-.04,7.83-.13,3.54-.08,6.32-.13,8.34-.13h2.53Z"/><path class="cls-1" d="M762.53,559.73l-12.38-59.9-3.03-14.66c0-.17-.38-1.77-1.14-4.8-.76-3.03-1.14-5.22-1.14-6.57,0-.67.08-1.09.25-1.26.51-.51,1.94-.76,4.3-.76h8.34c.34,0,.84.04,1.52.13.67.09,1.05.17,1.14.25.08.09.29.21.63.38.34.17.54.42.63.76.08.34.21.93.38,1.77.51,1.86,1.3,5.27,2.4,10.24,1.09,4.97,1.73,7.8,1.9,8.47,1.35,4.38,3.24,12.98,5.69,25.78,2.44,12.81,3.92,20.22,4.42,22.24.51,2.02,1.26,5.98,2.27,11.88,4.04,20.73,7.5,36.9,10.36,48.53l3.29,11.63,1.26,4.3c.51-.17,1.43-2.36,2.78-6.57.67-1.85,2.23-5.77,4.68-11.75,2.44-5.98,3.92-9.64,4.42-11,1.35-3.7,2.61-7.83,3.79-12.38.34-.51.59-.76.76-.76,1.01,0,3.2,3.54,6.57,10.62,1.01,2.19,2.44,5.81,4.3,10.87,1.85,5.06,3.5,9.48,4.93,13.27,1.43,3.79,2.23,5.69,2.4,5.69.51-1.01.97-3.67,1.39-7.96.42-4.3.92-9.9,1.52-16.81.59-6.91,1.14-12.47,1.64-16.68,4.89-36.06,9.52-68.5,13.9-97.31.84-3.54,1.52-5.47,2.02-5.81.84-.67,1.6-1.01,2.27-1.01h9.1c2.69,0,4.04.93,4.04,2.78,0,.17-.04.51-.13,1.01-.09.51-.13.93-.13,1.26-.17,2.19-1.77,12.47-4.8,30.83l-5.81,36.9-4.04,27.8c-.51,3.37-1.14,8.21-1.9,14.53-.76,6.32-1.39,11.33-1.9,15.04-1.69,10.96-3.29,22.58-4.8,34.88-.34,2.87-1.01,7.54-2.02,14.03-1.01,6.49-1.69,11.33-2.02,14.53-.34,4.72-1.6,7.08-3.79,7.08-1.35,0-2.53-1.77-3.54-5.31-1.52-6.4-3.03-11.54-4.55-15.42-.17-.33-3.96-11.46-11.37-33.36-.68-2.69-1.26-4.04-1.77-4.04-.17,0-.59.84-1.26,2.53l-3.29,9.86-12.38,39.93-2.02,5.05c0,1.18-.85,1.77-2.53,1.77-1.52,0-2.44-.42-2.78-1.26l-15.67-68.75c-1.52-6.74-4.55-20.89-9.1-42.46Z"/><path class="cls-1" d="M905.58,473.54c9.6,0,17.1.09,22.5.25,1.68,0,2.53,1.35,2.53,4.04v.76c0,.85.04,2.19.13,4.04.08,1.86.12,3.03.12,3.54,0,1.69-.17,2.7-.5,3.03-.85.51-1.52.76-2.02.76-.34,0-.97-.04-1.9-.13-.93-.08-1.73-.13-2.4-.13h-3.79c-2.87,0-5.65-.08-8.34-.25h-3.79c-.34,0-5.23.17-14.66.51-2.19.17-3.29,1.01-3.29,2.53v1.26c0,.68.04,1.64.13,2.91.08,1.26.13,2.23.13,2.91v23.25c0,3.2-.04,8.09-.13,14.66-.09,6.57-.13,11.54-.13,14.91v2.53c0,3.37.25,5.48.76,6.32.34.5.84.76,1.52.76h2.02c11.12,0,19.21.25,24.26.76.84,0,1.26.76,1.26,2.27v.25c0,.5.13,2.02.38,4.55.25,2.53.38,4.38.38,5.56,0,1.69-.17,2.53-.51,2.53-1.86.51-4.38.76-7.58.76-1.35,0-4.04-.08-8.09-.25-4.04-.17-6.82-.25-8.34-.25h-4.8c-.68,0-1.01.68-1.01,2.02v2.27c-.34,5.56-.51,13.9-.51,25.02,0,9.44.17,24.1.51,43.98.17,2.53.76,3.79,1.77,3.79h31.59c2.02,0,3.29.17,3.79.51.84.84,1.26,2.53,1.26,5.05,0,.84-.09,2.11-.25,3.79-.17,1.69-.25,2.78-.25,3.29,0,1.18-.21,1.94-.63,2.27-.42.34-1.39.51-2.91.51h-43.22c-2.02,0-3.54-.09-4.55-.25-1.69-.34-2.61-.76-2.78-1.26v-32.35c0-30.16.08-53.67.25-70.52v-48.02c0-5.22.04-11.29.13-18.2.08-6.91.17-12.26.25-16.05.08-3.79.13-6.61.13-8.47,0-1.35.67-2.02,2.02-2.02h1.52c1.68.17,4.46.25,8.34.25,1.68,0,4.3-.04,7.83-.13,3.54-.08,6.32-.13,8.34-.13h2.53Z"/><path class="cls-1" d="M944.25,513.98v-20.98c0-6.91.25-13.31.76-19.21,0-1.18,2.19-1.77,6.57-1.77h4.3c2.53,0,3.87.93,4.04,2.78.17,1.69.25,5.73.25,12.13,0,3.54-.04,8.76-.13,15.67-.09,6.91-.13,11.63-.13,14.15,0,2.7.04,7.54.13,14.53.08,6.99.13,12.6.13,16.81v13.4c0,2.53.04,5.98.13,10.36.08,4.38.13,7.83.13,10.36s-.04,6.24-.13,11.12c-.09,4.89-.13,8.43-.13,10.62,0,6.74.13,16.6.38,29.57.25,12.98.38,22.83.38,29.57,0,2.53-.09,4.13-.25,4.8,0,2.53-4.04,3.79-12.13,3.79-1.86,0-3.08-.42-3.67-1.26-.59-.84-.97-2.36-1.14-4.55,0-.5-.04-1.35-.13-2.53-.09-1.18-.13-2.02-.13-2.53,0-.84.04-2.15.13-3.92.08-1.77.13-3.07.13-3.92,0-6.23.04-16.59.13-31.09.08-14.49.13-25.19.13-32.1,0-2.53-.04-5.94-.13-10.24-.09-4.3-.13-7.62-.13-9.98,0-4.72.08-13.4.25-26.03.17-12.64.25-22.5.25-29.57Z"/><path class="cls-1" d="M984.69,672.71c-3.2,0-5.22-.34-6.07-1.01-.85-.68-1.26-2.27-1.26-4.8,0-4.38.08-10.87.25-19.46.17-8.59.25-15.08.25-19.46,0-5.73-.04-14.24-.13-25.53-.09-11.29-.13-19.97-.13-26.03,0-3.03.04-7.29.13-12.76.08-5.47.13-9.9.13-13.27,0-5.73-.13-15.37-.38-28.94-.25-13.56-.38-23.46-.38-29.7,0-.34-.04-1.26-.13-2.78-.09-1.52-.13-2.69-.13-3.54,0-11.12.92-16.68,2.78-16.68,1.68,0,3.62,1.64,5.81,4.93,2.19,3.29,3.54,5.69,4.04,7.2,4.21,9.1,6.48,13.9,6.82,14.41,4.55,8.59,13.73,30.8,27.55,66.6,13.81,35.81,21.9,56.41,24.26,61.8.17-1.35.25-3.03.25-5.05,0-11.12-.09-30.88-.25-59.27-.17-28.39-.25-49.24-.25-62.56v-21.99c0-3.37.25-5.31.76-5.81.67-.51,1.85-.76,3.54-.76.51,0,1.43.04,2.78.13,1.35.09,2.61.13,3.79.13h2.78c2.19,0,3.58.63,4.17,1.9.59,1.26.88,3.5.88,6.7,0,1.69-.04,4.21-.13,7.58-.09,3.37-.13,5.81-.13,7.33v178.19c0,.84-1.1,1.26-3.29,1.26l-11.63-1.77c-8.93-17.69-26.2-59.9-51.81-126.63-.17-.17-.72-1.35-1.64-3.54-.93-2.19-1.81-4.3-2.65-6.32l-1.52-3.29c0,1.69.17,7.8.5,18.32.34,10.53.51,16.47.51,17.82,0,1.01-.04,2.53-.13,4.55-.09,2.02-.13,3.54-.13,4.55v26.54c0,2.36.08,4.13.25,5.31.34,11.63.51,29.57.51,53.84,0,.34.04,1.22.13,2.65.08,1.43.13,2.57.13,3.41,0,2.19-.25,3.54-.76,4.04-1.01,1.18-4.38,1.77-10.11,1.77Z"/><path class="cls-1" d="M1112.33,473.54c9.6,0,17.1.09,22.49.25,1.68,0,2.53,1.35,2.53,4.04v.76c0,.85.04,2.19.13,4.04.08,1.86.13,3.03.13,3.54,0,1.69-.17,2.7-.5,3.03-.85.51-1.52.76-2.02.76-.34,0-.97-.04-1.9-.13-.93-.08-1.73-.13-2.4-.13h-3.79c-2.87,0-5.65-.08-8.34-.25h-3.79c-.34,0-5.22.17-14.66.51-2.19.17-3.29,1.01-3.29,2.53v1.26c0,.68.04,1.64.13,2.91.08,1.26.13,2.23.13,2.91v23.25c0,3.2-.04,8.09-.13,14.66-.09,6.57-.13,11.54-.13,14.91v2.53c0,3.37.25,5.48.76,6.32.34.5.84.76,1.52.76h2.02c11.12,0,19.21.25,24.26.76.84,0,1.26.76,1.26,2.27v.25c0,.5.13,2.02.38,4.55.25,2.53.38,4.38.38,5.56,0,1.69-.17,2.53-.51,2.53-1.86.51-4.38.76-7.58.76-1.35,0-4.04-.08-8.09-.25-4.04-.17-6.82-.25-8.34-.25h-4.8c-.67,0-1.01.68-1.01,2.02v2.27c-.34,5.56-.51,13.9-.51,25.02,0,9.44.17,24.1.51,43.98.17,2.53.76,3.79,1.77,3.79h31.59c2.02,0,3.29.17,3.79.51.84.84,1.26,2.53,1.26,5.05,0,.84-.09,2.11-.25,3.79-.17,1.69-.25,2.78-.25,3.29,0,1.18-.21,1.94-.63,2.27-.42.34-1.39.51-2.91.51h-43.22c-2.02,0-3.54-.09-4.55-.25-1.69-.34-2.62-.76-2.78-1.26v-32.35c0-30.16.08-53.67.25-70.52v-48.02c0-5.22.04-11.29.13-18.2.08-6.91.17-12.26.25-16.05.08-3.79.13-6.61.13-8.47,0-1.35.67-2.02,2.02-2.02h1.52c1.68.17,4.46.25,8.34.25,1.68,0,4.3-.04,7.84-.13,3.54-.08,6.32-.13,8.34-.13h2.53Z"/><path class="cls-1" d="M1157.57,672.71c-3.2,0-5.22-.34-6.07-1.01-.85-.68-1.26-2.27-1.26-4.8,0-4.38.08-10.87.25-19.46.17-8.59.25-15.08.25-19.46,0-5.73-.04-14.24-.13-25.53-.09-11.29-.13-19.97-.13-26.03,0-3.03.04-7.29.13-12.76.08-5.47.13-9.9.13-13.27,0-5.73-.13-15.37-.38-28.94-.25-13.56-.38-23.46-.38-29.7,0-.34-.04-1.26-.13-2.78-.09-1.52-.13-2.69-.13-3.54,0-11.12.92-16.68,2.78-16.68,1.68,0,3.62,1.64,5.81,4.93,2.19,3.29,3.54,5.69,4.04,7.2,4.21,9.1,6.48,13.9,6.82,14.41,4.55,8.59,13.73,30.8,27.55,66.6,13.81,35.81,21.9,56.41,24.26,61.8.17-1.35.25-3.03.25-5.05,0-11.12-.09-30.88-.25-59.27-.17-28.39-.25-49.24-.25-62.56v-21.99c0-3.37.25-5.31.76-5.81.67-.51,1.85-.76,3.54-.76.51,0,1.43.04,2.78.13,1.35.09,2.61.13,3.79.13h2.78c2.19,0,3.58.63,4.17,1.9.59,1.26.88,3.5.88,6.7,0,1.69-.04,4.21-.13,7.58-.09,3.37-.13,5.81-.13,7.33v178.19c0,.84-1.1,1.26-3.29,1.26l-11.63-1.77c-8.93-17.69-26.2-59.9-51.81-126.63-.17-.17-.72-1.35-1.64-3.54-.93-2.19-1.81-4.3-2.65-6.32l-1.52-3.29c0,1.69.17,7.8.5,18.32.34,10.53.51,16.47.51,17.82,0,1.01-.04,2.53-.13,4.55-.09,2.02-.13,3.54-.13,4.55v26.54c0,2.36.08,4.13.25,5.31.34,11.63.51,29.57.51,53.84,0,.34.04,1.22.13,2.65.08,1.43.13,2.57.13,3.41,0,2.19-.25,3.54-.76,4.04-1.01,1.18-4.38,1.77-10.11,1.77Z"/><path class="cls-1" d="M1253.87,668.41c-.34-9.77-.51-16.68-.51-20.73,0-1.85-.04-4.68-.13-8.47-.09-3.79-.13-6.7-.13-8.72,0-7.24.08-18.7.25-34.37.17-15.67.25-27.13.25-34.37,0-10.95-.09-18.96-.25-24.01,0-1.18-.04-4.72-.13-10.62-.09-5.9-.13-10.78-.13-14.66,0-20.89.76-34.03,2.28-39.43.17-1.68,1.26-2.53,3.29-2.53.17,0,.46.09.88.25.42.17.71.25.88.25,5.05.51,11.71,1.6,19.97,3.29,6.07,1.52,14.41,4.55,25.02,9.1,14.83,6.57,25.23,16.6,31.21,30.08,5.98,13.48,8.97,31.26,8.97,53.33,0,24.1-5.06,44.48-15.17,61.17-10.96,18.37-28.4,32.02-52.32,40.95-8.09,2.86-14.15,4.3-18.2,4.3-2.19,0-3.88-.34-5.05-1.01-.68-.34-1.01-1.6-1.01-3.79ZM1269.79,491.74v1.77c0,1.35-.04,3.41-.13,6.19-.09,2.78-.13,4.93-.13,6.45v1.52c.51,41.45.76,64.37.76,68.75v.76c0,40.78.84,64.96,2.53,72.54,23.76-6.74,39.51-19.8,47.26-39.18,6.4-16.85,9.6-31.85,9.6-44.99,0-19.21-3.03-34.2-9.1-44.99-6.07-10.78-16.01-19.54-29.82-26.29-7.92-3.37-14.49-5.05-19.71-5.05h-.76c-.34,0-.51.51-.51,1.52v1.01Z"/><path class="cls-1" d="M1389.85,473.54c9.6,0,17.1.09,22.49.25,1.68,0,2.53,1.35,2.53,4.04v.76c0,.85.04,2.19.13,4.04.08,1.86.13,3.03.13,3.54,0,1.69-.17,2.7-.5,3.03-.85.51-1.52.76-2.02.76-.34,0-.97-.04-1.9-.13-.93-.08-1.73-.13-2.4-.13h-3.79c-2.87,0-5.65-.08-8.34-.25h-3.79c-.34,0-5.22.17-14.66.51-2.19.17-3.29,1.01-3.29,2.53v1.26c0,.68.04,1.64.13,2.91.08,1.26.13,2.23.13,2.91v23.25c0,3.2-.04,8.09-.13,14.66-.09,6.57-.13,11.54-.13,14.91v2.53c0,3.37.25,5.48.76,6.32.34.5.84.76,1.52.76h2.02c11.12,0,19.21.25,24.26.76.84,0,1.26.76,1.26,2.27v.25c0,.5.13,2.02.38,4.55.25,2.53.38,4.38.38,5.56,0,1.69-.17,2.53-.51,2.53-1.86.51-4.38.76-7.58.76-1.35,0-4.04-.08-8.09-.25-4.04-.17-6.82-.25-8.34-.25h-4.8c-.67,0-1.01.68-1.01,2.02v2.27c-.34,5.56-.51,13.9-.51,25.02,0,9.44.17,24.1.51,43.98.17,2.53.76,3.79,1.77,3.79h31.59c2.02,0,3.29.17,3.79.51.84.84,1.26,2.53,1.26,5.05,0,.84-.09,2.11-.25,3.79-.17,1.69-.25,2.78-.25,3.29,0,1.18-.21,1.94-.63,2.27-.42.34-1.39.51-2.91.51h-43.22c-2.02,0-3.54-.09-4.55-.25-1.69-.34-2.62-.76-2.78-1.26v-32.35c0-30.16.08-53.67.25-70.52v-48.02c0-5.22.04-11.29.13-18.2.08-6.91.17-12.26.25-16.05.08-3.79.13-6.61.13-8.47,0-1.35.67-2.02,2.02-2.02h1.52c1.68.17,4.46.25,8.34.25,1.68,0,4.3-.04,7.84-.13,3.54-.08,6.32-.13,8.34-.13h2.53Z"/><path class="cls-1" d="M1526.33,551.14h11.12c3.37-.34,6.32-.51,8.85-.51l.76.25c1.85,0,2.95.09,3.29.25.34.34.59.88.76,1.64.17.76.25,1.77.25,3.03s.08,2.32.25,3.16c0,.51.04,1.43.13,2.78.08,1.35.13,2.36.13,3.03,0,1.52-.25,2.27-.76,2.27-11.8,0-19.55.34-23.25,1.01-.51,0-.76.76-.76,2.27v3.54c.51,13.65.76,33.28.76,58.89v5.56l.25,5.56v6.07c.17,1.18.25,6.07.25,14.66v1.26c0,2.87-.76,4.3-2.27,4.3h-6.57c-1.35,0-2.61.08-3.79.25h-2.28c-.5,0-.93-.04-1.26-.13-.34-.09-.59-.17-.76-.25-.17-.08-.3-.34-.38-.76-.09-.42-.17-.71-.25-.88-.09-.17-.13-.63-.13-1.39v-1.64c0-5.06-.09-11.75-.25-20.09-.17-8.34-.34-15.63-.5-21.86v-59.9c.17-20.22.25-49.29.25-87.2,0-2.69.84-4.04,2.53-4.04,2.69,0,7.12.09,13.27.25,6.15.17,10.74.25,13.77.25,4.21,0,7.16-.08,8.85-.25.84,0,1.98-.04,3.41-.13,1.43-.08,2.48-.13,3.16-.13,1.68,0,2.86.34,3.54,1.01.51.51.76,1.26.76,2.27v2.78c0,.51.04,1.52.13,3.03.08,1.52.13,2.53.13,3.03,0,1.86-.34,3.12-1.01,3.79-.5.68-1.26,1.01-2.27,1.01-.17,0-.59-.04-1.26-.13-.68-.08-1.26-.13-1.77-.13h-2.78c-2.19,0-5.18.09-8.97.25-3.79.17-6.45.25-7.96.25-.5,0-1.35-.04-2.53-.13-1.18-.08-2.02-.13-2.53-.13l-2.02-.25v47.77l-.25,14.41Z"/><path class="cls-1" d="M1572.08,474.55c.17-.17.25-.51.25-1.01,0-.34-.04-.67-.13-1.01-.09-.34-.13-.67-.13-1.01,0-1.18.17-1.94.5-2.27.34-.34.67-.51,1.01-.51.17,0,.46.04.88.13.42.09.8.13,1.14.13h1.52c10.95,0,20.47,1.94,28.56,5.81,7.08,3.2,12.13,7.42,15.17,12.64,2.86,4.55,4.3,11.12,4.3,19.71v1.52c0,9.1-3.88,18.2-11.63,27.3-2.02,2.36-4.47,4.72-7.33,7.08-2.87,2.36-5.1,4.17-6.7,5.43-1.6,1.26-2.4,2.15-2.4,2.65,1.01,4.38,2.69,9.86,5.06,16.43,2.36,6.57,4.93,13.57,7.71,20.98,2.78,7.42,4.59,12.47,5.43,15.17,10.95,30.83,17.78,49.46,20.47,55.86,2.19,4.89,3.29,7.92,3.29,9.1,0,.68-.42,1.01-1.26,1.01h-1.01c-2.36-.33-4.3-.5-5.81-.5-1.01,0-2.45.04-4.3.13-1.86.09-3.2.13-4.04.13h-.51c-1.01,0-3.79-6.66-8.34-19.97-4.55-13.31-7.42-22.24-8.59-26.79-2.36-8.76-5.9-20.3-10.62-34.63-4.55-14.49-6.99-21.74-7.33-21.74s-.51,3.03-.51,9.1v4.8c0,3.54.04,7.67.13,12.38.08,4.72.17,9.48.25,14.28.08,4.8.17,9.69.25,14.66.08,4.97.17,9.65.25,14.03.08,4.38.17,8.26.25,11.63.08,3.37.13,6.07.13,8.09l.25,3.03v.5c0,1.35-.04,3.16-.13,5.43-.09,2.27-.13,3.75-.13,4.42,0,1.01-.09,1.6-.25,1.77-.5.67-1.43,1.01-2.78,1.01-.34,0-.93-.04-1.77-.13-.85-.09-1.52-.13-2.02-.13s-1.35.04-2.53.13c-1.18.08-2.02.13-2.53.13-1.69,0-2.87-.34-3.54-1.01-.17-1.18-.3-4.13-.38-8.85-.09-4.71-.17-9.81-.25-15.29-.09-5.47-.13-8.97-.13-10.49.17-3.37.25-7.67.25-12.89,0-1.52-.04-4.89-.13-10.11-.09-5.22-.13-10.19-.13-14.91-.17-1.35-.25-3.37-.25-6.07,0-5.05.13-13.02.38-23.88s.38-18.83.38-23.88-.09-9.1-.25-11.63c-.17-5.9-.25-13.4-.25-22.49v-15.17c.17-4.04.25-10.78.25-20.22ZM1606.96,520.55c1.85-4.72,2.78-9.01,2.78-12.89,0-5.22-.93-9.31-2.78-12.26-1.86-2.95-4.89-5.6-9.1-7.96-4.38-2.36-7.83-3.54-10.36-3.54h-.76l-.25.51v1.01c0,.85.04,2.53.13,5.06.08,2.53.13,4.38.13,5.56,0,.34-.04,1.48-.13,3.41-.09,1.94-.13,4.38-.13,7.33v8.72c0,3.71-.09,7.67-.25,11.88-.17,4.21-.25,6.49-.25,6.82l.25,1.77c4.04-.17,8.13-2.02,12.26-5.56,4.13-3.54,6.95-6.82,8.47-9.86Z"/><path class="cls-1" d="M1698.71,517.02c3.2,12.3,6.23,24.73,9.1,37.28,2.86,12.55,6.28,27.89,10.24,46,3.96,18.11,6.7,30.54,8.21,37.28.84,3.88,2.06,8.97,3.66,15.29,1.6,6.32,2.57,10.41,2.91,12.26.17.84.25,1.52.25,2.02,0,1.01-.68,1.69-2.02,2.02-2.02.67-4.89,1.01-8.59,1.01-2.19,0-3.62-.08-4.3-.25-.67-.17-1.22-.46-1.64-.88-.42-.42-.72-.76-.88-1.01-.17-.25-.34-.84-.5-1.77-.17-.92-.25-1.47-.25-1.64-1.86-6.57-3.2-12.64-4.04-18.2l-.51-3.03-6.07-30.33c-.85-4.89-1.6-7.5-2.28-7.84-.34-.33-1.18-.5-2.53-.5-2.02,0-3.46.09-4.3.25l-4.04.25c-9.1.51-14.41.76-15.92.76-.68,0-1.43-.04-2.27-.13-.85-.08-1.43-.13-1.77-.13-.51.51-.76,1.01-.76,1.52l-.76,5.56-2.53,16.18c-.17,1.52-.8,6.19-1.9,14.03-1.1,7.84-1.81,13.52-2.15,17.06-.34,3.2-.76,5.48-1.26,6.82-.51,1.18-1.77,1.94-3.79,2.28h-4.8c-3.03,0-4.89-.17-5.56-.51-.67-.34-1.01-.92-1.01-1.77v-1.52c.34-4.21,1.39-11.37,3.16-21.48,1.77-10.11,2.74-15.92,2.91-17.44,6.74-47.68,12.97-85.68,18.7-113.99l.76-4.04c.67-3.54,1.85-9.26,3.54-17.19,1.68-7.92,2.78-13.48,3.29-16.68.34-3.03,1.77-4.89,4.3-5.56h.25c1.35,0,2.36,1.6,3.03,4.8,1.01,4.72,3.03,12.09,6.07,22.12,3.03,10.03,5.05,17.06,6.07,21.1ZM1696.18,572.87c-3.37-19.54-7.42-36.4-12.13-50.55-1.35,5.23-4.21,22.08-8.59,50.55,0,.17-.3,2.19-.88,6.07-.59,3.88-.88,6.57-.88,8.09v1.01c0,1.01.34,1.52,1.01,1.52h19.46c2.69-.17,4.38-.59,5.05-1.26v-.25c0-.51-.17-1.56-.5-3.16-.34-1.6-.72-3.37-1.14-5.31-.42-1.94-.72-3.24-.88-3.92l-.5-2.78Z"/><path class="cls-1" d="M1734.35,542.8v-1.26c0-1.35-.09-7.62-.25-18.83-.17-11.2-.25-19.84-.25-25.91,0-13.48.42-22.32,1.26-26.54,1.01-1.35,1.85-2.02,2.53-2.02h.25c3.71,0,5.98.09,6.82.25,1.35,0,2.28.09,2.78.25,1.52.17,2.44,1.35,2.78,3.54v22.49c0,10.45-.09,25.11-.25,43.98-.17,18.87-.25,33.2-.25,42.97,0,3.03.17,6.91.5,11.63.51,11.63.92,19.63,1.26,24.01.51,6.57.92,11.25,1.26,14.03.34,2.78.97,6.41,1.9,10.87.92,4.47,2.15,7.63,3.67,9.48,1.52,1.86,3.45,2.87,5.81,3.03.17,0,.51.09,1.01.25h.51c1.68,0,3.12-.25,4.3-.76,1.18-.51,2.15-1.01,2.91-1.52.76-.51,1.43-1.35,2.02-2.53.59-1.18.97-2.11,1.14-2.78.17-.67.42-1.73.76-3.16.34-1.43.5-2.31.5-2.65,1.35-6.91,2.02-15.75,2.02-26.54,0-5.73-.17-12.3-.51-19.71-.34-9.77-.76-24.64-1.26-44.61-.5-19.97-.93-34.75-1.26-44.36l-.76-11.37c-.51-11.63-.76-18.2-.76-19.71v-2.53c0-.84.17-1.35.51-1.52.84-.84,2.61-1.26,5.31-1.26h9.35c1.01,0,1.52.42,1.52,1.26.51,2.19.76,7.08.76,14.66v6.57c.67,14.83,1.18,39.77,1.52,74.81.34,13.82.51,24.43.51,31.85,0,21.07-.42,36.65-1.26,46.76-.84,7.08-2.61,12.47-5.31,16.18-3.71,5.39-10.45,8.34-20.22,8.85-.51.17-1.43.25-2.78.25-7.92,0-13.82-2.78-17.69-8.34-5.06-7.08-8.59-20.98-10.62-41.7l-.25-2.78c-.51-5.05-.88-13.06-1.14-24.01-.25-10.95-.47-17.78-.63-20.47,0-1.52-.04-4.13-.13-7.83-.09-3.7-.13-6.65-.13-8.85,0-4.55.08-7.92.25-10.11v-4.3Z"/></svg>