<?xml version="1.0" encoding="UTF-8"?><svg id="Ebene_1" xmlns="http://www.w3.org/2000/svg" width="1920" height="1080" viewBox="0 0 1920 1080"><defs><style>.cls-1{fill:#fcfcfc;}</style></defs><path class="cls-1" d="M341.18,614.94c-.34-9.65-.5-16.47-.5-20.46,0-1.83-.04-4.62-.12-8.36-.09-3.74-.12-6.61-.12-8.61,0-7.15.08-18.47.25-33.94.16-15.47.25-26.78.25-33.94,0-10.81-.09-18.72-.25-23.71,0-1.16-.04-4.66-.12-10.48-.09-5.82-.12-10.65-.12-14.47,0-20.63.75-33.6,2.25-38.93.16-1.66,1.25-2.5,3.24-2.5.16,0,.46.09.87.25.41.17.71.25.87.25,4.99.5,11.56,1.58,19.71,3.24,5.99,1.5,14.22,4.49,24.71,8.98,14.64,6.49,24.91,16.39,30.82,29.7,5.9,13.31,8.86,30.86,8.86,52.66,0,23.79-4.99,43.92-14.97,60.39-10.82,18.13-28.04,31.61-51.66,40.43-7.99,2.83-13.98,4.24-17.97,4.24-2.16,0-3.83-.34-4.99-1-.67-.34-1-1.58-1-3.74ZM356.9,440.5v1.75c0,1.33-.04,3.37-.12,6.11-.09,2.75-.12,4.87-.12,6.36v1.5c.5,40.93.75,63.55.75,67.88v.75c0,40.26.83,64.14,2.5,71.62,23.46-6.65,39.01-19.55,46.67-38.68,6.32-16.63,9.48-31.44,9.48-44.42,0-18.97-2.99-33.77-8.98-44.42-5.99-10.65-15.81-19.3-29.45-25.95-7.82-3.33-14.31-4.99-19.47-4.99h-.75c-.34,0-.5.5-.5,1.5v1Z"/><path class="cls-1" d="M445.25,462.46v-20.71c0-6.82.25-13.14.75-18.97,0-1.16,2.16-1.75,6.49-1.75h4.24c2.5,0,3.83.92,3.99,2.75.16,1.67.25,5.66.25,11.98,0,3.49-.04,8.65-.12,15.47-.09,6.82-.12,11.48-.12,13.98,0,2.66.04,7.45.12,14.35.08,6.91.12,12.44.12,16.6v13.23c0,2.5.04,5.91.12,10.23.08,4.33.12,7.74.12,10.23s-.04,6.16-.12,10.98c-.09,4.83-.12,8.32-.12,10.48,0,6.66.12,16.39.37,29.2.25,12.81.37,22.54.37,29.2,0,2.5-.09,4.08-.25,4.74,0,2.5-3.99,3.74-11.98,3.74-1.83,0-3.04-.42-3.62-1.25-.58-.83-.96-2.33-1.12-4.49,0-.5-.04-1.33-.12-2.5-.09-1.16-.12-2-.12-2.5,0-.83.04-2.12.12-3.87.08-1.75.12-3.03.12-3.87,0-6.15.04-16.38.12-30.7.08-14.31.12-24.87.12-31.69,0-2.5-.04-5.86-.12-10.11-.09-4.24-.12-7.53-.12-9.86,0-4.66.08-13.23.25-25.7.16-12.48.25-22.21.25-29.2Z"/><path class="cls-1" d="M508.88,422.53c9.48,0,16.88.09,22.21.25,1.66,0,2.5,1.33,2.5,3.99v.75c0,.83.04,2.16.12,3.99.08,1.83.12,2.99.12,3.49,0,1.67-.17,2.66-.5,2.99-.83.5-1.5.75-2,.75-.34,0-.96-.04-1.87-.12-.92-.08-1.71-.12-2.37-.12h-3.74c-2.83,0-5.58-.08-8.24-.25h-3.74c-.34,0-5.16.17-14.47.5-2.16.17-3.24,1-3.24,2.5v1.25c0,.67.04,1.62.12,2.87.08,1.25.12,2.21.12,2.87v22.96c0,3.16-.04,7.99-.12,14.47-.09,6.49-.12,11.4-.12,14.72v2.5c0,3.33.25,5.41.75,6.24.33.5.83.75,1.5.75h2c10.98,0,18.97.25,23.96.75.83,0,1.25.75,1.25,2.25v.25c0,.5.12,2,.37,4.49s.37,4.33.37,5.49c0,1.67-.17,2.5-.5,2.5-1.83.5-4.33.75-7.49.75-1.33,0-3.99-.08-7.99-.25-3.99-.16-6.74-.25-8.24-.25h-4.74c-.67,0-1,.67-1,2v2.25c-.33,5.49-.5,13.73-.5,24.71,0,9.32.16,23.79.5,43.42.16,2.5.75,3.74,1.75,3.74h31.19c2,0,3.24.17,3.74.5.83.83,1.25,2.5,1.25,4.99,0,.83-.09,2.08-.25,3.74-.17,1.66-.25,2.74-.25,3.24,0,1.17-.21,1.91-.62,2.25-.42.33-1.37.5-2.87.5h-42.67c-2,0-3.49-.09-4.49-.25-1.67-.33-2.58-.75-2.75-1.25v-31.94c0-29.78.08-52.99.25-69.63v-47.42c0-5.15.04-11.14.12-17.97.08-6.82.16-12.1.25-15.85.08-3.74.12-6.53.12-8.36,0-1.33.66-2,2-2h1.5c1.66.17,4.41.25,8.24.25,1.66,0,4.24-.04,7.74-.12,3.49-.08,6.24-.12,8.24-.12h2.5Z"/><path class="cls-1" d="M628.17,464.46c0-19.13-.17-33.27-.5-42.42,0-1,2.08-1.5,6.24-1.5,12.64,0,22.96,4.24,30.94,12.73,6.32,6.66,9.48,14.39,9.48,23.21,0,11.15-2.75,21.01-8.24,29.57-5.49,8.57-12.48,15.02-20.96,19.34-.67.34-1,1.42-1,3.24v32.44c0,32.78.16,57.23.5,73.37,0,1.83-1.42,2.74-4.24,2.74-.67,0-1.83-.09-3.49-.25-1.67-.17-2.75-.25-3.24-.25-3.83,0-5.74-.75-5.74-2.25-.17-9.65-.25-24.12-.25-43.42,0-11.81.08-29.65.25-53.53.16-23.87.25-41.55.25-53.03ZM658.37,447.49c-.83-2.16-2.62-4.32-5.37-6.49-2.75-2.16-5.28-3.24-7.61-3.24-.17,0-.42.04-.75.12-.34.09-.58.12-.75.12-.67.17-1,6.49-1,18.97v.75c0,19.13.33,28.7,1,28.7h.5c1.83,0,3.91-1.12,6.24-3.37,2.33-2.25,4.24-4.78,5.74-7.61,2.66-4.99,3.99-10.65,3.99-16.97,0-3.66-.67-7.32-2-10.98Z"/><path class="cls-1" d="M688.06,492.91c0-4.66-.04-11.73-.12-21.21-.09-9.48-.12-16.47-.12-20.96v-19.72c0-1.66-.04-3.16-.12-4.49-.09-1.33-.12-2.16-.12-2.5,0-1.16.33-2.08,1-2.75,1-.33,4.57-.75,10.73-1.25.83,0,1.5.25,2,.75.83,1.67,1.25,22.8,1.25,63.39v16.22c.33,0,1.45.04,3.37.12,1.91.09,3.45.12,4.62.12,12.14,0,19.05-.58,20.71-1.75v-77.86c.66-1.83,2.58-2.75,5.74-2.75,3.99,0,6.7.62,8.11,1.87,1.41,1.25,2.12,3.79,2.12,7.61,0,7.82-.04,19.88-.12,36.19-.08,16.31-.12,28.12-.12,35.44v.5c0,7.16.08,19.34.25,36.56.16,17.22.25,30.32.25,39.31,0,3.99-.04,9.61-.12,16.85-.09,7.24-.12,12.44-.12,15.6v1.75c0,.33.04.96.12,1.87.08.92.12,1.62.12,2.12,0,3.16-1.5,4.74-4.49,4.74h-.5c-.67,0-1.83.08-3.49.25-1.67.16-2.75.25-3.24.25-2.99,0-4.49-1.67-4.49-4.99v-99.07c-.33-.16-1.17-.25-2.5-.25-2.5,0-6.7.25-12.6.75-5.91.5-9.03.75-9.36.75h-.5c-2.16,0-3.24.34-3.24,1-.34,2-.5,7.82-.5,17.47,0,4.49.04,11.32.12,20.46.08,9.15.12,15.39.12,18.72s-.09,8.4-.25,15.22c-.17,6.82-.25,11.9-.25,15.22,0,1.33.04,2.99.12,4.99.08,2,.12,3.25.12,3.74v.25c0,1.5-1.04,2.66-3.12,3.49-2.08.83-4.2,1.25-6.36,1.25-2.99,0-4.58-.92-4.74-2.75-.5-2.33-.75-7.32-.75-14.97v-26.7c0-4.32.12-11.11.37-20.34.25-9.23.37-15.43.37-18.59,0-2.5-.04-6.11-.12-10.86-.09-4.74-.12-8.27-.12-10.61v-20.46Z"/><path class="cls-1" d="M807.6,465.45c3.16,12.15,6.15,24.42,8.98,36.81,2.83,12.4,6.2,27.54,10.11,45.42,3.91,17.89,6.61,30.16,8.11,36.81.83,3.83,2.04,8.86,3.62,15.1,1.58,6.24,2.53,10.28,2.87,12.1.16.83.25,1.5.25,2,0,1-.67,1.67-2,2-2,.67-4.83,1-8.49,1-2.16,0-3.58-.08-4.24-.25-.67-.16-1.21-.46-1.62-.87-.42-.41-.71-.75-.87-1-.17-.25-.33-.83-.5-1.75-.17-.91-.25-1.45-.25-1.62-1.83-6.49-3.16-12.48-3.99-17.97l-.5-2.99-5.99-29.95c-.83-4.82-1.58-7.4-2.25-7.74-.33-.33-1.17-.5-2.5-.5-2,0-3.41.09-4.24.25l-3.99.25c-8.98.5-14.23.75-15.72.75-.67,0-1.42-.04-2.25-.12-.83-.08-1.42-.12-1.75-.12-.5.5-.75,1-.75,1.5l-.75,5.49-2.5,15.97c-.17,1.5-.79,6.11-1.87,13.85-1.08,7.74-1.79,13.35-2.12,16.85-.33,3.16-.75,5.41-1.25,6.74-.5,1.17-1.75,1.91-3.74,2.25h-4.74c-3,0-4.83-.16-5.49-.5-.67-.33-1-.91-1-1.75v-1.5c.33-4.16,1.37-11.23,3.12-21.21,1.75-9.98,2.7-15.72,2.87-17.22,6.65-47.08,12.81-84.6,18.47-112.55l.75-3.99c.66-3.49,1.83-9.15,3.49-16.97,1.66-7.82,2.75-13.31,3.24-16.47.33-2.99,1.75-4.82,4.24-5.49h.25c1.33,0,2.33,1.58,3,4.74,1,4.66,2.99,11.94,5.99,21.84,2.99,9.9,4.99,16.85,5.99,20.84ZM805.11,520.61c-3.33-19.3-7.32-35.94-11.98-49.91-1.33,5.16-4.16,21.8-8.48,49.91,0,.17-.29,2.16-.87,5.99-.58,3.83-.87,6.49-.87,7.99v1c0,1,.33,1.5,1,1.5h19.22c2.66-.16,4.32-.58,4.99-1.25v-.25c0-.5-.17-1.54-.5-3.12-.33-1.58-.71-3.33-1.12-5.24-.42-1.91-.71-3.2-.87-3.87l-.5-2.75Z"/><path class="cls-1" d="M858.76,619.18c-3.16,0-5.16-.33-5.99-1-.83-.67-1.25-2.25-1.25-4.74,0-4.32.08-10.73.25-19.22.16-8.48.25-14.89.25-19.21,0-5.65-.04-14.06-.12-25.21-.09-11.15-.12-19.72-.12-25.71,0-2.99.04-7.19.12-12.6.08-5.4.12-9.77.12-13.1,0-5.65-.12-15.18-.37-28.57-.25-13.39-.38-23.17-.38-29.32,0-.33-.04-1.25-.12-2.75-.08-1.5-.12-2.66-.12-3.49,0-10.98.91-16.47,2.75-16.47,1.66,0,3.58,1.62,5.74,4.87,2.16,3.24,3.49,5.61,3.99,7.11,4.16,8.98,6.4,13.73,6.74,14.22,4.49,8.48,13.56,30.41,27.2,65.76,13.64,35.35,21.63,55.69,23.96,61.02.16-1.33.25-3,.25-4.99,0-10.98-.09-30.48-.25-58.52-.17-28.03-.25-48.62-.25-61.77v-21.71c0-3.33.25-5.24.75-5.74.66-.5,1.83-.75,3.49-.75.5,0,1.41.04,2.75.12,1.33.09,2.58.12,3.74.12h2.75c2.16,0,3.53.62,4.12,1.87.58,1.25.87,3.45.87,6.61,0,1.67-.04,4.16-.12,7.49-.09,3.33-.12,5.74-.12,7.24v175.94c0,.83-1.08,1.25-3.24,1.25l-11.48-1.75c-8.82-17.47-25.87-59.14-51.16-125.03-.17-.16-.71-1.33-1.62-3.49-.92-2.16-1.79-4.24-2.62-6.24l-1.5-3.24c0,1.66.16,7.7.5,18.09.33,10.4.5,16.26.5,17.59,0,1-.04,2.5-.12,4.49-.09,2-.12,3.49-.12,4.49v26.2c0,2.33.08,4.08.25,5.24.33,11.48.5,29.2.5,53.16,0,.34.04,1.21.12,2.62.08,1.42.12,2.54.12,3.37,0,2.16-.25,3.49-.75,3.99-1,1.16-4.33,1.75-9.98,1.75Z"/><path class="cls-1" d="M993.27,419.29h.25c4.82,0,7.32.5,7.49,1.5.16,1.17.33,2.99.5,5.49v4.49c0,2-.25,3.24-.75,3.74-.5,1.17-4.24,1.75-11.23,1.75-1.33,0-2.83-.04-4.49-.12-1.67-.08-2.66-.12-3-.12-.67,0-1,9.9-1,29.7v10.48c.16,12.15.38,25.29.62,39.43.25,14.14.41,25.5.5,34.06.08,8.57.21,16.76.38,24.58,0,2.33.04,6.08.12,11.23.08,5.16.12,9.23.12,12.23l.25,12.73v.25c0,2.16-.34,3.66-1,4.49-1.17,1-3.74,1.5-7.74,1.5h-1.25c-.83,0-1.67.04-2.5.12-.83.08-1.33.12-1.5.12-.5,0-.92-.17-1.25-.5-.83-.5-1.25-2.33-1.25-5.49v-10.73c-.34-19.3-.5-32.11-.5-38.43v-31.69c-.17-7.82-.25-21.96-.25-42.42,0-13.81.08-22.96.25-27.45v-23.46c-.34-.16-1-.25-2-.25-.5,0-1.54.04-3.12.12-1.58.09-2.79.12-3.62.12-3.83,0-6.16-.5-6.99-1.5-.5-.5-.75-1.16-.75-2v-9.23c0-2.33.58-3.58,1.75-3.74.16,0,.71-.12,1.62-.37.91-.25,1.7-.37,2.37-.37h2c3.33.34,6.07.5,8.23.5,3.16,0,7.82-.12,13.98-.37,6.15-.25,10.73-.37,13.73-.37Z"/><path class="cls-1" d="M999.51,536.08c-.67-11.31-1.08-20.8-1.25-28.45v-3.24c0-32.77,5.57-56.81,16.72-72.12,7.65-10.31,17.47-15.72,29.45-16.22.33,0,.91-.04,1.75-.12.83-.08,1.41-.12,1.75-.12,16.14,0,27.62,6.57,34.44,19.71,5.32,10.32,8.49,29.62,9.48,57.9.33,10.98.5,20.3.5,27.95,0,22.13-1.17,39.1-3.49,50.91-5.16,28.45-17.14,44.92-35.94,49.41-3.33.83-6.16,1.25-8.49,1.25-17.64,0-30.53-14.72-38.68-44.17-2.16-7.99-4.24-22.21-6.24-42.67ZM1047.92,431.02c-8.15.34-14.85,3.83-20.09,10.48-5.24,6.66-8.7,14.47-10.36,23.46-2.66,13.64-3.99,27.54-3.99,41.68v4.99c1,26.62,3.91,48.25,8.73,64.88,2.16,7.32,5.24,13.81,9.23,19.47,3.99,5.66,7.99,8.49,11.98,8.49h.25c8.15-.16,14.22-2.54,18.22-7.11,3.99-4.57,7.24-10.69,9.73-18.34,3.66-10.81,5.49-28.03,5.49-51.66v-9.48c-.17-1.33-.25-3.66-.25-6.99v-8.48c0-6.15-.08-10.31-.25-12.48-1-17.97-2.83-31.11-5.49-39.43-1.83-4.99-4.74-9.48-8.73-13.48-3.99-3.99-8.65-5.99-13.98-5.99h-.5Z"/><path class="cls-1" d="M1189.42,418.79c1,0,1.5,1.17,1.5,3.49v93.83c0,30.94.16,54.65.5,71.12.33,4.99.5,13.81.5,26.45v.5c0,2-.33,2.99-1,2.99-1,0-2.99-.12-5.99-.37-2.99-.25-4.83-.38-5.49-.38h-1.25c-1.17,0-1.75-1.08-1.75-3.24-.83-17.97-1.25-42.59-1.25-73.87v-64.39c0-.16.04-1.66.12-4.49.08-2.83.12-5.15.12-6.99,0-7.65-.42-11.48-1.25-11.48s-2.83,1.33-5.99,3.99l-9.73,9.98c-2,2-3.74,3.49-5.24,4.49-1.67,1.33-2.83,2-3.49,2-.5,0-1.12-.21-1.87-.62-.75-.41-1.58-.96-2.5-1.62-.92-.66-1.46-1.08-1.62-1.25-5.33-3.16-11.65-7.82-18.97-13.98-.5-.5-.92-.75-1.25-.75-.67,0-1,1.17-1,3.49v.75c0,5.16.04,13.89.12,26.2.08,12.31.12,21.71.12,28.2,0,12.15-.09,20.96-.25,26.45-.5,14.31-.75,35.6-.75,63.89,0,1.17.04,2.99.12,5.49.08,2.5.12,4.24.12,5.24,0,2.16-1.17,3.24-3.49,3.24h-1.5c-.67,0-1.96.04-3.87.12-1.92.08-3.12.12-3.62.12-1.5,0-2.41-.29-2.75-.87-.33-.58-.58-2.04-.75-4.37v-7.24c0-3.16.08-7.86.25-14.1.16-6.24.25-10.94.25-14.1,0-7.65.16-24.25.5-49.79.33-25.54.5-45.21.5-59.02v-42.67c0-3.49.5-5.4,1.5-5.74.66,0,2.29,1.04,4.87,3.12,2.58,2.08,5.24,4.37,7.99,6.86s4.28,3.91,4.62,4.24c.16.17,2.62,2.5,7.36,6.99s8.19,7.49,10.36,8.98c3,2,4.57,2.99,4.74,2.99.83,0,2.33-1.33,4.49-3.99.83-.83,2.41-2.25,4.74-4.24,2.33-2,3.99-3.49,4.99-4.49,1.83-1.83,6.32-5.82,13.48-11.98,7.15-6.15,11.39-9.23,12.73-9.23Z"/><path class="cls-1" d="M1207.14,462.46v-20.71c0-6.82.25-13.14.75-18.97,0-1.16,2.16-1.75,6.49-1.75h4.24c2.5,0,3.83.92,3.99,2.75.16,1.67.25,5.66.25,11.98,0,3.49-.04,8.65-.12,15.47-.09,6.82-.12,11.48-.12,13.98,0,2.66.04,7.45.12,14.35.08,6.91.12,12.44.12,16.6v13.23c0,2.5.04,5.91.12,10.23.08,4.33.12,7.74.12,10.23s-.04,6.16-.12,10.98c-.09,4.83-.12,8.32-.12,10.48,0,6.66.12,16.39.37,29.2.25,12.81.37,22.54.37,29.2,0,2.5-.08,4.08-.25,4.74,0,2.5-3.99,3.74-11.98,3.74-1.83,0-3.04-.42-3.62-1.25-.58-.83-.96-2.33-1.12-4.49,0-.5-.04-1.33-.12-2.5-.09-1.16-.12-2-.12-2.5,0-.83.04-2.12.12-3.87.08-1.75.12-3.03.12-3.87,0-6.15.04-16.38.12-30.7.08-14.31.12-24.87.12-31.69,0-2.5-.04-5.86-.12-10.11-.09-4.24-.12-7.53-.12-9.86,0-4.66.08-13.23.25-25.7.16-12.48.25-22.21.25-29.2Z"/><path class="cls-1" d="M1247.07,619.18c-3.16,0-5.16-.33-5.99-1-.83-.67-1.25-2.25-1.25-4.74,0-4.32.08-10.73.25-19.22.16-8.48.25-14.89.25-19.21,0-5.65-.04-14.06-.12-25.21-.09-11.15-.12-19.72-.12-25.71,0-2.99.04-7.19.12-12.6.08-5.4.12-9.77.12-13.1,0-5.65-.12-15.18-.37-28.57-.25-13.39-.38-23.17-.38-29.32,0-.33-.04-1.25-.12-2.75-.08-1.5-.12-2.66-.12-3.49,0-10.98.91-16.47,2.75-16.47,1.66,0,3.58,1.62,5.74,4.87,2.16,3.24,3.49,5.61,3.99,7.11,4.16,8.98,6.4,13.73,6.74,14.22,4.49,8.48,13.56,30.41,27.2,65.76,13.64,35.35,21.63,55.69,23.96,61.02.16-1.33.25-3,.25-4.99,0-10.98-.09-30.48-.25-58.52-.17-28.03-.25-48.62-.25-61.77v-21.71c0-3.33.25-5.24.75-5.74.66-.5,1.83-.75,3.49-.75.5,0,1.41.04,2.75.12,1.33.09,2.58.12,3.74.12h2.75c2.16,0,3.53.62,4.12,1.87.58,1.25.87,3.45.87,6.61,0,1.67-.04,4.16-.12,7.49-.09,3.33-.12,5.74-.12,7.24v175.94c0,.83-1.08,1.25-3.24,1.25l-11.48-1.75c-8.82-17.47-25.87-59.14-51.16-125.03-.17-.16-.71-1.33-1.62-3.49-.92-2.16-1.79-4.24-2.62-6.24l-1.5-3.24c0,1.66.16,7.7.5,18.09.33,10.4.5,16.26.5,17.59,0,1-.04,2.5-.12,4.49-.09,2-.12,3.49-.12,4.49v26.2c0,2.33.08,4.08.25,5.24.33,11.48.5,29.2.5,53.16,0,.34.04,1.21.12,2.62.08,1.42.12,2.54.12,3.37,0,2.16-.25,3.49-.75,3.99-1,1.16-4.33,1.75-9.98,1.75Z"/><path class="cls-1" d="M1374.84,417.79c8.49,0,15.55,2.99,21.21,8.98,5.65,5.99,8.48,13.23,8.48,21.71v1c0,2.16-.09,3.24-.25,3.24-.34.17-1.33.25-3,.25-1.33,0-3.41-.08-6.24-.25-2.83-.16-4.58-.25-5.24-.25-.17,0-.25-1.08-.25-3.24v-1.5c0-3.16-1.21-6.03-3.62-8.61-2.41-2.58-6.03-3.87-10.86-3.87h-.5c-2.83,0-5.66,1.58-8.49,4.74-1.67,2.66-2.5,5.49-2.5,8.48,0,5.16,1.91,9.48,5.74,12.98,7.65,7.49,13.89,15.64,18.72,24.46,10.48,19.3,15.72,41.26,15.72,65.88,0,3.99-.17,8.82-.5,14.47-1.67,17.47-4.99,30.28-9.98,38.43-5.83,9.65-14.14,14.47-24.96,14.47-8.65,0-15.6-4.28-20.84-12.85-5.24-8.57-8.2-18.67-8.86-30.32v-14.72c0-.83,3.49-1.25,10.48-1.25,4.16,0,6.24.17,6.24.5v15.72c.5,6.33,1.87,11.69,4.12,16.1,2.25,4.41,5.28,6.61,9.11,6.61,6.82,0,11.73-4.57,14.72-13.73,1.83-6.15,3.16-15.39,3.99-27.7.16-1.83.25-3.83.25-5.99,0-7.49-.83-15.14-2.5-22.96-3.83-19.13-9.82-34.27-17.97-45.42-1.17-1.66-3.33-4.41-6.49-8.24-3.16-3.83-5.53-6.82-7.11-8.98-1.58-2.16-3.12-5.03-4.62-8.61-1.5-3.58-2.25-7.11-2.25-10.61v-2.5c.66-7.32,3.58-13.56,8.73-18.72,5.15-5.15,11.06-7.74,17.72-7.74h1.75Z"/><path class="cls-1" d="M1447.96,422.53c9.48,0,16.88.09,22.21.25,1.66,0,2.5,1.33,2.5,3.99v.75c0,.83.04,2.16.12,3.99.08,1.83.12,2.99.12,3.49,0,1.67-.17,2.66-.5,2.99-.83.5-1.5.75-2,.75-.34,0-.96-.04-1.87-.12-.92-.08-1.71-.12-2.37-.12h-3.74c-2.83,0-5.58-.08-8.24-.25h-3.74c-.33,0-5.16.17-14.47.5-2.16.17-3.24,1-3.24,2.5v1.25c0,.67.04,1.62.12,2.87.08,1.25.12,2.21.12,2.87v22.96c0,3.16-.04,7.99-.12,14.47-.09,6.49-.12,11.4-.12,14.72v2.5c0,3.33.25,5.41.75,6.24.33.5.83.75,1.5.75h2c10.98,0,18.97.25,23.96.75.83,0,1.25.75,1.25,2.25v.25c0,.5.12,2,.37,4.49.25,2.5.37,4.33.37,5.49,0,1.67-.17,2.5-.5,2.5-1.83.5-4.33.75-7.49.75-1.33,0-3.99-.08-7.99-.25-3.99-.16-6.74-.25-8.24-.25h-4.74c-.67,0-1,.67-1,2v2.25c-.34,5.49-.5,13.73-.5,24.71,0,9.32.16,23.79.5,43.42.16,2.5.75,3.74,1.75,3.74h31.19c2,0,3.24.17,3.74.5.83.83,1.25,2.5,1.25,4.99,0,.83-.09,2.08-.25,3.74-.17,1.66-.25,2.74-.25,3.24,0,1.17-.21,1.91-.62,2.25-.42.33-1.37.5-2.87.5h-42.67c-2,0-3.49-.09-4.49-.25-1.67-.33-2.58-.75-2.75-1.25v-31.94c0-29.78.08-52.99.25-69.63v-47.42c0-5.15.04-11.14.12-17.97.08-6.82.16-12.1.25-15.85.08-3.74.12-6.53.12-8.36,0-1.33.66-2,2-2h1.5c1.66.17,4.41.25,8.24.25,1.66,0,4.24-.04,7.74-.12,3.49-.08,6.24-.12,8.24-.12h2.5Z"/><path class="cls-1" d="M1493.63,616.44c-4.83,0-7.24-.91-7.24-2.75,0-.5-.04-1-.12-1.5-.09-.5-.12-1.91-.12-4.24-.17-2.83-.25-7.32-.25-13.48,0-2.83.04-7.24.12-13.23.08-5.99.12-10.56.12-13.73,0-6.49-.08-11.31-.25-14.47,0-5.32-.12-20.84-.37-46.54-.25-25.7-.54-45.21-.87-58.52v-.75c0-.66.04-3.28.12-7.86.08-4.57.12-8.11.12-10.61v-4.99l-.25-.25c0-1.83,1.25-2.75,3.74-2.75h1c.83,0,2.41.04,4.74.12,2.33.09,3.91.12,4.74.12h1c.66,0,1.04.09,1.12.25.08.17.21.83.38,2,.33,2,.5,5.74.5,11.23s.04,12.65.12,21.46c.08,8.82.21,16.64.37,23.46,0,3.33.04,8.4.12,15.22.08,6.82.12,11.9.12,15.22,0,8.15-.04,16.68-.12,25.58-.09,8.9-.17,16.26-.25,22.09-.09,5.83-.12,9.23-.12,10.23v.5c0,1.83.04,5.12.12,9.86.08,4.74.12,8.28.12,10.61,0,4.33-.09,7.32-.25,8.98l3.49.25c3,.17,6.99.42,11.98.75h2c1.5,0,2.25.92,2.25,2.75,0,3.16.08,5.41.25,6.74,0,.5.04,1.42.12,2.75.08,1.33.12,2.33.12,2.99v1.25c0,1-.34,1.5-1,1.5h-1.5c-2.33,0-6.91-.04-13.73-.12-6.82-.08-10.98-.12-12.48-.12Z"/></svg>