<?xml version="1.0" encoding="UTF-8"?><svg id="Ebene_1" xmlns="http://www.w3.org/2000/svg" width="1920" height="1080" viewBox="0 0 1920 1080"><defs><style>.cls-1{fill:#fcfcfc;}</style></defs><path class="cls-1" d="M326.81,536.08c-.5,0-1.33.09-2.5.25-1.17.17-1.91.25-2.25.25-.5,0-.75-1.41-.75-4.24v-2.25c0-4.66.16-7.74.5-9.23.16-1.16,2.16-1.75,5.99-1.75,1,0,2.58.04,4.74.12,2.16.09,3.66.12,4.49.12h2.25c3.83,0,6.24.5,7.24,1.5.16.17.5,4.66,1,13.48.33,6.16.5,15.64.5,28.45v26.7c0,8.82.16,16.14.5,21.96,0,.5.04,1.5.12,3,.08,1.5.12,2.5.12,3,0,2.83-.92,4.24-2.75,4.24h-9.48c-2.5,0-3.74-1.67-3.74-4.99v-2.5c0-2.5-.17-3.74-.5-3.74h-.25c-.17,0-.62.34-1.37,1-.75.67-1.71,1.46-2.87,2.37-1.17.92-2.16,1.62-2.99,2.12-4.66,2.33-10.15,3.49-16.47,3.49-23.63,0-39.52-16.8-47.67-50.41-3.16-14.64-4.74-28.53-4.74-41.68,0-6.99.41-13.14,1.25-18.47,2.16-17.8,6.45-32.36,12.85-43.67,6.4-11.31,15.76-21.21,28.08-29.7,2.66-2,8.4-4.87,17.22-8.61,8.82-3.74,15.47-5.61,19.96-5.61,2.99,0,4.49,1.08,4.49,3.24,0,.67.08,1.75.25,3.24.16,1.5.25,2.66.25,3.49,0,2.16-.34,3.83-1,4.99-.17.5-.46.83-.87,1-.42.17-1,.25-1.75.25s-1.37.09-1.87.25c-5.66,1.67-11.73,4.16-18.22,7.49-6.49,3.33-11.48,6.57-14.97,9.73-19.63,17.47-29.45,42.51-29.45,75.12,0,7.65.58,15.43,1.75,23.33,1.16,7.9,3.03,15.68,5.61,23.33,2.58,7.65,6.28,13.89,11.11,18.72,4.82,4.83,10.4,7.24,16.72,7.24,6.99,0,13.1-1.95,18.34-5.86,5.24-3.91,7.86-9.44,7.86-16.59,0-13.48-.42-28.12-1.25-43.92,0-.5-.34-.75-1-.75-.17,0-.75.09-1.75.25-1,.17-1.91.25-2.75.25Z"/><path class="cls-1" d="M362.25,493.4v-1.25c0-1.33-.09-7.53-.25-18.59-.17-11.06-.25-19.59-.25-25.58,0-13.31.41-22.04,1.25-26.2,1-1.33,1.83-2,2.5-2h.25c3.66,0,5.9.09,6.74.25,1.33,0,2.25.09,2.75.25,1.5.17,2.41,1.33,2.75,3.49v22.21c0,10.32-.09,24.79-.25,43.42-.17,18.63-.25,32.78-.25,42.42,0,2.99.16,6.82.5,11.48.5,11.48.91,19.38,1.25,23.71.5,6.49.91,11.11,1.25,13.85.33,2.75.96,6.33,1.87,10.73.91,4.41,2.12,7.53,3.62,9.36,1.5,1.83,3.41,2.83,5.74,2.99.16,0,.5.09,1,.25h.5c1.66,0,3.08-.25,4.24-.75,1.16-.5,2.12-1,2.87-1.5s1.41-1.33,2-2.5c.58-1.16.96-2.08,1.12-2.74.16-.66.41-1.71.75-3.12.33-1.41.5-2.28.5-2.62,1.33-6.82,2-15.55,2-26.2,0-5.65-.17-12.14-.5-19.47-.34-9.65-.75-24.33-1.25-44.05-.5-19.72-.92-34.31-1.25-43.8l-.75-11.23c-.5-11.48-.75-17.97-.75-19.47v-2.5c0-.83.16-1.33.5-1.5.83-.83,2.58-1.25,5.24-1.25h9.23c1,0,1.5.42,1.5,1.25.5,2.16.75,6.99.75,14.47v6.49c.66,14.64,1.16,39.27,1.5,73.87.33,13.64.5,24.13.5,31.44,0,20.8-.42,36.19-1.25,46.17-.83,6.99-2.58,12.31-5.24,15.97-3.66,5.33-10.32,8.24-19.96,8.73-.5.16-1.42.25-2.75.25-7.82,0-13.64-2.74-17.47-8.23-4.99-6.99-8.48-20.71-10.48-41.18l-.25-2.74c-.5-4.99-.87-12.89-1.12-23.71-.25-10.81-.46-17.55-.62-20.21,0-1.5-.04-4.07-.12-7.74-.09-3.66-.12-6.57-.12-8.73,0-4.49.08-7.82.25-9.98v-4.24Z"/><path class="cls-1" d="M468.06,420.28c8.48,0,15.55,2.99,21.21,8.98,5.65,5.99,8.48,13.23,8.48,21.71v1c0,2.16-.09,3.24-.25,3.24-.34.17-1.33.25-2.99.25-1.33,0-3.41-.08-6.24-.25-2.83-.16-4.58-.25-5.24-.25-.17,0-.25-1.08-.25-3.24v-1.5c0-3.16-1.21-6.03-3.62-8.61-2.41-2.58-6.03-3.87-10.86-3.87h-.5c-2.83,0-5.66,1.58-8.48,4.74-1.67,2.66-2.5,5.49-2.5,8.48,0,5.16,1.91,9.48,5.74,12.98,7.65,7.49,13.89,15.64,18.72,24.46,10.48,19.3,15.72,41.26,15.72,65.88,0,3.99-.17,8.82-.5,14.47-1.67,17.47-4.99,30.28-9.98,38.43-5.83,9.65-14.14,14.47-24.96,14.47-8.65,0-15.6-4.28-20.84-12.85-5.24-8.57-8.2-18.67-8.86-30.32v-14.72c0-.83,3.49-1.25,10.48-1.25,4.16,0,6.24.17,6.24.5v15.72c.5,6.32,1.87,11.69,4.12,16.1,2.25,4.41,5.28,6.61,9.11,6.61,6.82,0,11.73-4.57,14.72-13.73,1.83-6.15,3.16-15.39,3.99-27.7.16-1.83.25-3.83.25-5.99,0-7.49-.83-15.14-2.5-22.96-3.83-19.13-9.82-34.27-17.97-45.42-1.17-1.66-3.33-4.41-6.49-8.24-3.16-3.83-5.53-6.82-7.11-8.98-1.58-2.16-3.12-5.03-4.62-8.61-1.5-3.58-2.25-7.11-2.25-10.61v-2.5c.66-7.32,3.58-13.56,8.73-18.72,5.16-5.15,11.06-7.74,17.72-7.74h1.75Z"/><path class="cls-1" d="M576.37,426.02c0,.33.04,1.08.12,2.25.08,1.17.12,2.08.12,2.75,0,2.33-.25,4.33-.75,5.99-.17,1-.92,1.83-2.25,2.5-7.82,3.33-15.31,8.82-22.46,16.47-9.65,10.15-16.72,21.96-21.21,35.44-3.16,9.48-4.74,18.8-4.74,27.95v1c.33,20.8,3.99,37.43,10.98,49.91,3.83,6.82,8.82,13.31,14.97,19.46,6.15,6.16,12.39,9.98,18.72,11.48,2.16.5,3.66,1.75,4.49,3.74.83,1.67,1.25,5.08,1.25,10.23v.5c0,2.5-1.25,3.74-3.74,3.74-8.82-.17-17.55-3.33-26.2-9.48-9.98-6.82-18.22-16.88-24.71-30.2-4.66-10.15-7.99-20.46-9.98-30.95-1.33-8.32-2-17.63-2-27.95,0-4.16.08-7.07.25-8.73,1-14.81,4.74-28.45,11.23-40.93,7.15-13.64,16.55-25.04,28.2-34.19.16-.16,1.5-1.21,3.99-3.12,2.5-1.91,4.74-3.53,6.74-4.87,2-1.33,4.32-2.66,6.99-3.99,2.66-1.33,4.82-2,6.49-2,2,0,3.08.09,3.24.25.16.33.25,1.25.25,2.75Z"/><path class="cls-1" d="M589.34,495.4c0-4.66-.04-11.73-.12-21.21-.09-9.48-.12-16.47-.12-20.96v-19.72c0-1.66-.04-3.16-.12-4.49-.09-1.33-.12-2.16-.12-2.5,0-1.16.33-2.08,1-2.75,1-.33,4.57-.75,10.73-1.25.83,0,1.5.25,2,.75.83,1.67,1.25,22.8,1.25,63.39v16.22c.33,0,1.45.04,3.37.12,1.91.09,3.45.12,4.62.12,12.14,0,19.05-.58,20.71-1.75v-77.86c.66-1.83,2.58-2.75,5.74-2.75,3.99,0,6.69.62,8.11,1.87,1.41,1.25,2.12,3.79,2.12,7.61,0,7.82-.04,19.88-.12,36.19-.09,16.31-.12,28.12-.12,35.44v.5c0,7.16.08,19.34.25,36.56.16,17.22.25,30.32.25,39.31,0,3.99-.04,9.61-.12,16.84-.09,7.24-.12,12.44-.12,15.6v1.75c0,.33.04.96.12,1.87.08.92.12,1.62.12,2.12,0,3.16-1.5,4.74-4.49,4.74h-.5c-.67,0-1.83.08-3.49.25-1.67.16-2.75.25-3.24.25-2.99,0-4.49-1.67-4.49-4.99v-99.07c-.34-.16-1.17-.25-2.5-.25-2.5,0-6.7.25-12.6.75-5.91.5-9.03.75-9.36.75h-.5c-2.16,0-3.24.34-3.24,1-.34,2-.5,7.82-.5,17.47,0,4.49.04,11.32.12,20.46.08,9.15.12,15.39.12,18.72s-.09,8.4-.25,15.22c-.17,6.82-.25,11.9-.25,15.22,0,1.33.04,3,.12,4.99.08,2,.12,3.24.12,3.74v.25c0,1.5-1.04,2.66-3.12,3.49-2.08.83-4.2,1.25-6.36,1.25-2.99,0-4.58-.92-4.74-2.75-.5-2.33-.75-7.32-.75-14.97v-26.7c0-4.32.12-11.1.37-20.34.25-9.23.37-15.43.37-18.59,0-2.5-.04-6.11-.12-10.86-.09-4.74-.12-8.27-.12-10.61v-20.46Z"/><path class="cls-1" d="M662.46,464.95v-20.71c0-6.82.25-13.14.75-18.97,0-1.16,2.16-1.75,6.49-1.75h4.24c2.5,0,3.83.92,3.99,2.75.16,1.67.25,5.66.25,11.98,0,3.49-.04,8.65-.12,15.47-.09,6.82-.12,11.48-.12,13.98,0,2.66.04,7.45.12,14.35.08,6.91.12,12.44.12,16.6v13.23c0,2.5.04,5.91.12,10.23.08,4.33.12,7.74.12,10.23s-.04,6.16-.12,10.98c-.09,4.83-.12,8.32-.12,10.48,0,6.66.12,16.39.37,29.2.25,12.81.37,22.55.37,29.2,0,2.5-.09,4.08-.25,4.74,0,2.5-3.99,3.74-11.98,3.74-1.83,0-3.04-.42-3.62-1.25-.58-.83-.96-2.33-1.12-4.49,0-.5-.04-1.33-.12-2.5-.09-1.16-.12-2-.12-2.5,0-.83.04-2.12.12-3.87.08-1.75.12-3.03.12-3.87,0-6.15.04-16.38.12-30.7.08-14.31.12-24.87.12-31.69,0-2.5-.04-5.86-.12-10.11-.09-4.24-.12-7.53-.12-9.86,0-4.66.08-13.23.25-25.7.16-12.48.25-22.21.25-29.2Z"/><path class="cls-1" d="M727.85,420.28c8.48,0,15.55,2.99,21.21,8.98,5.65,5.99,8.48,13.23,8.48,21.71v1c0,2.16-.09,3.24-.25,3.24-.34.17-1.33.25-3,.25-1.33,0-3.41-.08-6.24-.25-2.83-.16-4.58-.25-5.24-.25-.17,0-.25-1.08-.25-3.24v-1.5c0-3.16-1.21-6.03-3.62-8.61-2.41-2.58-6.03-3.87-10.86-3.87h-.5c-2.83,0-5.66,1.58-8.48,4.74-1.67,2.66-2.5,5.49-2.5,8.48,0,5.16,1.91,9.48,5.74,12.98,7.65,7.49,13.89,15.64,18.72,24.46,10.48,19.3,15.72,41.26,15.72,65.88,0,3.99-.17,8.82-.5,14.47-1.66,17.47-4.99,30.28-9.98,38.43-5.83,9.65-14.14,14.47-24.96,14.47-8.65,0-15.6-4.28-20.84-12.85-5.24-8.57-8.2-18.67-8.86-30.32v-14.72c0-.83,3.49-1.25,10.48-1.25,4.16,0,6.24.17,6.24.5v15.72c.5,6.32,1.87,11.69,4.12,16.1,2.25,4.41,5.28,6.61,9.11,6.61,6.82,0,11.73-4.57,14.72-13.73,1.83-6.15,3.16-15.39,3.99-27.7.16-1.83.25-3.83.25-5.99,0-7.49-.83-15.14-2.5-22.96-3.83-19.13-9.82-34.27-17.97-45.42-1.17-1.66-3.33-4.41-6.49-8.24-3.16-3.83-5.53-6.82-7.11-8.98-1.58-2.16-3.12-5.03-4.62-8.61-1.5-3.58-2.25-7.11-2.25-10.61v-2.5c.66-7.32,3.58-13.56,8.73-18.72,5.16-5.15,11.06-7.74,17.72-7.74h1.75Z"/><path class="cls-1" d="M921,536.08c-.5,0-1.33.09-2.5.25-1.17.17-1.92.25-2.25.25-.5,0-.75-1.41-.75-4.24v-2.25c0-4.66.16-7.74.5-9.23.16-1.16,2.16-1.75,5.99-1.75,1,0,2.58.04,4.74.12,2.16.09,3.66.12,4.49.12h2.25c3.83,0,6.24.5,7.24,1.5.16.17.5,4.66,1,13.48.33,6.16.5,15.64.5,28.45v26.7c0,8.82.16,16.14.5,21.96,0,.5.04,1.5.12,3,.08,1.5.12,2.5.12,3,0,2.83-.92,4.24-2.75,4.24h-9.48c-2.5,0-3.74-1.67-3.74-4.99v-2.5c0-2.5-.17-3.74-.5-3.74h-.25c-.17,0-.62.34-1.37,1-.75.67-1.71,1.46-2.87,2.37-1.17.92-2.16,1.62-2.99,2.12-4.66,2.33-10.15,3.49-16.47,3.49-23.63,0-39.52-16.8-47.67-50.41-3.16-14.64-4.74-28.53-4.74-41.68,0-6.99.41-13.14,1.25-18.47,2.16-17.8,6.45-32.36,12.85-43.67,6.4-11.31,15.76-21.21,28.08-29.7,2.66-2,8.4-4.87,17.22-8.61,8.82-3.74,15.47-5.61,19.96-5.61,2.99,0,4.49,1.08,4.49,3.24,0,.67.08,1.75.25,3.24.16,1.5.25,2.66.25,3.49,0,2.16-.33,3.83-1,4.99-.17.5-.46.83-.87,1-.42.17-1,.25-1.75.25s-1.37.09-1.87.25c-5.66,1.67-11.73,4.16-18.22,7.49-6.49,3.33-11.48,6.57-14.97,9.73-19.63,17.47-29.45,42.51-29.45,75.12,0,7.65.58,15.43,1.75,23.33,1.16,7.9,3.03,15.68,5.62,23.33,2.58,7.65,6.28,13.89,11.11,18.72,4.82,4.83,10.4,7.24,16.72,7.24,6.99,0,13.1-1.95,18.34-5.86,5.24-3.91,7.86-9.44,7.86-16.59,0-13.48-.42-28.12-1.25-43.92,0-.5-.33-.75-1-.75-.17,0-.75.09-1.75.25-1,.17-1.92.25-2.75.25Z"/><path class="cls-1" d="M987.63,425.03c9.48,0,16.88.09,22.21.25,1.66,0,2.5,1.33,2.5,3.99v.75c0,.83.04,2.16.12,3.99.08,1.83.12,2.99.12,3.49,0,1.67-.17,2.66-.5,2.99-.83.5-1.5.75-2,.75-.34,0-.96-.04-1.87-.12-.92-.08-1.71-.12-2.37-.12h-3.74c-2.83,0-5.58-.08-8.24-.25h-3.74c-.33,0-5.16.17-14.47.5-2.16.17-3.24,1-3.24,2.5v1.25c0,.67.04,1.62.12,2.87.08,1.25.12,2.21.12,2.87v22.96c0,3.16-.04,7.99-.12,14.47-.09,6.49-.12,11.4-.12,14.72v2.5c0,3.33.25,5.41.75,6.24.33.5.83.75,1.5.75h2c10.98,0,18.97.25,23.96.75.83,0,1.25.75,1.25,2.25v.25c0,.5.12,2,.37,4.49.25,2.5.37,4.33.37,5.49,0,1.67-.17,2.5-.5,2.5-1.83.5-4.33.75-7.49.75-1.33,0-3.99-.08-7.99-.25-3.99-.16-6.74-.25-8.24-.25h-4.74c-.67,0-1,.67-1,2v2.25c-.34,5.49-.5,13.73-.5,24.71,0,9.32.16,23.79.5,43.42.16,2.5.75,3.74,1.75,3.74h31.19c2,0,3.24.17,3.74.5.83.83,1.25,2.5,1.25,4.99,0,.83-.09,2.08-.25,3.74-.17,1.67-.25,2.75-.25,3.24,0,1.17-.21,1.92-.62,2.25-.42.33-1.37.5-2.87.5h-42.67c-2,0-3.49-.09-4.49-.25-1.67-.33-2.58-.75-2.75-1.25v-31.94c0-29.78.08-52.99.25-69.63v-47.42c0-5.15.04-11.14.12-17.97.08-6.82.16-12.1.25-15.85.08-3.74.12-6.53.12-8.36,0-1.33.66-2,2-2h1.5c1.66.17,4.41.25,8.24.25,1.66,0,4.24-.04,7.74-.12,3.49-.08,6.24-.12,8.24-.12h2.5Z"/><path class="cls-1" d="M1025.82,464.95v-20.71c0-6.82.25-13.14.75-18.97,0-1.16,2.16-1.75,6.49-1.75h4.24c2.5,0,3.83.92,3.99,2.75.16,1.67.25,5.66.25,11.98,0,3.49-.04,8.65-.12,15.47-.09,6.82-.12,11.48-.12,13.98,0,2.66.04,7.45.12,14.35.08,6.91.12,12.44.12,16.6v13.23c0,2.5.04,5.91.12,10.23.08,4.33.12,7.74.12,10.23s-.04,6.16-.12,10.98c-.09,4.83-.12,8.32-.12,10.48,0,6.66.12,16.39.37,29.2.25,12.81.37,22.55.37,29.2,0,2.5-.08,4.08-.25,4.74,0,2.5-3.99,3.74-11.98,3.74-1.83,0-3.04-.42-3.62-1.25-.58-.83-.96-2.33-1.12-4.49,0-.5-.04-1.33-.12-2.5-.09-1.16-.12-2-.12-2.5,0-.83.04-2.12.12-3.87.08-1.75.12-3.03.12-3.87,0-6.15.04-16.38.12-30.7.08-14.31.12-24.87.12-31.69,0-2.5-.04-5.86-.12-10.11-.09-4.24-.12-7.53-.12-9.86,0-4.66.08-13.23.25-25.7.16-12.48.25-22.21.25-29.2Z"/><path class="cls-1" d="M1066.74,618.93c-4.83,0-7.24-.91-7.24-2.75,0-.5-.04-1-.12-1.5-.09-.5-.12-1.91-.12-4.24-.17-2.83-.25-7.32-.25-13.48,0-2.83.04-7.24.12-13.23.08-5.99.12-10.56.12-13.73,0-6.49-.08-11.31-.25-14.47,0-5.32-.12-20.84-.37-46.54-.25-25.7-.54-45.21-.87-58.52v-.75c0-.66.04-3.28.12-7.86.08-4.57.12-8.11.12-10.61v-4.99l-.25-.25c0-1.83,1.25-2.75,3.74-2.75h1c.83,0,2.41.04,4.74.12,2.33.09,3.91.12,4.74.12h1c.66,0,1.04.09,1.12.25.08.17.21.83.38,2,.33,2,.5,5.74.5,11.23s.04,12.65.12,21.46c.08,8.82.21,16.64.37,23.46,0,3.33.04,8.4.12,15.22.08,6.82.12,11.9.12,15.22,0,8.15-.04,16.68-.12,25.58-.09,8.9-.17,16.26-.25,22.09-.09,5.83-.12,9.23-.12,10.23v.5c0,1.83.04,5.12.12,9.86.08,4.74.12,8.28.12,10.61,0,4.33-.09,7.32-.25,8.98l3.49.25c3,.17,6.99.42,11.98.75h2c1.5,0,2.25.92,2.25,2.75,0,3.16.08,5.41.25,6.74,0,.5.04,1.42.12,2.75.08,1.33.12,2.33.12,3v1.25c0,1-.34,1.5-1,1.5h-1.5c-2.33,0-6.91-.04-13.73-.12-6.82-.08-10.98-.12-12.48-.12Z"/><path class="cls-1" d="M1138.86,425.03c9.48,0,16.88.09,22.21.25,1.66,0,2.5,1.33,2.5,3.99v.75c0,.83.04,2.16.12,3.99.08,1.83.12,2.99.12,3.49,0,1.67-.17,2.66-.5,2.99-.83.5-1.5.75-2,.75-.34,0-.96-.04-1.87-.12-.92-.08-1.71-.12-2.37-.12h-3.74c-2.83,0-5.58-.08-8.24-.25h-3.74c-.33,0-5.16.17-14.47.5-2.16.17-3.24,1-3.24,2.5v1.25c0,.67.04,1.62.12,2.87.08,1.25.12,2.21.12,2.87v22.96c0,3.16-.04,7.99-.12,14.47-.09,6.49-.12,11.4-.12,14.72v2.5c0,3.33.25,5.41.75,6.24.33.5.83.75,1.5.75h2c10.98,0,18.97.25,23.96.75.83,0,1.25.75,1.25,2.25v.25c0,.5.12,2,.37,4.49.25,2.5.37,4.33.37,5.49,0,1.67-.17,2.5-.5,2.5-1.83.5-4.33.75-7.49.75-1.33,0-3.99-.08-7.99-.25-3.99-.16-6.74-.25-8.24-.25h-4.74c-.67,0-1,.67-1,2v2.25c-.34,5.49-.5,13.73-.5,24.71,0,9.32.16,23.79.5,43.42.16,2.5.75,3.74,1.75,3.74h31.19c2,0,3.24.17,3.74.5.83.83,1.25,2.5,1.25,4.99,0,.83-.09,2.08-.25,3.74-.17,1.67-.25,2.75-.25,3.24,0,1.17-.21,1.92-.62,2.25-.42.33-1.37.5-2.87.5h-42.67c-2,0-3.49-.09-4.49-.25-1.67-.33-2.58-.75-2.75-1.25v-31.94c0-29.78.08-52.99.25-69.63v-47.42c0-5.15.04-11.14.12-17.97.08-6.82.16-12.1.25-15.85.08-3.74.12-6.53.12-8.36,0-1.33.66-2,2-2h1.5c1.66.17,4.41.25,8.24.25,1.66,0,4.24-.04,7.74-.12,3.49-.08,6.24-.12,8.24-.12h2.5Z"/><path class="cls-1" d="M1327.28,536.08c-.5,0-1.33.09-2.5.25-1.17.17-1.92.25-2.25.25-.5,0-.75-1.41-.75-4.24v-2.25c0-4.66.16-7.74.5-9.23.16-1.16,2.16-1.75,5.99-1.75,1,0,2.58.04,4.74.12,2.16.09,3.66.12,4.49.12h2.25c3.83,0,6.24.5,7.24,1.5.16.17.5,4.66,1,13.48.33,6.16.5,15.64.5,28.45v26.7c0,8.82.16,16.14.5,21.96,0,.5.04,1.5.12,3,.08,1.5.12,2.5.12,3,0,2.83-.92,4.24-2.75,4.24h-9.48c-2.5,0-3.74-1.67-3.74-4.99v-2.5c0-2.5-.17-3.74-.5-3.74h-.25c-.17,0-.62.34-1.37,1-.75.67-1.71,1.46-2.87,2.37-1.17.92-2.16,1.62-2.99,2.12-4.66,2.33-10.15,3.49-16.47,3.49-23.63,0-39.52-16.8-47.67-50.41-3.16-14.64-4.74-28.53-4.74-41.68,0-6.99.41-13.14,1.25-18.47,2.16-17.8,6.45-32.36,12.85-43.67,6.4-11.31,15.76-21.21,28.08-29.7,2.66-2,8.4-4.87,17.22-8.61,8.82-3.74,15.47-5.61,19.96-5.61,2.99,0,4.49,1.08,4.49,3.24,0,.67.08,1.75.25,3.24.16,1.5.25,2.66.25,3.49,0,2.16-.33,3.83-1,4.99-.17.5-.46.83-.87,1-.42.17-1,.25-1.75.25s-1.37.09-1.87.25c-5.66,1.67-11.73,4.16-18.22,7.49-6.49,3.33-11.48,6.57-14.97,9.73-19.63,17.47-29.45,42.51-29.45,75.12,0,7.65.58,15.43,1.75,23.33,1.16,7.9,3.03,15.68,5.62,23.33,2.58,7.65,6.28,13.89,11.11,18.72,4.82,4.83,10.4,7.24,16.72,7.24,6.99,0,13.1-1.95,18.34-5.86,5.24-3.91,7.86-9.44,7.86-16.59,0-13.48-.42-28.12-1.25-43.92,0-.5-.33-.75-1-.75-.17,0-.75.09-1.75.25-1,.17-1.92.25-2.75.25Z"/><path class="cls-1" d="M1362.97,426.02c.16-.16.25-.5.25-1,0-.33-.04-.66-.12-1-.09-.33-.12-.66-.12-1,0-1.16.16-1.91.5-2.25.33-.33.66-.5,1-.5.16,0,.46.04.87.12.41.09.79.12,1.12.12h1.5c10.81,0,20.21,1.91,28.2,5.74,6.99,3.16,11.98,7.32,14.97,12.48,2.83,4.49,4.24,10.98,4.24,19.47v1.5c0,8.98-3.83,17.97-11.48,26.95-2,2.33-4.41,4.66-7.24,6.99-2.83,2.33-5.03,4.12-6.61,5.37-1.58,1.25-2.37,2.12-2.37,2.62,1,4.33,2.66,9.73,4.99,16.22,2.33,6.49,4.87,13.39,7.61,20.71,2.75,7.32,4.53,12.31,5.37,14.97,10.81,30.45,17.55,48.83,20.21,55.15,2.16,4.83,3.24,7.82,3.24,8.98,0,.67-.42,1-1.25,1h-1c-2.33-.33-4.24-.5-5.74-.5-1,0-2.41.04-4.24.12-1.83.09-3.16.12-3.99.12h-.5c-1,0-3.74-6.57-8.24-19.71-4.49-13.14-7.32-21.96-8.49-26.45-2.33-8.65-5.83-20.05-10.48-34.19-4.49-14.31-6.91-21.46-7.24-21.46s-.5,2.99-.5,8.98v4.74c0,3.49.04,7.57.12,12.23.08,4.66.16,9.36.25,14.1.08,4.74.16,9.57.25,14.47.08,4.91.16,9.53.25,13.85.08,4.33.16,8.15.25,11.48.08,3.33.12,5.99.12,7.99l.25,2.99v.5c0,1.33-.04,3.12-.12,5.37-.09,2.25-.12,3.7-.12,4.37,0,1-.09,1.58-.25,1.75-.5.66-1.42,1-2.75,1-.34,0-.92-.04-1.75-.12-.83-.09-1.5-.12-2-.12s-1.33.04-2.5.12c-1.17.08-2,.12-2.5.12-1.67,0-2.83-.33-3.49-1-.17-1.16-.29-4.07-.37-8.73-.09-4.66-.17-9.69-.25-15.1-.09-5.4-.12-8.86-.12-10.36.16-3.33.25-7.57.25-12.73,0-1.5-.04-4.82-.12-9.98-.09-5.16-.12-10.06-.12-14.72-.17-1.33-.25-3.33-.25-5.99,0-4.99.12-12.85.37-23.58s.37-18.59.37-23.58-.08-8.98-.25-11.48c-.17-5.82-.25-13.23-.25-22.21v-14.97c.16-3.99.25-10.65.25-19.96ZM1397.41,471.44c1.83-4.66,2.75-8.9,2.75-12.73,0-5.16-.92-9.19-2.75-12.1-1.83-2.91-4.83-5.53-8.98-7.86-4.33-2.33-7.74-3.49-10.23-3.49h-.75l-.25.5v1c0,.83.04,2.5.12,4.99.08,2.5.12,4.33.12,5.49,0,.34-.04,1.46-.12,3.37-.09,1.91-.12,4.33-.12,7.24v8.61c0,3.66-.09,7.57-.25,11.73-.17,4.16-.25,6.41-.25,6.74l.25,1.75c3.99-.16,8.03-2,12.1-5.49,4.08-3.49,6.86-6.74,8.36-9.73Z"/><path class="cls-1" d="M1427.85,538.57c-.67-11.31-1.08-20.8-1.25-28.45v-3.24c0-32.77,5.57-56.81,16.72-72.12,7.65-10.31,17.47-15.72,29.45-16.22.33,0,.91-.04,1.75-.12.83-.08,1.41-.12,1.75-.12,16.14,0,27.62,6.57,34.44,19.71,5.32,10.32,8.49,29.62,9.48,57.9.33,10.98.5,20.3.5,27.95,0,22.13-1.17,39.1-3.49,50.91-5.16,28.45-17.14,44.92-35.94,49.41-3.33.83-6.16,1.25-8.49,1.25-17.64,0-30.53-14.72-38.68-44.17-2.16-7.99-4.24-22.21-6.24-42.67ZM1476.26,433.51c-8.15.34-14.85,3.83-20.09,10.48-5.24,6.66-8.7,14.47-10.36,23.46-2.66,13.64-3.99,27.54-3.99,41.68v4.99c1,26.62,3.91,48.25,8.73,64.88,2.16,7.32,5.24,13.81,9.23,19.46,3.99,5.66,7.99,8.49,11.98,8.49h.25c8.15-.16,14.22-2.53,18.22-7.11,3.99-4.57,7.24-10.69,9.73-18.34,3.66-10.81,5.49-28.03,5.49-51.66v-9.48c-.17-1.33-.25-3.66-.25-6.99v-8.48c0-6.15-.08-10.31-.25-12.48-1-17.97-2.83-31.11-5.49-39.43-1.83-4.99-4.74-9.48-8.73-13.48-3.99-3.99-8.65-5.99-13.98-5.99h-.5Z"/><path class="cls-1" d="M1566.85,421.78h.25c4.82,0,7.32.5,7.49,1.5.16,1.17.33,2.99.5,5.49v4.49c0,2-.25,3.24-.75,3.74-.5,1.17-4.24,1.75-11.23,1.75-1.33,0-2.83-.04-4.49-.12-1.67-.08-2.66-.12-3-.12-.67,0-1,9.9-1,29.7v10.48c.16,12.15.38,25.29.62,39.43.25,14.14.41,25.5.5,34.06.08,8.57.21,16.76.38,24.58,0,2.33.04,6.07.12,11.23.08,5.16.12,9.23.12,12.23l.25,12.73v.25c0,2.16-.34,3.66-1,4.49-1.17,1-3.74,1.5-7.74,1.5h-1.25c-.83,0-1.67.04-2.5.12-.83.08-1.33.12-1.5.12-.5,0-.92-.17-1.25-.5-.83-.5-1.25-2.33-1.25-5.49v-10.73c-.34-19.3-.5-32.11-.5-38.43v-31.69c-.17-7.82-.25-21.96-.25-42.42,0-13.81.08-22.96.25-27.45v-23.46c-.34-.16-1-.25-2-.25-.5,0-1.54.04-3.12.12-1.58.09-2.79.12-3.62.12-3.83,0-6.16-.5-6.99-1.5-.5-.5-.75-1.16-.75-2v-9.23c0-2.33.58-3.58,1.75-3.74.16,0,.71-.12,1.62-.37.91-.25,1.7-.37,2.37-.37h2c3.33.34,6.07.5,8.24.5,3.16,0,7.82-.12,13.98-.37,6.15-.25,10.73-.37,13.73-.37Z"/><path class="cls-1" d="M1625.5,421.78h.25c4.82,0,7.32.5,7.49,1.5.16,1.17.33,2.99.5,5.49v4.49c0,2-.25,3.24-.75,3.74-.5,1.17-4.24,1.75-11.23,1.75-1.33,0-2.83-.04-4.49-.12-1.67-.08-2.66-.12-3-.12-.67,0-1,9.9-1,29.7v10.48c.16,12.15.38,25.29.62,39.43.25,14.14.41,25.5.5,34.06.08,8.57.21,16.76.38,24.58,0,2.33.04,6.07.12,11.23.08,5.16.12,9.23.12,12.23l.25,12.73v.25c0,2.16-.34,3.66-1,4.49-1.17,1-3.74,1.5-7.74,1.5h-1.25c-.83,0-1.67.04-2.5.12-.83.08-1.33.12-1.5.12-.5,0-.92-.17-1.25-.5-.83-.5-1.25-2.33-1.25-5.49v-10.73c-.34-19.3-.5-32.11-.5-38.43v-31.69c-.17-7.82-.25-21.96-.25-42.42,0-13.81.08-22.96.25-27.45v-23.46c-.34-.16-1-.25-2-.25-.5,0-1.54.04-3.12.12-1.58.09-2.79.12-3.62.12-3.83,0-6.16-.5-6.99-1.5-.5-.5-.75-1.16-.75-2v-9.23c0-2.33.58-3.58,1.75-3.74.16,0,.71-.12,1.62-.37.91-.25,1.7-.37,2.37-.37h2c3.33.34,6.07.5,8.24.5,3.16,0,7.82-.12,13.98-.37,6.15-.25,10.73-.37,13.73-.37Z"/><path class="cls-1" d="M1675.66,425.03c9.48,0,16.88.09,22.21.25,1.66,0,2.5,1.33,2.5,3.99v.75c0,.83.04,2.16.12,3.99.08,1.83.12,2.99.12,3.49,0,1.67-.17,2.66-.5,2.99-.83.5-1.5.75-2,.75-.34,0-.96-.04-1.87-.12-.92-.08-1.71-.12-2.37-.12h-3.74c-2.83,0-5.58-.08-8.24-.25h-3.74c-.33,0-5.16.17-14.47.5-2.16.17-3.24,1-3.24,2.5v1.25c0,.67.04,1.62.12,2.87.08,1.25.12,2.21.12,2.87v22.96c0,3.16-.04,7.99-.12,14.47-.09,6.49-.12,11.4-.12,14.72v2.5c0,3.33.25,5.41.75,6.24.33.5.83.75,1.5.75h2c10.98,0,18.97.25,23.96.75.83,0,1.25.75,1.25,2.25v.25c0,.5.12,2,.37,4.49.25,2.5.37,4.33.37,5.49,0,1.67-.17,2.5-.5,2.5-1.83.5-4.33.75-7.49.75-1.33,0-3.99-.08-7.99-.25-3.99-.16-6.74-.25-8.24-.25h-4.74c-.67,0-1,.67-1,2v2.25c-.34,5.49-.5,13.73-.5,24.71,0,9.32.16,23.79.5,43.42.16,2.5.75,3.74,1.75,3.74h31.19c2,0,3.24.17,3.74.5.83.83,1.25,2.5,1.25,4.99,0,.83-.09,2.08-.25,3.74-.17,1.67-.25,2.75-.25,3.24,0,1.17-.21,1.92-.62,2.25-.42.33-1.37.5-2.87.5h-42.67c-2,0-3.49-.09-4.49-.25-1.67-.33-2.58-.75-2.75-1.25v-31.94c0-29.78.08-52.99.25-69.63v-47.42c0-5.15.04-11.14.12-17.97.08-6.82.16-12.1.25-15.85.08-3.74.12-6.53.12-8.36,0-1.33.66-2,2-2h1.5c1.66.17,4.41.25,8.24.25,1.66,0,4.24-.04,7.74-.12,3.49-.08,6.24-.12,8.24-.12h2.5Z"/></svg>