<?xml version="1.0" encoding="UTF-8"?><svg id="Ebene_1" xmlns="http://www.w3.org/2000/svg" width="1920" height="1080" viewBox="0 0 1920 1080"><defs><style>.cls-1{fill:#fcfcfc;}</style></defs><path class="cls-1" d="M514.73,421.28c1,0,1.5,1.17,1.5,3.49v93.83c0,30.95.16,54.65.5,71.12.33,4.99.5,13.81.5,26.45v.5c0,2-.34,3-1,3-1,0-2.99-.12-5.99-.38s-4.83-.37-5.49-.37h-1.25c-1.17,0-1.75-1.08-1.75-3.24-.83-17.97-1.25-42.59-1.25-73.87v-64.39c0-.16.04-1.66.12-4.49.08-2.83.12-5.15.12-6.99,0-7.65-.42-11.48-1.25-11.48s-2.83,1.33-5.99,3.99l-9.73,9.98c-2,2-3.74,3.49-5.24,4.49-1.67,1.33-2.83,2-3.49,2-.5,0-1.12-.21-1.87-.62-.75-.41-1.58-.96-2.5-1.62-.92-.66-1.46-1.08-1.62-1.25-5.33-3.16-11.65-7.82-18.97-13.98-.5-.5-.92-.75-1.25-.75-.67,0-1,1.17-1,3.49v.75c0,5.16.04,13.89.12,26.2.08,12.31.12,21.71.12,28.2,0,12.15-.09,20.96-.25,26.45-.5,14.31-.75,35.6-.75,63.89,0,1.17.04,3,.12,5.49.08,2.5.12,4.24.12,5.24,0,2.16-1.17,3.24-3.49,3.24h-1.5c-.67,0-1.96.04-3.87.12-1.91.08-3.12.12-3.62.12-1.5,0-2.41-.29-2.75-.87-.34-.58-.58-2.04-.75-4.37v-7.24c0-3.16.08-7.86.25-14.1.16-6.24.25-10.94.25-14.1,0-7.65.16-24.25.5-49.79.33-25.54.5-45.21.5-59.02v-42.67c0-3.49.5-5.4,1.5-5.74.66,0,2.28,1.04,4.87,3.12,2.58,2.08,5.24,4.37,7.99,6.86s4.28,3.91,4.62,4.24c.16.17,2.62,2.5,7.36,6.99s8.19,7.49,10.36,8.98c2.99,2,4.57,2.99,4.74,2.99.83,0,2.33-1.33,4.49-3.99.83-.83,2.41-2.25,4.74-4.24,2.33-2,3.99-3.49,4.99-4.49,1.83-1.83,6.32-5.82,13.48-11.98,7.15-6.15,11.39-9.23,12.73-9.23Z"/><path class="cls-1" d="M578.86,467.95c3.16,12.15,6.15,24.42,8.98,36.81,2.83,12.4,6.2,27.54,10.11,45.42,3.91,17.89,6.61,30.16,8.11,36.81.83,3.83,2.04,8.86,3.62,15.1,1.58,6.24,2.53,10.27,2.87,12.1.16.83.25,1.5.25,2,0,1-.67,1.67-2,2-2,.67-4.83,1-8.48,1-2.16,0-3.58-.08-4.24-.25-.67-.16-1.21-.46-1.62-.87-.42-.41-.71-.75-.87-1-.17-.25-.34-.83-.5-1.75-.17-.91-.25-1.46-.25-1.62-1.83-6.49-3.16-12.48-3.99-17.97l-.5-3-5.99-29.95c-.83-4.82-1.58-7.4-2.25-7.74-.34-.33-1.17-.5-2.5-.5-2,0-3.41.09-4.24.25l-3.99.25c-8.98.5-14.22.75-15.72.75-.67,0-1.42-.04-2.25-.12-.83-.08-1.42-.12-1.75-.12-.5.5-.75,1-.75,1.5l-.75,5.49-2.5,15.97c-.17,1.5-.79,6.12-1.87,13.85-1.08,7.74-1.79,13.35-2.12,16.84-.34,3.16-.75,5.41-1.25,6.74-.5,1.17-1.75,1.92-3.74,2.25h-4.74c-2.99,0-4.83-.16-5.49-.5-.67-.33-1-.91-1-1.75v-1.5c.33-4.16,1.37-11.23,3.12-21.21,1.75-9.98,2.7-15.72,2.87-17.22,6.65-47.08,12.81-84.6,18.47-112.55l.75-3.99c.66-3.49,1.83-9.15,3.49-16.97,1.66-7.82,2.75-13.31,3.24-16.47.33-2.99,1.75-4.82,4.24-5.49h.25c1.33,0,2.33,1.58,2.99,4.74,1,4.66,3,11.94,5.99,21.84,2.99,9.9,4.99,16.85,5.99,20.84ZM576.37,523.1c-3.33-19.3-7.32-35.94-11.98-49.91-1.33,5.16-4.16,21.8-8.49,49.91,0,.17-.29,2.16-.87,5.99-.58,3.83-.87,6.49-.87,7.99v1c0,1,.33,1.5,1,1.5h19.22c2.66-.16,4.32-.58,4.99-1.25v-.25c0-.5-.17-1.54-.5-3.12-.34-1.58-.71-3.33-1.12-5.24-.42-1.91-.71-3.2-.87-3.87l-.5-2.75Z"/><path class="cls-1" d="M631.02,618.93c-4.83,0-7.24-.91-7.24-2.75,0-.5-.04-1-.12-1.5-.09-.5-.12-1.91-.12-4.24-.17-2.83-.25-7.32-.25-13.48,0-2.83.04-7.24.12-13.23.08-5.99.12-10.56.12-13.73,0-6.49-.09-11.31-.25-14.47,0-5.32-.12-20.84-.37-46.54-.25-25.7-.54-45.21-.87-58.52v-.75c0-.66.04-3.28.12-7.86.08-4.57.12-8.11.12-10.61v-4.99l-.25-.25c0-1.83,1.25-2.75,3.74-2.75h1c.83,0,2.41.04,4.74.12,2.33.09,3.91.12,4.74.12h1c.66,0,1.04.09,1.12.25.08.17.21.83.37,2,.33,2,.5,5.74.5,11.23s.04,12.65.12,21.46c.08,8.82.21,16.64.37,23.46,0,3.33.04,8.4.12,15.22.08,6.82.12,11.9.12,15.22,0,8.15-.04,16.68-.12,25.58-.09,8.9-.17,16.26-.25,22.09-.09,5.83-.12,9.23-.12,10.23v.5c0,1.83.04,5.12.12,9.86.08,4.74.12,8.28.12,10.61,0,4.33-.09,7.32-.25,8.98l3.49.25c2.99.17,6.99.42,11.98.75h2c1.5,0,2.25.92,2.25,2.75,0,3.16.08,5.41.25,6.74,0,.5.04,1.42.12,2.75.08,1.33.12,2.33.12,3v1.25c0,1-.34,1.5-1,1.5h-1.5c-2.33,0-6.91-.04-13.73-.12-6.82-.08-10.98-.12-12.48-.12Z"/><path class="cls-1" d="M669.45,435.01c9.32,41.76,17.3,75.2,23.96,100.32.16.34.71,2.75,1.62,7.24.91,4.49,1.87,8.78,2.87,12.85,1,4.08,1.66,6.12,2,6.12,2.99,0,9.23-19.8,18.72-59.4,3.83-16.14,7.32-32.52,10.48-49.16.5-2,1.08-4.62,1.75-7.86.66-3.24,1.37-6.82,2.12-10.73.75-3.91,1.29-6.61,1.62-8.11.5-1.5,1.75-2.25,3.74-2.25.83,0,2.16.17,3.99.5,1.83.34,2.91.5,3.24.5,4.16.34,6.24,1.25,6.24,2.75l-.25.25v.75c-3.49,13.81-5.83,24.21-6.99,31.19-1.33,8.48-3.08,17.22-5.24,26.2-2.16,8.98-5.16,20.59-8.98,34.81-3.83,14.22-6.16,22.92-6.99,26.08-.5,2-1.91,7.4-4.24,16.22-2.33,8.82-3.95,14.89-4.87,18.22-.92,3.33-2.33,8.07-4.24,14.22-1.91,6.16-3.87,11.73-5.86,16.72-.17.33-.46,1.33-.87,3-.42,1.66-.87,3.08-1.37,4.24-.5,1.16-1.08,1.75-1.75,1.75h-.25c-.83-.33-1.54-.83-2.12-1.5-.58-.67-1.12-1.62-1.62-2.87s-.87-2.33-1.12-3.24c-.25-.91-.54-2.12-.87-3.62-.34-1.5-.58-2.5-.75-3-1.33-4.99-4.08-16.22-8.24-33.69-4.16-17.47-7.57-30.86-10.23-40.18-4.33-15.14-8.65-31.69-12.98-49.66-4.33-18.3-7.32-33.19-8.98-44.67,0-.5-.29-2.37-.87-5.61-.58-3.24-.87-5.45-.87-6.61,0-.83.16-1.41.5-1.75.83-.66,2.75-1,5.74-1,.66,0,1.54.04,2.62.12,1.08.09,1.79.12,2.12.12h2c1.33,0,2.16.17,2.5.5.16.17.41.87.75,2.12.33,1.25.71,2.75,1.12,4.49.41,1.75.71,2.96.87,3.62Z"/><path class="cls-1" d="M761.29,464.95v-20.71c0-6.82.25-13.14.75-18.97,0-1.16,2.16-1.75,6.49-1.75h4.24c2.5,0,3.83.92,3.99,2.75.16,1.67.25,5.66.25,11.98,0,3.49-.04,8.65-.12,15.47-.09,6.82-.12,11.48-.12,13.98,0,2.66.04,7.45.12,14.35.08,6.91.12,12.44.12,16.6v13.23c0,2.5.04,5.91.12,10.23.08,4.33.12,7.74.12,10.23s-.04,6.16-.12,10.98c-.09,4.83-.12,8.32-.12,10.48,0,6.66.12,16.39.38,29.2.25,12.81.37,22.55.37,29.2,0,2.5-.08,4.08-.25,4.74,0,2.5-3.99,3.74-11.98,3.74-1.83,0-3.04-.42-3.62-1.25-.59-.83-.96-2.33-1.12-4.49,0-.5-.04-1.33-.12-2.5-.09-1.16-.12-2-.12-2.5,0-.83.04-2.12.12-3.87.08-1.75.12-3.03.12-3.87,0-6.15.04-16.38.12-30.7.08-14.31.12-24.87.12-31.69,0-2.5-.04-5.86-.12-10.11-.09-4.24-.12-7.53-.12-9.86,0-4.66.08-13.23.25-25.7.16-12.48.25-22.21.25-29.2Z"/><path class="cls-1" d="M801.22,621.68c-3.16,0-5.16-.34-5.99-1-.83-.67-1.25-2.25-1.25-4.74,0-4.32.08-10.73.25-19.21.16-8.49.25-14.89.25-19.22,0-5.65-.04-14.06-.12-25.21-.09-11.14-.12-19.71-.12-25.7,0-2.99.04-7.19.12-12.6.08-5.4.12-9.77.12-13.1,0-5.65-.12-15.18-.37-28.57-.25-13.39-.38-23.17-.38-29.32,0-.33-.04-1.25-.12-2.75-.08-1.5-.12-2.66-.12-3.49,0-10.98.91-16.47,2.75-16.47,1.66,0,3.58,1.62,5.74,4.87,2.16,3.24,3.49,5.61,3.99,7.11,4.16,8.98,6.4,13.73,6.74,14.22,4.49,8.48,13.56,30.41,27.2,65.76,13.64,35.35,21.63,55.69,23.96,61.02.16-1.33.25-2.99.25-4.99,0-10.98-.09-30.48-.25-58.52-.17-28.03-.25-48.62-.25-61.77v-21.71c0-3.33.25-5.24.75-5.74.66-.5,1.83-.75,3.49-.75.5,0,1.41.04,2.75.12,1.33.09,2.58.12,3.74.12h2.75c2.16,0,3.53.62,4.12,1.87.58,1.25.87,3.45.87,6.61,0,1.67-.04,4.16-.12,7.49-.09,3.33-.12,5.74-.12,7.24v175.94c0,.83-1.08,1.25-3.24,1.25l-11.48-1.75c-8.82-17.47-25.87-59.15-51.16-125.03-.17-.16-.71-1.33-1.62-3.49-.92-2.16-1.79-4.24-2.62-6.24l-1.5-3.24c0,1.66.16,7.7.5,18.09.33,10.4.5,16.26.5,17.59,0,1-.04,2.5-.12,4.49-.09,2-.12,3.49-.12,4.49v26.2c0,2.33.08,4.08.25,5.24.33,11.48.5,29.2.5,53.16,0,.33.04,1.21.12,2.62.08,1.42.12,2.54.12,3.37,0,2.16-.25,3.49-.75,3.99-1,1.16-4.33,1.75-9.98,1.75Z"/><path class="cls-1" d="M897.04,464.95v-20.71c0-6.82.25-13.14.75-18.97,0-1.16,2.16-1.75,6.49-1.75h4.24c2.5,0,3.83.92,3.99,2.75.16,1.67.25,5.66.25,11.98,0,3.49-.04,8.65-.12,15.47-.09,6.82-.12,11.48-.12,13.98,0,2.66.04,7.45.12,14.35.08,6.91.12,12.44.12,16.6v13.23c0,2.5.04,5.91.12,10.23.08,4.33.12,7.74.12,10.23s-.04,6.16-.12,10.98c-.09,4.83-.12,8.32-.12,10.48,0,6.66.12,16.39.37,29.2.25,12.81.37,22.55.37,29.2,0,2.5-.08,4.08-.25,4.74,0,2.5-3.99,3.74-11.98,3.74-1.83,0-3.04-.42-3.62-1.25-.58-.83-.96-2.33-1.12-4.49,0-.5-.04-1.33-.12-2.5-.09-1.16-.12-2-.12-2.5,0-.83.04-2.12.12-3.87.08-1.75.12-3.03.12-3.87,0-6.15.04-16.38.12-30.7.08-14.31.12-24.87.12-31.69,0-2.5-.04-5.86-.12-10.11-.09-4.24-.12-7.53-.12-9.86,0-4.66.08-13.23.25-25.7.16-12.48.25-22.21.25-29.2Z"/><path class="cls-1" d="M962.43,420.28c8.49,0,15.55,2.99,21.21,8.98,5.65,5.99,8.48,13.23,8.48,21.71v1c0,2.16-.09,3.24-.25,3.24-.34.17-1.33.25-3,.25-1.33,0-3.41-.08-6.24-.25-2.83-.16-4.58-.25-5.24-.25-.17,0-.25-1.08-.25-3.24v-1.5c0-3.16-1.21-6.03-3.62-8.61-2.41-2.58-6.03-3.87-10.86-3.87h-.5c-2.83,0-5.66,1.58-8.49,4.74-1.67,2.66-2.5,5.49-2.5,8.48,0,5.16,1.91,9.48,5.74,12.98,7.65,7.49,13.89,15.64,18.72,24.46,10.48,19.3,15.72,41.26,15.72,65.88,0,3.99-.17,8.82-.5,14.47-1.67,17.47-4.99,30.28-9.98,38.43-5.83,9.65-14.14,14.47-24.96,14.47-8.65,0-15.6-4.28-20.84-12.85-5.24-8.57-8.2-18.67-8.86-30.32v-14.72c0-.83,3.49-1.25,10.48-1.25,4.16,0,6.24.17,6.24.5v15.72c.5,6.32,1.87,11.69,4.12,16.1,2.25,4.41,5.28,6.61,9.11,6.61,6.82,0,11.73-4.57,14.72-13.73,1.83-6.15,3.16-15.39,3.99-27.7.16-1.83.25-3.83.25-5.99,0-7.49-.83-15.14-2.5-22.96-3.83-19.13-9.82-34.27-17.97-45.42-1.17-1.66-3.33-4.41-6.49-8.24-3.16-3.83-5.53-6.82-7.11-8.98-1.58-2.16-3.12-5.03-4.62-8.61-1.5-3.58-2.25-7.11-2.25-10.61v-2.5c.66-7.32,3.58-13.56,8.73-18.72,5.15-5.15,11.06-7.74,17.72-7.74h1.75Z"/><path class="cls-1" d="M1094.19,618.93c-4.83,0-7.24-.91-7.24-2.75,0-.5-.04-1-.12-1.5-.09-.5-.12-1.91-.12-4.24-.17-2.83-.25-7.32-.25-13.48,0-2.83.04-7.24.12-13.23.08-5.99.12-10.56.12-13.73,0-6.49-.08-11.31-.25-14.47,0-5.32-.12-20.84-.37-46.54-.25-25.7-.54-45.21-.87-58.52v-.75c0-.66.04-3.28.12-7.86.08-4.57.12-8.11.12-10.61v-4.99l-.25-.25c0-1.83,1.25-2.75,3.74-2.75h1c.83,0,2.41.04,4.74.12,2.33.09,3.91.12,4.74.12h1c.66,0,1.04.09,1.12.25.08.17.21.83.38,2,.33,2,.5,5.74.5,11.23s.04,12.65.12,21.46c.08,8.82.21,16.64.37,23.46,0,3.33.04,8.4.12,15.22.08,6.82.12,11.9.12,15.22,0,8.15-.04,16.68-.12,25.58-.09,8.9-.17,16.26-.25,22.09-.09,5.83-.12,9.23-.12,10.23v.5c0,1.83.04,5.12.12,9.86.08,4.74.12,8.28.12,10.61,0,4.33-.09,7.32-.25,8.98l3.49.25c3,.17,6.99.42,11.98.75h2c1.5,0,2.25.92,2.25,2.75,0,3.16.08,5.41.25,6.74,0,.5.04,1.42.12,2.75.08,1.33.12,2.33.12,3v1.25c0,1-.34,1.5-1,1.5h-1.5c-2.33,0-6.91-.04-13.73-.12-6.82-.08-10.98-.12-12.48-.12Z"/><path class="cls-1" d="M1166.32,425.03c9.48,0,16.88.09,22.21.25,1.66,0,2.5,1.33,2.5,3.99v.75c0,.83.04,2.16.12,3.99.08,1.83.12,2.99.12,3.49,0,1.67-.17,2.66-.5,2.99-.83.5-1.5.75-2,.75-.34,0-.96-.04-1.87-.12-.92-.08-1.71-.12-2.37-.12h-3.74c-2.83,0-5.58-.08-8.24-.25h-3.74c-.33,0-5.16.17-14.47.5-2.16.17-3.24,1-3.24,2.5v1.25c0,.67.04,1.62.12,2.87.08,1.25.12,2.21.12,2.87v22.96c0,3.16-.04,7.99-.12,14.47-.09,6.49-.12,11.4-.12,14.72v2.5c0,3.33.25,5.41.75,6.24.33.5.83.75,1.5.75h2c10.98,0,18.97.25,23.96.75.83,0,1.25.75,1.25,2.25v.25c0,.5.12,2,.37,4.49.25,2.5.37,4.33.37,5.49,0,1.67-.17,2.5-.5,2.5-1.83.5-4.33.75-7.49.75-1.33,0-3.99-.08-7.99-.25-3.99-.16-6.74-.25-8.24-.25h-4.74c-.67,0-1,.67-1,2v2.25c-.34,5.49-.5,13.73-.5,24.71,0,9.32.16,23.79.5,43.42.16,2.5.75,3.74,1.75,3.74h31.19c2,0,3.24.17,3.74.5.83.83,1.25,2.5,1.25,4.99,0,.83-.09,2.08-.25,3.74-.17,1.67-.25,2.75-.25,3.24,0,1.17-.21,1.92-.62,2.25-.42.33-1.37.5-2.87.5h-42.67c-2,0-3.49-.09-4.49-.25-1.67-.33-2.58-.75-2.75-1.25v-31.94c0-29.78.08-52.99.25-69.63v-47.42c0-5.15.04-11.14.12-17.97.08-6.82.16-12.1.25-15.85.08-3.74.12-6.53.12-8.36,0-1.33.66-2,2-2h1.5c1.66.17,4.41.25,8.24.25,1.66,0,4.24-.04,7.74-.12,3.49-.08,6.24-.12,8.24-.12h2.5Z"/><path class="cls-1" d="M1264.89,536.08c-.5,0-1.33.09-2.5.25-1.17.17-1.92.25-2.25.25-.5,0-.75-1.41-.75-4.24v-2.25c0-4.66.16-7.74.5-9.23.16-1.16,2.16-1.75,5.99-1.75,1,0,2.58.04,4.74.12,2.16.09,3.66.12,4.49.12h2.25c3.83,0,6.24.5,7.24,1.5.16.17.5,4.66,1,13.48.33,6.16.5,15.64.5,28.45v26.7c0,8.82.16,16.14.5,21.96,0,.5.04,1.5.12,3,.08,1.5.12,2.5.12,3,0,2.83-.92,4.24-2.75,4.24h-9.48c-2.5,0-3.74-1.67-3.74-4.99v-2.5c0-2.5-.17-3.74-.5-3.74h-.25c-.17,0-.62.34-1.37,1-.75.67-1.71,1.46-2.87,2.37-1.17.92-2.16,1.62-2.99,2.12-4.66,2.33-10.15,3.49-16.47,3.49-23.63,0-39.52-16.8-47.67-50.41-3.16-14.64-4.74-28.53-4.74-41.68,0-6.99.41-13.14,1.25-18.47,2.16-17.8,6.45-32.36,12.85-43.67,6.4-11.31,15.76-21.21,28.08-29.7,2.66-2,8.4-4.87,17.22-8.61,8.82-3.74,15.47-5.61,19.96-5.61,2.99,0,4.49,1.08,4.49,3.24,0,.67.08,1.75.25,3.24.16,1.5.25,2.66.25,3.49,0,2.16-.33,3.83-1,4.99-.17.5-.46.83-.87,1-.42.17-1,.25-1.75.25s-1.37.09-1.87.25c-5.66,1.67-11.73,4.16-18.22,7.49-6.49,3.33-11.48,6.57-14.97,9.73-19.63,17.47-29.45,42.51-29.45,75.12,0,7.65.58,15.43,1.75,23.33,1.16,7.9,3.03,15.68,5.62,23.33,2.58,7.65,6.28,13.89,11.11,18.72,4.82,4.83,10.4,7.24,16.72,7.24,6.99,0,13.1-1.95,18.34-5.86,5.24-3.91,7.86-9.44,7.86-16.59,0-13.48-.42-28.12-1.25-43.92,0-.5-.33-.75-1-.75-.17,0-.75.09-1.75.25-1,.17-1.92.25-2.75.25Z"/><path class="cls-1" d="M1347.74,467.95c3.16,12.15,6.15,24.42,8.98,36.81,2.83,12.4,6.2,27.54,10.11,45.42,3.91,17.89,6.61,30.16,8.11,36.81.83,3.83,2.04,8.86,3.62,15.1,1.58,6.24,2.53,10.27,2.87,12.1.16.83.25,1.5.25,2,0,1-.67,1.67-2,2-2,.67-4.83,1-8.49,1-2.16,0-3.58-.08-4.24-.25-.67-.16-1.21-.46-1.62-.87-.42-.41-.71-.75-.87-1-.17-.25-.33-.83-.5-1.75-.17-.91-.25-1.46-.25-1.62-1.83-6.49-3.16-12.48-3.99-17.97l-.5-3-5.99-29.95c-.83-4.82-1.58-7.4-2.25-7.74-.33-.33-1.17-.5-2.5-.5-2,0-3.41.09-4.24.25l-3.99.25c-8.98.5-14.23.75-15.72.75-.67,0-1.42-.04-2.25-.12-.83-.08-1.42-.12-1.75-.12-.5.5-.75,1-.75,1.5l-.75,5.49-2.5,15.97c-.17,1.5-.79,6.12-1.87,13.85-1.08,7.74-1.79,13.35-2.12,16.84-.33,3.16-.75,5.41-1.25,6.74-.5,1.17-1.75,1.92-3.74,2.25h-4.74c-3,0-4.83-.16-5.49-.5-.67-.33-1-.91-1-1.75v-1.5c.33-4.16,1.37-11.23,3.12-21.21s2.7-15.72,2.87-17.22c6.65-47.08,12.81-84.6,18.47-112.55l.75-3.99c.66-3.49,1.83-9.15,3.49-16.97,1.66-7.82,2.75-13.31,3.24-16.47.33-2.99,1.75-4.82,4.24-5.49h.25c1.33,0,2.33,1.58,3,4.74,1,4.66,2.99,11.94,5.99,21.84,2.99,9.9,4.99,16.85,5.99,20.84ZM1345.25,523.1c-3.33-19.3-7.32-35.94-11.98-49.91-1.33,5.16-4.16,21.8-8.48,49.91,0,.17-.29,2.16-.87,5.99-.58,3.83-.87,6.49-.87,7.99v1c0,1,.33,1.5,1,1.5h19.22c2.66-.16,4.32-.58,4.99-1.25v-.25c0-.5-.17-1.54-.5-3.12-.33-1.58-.71-3.33-1.12-5.24-.42-1.91-.71-3.2-.87-3.87l-.5-2.75Z"/><path class="cls-1" d="M1445.32,426.02c0,.33.04,1.08.12,2.25.08,1.17.12,2.08.12,2.75,0,2.33-.25,4.33-.75,5.99-.17,1-.92,1.83-2.25,2.5-7.82,3.33-15.31,8.82-22.46,16.47-9.65,10.15-16.72,21.96-21.21,35.44-3.16,9.48-4.74,18.8-4.74,27.95v1c.33,20.8,3.99,37.43,10.98,49.91,3.83,6.82,8.82,13.31,14.97,19.46,6.15,6.16,12.39,9.98,18.72,11.48,2.16.5,3.66,1.75,4.49,3.74.83,1.67,1.25,5.08,1.25,10.23v.5c0,2.5-1.25,3.74-3.74,3.74-8.82-.17-17.55-3.33-26.2-9.48-9.98-6.82-18.22-16.88-24.71-30.2-4.66-10.15-7.99-20.46-9.98-30.95-1.33-8.32-2-17.63-2-27.95,0-4.16.08-7.07.25-8.73,1-14.81,4.74-28.45,11.23-40.93,7.15-13.64,16.55-25.04,28.2-34.19.16-.16,1.5-1.21,3.99-3.12,2.5-1.91,4.74-3.53,6.74-4.87,2-1.33,4.32-2.66,6.99-3.99,2.66-1.33,4.82-2,6.49-2,2,0,3.08.09,3.24.25.16.33.25,1.25.25,2.75Z"/><path class="cls-1" d="M1453.8,427.77c.66-1.33,1.5-2,2.5-2,.16,0,.75.09,1.75.25,1,.17,1.83.25,2.5.25s1.83-.08,3.49-.25c1.66-.16,2.91-.25,3.74-.25,1.16,0,2.25.17,3.24.5,1,.5,1.58,1.17,1.75,2,.16,1,2.16,5.66,5.99,13.98,2.5,5.66,5.24,11.4,8.24,17.22,1,2.16,1.75,3.24,2.25,3.24.33-.33,1.16-1.33,2.5-2.99.66-1,4.91-8.98,12.73-23.96l1.25-2.5c.16-.5.62-1.58,1.37-3.24.75-1.66,1.29-2.75,1.62-3.24.66-1.16,1.83-1.75,3.49-1.75h1.25c4.99,0,8.9.09,11.73.25,1.66.17,2.5.5,2.5,1,0,.17-.09.37-.25.62-.17.25-.33.5-.5.75-.17.25-.33.54-.5.87-2.33,4.66-3.99,8.07-4.99,10.23-1.5,2.83-3.49,6.7-5.99,11.6-2.5,4.91-4.78,9.28-6.86,13.1-2.08,3.83-4.2,7.4-6.36,10.73-3,3.99-4.49,7.4-4.49,10.23-.17.83-.25,2.33-.25,4.49v12.98c0,33.44.41,64.3,1.25,92.59,0,1,.04,3.37.12,7.11.08,3.74.21,6.12.37,7.11v3.74c0,2.66-.17,4.66-.5,5.99-.5,1.33-3.91,2-10.23,2-1.17,0-2-.09-2.5-.25h-2c-1.17,0-1.91-.21-2.25-.62-.33-.41-.58-1.37-.75-2.87v-13.98c.5-15.3.91-36.68,1.25-64.14,0-1.33.04-3.33.12-5.99.08-2.66.12-4.66.12-5.99,0-18.13-.67-33.69-2-46.67-2-4.49-6.74-13.73-14.22-27.7-.5-1-1.87-3.37-4.12-7.11s-4.08-7.03-5.49-9.86c-1.42-2.83-2.37-5.32-2.87-7.49Z"/></svg>